<svg width="151" height="44" viewBox="0 0 151 44" fill="none" xmlns="http://www.w3.org/2000/svg">
<path d="M149.617 38.4515C149.617 40.7678 147.701 42.644 145.332 42.644H5.12587C2.75797 42.644 0.835938 40.7678 0.835938 38.4515V5.018C0.835938 2.70284 2.75797 0.820068 5.12587 0.820068H145.331C147.701 0.820068 149.616 2.70284 149.616 5.018L149.617 38.4515Z" fill="white"/>
<path d="M144.88 0.870689C147.46 0.870689 149.56 2.91758 149.56 5.43306V38.0311C149.56 40.5466 147.46 42.5935 144.88 42.5935H5.57232C2.99233 42.5935 0.892963 40.5466 0.892963 38.0311V5.43306C0.892963 2.91758 2.99233 0.870689 5.57232 0.870689H144.88ZM144.88 4.95911e-05H5.57232C2.50894 4.95911e-05 0 2.44626 0 5.43306V38.0311C0 41.0179 2.50894 43.4641 5.57232 43.4641H144.88C147.944 43.4641 150.453 41.0179 150.453 38.0311V5.43306C150.453 2.44626 147.944 4.95911e-05 144.88 4.95911e-05Z" fill="#A6A6A6"/>
<path d="M33.5768 21.4973C33.5445 17.9952 36.5179 16.2914 36.6538 16.2121C34.9699 13.8183 32.3598 13.4912 31.4426 13.4651C29.2504 13.2402 27.124 14.7441 26.0074 14.7441C24.8684 14.7441 23.1488 13.4869 21.2954 13.5238C18.9105 13.5597 16.6793 14.906 15.4556 16.9966C12.9302 21.2593 14.8137 27.5236 17.2332 30.9692C18.4435 32.6567 19.8577 34.5409 21.7089 34.4746C23.5199 34.4018 24.1964 33.3489 26.3818 33.3489C28.5472 33.3489 29.1825 34.4746 31.0704 34.4322C33.014 34.4018 34.2377 32.7371 35.4056 31.0344C36.8043 29.1002 37.366 27.1954 37.3883 27.0976C37.3426 27.0824 33.6136 25.6948 33.5768 21.4973Z" fill="url(#paint0_linear_2933_1205)"/>
<path d="M30.0105 11.1985C30.9845 10.0108 31.651 8.39505 31.466 6.75537C30.0562 6.81622 28.2931 7.70615 27.2778 8.86772C26.3796 9.8913 25.5772 11.569 25.7845 13.1468C27.3681 13.2619 28.9941 12.3677 30.0105 11.1985Z" fill="url(#paint1_linear_2933_1205)"/>
<path d="M54.6644 10.8759C54.6644 12.1548 54.271 13.1175 53.4853 13.7641C52.7576 14.3606 51.7234 14.6594 50.3838 14.6594C49.7195 14.6594 49.1512 14.6312 48.6753 14.5747V7.58674C49.296 7.48895 49.9647 7.43896 50.6869 7.43896C51.963 7.43896 52.9247 7.70953 53.5734 8.25066C54.3 8.86241 54.6644 9.73713 54.6644 10.8759ZM53.4329 10.9074C53.4329 10.0783 53.2078 9.44266 52.7576 8.99932C52.3073 8.55708 51.6498 8.33541 50.7839 8.33541C50.4161 8.33541 50.1029 8.35932 49.8433 8.4093V13.7217C49.987 13.7434 50.25 13.7532 50.6323 13.7532C51.5261 13.7532 52.2159 13.5109 52.7019 13.0263C53.1878 12.5416 53.4329 11.8354 53.4329 10.9074Z" fill="url(#paint2_linear_2933_1205)"/>
<path d="M61.1941 11.9927C61.1941 12.7805 60.9634 13.4259 60.502 13.9323C60.0183 14.4528 59.3775 14.7124 58.5773 14.7124C57.8061 14.7124 57.192 14.4636 56.734 13.9638C56.2771 13.465 56.0486 12.8359 56.0486 12.0774C56.0486 11.2842 56.2837 10.6333 56.7563 10.1281C57.2288 9.62281 57.864 9.36963 58.6642 9.36963C59.4354 9.36963 60.0551 9.61846 60.5243 10.1172C60.9701 10.6018 61.1941 11.2277 61.1941 11.9927ZM59.9826 12.0296C59.9826 11.557 59.8779 11.1517 59.6695 10.8137C59.4243 10.4052 59.0755 10.2009 58.6219 10.2009C58.1527 10.2009 57.7961 10.4052 57.5509 10.8137C57.3414 11.1517 57.2377 11.5635 57.2377 12.0503C57.2377 12.5229 57.3425 12.9282 57.5509 13.2662C57.8039 13.6747 58.156 13.879 58.6107 13.879C59.0565 13.879 59.4065 13.6715 59.6583 13.2553C59.8745 12.9109 59.9826 12.5023 59.9826 12.0296Z" fill="url(#paint3_linear_2933_1205)"/>
<path d="M69.9494 9.47412L68.3056 14.5964H67.2357L66.5548 12.3721C66.382 11.8168 66.2416 11.2648 66.1324 10.7172H66.1112C66.0098 11.2801 65.8694 11.831 65.6888 12.3721L64.9655 14.5964H63.8834L62.3376 9.47412H63.5379L64.1319 11.9092C64.2757 12.4851 64.3938 13.0338 64.4886 13.5532H64.5097C64.5967 13.1251 64.7404 12.5796 64.9433 11.9201L65.6888 9.47521H66.6406L67.355 11.8679C67.5277 12.4514 67.6681 13.0132 67.7762 13.5543H67.8085C67.8877 13.0273 68.0069 12.4655 68.1652 11.8679L68.8026 9.47521H69.9494V9.47412Z" fill="url(#paint4_linear_2933_1205)"/>
<path d="M76.0041 14.5963H74.8362V11.6624C74.8362 10.7584 74.484 10.3064 73.7774 10.3064C73.4308 10.3064 73.1511 10.4302 72.9338 10.6791C72.7187 10.9279 72.6095 11.2213 72.6095 11.557V14.5952H71.4415V10.9377C71.4415 10.4878 71.427 9.99994 71.3992 9.47186H72.4256L72.4802 10.2727H72.5125C72.6485 10.0238 72.8513 9.81848 73.1177 9.6544C73.4342 9.46316 73.7886 9.36646 74.1764 9.36646C74.6668 9.36646 75.0747 9.52075 75.399 9.83043C75.8024 10.2097 76.0041 10.7758 76.0041 11.5277V14.5963Z" fill="url(#paint5_linear_2933_1205)"/>
<path d="M79.2249 14.5963H78.0581V7.12378H79.2249V14.5963Z" fill="url(#paint6_linear_2933_1205)"/>
<path d="M86.1013 11.9927C86.1013 12.7805 85.8706 13.4259 85.4092 13.9323C84.9255 14.4528 84.2836 14.7124 83.4845 14.7124C82.7122 14.7124 82.0981 14.4636 81.6412 13.9638C81.1843 13.465 80.9558 12.8359 80.9558 12.0774C80.9558 11.2842 81.191 10.6333 81.6635 10.1281C82.136 9.62281 82.7713 9.36963 83.5703 9.36963C84.3427 9.36963 84.9612 9.61846 85.4315 10.1172C85.8773 10.6018 86.1013 11.2277 86.1013 11.9927ZM84.8888 12.0296C84.8888 11.557 84.784 11.1517 84.5756 10.8137C84.3315 10.4052 83.9816 10.2009 83.5291 10.2009C83.0588 10.2009 82.7022 10.4052 82.4581 10.8137C82.2486 11.1517 82.1449 11.5635 82.1449 12.0503C82.1449 12.5229 82.2497 12.9282 82.4581 13.2662C82.7111 13.6747 83.0633 13.879 83.518 13.879C83.9638 13.879 84.3126 13.6715 84.5644 13.2553C84.7818 12.9109 84.8888 12.5023 84.8888 12.0296Z" fill="url(#paint7_linear_2933_1205)"/>
<path d="M91.7539 14.5962H90.7052L90.6182 14.0062H90.5859C90.2271 14.4767 89.7155 14.7124 89.0513 14.7124C88.5554 14.7124 88.1542 14.5571 87.8522 14.2485C87.578 13.9681 87.4409 13.6193 87.4409 13.2053C87.4409 12.5794 87.7084 12.1024 88.2467 11.7721C88.7838 11.4418 89.5395 11.2799 90.5124 11.2875V11.1919C90.5124 10.5171 90.1491 10.1802 89.4213 10.1802C88.9031 10.1802 88.4462 10.3074 88.0516 10.5595L87.8143 9.81188C88.3024 9.51741 88.9053 9.36963 89.6163 9.36963C90.9894 9.36963 91.6781 10.0759 91.6781 11.4885V13.3748C91.6781 13.8866 91.7037 14.2941 91.7539 14.5962ZM90.5413 12.8359V12.0459C89.253 12.0242 88.6089 12.3686 88.6089 13.0782C88.6089 13.3455 88.6824 13.5454 88.8329 13.6791C88.9833 13.8127 89.175 13.879 89.4035 13.879C89.6598 13.879 89.8994 13.7997 90.1179 13.6421C90.3374 13.4835 90.4723 13.2825 90.5224 13.0358C90.5347 12.9804 90.5413 12.913 90.5413 12.8359Z" fill="url(#paint8_linear_2933_1205)"/>
<path d="M98.3903 14.5963H97.3539L97.2993 13.7738H97.2669C96.9359 14.3997 96.372 14.7126 95.5796 14.7126C94.9466 14.7126 94.4195 14.4703 94.0016 13.9857C93.5836 13.501 93.3752 12.8719 93.3752 12.0993C93.3752 11.2703 93.6015 10.5987 94.0562 10.0859C94.4964 9.60775 95.0358 9.3687 95.6777 9.3687C96.3832 9.3687 96.8769 9.60014 97.1577 10.0641H97.18V7.12378H98.3491V13.2164C98.3491 13.7151 98.3625 14.1747 98.3903 14.5963ZM97.18 12.4362V11.5821C97.18 11.4343 97.1689 11.3148 97.1477 11.2235C97.0819 10.9497 96.9404 10.7193 96.7253 10.5335C96.508 10.3477 96.2461 10.2543 95.9441 10.2543C95.5083 10.2543 95.1673 10.4227 94.9165 10.7606C94.668 11.0986 94.5421 11.5299 94.5421 12.057C94.5421 12.5633 94.6613 12.974 94.9009 13.2902C95.1539 13.6271 95.4949 13.7955 95.9218 13.7955C96.3052 13.7955 96.6116 13.6553 96.8446 13.3739C97.0697 13.1142 97.18 12.8013 97.18 12.4362Z" fill="url(#paint9_linear_2933_1205)"/>
<path d="M108.379 11.9927C108.379 12.7805 108.149 13.4259 107.687 13.9323C107.204 14.4528 106.564 14.7124 105.763 14.7124C104.993 14.7124 104.378 14.4636 103.919 13.9638C103.462 13.465 103.234 12.8359 103.234 12.0774C103.234 11.2842 103.469 10.6333 103.942 10.1281C104.414 9.62281 105.049 9.36963 105.851 9.36963C106.621 9.36963 107.241 9.61846 107.71 10.1172C108.155 10.6018 108.379 11.2277 108.379 11.9927ZM107.169 12.0296C107.169 11.557 107.064 11.1517 106.856 10.8137C106.61 10.4052 106.262 10.2009 105.807 10.2009C105.339 10.2009 104.982 10.4052 104.736 10.8137C104.527 11.1517 104.423 11.5635 104.423 12.0503C104.423 12.5229 104.528 12.9282 104.736 13.2662C104.989 13.6747 105.341 13.879 105.796 13.879C106.242 13.879 106.593 13.6715 106.845 13.2553C107.06 12.9109 107.169 12.5023 107.169 12.0296Z" fill="url(#paint10_linear_2933_1205)"/>
<path d="M114.659 14.5963H113.492V11.6624C113.492 10.7584 113.14 10.3064 112.433 10.3064C112.086 10.3064 111.806 10.4302 111.59 10.6791C111.374 10.9279 111.266 11.2213 111.266 11.557V14.5952H110.097V10.9377C110.097 10.4878 110.083 9.99994 110.055 9.47186H111.081L111.135 10.2727H111.168C111.305 10.0238 111.508 9.81848 111.773 9.6544C112.09 9.46316 112.444 9.36646 112.833 9.36646C113.322 9.36646 113.73 9.52075 114.054 9.83043C114.459 10.2097 114.659 10.7758 114.659 11.5277V14.5963Z" fill="url(#paint11_linear_2933_1205)"/>
<path d="M122.52 10.3271H121.234V12.8155C121.234 13.4479 121.462 13.7641 121.915 13.7641C122.124 13.7641 122.298 13.7467 122.435 13.7108L122.465 14.5747C122.234 14.6594 121.931 14.7018 121.558 14.7018C121.097 14.7018 120.738 14.5649 120.478 14.2911C120.217 14.0172 120.088 13.5565 120.088 12.91V10.3271H119.32V9.47416H120.088V8.53533L121.232 8.19849V9.47307H122.519V10.3271H122.52Z" fill="url(#paint12_linear_2933_1205)"/>
<path d="M128.703 14.5963H127.534V11.6842C127.534 10.7661 127.182 10.3064 126.476 10.3064C125.934 10.3064 125.564 10.5727 125.362 11.1051C125.327 11.217 125.307 11.3539 125.307 11.5147V14.5953H124.14V7.12378H125.307V10.2108H125.329C125.697 9.64904 126.224 9.3687 126.907 9.3687C127.391 9.3687 127.791 9.523 128.109 9.83268C128.504 10.2184 128.703 10.7921 128.703 11.5506V14.5963Z" fill="url(#paint13_linear_2933_1205)"/>
<path d="M135.081 11.793C135.081 11.9973 135.065 12.169 135.037 12.3091H131.535C131.55 12.8155 131.717 13.2012 132.042 13.4685C132.338 13.7076 132.72 13.8271 133.189 13.8271C133.707 13.8271 134.179 13.7467 134.605 13.5848L134.788 14.3759C134.29 14.5867 133.703 14.6921 133.025 14.6921C132.211 14.6921 131.57 14.4584 131.107 13.9912C130.641 13.524 130.41 12.897 130.41 12.1103C130.41 11.3377 130.625 10.6945 131.059 10.1816C131.511 9.63393 132.123 9.36011 132.895 9.36011C133.651 9.36011 134.225 9.63393 134.613 10.1816C134.926 10.6162 135.081 11.1541 135.081 11.793ZM133.966 11.4985C133.975 11.1606 133.898 10.8694 133.74 10.6238C133.537 10.3076 133.229 10.149 132.811 10.149C132.43 10.149 132.119 10.3033 131.881 10.613C131.687 10.8596 131.573 11.1541 131.535 11.4985H133.966Z" fill="url(#paint14_linear_2933_1205)"/>
<path d="M59.7854 34.2322H57.2544L55.8681 29.9847H51.0491L49.7285 34.2322H47.2644L52.0388 19.7717H54.9876L59.7854 34.2322ZM55.4501 28.2027L54.1964 24.4267C54.0637 24.041 53.8152 23.1326 53.4486 21.7026H53.404C53.258 22.3176 53.0228 23.226 52.6996 24.4267L51.4682 28.2027H55.4501Z" fill="url(#paint15_linear_2933_1205)"/>
<path d="M72.0634 28.8904C72.0634 30.6638 71.5719 32.0655 70.589 33.0945C69.7085 34.0105 68.6152 34.4679 67.3102 34.4679C65.9015 34.4679 64.8896 33.9746 64.2733 32.988H64.2287V38.4808H61.8527V27.2377C61.8527 26.1228 61.8226 24.9787 61.7646 23.8051H63.8543L63.9869 25.4578H64.0315C64.8238 24.2126 66.0264 23.5911 67.6401 23.5911C68.9017 23.5911 69.9548 24.0768 70.7974 25.0493C71.6421 26.0229 72.0634 27.3029 72.0634 28.8904ZM69.6428 28.9752C69.6428 27.9603 69.4087 27.1236 68.9384 26.4651C68.4247 25.7784 67.7348 25.435 66.87 25.435C66.2838 25.435 65.7511 25.6263 65.2752 26.0033C64.7982 26.3836 64.4862 26.8802 64.3402 27.4952C64.2666 27.7821 64.2298 28.0168 64.2298 28.2015V29.9401C64.2298 30.6985 64.4683 31.3385 64.9453 31.8612C65.4223 32.3838 66.042 32.6446 66.8042 32.6446C67.6992 32.6446 68.3957 32.3078 68.8939 31.6363C69.3931 30.9637 69.6428 30.077 69.6428 28.9752Z" fill="url(#paint16_linear_2933_1205)"/>
<path d="M84.3638 28.8904C84.3638 30.6638 83.8723 32.0655 82.8883 33.0945C82.0089 34.0105 80.9157 34.4679 79.6106 34.4679C78.2019 34.4679 77.19 33.9746 76.5748 32.988H76.5302V38.4808H74.1542V27.2377C74.1542 26.1228 74.1241 24.9787 74.0662 23.8051H76.1558L76.2884 25.4578H76.333C77.1242 24.2126 78.3268 23.5911 79.9416 23.5911C81.2021 23.5911 82.2552 24.0768 83.1 25.0493C83.9414 26.0229 84.3638 27.3029 84.3638 28.8904ZM81.9432 28.9752C81.9432 27.9603 81.708 27.1236 81.2377 26.4651C80.724 25.7784 80.0363 25.435 79.1704 25.435C78.5831 25.435 78.0515 25.6263 77.5745 26.0033C77.0975 26.3836 76.7866 26.8802 76.6406 27.4952C76.5681 27.7821 76.5302 28.0168 76.5302 28.2015V29.9401C76.5302 30.6985 76.7687 31.3385 77.2435 31.8612C77.7205 32.3828 78.3401 32.6446 79.1047 32.6446C79.9996 32.6446 80.6961 32.3078 81.1943 31.6363C81.6936 30.9637 81.9432 30.077 81.9432 28.9752Z" fill="url(#paint17_linear_2933_1205)"/>
<path d="M98.1163 30.177C98.1163 31.407 97.6783 32.4078 96.799 33.1804C95.8328 34.0247 94.4876 34.4463 92.7591 34.4463C91.1632 34.4463 89.8838 34.1464 88.9153 33.5455L89.4658 31.6146C90.509 32.2296 91.6535 32.5382 92.9006 32.5382C93.7955 32.5382 94.4921 32.3404 94.9925 31.9471C95.4906 31.5537 95.7391 31.0256 95.7391 30.3672C95.7391 29.7804 95.5341 29.286 95.1228 28.885C94.7138 28.4841 94.0307 28.1114 93.0767 27.7669C90.48 26.8227 89.1828 25.4394 89.1828 23.6204C89.1828 22.4317 89.6375 21.457 90.548 20.6986C91.4551 19.939 92.6655 19.5598 94.1789 19.5598C95.5285 19.5598 96.6497 19.7891 97.5446 20.2465L96.9506 22.1351C96.1147 21.6917 95.1697 21.4701 94.112 21.4701C93.2762 21.4701 92.6231 21.6711 92.155 22.071C91.7594 22.4284 91.561 22.8642 91.561 23.3803C91.561 23.9519 91.7873 24.4245 92.242 24.7961C92.6376 25.1395 93.3564 25.5111 94.3996 25.9121C95.6756 26.413 96.6129 26.9987 97.2158 27.6702C97.8165 28.3396 98.1163 29.1773 98.1163 30.177Z" fill="url(#paint18_linear_2933_1205)"/>
<path d="M105.972 25.5437H103.353V30.6061C103.353 31.8938 103.815 32.537 104.74 32.537C105.164 32.537 105.516 32.5012 105.795 32.4295L105.861 34.1887C105.393 34.3593 104.776 34.4451 104.013 34.4451C103.075 34.4451 102.341 34.1658 101.812 33.6084C101.285 33.0499 101.019 32.1133 101.019 30.7974V25.5415H99.4592V23.8029H101.019V21.8938L103.353 21.207V23.8029H105.972V25.5437Z" fill="url(#paint19_linear_2933_1205)"/>
<path d="M117.789 28.9327C117.789 30.5354 117.318 31.8513 116.38 32.8803C115.396 33.9397 114.09 34.4678 112.462 34.4678C110.893 34.4678 109.643 33.9604 108.711 32.9455C107.78 31.9306 107.314 30.6495 107.314 29.1055C107.314 27.4897 107.793 26.1662 108.755 25.1372C109.715 24.1071 111.01 23.592 112.638 23.592C114.207 23.592 115.47 24.0995 116.422 25.1155C117.334 26.101 117.789 27.3734 117.789 28.9327ZM115.324 29.0077C115.324 28.046 115.113 27.2213 114.686 26.5335C114.188 25.7011 113.476 25.2861 112.553 25.2861C111.598 25.2861 110.872 25.7022 110.374 26.5335C109.947 27.2224 109.737 28.0601 109.737 29.0511C109.737 30.0128 109.947 30.8375 110.374 31.5242C110.888 32.3566 111.606 32.7717 112.532 32.7717C113.439 32.7717 114.151 32.3479 114.665 31.5025C115.103 30.8016 115.324 29.9682 115.324 29.0077Z" fill="url(#paint20_linear_2933_1205)"/>
<path d="M125.512 25.8425C125.277 25.8001 125.026 25.7784 124.763 25.7784C123.927 25.7784 123.281 26.0859 122.826 26.702C122.43 27.2453 122.232 27.932 122.232 28.7611V34.2322H119.857L119.879 27.0888C119.879 25.8871 119.849 24.7928 119.79 23.8062H121.86L121.947 25.8012H122.013C122.263 25.1156 122.659 24.5636 123.201 24.1496C123.73 23.7769 124.302 23.5911 124.918 23.5911C125.137 23.5911 125.336 23.6063 125.512 23.6334V25.8425Z" fill="url(#paint21_linear_2933_1205)"/>
<path d="M136.138 28.5253C136.138 28.9404 136.111 29.2903 136.051 29.5761H128.923C128.951 30.6062 129.296 31.394 129.958 31.9373C130.558 32.423 131.335 32.6664 132.289 32.6664C133.344 32.6664 134.307 32.5023 135.173 32.1731L135.546 33.7812C134.534 34.2115 133.339 34.4256 131.96 34.4256C130.302 34.4256 129 33.9497 128.053 32.9989C127.108 32.0481 126.634 30.7714 126.634 29.1697C126.634 27.5974 127.074 26.288 127.956 25.2438C128.879 24.129 130.126 23.5715 131.695 23.5715C133.236 23.5715 134.403 24.129 135.196 25.2438C135.823 26.1294 136.138 27.2247 136.138 28.5253ZM133.873 27.9245C133.888 27.2377 133.733 26.6444 133.411 26.1435C133 25.4992 132.368 25.1775 131.518 25.1775C130.741 25.1775 130.109 25.4916 129.627 26.1218C129.231 26.6227 128.996 27.2236 128.923 27.9234H133.873V27.9245Z" fill="url(#paint22_linear_2933_1205)"/>
<defs>
<linearGradient id="paint0_linear_2933_1205" x1="14.2563" y1="6.75537" x2="42.7229" y2="14.2713" gradientUnits="userSpaceOnUse">
<stop offset="0.416667" stop-color="#0516B1"/>
</linearGradient>
<linearGradient id="paint1_linear_2933_1205" x1="14.2563" y1="6.75537" x2="42.7229" y2="14.2713" gradientUnits="userSpaceOnUse">
<stop offset="0.416667" stop-color="#0516B1"/>
</linearGradient>
<linearGradient id="paint2_linear_2933_1205" x1="48.6753" y1="7.43896" x2="56.0514" y2="9.3748" gradientUnits="userSpaceOnUse">
<stop offset="0.416667" stop-color="#0516B1"/>
</linearGradient>
<linearGradient id="paint3_linear_2933_1205" x1="56.0486" y1="9.36963" x2="62.2466" y2="11.2583" gradientUnits="userSpaceOnUse">
<stop offset="0.416667" stop-color="#0516B1"/>
</linearGradient>
<linearGradient id="paint4_linear_2933_1205" x1="62.3376" y1="9.47412" x2="70.5437" y2="13.3325" gradientUnits="userSpaceOnUse">
<stop offset="0.416667" stop-color="#0516B1"/>
</linearGradient>
<linearGradient id="paint5_linear_2933_1205" x1="71.3992" y1="9.36646" x2="77.0245" y2="10.9337" gradientUnits="userSpaceOnUse">
<stop offset="0.416667" stop-color="#0516B1"/>
</linearGradient>
<linearGradient id="paint6_linear_2933_1205" x1="78.0581" y1="7.12378" x2="79.5904" y2="7.19948" gradientUnits="userSpaceOnUse">
<stop offset="0.416667" stop-color="#0516B1"/>
</linearGradient>
<linearGradient id="paint7_linear_2933_1205" x1="80.9558" y1="9.36963" x2="87.1538" y2="11.2583" gradientUnits="userSpaceOnUse">
<stop offset="0.416667" stop-color="#0516B1"/>
</linearGradient>
<linearGradient id="paint8_linear_2933_1205" x1="87.4409" y1="9.36963" x2="92.7708" y2="10.731" gradientUnits="userSpaceOnUse">
<stop offset="0.416667" stop-color="#0516B1"/>
</linearGradient>
<linearGradient id="paint9_linear_2933_1205" x1="93.3752" y1="7.12378" x2="99.7006" y2="8.44639" gradientUnits="userSpaceOnUse">
<stop offset="0.416667" stop-color="#0516B1"/>
</linearGradient>
<linearGradient id="paint10_linear_2933_1205" x1="103.234" y1="9.36963" x2="109.432" y2="11.2583" gradientUnits="userSpaceOnUse">
<stop offset="0.416667" stop-color="#0516B1"/>
</linearGradient>
<linearGradient id="paint11_linear_2933_1205" x1="110.055" y1="9.36646" x2="115.68" y2="10.933" gradientUnits="userSpaceOnUse">
<stop offset="0.416667" stop-color="#0516B1"/>
</linearGradient>
<linearGradient id="paint12_linear_2933_1205" x1="119.32" y1="8.19849" x2="123.432" y2="8.83866" gradientUnits="userSpaceOnUse">
<stop offset="0.416667" stop-color="#0516B1"/>
</linearGradient>
<linearGradient id="paint13_linear_2933_1205" x1="124.14" y1="7.12378" x2="129.93" y2="8.2424" gradientUnits="userSpaceOnUse">
<stop offset="0.416667" stop-color="#0516B1"/>
</linearGradient>
<linearGradient id="paint14_linear_2933_1205" x1="130.41" y1="9.36011" x2="136.12" y2="10.9427" gradientUnits="userSpaceOnUse">
<stop offset="0.416667" stop-color="#0516B1"/>
</linearGradient>
<linearGradient id="paint15_linear_2933_1205" x1="47.2644" y1="19.7717" x2="62.5963" y2="23.9722" gradientUnits="userSpaceOnUse">
<stop offset="0.416667" stop-color="#0516B1"/>
</linearGradient>
<linearGradient id="paint16_linear_2933_1205" x1="61.7646" y1="23.5911" x2="74.7023" y2="26.4225" gradientUnits="userSpaceOnUse">
<stop offset="0.416667" stop-color="#0516B1"/>
</linearGradient>
<linearGradient id="paint17_linear_2933_1205" x1="74.0662" y1="23.5911" x2="87.0026" y2="26.4219" gradientUnits="userSpaceOnUse">
<stop offset="0.416667" stop-color="#0516B1"/>
</linearGradient>
<linearGradient id="paint18_linear_2933_1205" x1="88.9153" y1="19.5598" x2="100.581" y2="21.8413" gradientUnits="userSpaceOnUse">
<stop offset="0.416667" stop-color="#0516B1"/>
</linearGradient>
<linearGradient id="paint19_linear_2933_1205" x1="99.4592" y1="21.207" x2="107.83" y2="22.5101" gradientUnits="userSpaceOnUse">
<stop offset="0.416667" stop-color="#0516B1"/>
</linearGradient>
<linearGradient id="paint20_linear_2933_1205" x1="107.314" y1="23.592" x2="119.931" y2="27.4371" gradientUnits="userSpaceOnUse">
<stop offset="0.416667" stop-color="#0516B1"/>
</linearGradient>
<linearGradient id="paint21_linear_2933_1205" x1="119.79" y1="23.5911" x2="127.11" y2="24.8365" gradientUnits="userSpaceOnUse">
<stop offset="0.416667" stop-color="#0516B1"/>
</linearGradient>
<linearGradient id="paint22_linear_2933_1205" x1="126.634" y1="23.5715" x2="138.254" y2="26.7907" gradientUnits="userSpaceOnUse">
<stop offset="0.416667" stop-color="#0516B1"/>
</linearGradient>
</defs>
</svg>
