<svg width="151" height="44" viewBox="0 0 151 44" fill="none" xmlns="http://www.w3.org/2000/svg">
<path d="M145.428 43.4641H6.11968C3.0563 43.4641 0.547363 41.0179 0.547363 38.0311V5.43306C0.547363 2.44626 3.0563 5.14984e-05 6.11968 5.14984e-05H145.428C148.491 5.14984e-05 151 2.44626 151 5.43306V38.0311C151 41.0179 148.491 43.4641 145.428 43.4641Z" fill="white"/>
<path d="M145.428 0.870689C148.008 0.870689 150.107 2.91758 150.107 5.43306V38.0311C150.107 40.5466 148.008 42.5935 145.428 42.5935H6.11968C3.5397 42.5935 1.44033 40.5466 1.44033 38.0311V5.43306C1.44033 2.91758 3.5397 0.870689 6.11968 0.870689H145.428ZM145.428 5.14984e-05H6.11968C3.0563 5.14984e-05 0.547363 2.44626 0.547363 5.43306V38.0311C0.547363 41.0179 3.0563 43.4641 6.11968 43.4641H145.428C148.491 43.4641 151 41.0179 151 38.0311V5.43306C151 2.44626 148.491 5.14984e-05 145.428 5.14984e-05Z" fill="#A6A6A6"/>
<path d="M11.341 8.19171C11.0137 8.52584 10.8242 9.04605 10.8242 9.71974V33.7499C10.8242 34.4236 11.0137 34.9438 11.341 35.278L11.4218 35.3513L25.2328 21.891V21.5732L11.4218 8.11293L11.341 8.19171Z" fill="url(#paint0_linear_2945_439)"/>
<path d="M31.5031 26.3801L26.9045 21.8911V21.5733L31.5087 17.0842L31.6118 17.1427L37.0643 20.1675C38.6203 21.0259 38.6203 22.4385 37.0643 23.3023L31.6118 26.3217L31.5031 26.3801V26.3801Z" fill="url(#paint1_linear_2945_439)"/>
<path d="M30.776 27.1575L26.0688 22.5679L12.177 36.1138C12.6938 36.6435 13.5366 36.7073 14.4951 36.1776L30.776 27.1575" fill="url(#paint2_linear_2945_439)"/>
<path d="M30.776 16.3067L14.4951 7.28656C13.5366 6.76228 12.6938 6.82611 12.177 7.35583L26.0688 20.8962L30.776 16.3067Z" fill="url(#paint3_linear_2945_439)"/>
<path d="M53.3923 11.1308C53.3923 12.0381 53.1137 12.7648 52.5648 13.3067C51.9337 13.9492 51.1118 14.2725 50.1046 14.2725C49.142 14.2725 48.3201 13.9438 47.6458 13.2959C46.9702 12.6385 46.6331 11.8317 46.6331 10.866C46.6331 9.90025 46.9702 9.09345 47.6458 8.44149C48.3201 7.78817 49.142 7.45947 50.1046 7.45947C50.5838 7.45947 51.0408 7.55591 51.4768 7.7352C51.9114 7.91585 52.2653 8.16033 52.5216 8.46186L51.9393 9.03505C51.4921 8.52027 50.8833 8.26628 50.1046 8.26628C49.4025 8.26628 48.7937 8.50533 48.2769 8.98751C47.7656 9.47104 47.5093 10.0972 47.5093 10.866C47.5093 11.6347 47.7656 12.2663 48.2769 12.7499C48.7937 13.2266 49.4025 13.4711 50.1046 13.4711C50.8499 13.4711 51.4768 13.2266 51.9713 12.7444C52.2973 12.4252 52.4826 11.9852 52.5314 11.4229H50.1046V10.6378H53.3421C53.3811 10.8076 53.3923 10.9719 53.3923 11.1308V11.1308Z" fill="url(#paint4_linear_2945_439)" stroke="url(#paint5_linear_2945_439)" stroke-width="0.0445785" stroke-miterlimit="10"/>
<path d="M58.5285 8.4089H55.4874V10.4734H58.229V11.2585H55.4874V13.323H58.5285V14.1231H54.6265V7.60889H58.5285V8.4089Z" fill="url(#paint6_linear_2945_439)" stroke="url(#paint7_linear_2945_439)" stroke-width="0.0445785" stroke-miterlimit="10"/>
<path d="M62.1533 14.1231H61.2923V8.4089H59.427V7.60889H64.02V8.4089H62.1533V14.1231V14.1231Z" fill="url(#paint8_linear_2945_439)" stroke="url(#paint9_linear_2945_439)" stroke-width="0.0445785" stroke-miterlimit="10"/>
<path d="M67.344 14.1231V7.60889H68.2035V14.1231H67.344Z" fill="url(#paint10_linear_2945_439)" stroke="url(#paint11_linear_2945_439)" stroke-width="0.0445785" stroke-miterlimit="10"/>
<path d="M72.0136 14.1231H71.1596V8.4089H69.2874V7.60889H73.8859V8.4089H72.0136V14.1231Z" fill="url(#paint12_linear_2945_439)" stroke="url(#paint13_linear_2945_439)" stroke-width="0.0445785" stroke-miterlimit="10"/>
<path d="M82.5814 13.285C81.9225 13.9438 81.1061 14.2725 80.1324 14.2725C79.153 14.2725 78.3367 13.9438 77.6778 13.285C77.0202 12.6276 76.6929 11.8208 76.6929 10.866C76.6929 9.91112 77.0202 9.10432 77.6778 8.44692C78.3367 7.78817 79.153 7.45947 80.1324 7.45947C81.1006 7.45947 81.9169 7.78817 82.5758 8.45235C83.239 9.11518 83.5663 9.91655 83.5663 10.866C83.5663 11.8208 83.239 12.6276 82.5814 13.285ZM78.3144 12.739C78.8104 13.2266 79.4136 13.4711 80.1324 13.4711C80.8456 13.4711 81.4544 13.2266 81.9448 12.739C82.4393 12.2514 82.6901 11.6252 82.6901 10.866C82.6901 10.1067 82.4393 9.48055 81.9448 8.99294C81.4544 8.50533 80.8456 8.26084 80.1324 8.26084C79.4136 8.26084 78.8104 8.50533 78.3144 8.99294C77.8199 9.48055 77.5691 10.1067 77.5691 10.866C77.5691 11.6252 77.8199 12.2514 78.3144 12.739V12.739Z" fill="url(#paint14_linear_2945_439)" stroke="url(#paint15_linear_2945_439)" stroke-width="0.0445785" stroke-miterlimit="10"/>
<path d="M84.7742 14.1231V7.60889H85.819L89.0676 12.6752H89.1052L89.0676 11.4229V7.60889H89.9272V14.1231H89.03L85.6281 8.80686H85.5905L85.6281 10.0646V14.1231H84.7742V14.1231Z" fill="url(#paint16_linear_2945_439)" stroke="url(#paint17_linear_2945_439)" stroke-width="0.0445785" stroke-miterlimit="10"/>
<path d="M76.4813 23.6362C73.8637 23.6362 71.7253 25.5785 71.7253 28.2583C71.7253 30.9164 73.8637 32.8791 76.4813 32.8791C79.1044 32.8791 81.2428 30.9164 81.2428 28.2583C81.2428 25.5785 79.1044 23.6362 76.4813 23.6362ZM76.4813 31.059C75.045 31.059 73.8094 29.9032 73.8094 28.2583C73.8094 26.5918 75.045 25.4563 76.4813 25.4563C77.9175 25.4563 79.1588 26.5918 79.1588 28.2583C79.1588 29.9032 77.9175 31.059 76.4813 31.059V31.059ZM66.1042 23.6362C63.4811 23.6362 61.3483 25.5785 61.3483 28.2583C61.3483 30.9164 63.4811 32.8791 66.1042 32.8791C68.726 32.8791 70.8602 30.9164 70.8602 28.2583C70.8602 25.5785 68.726 23.6362 66.1042 23.6362ZM66.1042 31.059C64.6666 31.059 63.4267 29.9032 63.4267 28.2583C63.4267 26.5918 64.6666 25.4563 66.1042 25.4563C67.5405 25.4563 68.7762 26.5918 68.7762 28.2583C68.7762 29.9032 67.5405 31.059 66.1042 31.059ZM53.756 25.0529V27.0169H58.5663C58.4256 28.1144 58.0495 28.9212 57.4727 29.4835C56.7706 30.1626 55.677 30.9164 53.756 30.9164C50.7957 30.9164 48.4776 28.587 48.4776 25.7007C48.4776 22.8145 50.7957 20.4851 53.756 20.4851C55.3566 20.4851 56.5213 21.0949 57.3808 21.8854L58.8003 20.5014C57.5981 19.3822 55.9988 18.5224 53.756 18.5224C49.6966 18.5224 46.2849 21.7428 46.2849 25.7007C46.2849 29.6587 49.6966 32.8791 53.756 32.8791C55.9501 32.8791 57.5981 32.1782 58.8937 30.8635C60.2213 29.569 60.635 27.749 60.635 26.2794C60.635 25.823 60.596 25.4033 60.5264 25.0529H53.756ZM104.25 26.5755C103.858 25.5418 102.65 23.6362 100.19 23.6362C97.7522 23.6362 95.7225 25.5092 95.7225 28.2583C95.7225 30.8472 97.7313 32.8791 100.424 32.8791C102.602 32.8791 103.858 31.5847 104.375 30.8309L102.759 29.7809C102.22 30.5497 101.486 31.059 100.424 31.059C99.3696 31.059 98.6131 30.5877 98.1283 29.6587L104.468 27.1011L104.25 26.5755V26.5755ZM97.7856 28.1144C97.7313 26.3323 99.2052 25.4196 100.261 25.4196C101.089 25.4196 101.791 25.823 102.025 26.4002L97.7856 28.1144V28.1144ZM92.6326 32.5979H94.7167V19.0154H92.6326V32.5979ZM89.2196 24.6658H89.1499C88.6819 24.1252 87.7889 23.6362 86.6577 23.6362C84.2839 23.6362 82.1135 25.6681 82.1135 28.2733C82.1135 30.8635 84.2839 32.8791 86.6577 32.8791C87.7889 32.8791 88.6819 32.3861 89.1499 31.8292H89.2196V32.492C89.2196 34.2591 88.2514 35.2085 86.6898 35.2085C85.4165 35.2085 84.6266 34.3121 84.3006 33.5582L82.4882 34.2958C83.0106 35.5209 84.394 37.0286 86.6898 37.0286C89.1332 37.0286 91.195 35.6268 91.195 32.2163V23.9174H89.2196V24.6658V24.6658ZM86.836 31.059C85.3998 31.059 84.1975 29.8869 84.1975 28.2733C84.1975 26.6447 85.3998 25.4563 86.836 25.4563C88.2514 25.4563 89.3673 26.6447 89.3673 28.2733C89.3673 29.8869 88.2514 31.059 86.836 31.059V31.059ZM114.007 19.0154H109.022V32.5979H111.101V27.4515H114.007C116.315 27.4515 118.579 25.823 118.579 23.2328C118.579 20.644 116.309 19.0154 114.007 19.0154V19.0154ZM114.061 25.5622H111.101V20.9048H114.061C115.613 20.9048 116.499 22.1611 116.499 23.2328C116.499 24.2841 115.613 25.5622 114.061 25.5622ZM126.909 23.6104C125.408 23.6104 123.846 24.2569 123.204 25.6899L125.048 26.4437C125.445 25.6899 126.175 25.4454 126.947 25.4454C128.025 25.4454 129.119 26.077 129.135 27.1921V27.3347C128.759 27.1228 127.954 26.8091 126.964 26.8091C124.977 26.8091 122.953 27.8753 122.953 29.8651C122.953 31.6852 124.58 32.8574 126.409 32.8574C127.808 32.8574 128.58 32.2421 129.064 31.5263H129.135V32.5762H131.143V27.366C131.143 24.9578 129.298 23.6104 126.909 23.6104ZM126.659 31.0536C125.979 31.0536 125.031 30.7249 125.031 29.9032C125.031 28.8519 126.213 28.4485 127.235 28.4485C128.151 28.4485 128.58 28.6454 129.135 28.9049C128.972 30.1626 127.862 31.0536 126.659 31.0536V31.0536ZM138.457 23.9079L136.067 29.7959H135.996L133.526 23.9079H131.285L134.996 32.1361L132.879 36.7148H135.05L140.769 23.9079H138.457V23.9079ZM119.721 32.5979H121.805V19.0154H119.721V32.5979Z" fill="url(#paint18_linear_2945_439)"/>
<defs>
<linearGradient id="paint0_linear_2945_439" x1="10.8242" y1="35.3513" x2="29.2749" y2="32.2632" gradientUnits="userSpaceOnUse">
<stop offset="0.416667" stop-color="#0516B1"/>
</linearGradient>
<linearGradient id="paint1_linear_2945_439" x1="26.9045" y1="26.3801" x2="39.8857" y2="21.3755" gradientUnits="userSpaceOnUse">
<stop offset="0.416667" stop-color="#0516B1"/>
</linearGradient>
<linearGradient id="paint2_linear_2945_439" x1="12.177" y1="36.5444" x2="32.9739" y2="27.7879" gradientUnits="userSpaceOnUse">
<stop offset="0.416667" stop-color="#0516B1"/>
</linearGradient>
<linearGradient id="paint3_linear_2945_439" x1="12.177" y1="20.8962" x2="32.9718" y2="12.1376" gradientUnits="userSpaceOnUse">
<stop offset="0.416667" stop-color="#0516B1"/>
</linearGradient>
<linearGradient id="paint4_linear_2945_439" x1="46.6331" y1="7.45947" x2="54.7328" y2="10.0021" gradientUnits="userSpaceOnUse">
<stop offset="0.416667" stop-color="#0516B1"/>
</linearGradient>
<linearGradient id="paint5_linear_2945_439" x1="46.6331" y1="7.45947" x2="54.7328" y2="10.0021" gradientUnits="userSpaceOnUse">
<stop offset="0.416667" stop-color="#0516B1"/>
</linearGradient>
<linearGradient id="paint6_linear_2945_439" x1="54.6265" y1="7.60889" x2="59.585" y2="8.54867" gradientUnits="userSpaceOnUse">
<stop offset="0.416667" stop-color="#0516B1"/>
</linearGradient>
<linearGradient id="paint7_linear_2945_439" x1="54.6265" y1="7.60889" x2="59.585" y2="8.54867" gradientUnits="userSpaceOnUse">
<stop offset="0.416667" stop-color="#0516B1"/>
</linearGradient>
<linearGradient id="paint8_linear_2945_439" x1="59.427" y1="7.60889" x2="65.1866" y2="8.89379" gradientUnits="userSpaceOnUse">
<stop offset="0.416667" stop-color="#0516B1"/>
</linearGradient>
<linearGradient id="paint9_linear_2945_439" x1="59.427" y1="7.60889" x2="65.1866" y2="8.89379" gradientUnits="userSpaceOnUse">
<stop offset="0.416667" stop-color="#0516B1"/>
</linearGradient>
<linearGradient id="paint10_linear_2945_439" x1="67.344" y1="7.60889" x2="68.4735" y2="7.65604" gradientUnits="userSpaceOnUse">
<stop offset="0.416667" stop-color="#0516B1"/>
</linearGradient>
<linearGradient id="paint11_linear_2945_439" x1="67.344" y1="7.60889" x2="68.4735" y2="7.65604" gradientUnits="userSpaceOnUse">
<stop offset="0.416667" stop-color="#0516B1"/>
</linearGradient>
<linearGradient id="paint12_linear_2945_439" x1="69.2874" y1="7.60889" x2="75.0532" y2="8.89676" gradientUnits="userSpaceOnUse">
<stop offset="0.416667" stop-color="#0516B1"/>
</linearGradient>
<linearGradient id="paint13_linear_2945_439" x1="69.2874" y1="7.60889" x2="75.0532" y2="8.89676" gradientUnits="userSpaceOnUse">
<stop offset="0.416667" stop-color="#0516B1"/>
</linearGradient>
<linearGradient id="paint14_linear_2945_439" x1="76.6929" y1="7.45947" x2="84.9044" y2="10.0807" gradientUnits="userSpaceOnUse">
<stop offset="0.416667" stop-color="#0516B1"/>
</linearGradient>
<linearGradient id="paint15_linear_2945_439" x1="76.6929" y1="7.45947" x2="84.9044" y2="10.0807" gradientUnits="userSpaceOnUse">
<stop offset="0.416667" stop-color="#0516B1"/>
</linearGradient>
<linearGradient id="paint16_linear_2945_439" x1="84.7742" y1="7.60889" x2="91.1577" y2="9.20663" gradientUnits="userSpaceOnUse">
<stop offset="0.416667" stop-color="#0516B1"/>
</linearGradient>
<linearGradient id="paint17_linear_2945_439" x1="84.7742" y1="7.60889" x2="91.1577" y2="9.20663" gradientUnits="userSpaceOnUse">
<stop offset="0.416667" stop-color="#0516B1"/>
</linearGradient>
<linearGradient id="paint18_linear_2945_439" x1="46.2849" y1="37.0286" x2="80.7429" y2="-18.6357" gradientUnits="userSpaceOnUse">
<stop offset="0.416667" stop-color="#0516B1"/>
</linearGradient>
</defs>
</svg>
