<svg width="20" height="23" viewBox="0 0 20 23" fill="none" xmlns="http://www.w3.org/2000/svg">
<path fill-rule="evenodd" clip-rule="evenodd" d="M9.85938 8.53129C9.85938 6.75393 11.3002 5.31348 13.0776 5.31348C14.8549 5.31348 16.2954 6.75393 16.2954 8.53129C16.2954 10.0841 15.2103 11.3752 13.751 11.6746C13.0962 10.2714 11.6557 9.31729 9.99056 9.31729H9.95292C9.89679 9.05536 9.85938 8.79322 9.85938 8.53129Z" fill="#003C71"/>
<path d="M4.62109 3.21796C4.62109 1.4406 6.06169 0 7.83905 0C9.61642 0 11.057 1.4406 11.057 3.21796C11.057 4.99532 9.61642 6.43592 7.83905 6.43592C6.06169 6.43592 4.62109 4.99532 4.62109 3.21796Z" fill="#007953"/>
<path fill-rule="evenodd" clip-rule="evenodd" d="M6.77268 13.4704C6.77268 11.693 8.21328 10.2524 9.99065 10.2524C11.768 10.2524 13.2086 11.693 13.2086 13.4704C13.2086 15.2478 11.768 16.6884 9.99065 16.6884C8.21328 16.6884 6.77268 15.2478 6.77268 13.4704ZM0 17.418C0 15.1916 2.45089 13.302 5.94949 12.4414C5.89336 12.6472 5.85594 12.8717 5.83723 13.0962C4.3218 13.6388 3.36763 14.4807 3.36763 15.4349C3.36763 17.1 6.34238 18.4283 10.0094 18.4283C13.6763 18.4283 16.6511 17.0813 16.6511 15.4349C16.6511 14.4994 15.6782 13.6575 14.1815 13.0962C14.1628 12.8717 14.1254 12.6472 14.0692 12.4414C17.5678 13.2833 20 15.1916 20 17.3993C20 20.3928 15.5285 22.8249 10.0094 22.8249C4.47147 22.8436 0 20.4115 0 17.418Z" fill="#E31D19"/>
</svg>
