<svg xmlns="http://www.w3.org/2000/svg" id="Layer_2" data-name="Layer 2" viewBox="0 0 36.23 36.16"><defs><style>.cls-1{fill:#003e7e}</style></defs><g id="Layer_1-2" data-name="Layer 1"><path fill="#f18b00" d="M5.82 29.14h.42c.42-.05.79-.26 1.06-.53.26-.32.37-.79.26-1.16a.62.62 0 0 0-.37-.37H5.97l-.48 2.01.32.05Zm-1.43 4.18h.74c.53.05 1-.05 1.43-.37.42-.37.48-1.06.11-1.48l-.11-.11c-.05-.05-.16-.05-.21-.05H4.97l-.58 2.01ZM0 35.81l2.96-11.27h7.19c.32 0 .69.11.95.26a2.2 2.2 0 0 1 .95 2.49 3.34 3.34 0 0 1-1.85 2.43 3 3 0 0 1 1.22 3.12c-.42 2.17-2.91 2.75-3.6 2.86-1.11.16-7.83.11-7.83.11"/><path d="m21.1 24.54-1.27 6.14-1-6.14h-5.4l-2.32 11.27h3.59l1.38-6.56 1.06 6.56h5.23l2.33-11.27h-3.6z" class="cls-1"/><path fill="#05a54a" d="M30.99 28.77h4.81a5.07 5.07 0 0 0-.53-1.96c-1.38-2.75-4.92-3.44-7.93-1.59s-4.39 5.55-3.01 8.3 4.92 3.44 7.93 1.59a7.35 7.35 0 0 0 2.96-3.39h-4.87c-.42 1-1.06 1.64-1.53 1.59-.69-.11-.95-1.59-.53-3.28s1.27-2.96 1.96-2.86c.48.05.69.69.74 1.59"/><path d="M2.12 5.98a15.87 15.87 0 0 1 6.61-4.34l-3.6 15.81L2.12 5.98Zm7.19-4.55A27.84 27.84 0 0 1 19.89.05L6.98 17.67 9.31 1.43ZM20.1.05c9.1.63 16.13 5.39 16.13 11.21 0 6.24-8.09 11.32-18.14 11.32a30.1 30.1 0 0 1-6.51-.74l21.32-4.97-23.01 3.39L28.61 6.77 8.67 18.83 20.1.05ZM0 11.32c0-1.64.53-3.17 1.48-4.5l1.64 10.84C1.16 15.81 0 13.64 0 11.31" class="cls-1"/></g></svg>