<svg width="36" height="27" viewBox="0 0 36 27" fill="none" xmlns="http://www.w3.org/2000/svg">
<path d="M22.4017 0H1.59841C0.715631 0 0 0.747918 0 1.67052V15.4323C0 16.3549 0.715631 17.1028 1.59841 17.1028H22.4017C23.2845 17.1028 24.0001 16.3549 24.0001 15.4323V1.67052C24.0001 0.747918 23.2845 0 22.4017 0Z" fill="#36DAE9"/>
<path d="M24.0001 4.56152H0V6.84179H24.0001V4.56152Z" fill="#0878FE"/>
<path d="M34.4017 7.98242H13.5984C12.7156 7.98242 12 8.73034 12 9.65294V24.554C12 25.4766 12.7156 26.2245 13.5984 26.2245H34.4017C35.2845 26.2245 36.0001 25.4766 36.0001 24.554V9.65294C36.0001 8.73034 35.2845 7.98242 34.4017 7.98242Z" fill="#0878FE"/>
<path d="M20.2202 12.541H17.9617C17.0789 12.541 16.3633 13.2889 16.3633 14.2115V15.431C16.3633 16.3536 17.0789 17.1015 17.9617 17.1015H20.2202C21.103 17.1015 21.8186 16.3536 21.8186 15.431V14.2115C21.8186 13.2889 21.103 12.541 20.2202 12.541Z" fill="#F4C500"/>
<path d="M20.2207 13.7939H17.9621C17.7414 13.7939 17.5625 13.9809 17.5625 14.2116V15.4311C17.5625 15.6617 17.7414 15.8487 17.9621 15.8487H20.2207C20.4413 15.8487 20.6203 15.6617 20.6203 15.4311V14.2116C20.6203 13.9809 20.4413 13.7939 20.2207 13.7939Z" stroke="#F4C500" stroke-width="2.26347"/>
<path d="M16.2559 21.8018H30.0421" stroke="#36DAE9" stroke-width="2.26347" stroke-linecap="round"/>
</svg>
