<svg xmlns="http://www.w3.org/2000/svg" id="Layer_2" data-name="Layer 2" viewBox="0 0 46.91 15.87"><defs><style>.cls-1{fill:#3cb4e5}.cls-2{fill:#8347ad}</style></defs><g id="Layer_1-2" data-name="Layer 1"><path d="M17.61 12.52c.09.09.2.14.32.14h2.13c.12 0 .23-.05.32-.14s.14-.2.14-.32V7.55c0-.66-.09-1.24-.27-1.73a2.92 2.92 0 0 0-1.91-1.9c-.45-.15-.95-.23-1.49-.23s-1 .11-1.4.33c-.41.22-.71.45-.9.69V1.09a.45.45 0 0 0-.14-.32.45.45 0 0 0-.32-.14h-2.14c-.12 0-.23.05-.32.14s-.14.2-.14.32V12.2c0 .12.05.23.14.32s.2.14.32.14h2.13c.12 0 .23-.05.32-.14.09-.09.14-.2.14-.32V7.92c0-.49.11-.88.35-1.17.23-.29.6-.44 1.11-.44s.88.15 1.12.44c.24.29.36.68.36 1.17v4.28c0 .13.05.23.14.32Zm7.38-8.67h-2.14a.45.45 0 0 0-.32.14.45.45 0 0 0-.14.32v7.89c0 .12.05.23.14.32.09.09.2.14.32.14h2.13c.12 0 .23-.05.32-.14.09-.09.14-.2.14-.32V4.31a.45.45 0 0 0-.14-.32.43.43 0 0 0-.32-.14Zm11.18 6.81c.21-.49.32-1.06.35-1.73l.02-.69c0-.29 0-.52-.02-.69a4.75 4.75 0 0 0-.35-1.73c-.21-.49-.48-.89-.82-1.21s-.73-.56-1.18-.71a4.53 4.53 0 0 0-2.38-.14c-.25.06-.47.14-.64.24-.18.1-.32.21-.44.33a5.4 5.4 0 0 0-.33.36V4.3a.45.45 0 0 0-.14-.32.45.45 0 0 0-.32-.14h-2.05a.45.45 0 0 0-.32.14.45.45 0 0 0-.14.32v11.11c0 .12.05.23.14.32.09.09.2.14.32.14H30c.12 0 .23-.05.32-.14s.14-.2.14-.32v-3.6a2.99 2.99 0 0 0 .77.66 3.17 3.17 0 0 0 1.5.35c.51 0 .99-.08 1.44-.24.45-.16.85-.4 1.18-.72.34-.32.61-.73.82-1.21Zm-2.69-1.93c-.03.4-.16.74-.39 1.03s-.6.44-1.14.44c-.25 0-.46-.04-.64-.12a1.34 1.34 0 0 1-.73-.74 2.1 2.1 0 0 1-.14-.49 5.15 5.15 0 0 1 0-1.18 1.71 1.71 0 0 1 .42-.92c.12-.13.27-.24.45-.31.18-.08.4-.12.64-.12.53 0 .91.15 1.14.44.23.29.36.64.39 1.03.04.32.04.63 0 .95Zm10.69 3.79c.09.09.2.14.32.14h1.96c.12 0 .23-.05.32-.14.09-.09.14-.2.14-.32V4.31a.45.45 0 0 0-.14-.32.45.45 0 0 0-.32-.14h-2.13a.45.45 0 0 0-.32.14.45.45 0 0 0-.14.32v4.28c0 .49-.11.88-.31 1.17-.21.29-.56.44-1.06.44s-.85-.15-1.07-.44a1.96 1.96 0 0 1-.32-1.17V4.31a.45.45 0 0 0-.14-.32.45.45 0 0 0-.32-.14h-2.13a.45.45 0 0 0-.32.14.45.45 0 0 0-.14.32v4.65c0 1.33.32 2.31.97 2.93s1.52.93 2.62.93c.35 0 .65-.03.91-.09a2.92 2.92 0 0 0 1.15-.56c.13-.12.24-.24.33-.36v.39c0 .13.05.23.14.32Z" class="cls-2"/><path d="M23.86 2.94a1.47 1.47 0 1 1 0-2.94 1.47 1.47 0 0 1 0 2.94" class="cls-1"/><path d="M3.14.76a.44.44 0 0 0-.32-.13H.43a.41.41 0 0 0-.3.13.44.44 0 0 0-.13.32v11.15c0 .11.04.21.13.3.08.08.19.13.3.13h2.39c.13 0 .23-.04.32-.13a.43.43 0 0 0 .13-.3V8.9l-.26-.35v-.02l-1.07-1.5a1.1 1.1 0 0 1 .03-1.31L3.02 4.4l.26-.34V1.08a.4.4 0 0 0-.13-.31Z" class="cls-2"/><path d="M10.17 12.66c.1 0 .19-.04.26-.11.07-.08.1-.16.1-.25s-.02-.16-.07-.21l-4.22-5.7 3.91-5.19a.31.31 0 0 0 .07-.21.36.36 0 0 0-.11-.25.4.4 0 0 0-.16-.1L9.84.62H7.13a.82.82 0 0 0-.69.34L3.52 4.79 2.46 6.12a.43.43 0 0 0-.09.26c0 .09.02.18.08.27l.55.76.52.73 3.14 4.14s.1.12.21.21c.06.06.15.1.26.13.07.02.14.02.22.02h2.82Z" class="cls-1"/></g></svg>