<svg xmlns="http://www.w3.org/2000/svg" xmlns:xlink="http://www.w3.org/1999/xlink" data-name="Layer 2" viewBox="0 0 47.91 11.42"><defs><linearGradient id="b" x1="39.57" x2="53.51" y1="26.79" y2="33.9" gradientTransform="translate(0 -25)" gradientUnits="userSpaceOnUse"><stop offset="0" stop-color="#081f7b"/><stop offset="1" stop-color="#3fa9f5"/></linearGradient><linearGradient id="a" x1="41.2" x2="46.8" y1="34.66" y2="29.45" gradientTransform="translate(0 -25)" gradientUnits="userSpaceOnUse"><stop offset="0" stop-color="#eb4f12"/><stop offset="1" stop-color="#e5a930"/></linearGradient><linearGradient xlink:href="#a" id="c" x1="36.66" x2="42.71" y1="32.15" y2="34.58"/></defs><g data-name="Layer 1"><path fill="url(#b)" d="M43.29 6.99c.73-5.23-4.9-6.98-4.9-6.98s4.76-.27 6.98 1.54l.07.07c.47.4.87.94 1.01 1.61.6 2.35-3.15 3.76-3.15 3.76Z"/><path fill="url(#a)" d="M47.38 7.73c-1.21 2.28-3.83 3.15-5.5 3.49-.94.2-1.61.2-1.61.2s2.68-1.61 3.02-4.43c0 0 3.76-1.41 3.09-3.83a2.55 2.55 0 0 0-1.01-1.61c.4.27 3.83 2.68 2.01 6.17Z"/><path fill="url(#c)" d="M43.29 6.99c-.34 2.82-3.02 4.43-3.02 4.43-.47-2.48-3.49-2.95-3.49-2.95 4.36-.34 6.51-1.48 6.51-1.48Z"/><path fill="#003091" d="m5.3 8.54.4-2.89c.07-.6.2-1.54.34-2.28h-.07c-.34.74-.67 1.54-1.01 2.15L3.42 8.47h-.81l-.34-2.89a23.4 23.4 0 0 1-.13-2.21l-.47 2.28L1 8.54H0l1.54-6.11h1.41l.34 2.89c.07.54.13 1.21.13 1.74h.07c.2-.6.47-1.21.81-1.74l1.48-2.89h1.41l-.81 6.11H5.31Zm5.5-.27c-.47.27-1.01.34-1.54.34-1.21 0-1.81-.81-1.81-1.81 0-1.34 1.01-2.75 2.55-2.75.87 0 1.41.47 1.41 1.28 0 1.14-1.21 1.54-2.89 1.48 0 .13 0 .47.13.6.13.27.47.47.87.47.47 0 .87-.13 1.21-.27l.07.67Zm-.4-3.02c0-.27-.27-.47-.6-.47-.67 0-1.07.6-1.21 1.14 1.07 0 1.81-.13 1.81-.67Zm1.28 3.29.54-2.75c.13-.6.13-1.34.27-1.74h.87c-.07.27-.07.6-.07.94h.07c.27-.6.81-1.01 1.41-1.01h.27l-.2 1.01h-.2c-.81 0-1.21.81-1.41 1.74l-.34 1.81h-1.21Zm6.24-.14c-.27.13-.67.27-1.28.27-1.07 0-1.81-.74-1.81-1.74a2.86 2.86 0 0 1 3.69-2.76l-.27.81a1.42 1.42 0 0 0-.67-.13c-1.01 0-1.68.94-1.68 1.88 0 .67.34 1.01 1.01 1.01.4 0 .74-.13.94-.2l.07.87Zm3.49.14c0-.27.07-.6.07-1.01h-.07c-.47.81-1.01 1.07-1.61 1.07-.81 0-1.34-.6-1.34-1.54a3 3 0 0 1 3.09-3.09c.47 0 1.01.07 1.34.2l-.47 2.35c-.13.67-.2 1.54-.13 2.01h-.87Zm.4-3.69c-.13-.07-.27-.07-.47-.07-1.01 0-1.74 1.07-1.74 2.15 0 .47.13.87.67.87.47 0 1.07-.6 1.34-1.74l.2-1.21Zm1.54 3.69.6-3.09c.13-.54.13-1.01.27-1.41h.94l-.07.81c.34-.6.87-.87 1.54-.87.6 0 1.14.34 1.14 1.21 0 .2-.07.47-.07.74l-.47 2.55h-1.07L26.63 6c.07-.13.07-.34.07-.54 0-.34-.13-.67-.6-.67s-1.07.6-1.34 1.61l-.34 2.01h-1.07v.13Zm7.25-5.57-.27 1.14h1.01l-.13.81H30.2l-.34 1.81c-.07.2-.07.47-.07.6 0 .27.13.4.4.4.13 0 .27 0 .34-.07l-.07.87c-.13.07-.47.07-.67.07-.74 0-1.07-.4-1.07-.94 0-.27.07-.47.07-.81l.34-1.95h-.6l.13-.81h.67l.13-.81 1.14-.34Zm.67 5.57.87-4.43h1.07l-.87 4.43h-1.07Zm1.54-5.1c-.34 0-.54-.27-.54-.6s.27-.67.67-.67c.34 0 .6.27.6.6-.07.4-.34.67-.74.67Zm.68 5.1 1.21-6.51h1.07l-1.21 6.44h-1.07v.07Z"/></g></svg>