<?xml version="1.0" encoding="UTF-8"?>
<svg id="Layer_2" data-name="Layer 2" xmlns="http://www.w3.org/2000/svg" viewBox="0 0 9.95 11.69">
  <defs>
    <style>
      .cls-1 {
        fill: #012169;
      }

      .cls-2 {
        fill: #009cde;
      }

      .cls-3 {
        fill: #003087;
      }
    </style>
  </defs>
  <g id="Layer_2-2" data-name="Layer 2">
    <g id="g24">
      <path id="path18" class="cls-2" d="m8.94,2.97c.19-.74,0-1.52-.49-2.09-.54-.62-1.52-.88-2.78-.88h-3.63c-.25,0-.47.19-.51.44L0,10.04c-.03.17.09.33.26.36h2.3l-.15.98c-.02.15.08.29.23.31h1.93c.22,0,.41-.16.45-.38l.02-.1.36-2.26.02-.12c.03-.22.23-.38.45-.38h.28c1.83,0,3.27-.74,3.69-2.9.22-.75.08-1.55-.38-2.18-.15-.16-.32-.3-.52-.4"/>
      <path id="path20" class="cls-1" d="m8.94,2.97c.19-.74,0-1.52-.49-2.09-.54-.62-1.52-.88-2.78-.88h-3.63c-.25,0-.47.19-.51.44L0,10.04c-.03.17.09.33.26.36h2.3l.56-3.58-.02.11c.04-.25.26-.44.51-.44h1.07c2.1,0,3.74-.85,4.22-3.32l.04-.21"/>
      <path id="path22" class="cls-3" d="m3.73,2.98c.03-.22.23-.38.45-.38h2.85c.48,0,.95.06,1.41.18l.11.03c.14.04.27.1.39.17.19-.74,0-1.52-.49-2.09C7.91.27,6.93,0,5.67,0h-3.63c-.25,0-.47.19-.51.44L0,10.04c-.03.17.09.33.26.36h2.3l.56-3.58s.61-3.84.61-3.84Z"/>
    </g>
  </g>
</svg>