<svg xmlns="http://www.w3.org/2000/svg" id="Layer_2" data-name="Layer 2" viewBox="0 0 33.1 34.8"><defs><style>.cls-1{fill:#b1b7bf}.cls-5{fill:#34444d}</style></defs><g id="Layer_1-2" data-name="Layer 1"><g id="Grupo_4" data-name="Grupo 4"><path id="Trazado_16" d="M32.1 30.24H.8v3.7h31.3v-3.7Z" class="cls-1" data-name="Trazado 16"/><g id="Grupo_2" data-name="Grupo 2"><path id="Trazado_12" d="M25.7 10.1h6.4V4.6S24.3.9 16.5.9.9 4.6.9 4.6v5.5h24.8Zm-9.2-6.4c1 0 1.8.8 1.8 1.8s-.8 1.8-1.8 1.8-1.8-.8-1.8-1.8.8-1.8 1.8-1.8Z" class="cls-1" data-name="Trazado 12"/><path id="Trazado_13" d="M3.7 10.1h3.7v16.5H3.7V10.1Z" class="cls-1" data-name="Trazado 13"/><path id="Trazado_14" d="M25.7 10.1h3.7v16.5h-3.7V10.1Z" class="cls-1" data-name="Trazado 14"/><path id="Trazado_15" d="M30.2 26.6H2.7v3.7h27.5v-3.7Z" class="cls-1" data-name="Trazado 15"/><path id="Trazado_17" d="M32.3 3.7 16.7 0h-.4L.7 3.7c-.4.1-.7.4-.7.9v5.5c0 .5.4.9.9.9h2.5v14.7c-.5 0-1.5.4-1.5.9v2.8h-1c-.5 0-.9.4-.9.9v3.6c0 .5.4.9.9.9h31.2c.5 0 .9-.4.9-.9v-3.7c0-.5-.4-.9-.9-.9h-.9v-2.8c0-.5-.9-.9-1.4-.9V11h2.4c.5 0 .9-.4.9-.9V4.6c-.1-.5-.4-.8-.8-.9ZM4.3 11h2.1v14.7H4.3V11Zm21.3 0v14.7H7.3V11h18.3Zm6.5 22.9H.8v-3.7H32l.1 3.7ZM2.8 29.3v-2.8h27.5v2.8H2.8Zm26-3.7h-2.2V11h2.2v14.6Zm3.3-15.5H.9V4.6l15.6-3.5 15.6 3.5v5.5Z" class="cls-5" data-name="Trazado 17"/><circle id="Elipse_3" cx="16.5" cy="5.3" r="2.7" class="cls-5" data-name="Elipse 3"/><circle id="Elipse_4" cx="16.5" cy="5.3" r="1.8" fill="#fff" data-name="Elipse 4"/><path fill="#f4c500" d="M17 22.3v1.3h-.9v-1.3c-.8 0-1.6-.2-2.3-.6V20c.2.2.6.4 1.1.5.5.1.9.3 1.2.3v-2.2c-.9-.4-1.6-.7-1.9-1.1-.3-.4-.5-.9-.5-1.5s.2-1.2.7-1.6c.4-.4 1-.7 1.8-.8v-1.1h.8v1.1c.9 0 1.5.2 1.9.4v1.6c-.6-.3-1.2-.6-1.9-.6v2.3c.9.3 1.5.7 1.9 1.1s.6.9.6 1.5c0 .7-.2 1.2-.6 1.6-.5.4-1.1.7-1.9.8Zm-.9-5.4V15c-.6.1-.8.4-.8.9 0 .4.2.8.8 1ZM17 19v1.8c.6-.1.9-.4.9-.9 0-.3-.3-.7-.9-.9Z" style="isolation:isolate"/></g></g></g></svg>