<svg xmlns="http://www.w3.org/2000/svg" id="Layer_2" data-name="Layer 2" viewBox="0 0 33.1 34.8"><defs><style>.cls-1{fill:#b1b7bf}.cls-5{fill:#34444d}</style></defs><g id="Layer_1-2" data-name="Layer 1"><g id="Grupo_3" data-name="Grupo 3"><path id="Trazado_7" d="M30.3 26.64H2.8v3.7h27.5v-3.7Z" class="cls-1" data-name="Trazado 7"/><path id="Trazado_8" d="M32.1 30.24H.8v3.7h31.3v-3.7Z" class="cls-1" data-name="Trazado 8"/><g id="Grupo_1" data-name="Grupo 1"><path id="Trazado_4" d="M25.7 10.1h6.4V4.6S24.3.9 16.5.9.9 4.6.9 4.6v5.5h24.8Zm-9.2-6.4c1 0 1.8.8 1.8 1.8s-.8 1.8-1.8 1.8-1.8-.8-1.8-1.8.8-1.8 1.8-1.8Z" class="cls-1" data-name="Trazado 4"/><path id="Trazado_5" d="M3.7 10.1h3.7v16.5H3.7V10.1Z" class="cls-1" data-name="Trazado 5"/><path id="Trazado_6" d="M25.7 10.1h3.7v16.5h-3.7V10.1Z" class="cls-1" data-name="Trazado 6"/><path id="Trazado_9" d="M32.3 3.7 16.7 0h-.4L.7 3.7c-.4.1-.7.5-.7.9v5.5c0 .5.4.9.9.9h2.5v14.7c-.5 0-1.5.4-1.5.9v2.7H1c-.5 0-.9.4-.9.9v3.7c0 .5.4.9.9.9h31.2c.5 0 .9-.4.9-.9v-3.6c0-.5-.4-.9-.9-.9h-.9v-2.7c0-.5-.9-.9-1.4-.9V11h2.2c.5 0 .9-.4.9-.9V4.6c0-.4-.3-.8-.7-.9ZM4.3 11h2.1v14.7H4.3V11Zm21.3 0v14.7H7.3V11h18.3Zm6.5 22.9H.8v-3.6h31.3v3.6ZM2.8 29.3v-2.7h27.5v2.7H2.8Zm26-3.6h-2.2V11h2.2v14.7Zm3.3-15.6H.9V4.6l15.6-3.5 15.6 3.5v5.5Z" class="cls-5" data-name="Trazado 9"/><circle id="Elipse_1" cx="16.5" cy="5.4" r="2.7" class="cls-5" data-name="Elipse 1"/><circle id="Elipse_2" cx="16.5" cy="5.4" r="1.8" fill="#fff" data-name="Elipse 2"/><path fill="#f4c500" d="M18.7 22c-.5.3-1.1.4-1.9.4-.9 0-1.7-.3-2.2-.8-.6-.5-1-1.2-1.1-2.2h-.7v-1.1h.6v-.9h-.6v-1.1h.8c.2-.9.6-1.7 1.3-2.2.6-.5 1.4-.8 2.3-.8.7 0 1.2.1 1.6.3v1.7c-.5-.4-1-.5-1.5-.5-.4 0-.8.1-1.2.4-.3.3-.6.7-.7 1.2H18v1.1h-2.9v.9h2.8v1.2h-2.6c.3 1 .9 1.5 1.8 1.5.6 0 1.1-.2 1.6-.5V22Z" style="isolation:isolate"/></g></g></g></svg>