<svg width="49" height="17" viewBox="0 0 49 17" fill="none" xmlns="http://www.w3.org/2000/svg">
<path d="M3.07453 13.9115C3.22046 13.9115 3.33888 13.7924 3.33888 13.6455C3.33888 13.4987 3.22046 13.3794 3.07453 13.3794C2.92898 13.3794 2.81055 13.4987 2.81055 13.6455C2.81055 13.7924 2.92898 13.9115 3.07453 13.9115Z" fill="#009CDD"/>
<path d="M23.5212 15.996C23.6672 15.996 23.7856 15.8769 23.7856 15.7301C23.7856 15.5831 23.6672 15.4639 23.5212 15.4639C23.3755 15.4639 23.2573 15.5831 23.2573 15.7301C23.2573 15.8769 23.3755 15.996 23.5212 15.996Z" fill="#6D2077"/>
<path d="M11.0135 14.3846L11.0134 14.3837C11.0127 14.0872 10.9099 13.8371 10.723 13.6682L10.7099 13.6564L10.7069 13.6537H10.7062C10.5305 13.5028 10.2925 13.4232 10.0102 13.4205C10.0092 13.4202 10.0068 13.4202 10.0041 13.4202C10.0015 13.4202 9.99882 13.4202 9.99621 13.4206L9.99419 13.4205C9.98569 13.4205 9.97999 13.4207 9.97584 13.4209C9.97253 13.4207 9.96725 13.4205 9.96103 13.4205L9.9568 13.4206C9.95461 13.4204 9.95195 13.4202 9.9485 13.4202H9.94747C9.9478 13.4202 9.94697 13.4202 9.94603 13.4202C9.94458 13.4202 9.94264 13.4202 9.94055 13.4205C9.65899 13.4235 9.42182 13.5029 9.24658 13.6537H9.24576L9.22972 13.6682C9.04357 13.8364 8.94069 14.0853 8.93935 14.3803L8.93923 14.3806L8.93894 14.3817L8.9375 15.9085C8.9375 15.9289 8.94617 15.9489 8.9614 15.9631C8.97662 15.9776 8.99795 15.986 9.01936 15.986H9.2911C9.31251 15.986 9.33355 15.9776 9.34895 15.9631C9.36436 15.9489 9.37288 15.9289 9.37288 15.9085L9.3735 14.4332C9.37515 14.2171 9.43042 14.0639 9.53022 13.9627C9.62686 13.8646 9.77442 13.8093 9.97749 13.8053C10.1786 13.8093 10.3259 13.8646 10.4226 13.9627C10.5223 14.0639 10.5776 14.2171 10.5793 14.4337L10.5789 15.9085C10.5789 15.9289 10.5876 15.9489 10.6028 15.9631C10.6182 15.9776 10.6394 15.986 10.6608 15.986H10.933C10.9544 15.986 10.9755 15.9776 10.9908 15.9631C11.0064 15.9489 11.0148 15.9289 11.0148 15.9085L11.0135 14.3846Z" fill="#D00070"/>
<path d="M20.4881 14.3846L20.488 14.3837C20.4874 14.0872 20.3845 13.8371 20.1976 13.6682L20.1845 13.6564L20.1815 13.6537H20.1809C20.0051 13.5028 19.7671 13.4232 19.4849 13.4205C19.4838 13.4202 19.4814 13.4202 19.4788 13.4202C19.4761 13.4202 19.4735 13.4202 19.4709 13.4206L19.4688 13.4205C19.4603 13.4205 19.4546 13.4207 19.4505 13.4209C19.4472 13.4207 19.4419 13.4205 19.4357 13.4205L19.4314 13.4206C19.4293 13.4204 19.4266 13.4202 19.4231 13.4202H19.4221C19.4225 13.4202 19.4216 13.4202 19.4207 13.4202C19.4192 13.4202 19.4172 13.4202 19.4152 13.4205C19.1336 13.4235 18.8965 13.5029 18.7212 13.6537H18.7204L18.7043 13.6682C18.5182 13.8364 18.4153 14.0853 18.414 14.3803L18.4139 14.3806L18.4135 14.3817L18.4121 15.9085C18.4121 15.9289 18.4208 15.9489 18.436 15.9631C18.4512 15.9776 18.4726 15.986 18.494 15.986H18.7657C18.7872 15.986 18.8082 15.9776 18.8236 15.9631C18.839 15.9489 18.8475 15.9289 18.8475 15.9085L18.8481 14.4332C18.8498 14.2171 18.905 14.0639 19.0048 13.9627C19.1015 13.8646 19.249 13.8093 19.4522 13.8053C19.6533 13.8093 19.8006 13.8646 19.8973 13.9627C19.9969 14.0639 20.0522 14.2171 20.054 14.4337L20.0535 15.9085C20.0535 15.9289 20.0622 15.9489 20.0775 15.9631C20.0928 15.9776 20.114 15.986 20.1354 15.986H20.4076C20.429 15.986 20.4501 15.9776 20.4654 15.9631C20.481 15.9489 20.4894 15.9289 20.4894 15.9085L20.4881 14.3846Z" fill="#D00070"/>
<path d="M15.4079 14.71V14.7154V14.716V14.7216C15.4073 14.9648 15.3814 15.2023 15.289 15.3724C15.1981 15.536 15.0519 15.6452 14.7681 15.6496C14.7662 15.6493 14.7632 15.6493 14.7575 15.6496H14.7527C14.467 15.6466 14.3189 15.5372 14.2276 15.3721C14.1343 15.2014 14.1083 14.9619 14.1083 14.7172V14.7025C14.1085 14.4594 14.1343 14.2644 14.2276 14.0944C14.3189 13.9293 14.467 13.8197 14.7527 13.8171H14.7547H14.7594H14.7637C15.0496 13.8197 15.1972 13.9291 15.2893 14.0947C15.3819 14.2644 15.4079 14.4594 15.4079 14.7025V14.71ZM15.4883 13.6808C15.4869 13.679 15.4855 13.6773 15.4835 13.6755C15.3287 13.5328 15.0812 13.4443 14.7945 13.444C14.7906 13.4435 14.7846 13.4435 14.779 13.4435C14.5432 13.4434 14.3106 13.4927 14.1085 13.6658L14.1083 13.6659V13.514H14.1087V12.7447C14.1087 12.7244 14.1 12.7044 14.0847 12.6902C14.0695 12.6759 14.0483 12.6675 14.0268 12.6675H13.759C13.7377 12.6675 13.7166 12.6759 13.7011 12.6902C13.6857 12.7044 13.6772 12.7244 13.6772 12.7447V13.514H13.6774V15.1473H13.6772V15.9125C13.6772 15.9328 13.686 15.9527 13.7011 15.9668C13.7164 15.9813 13.7377 15.9896 13.7592 15.9896H14.0269C14.0483 15.9896 14.0694 15.9813 14.0847 15.9668C14.1003 15.9527 14.1088 15.9328 14.1088 15.9125V15.7543C14.2875 15.9541 14.5439 16.0229 14.779 16.0228H14.7956C15.0817 16.0219 15.3292 15.9335 15.4835 15.7909C15.7719 15.5179 15.8379 15.0993 15.8388 14.7101C15.838 14.3231 15.7719 13.9528 15.4883 13.6808Z" fill="#D00070"/>
<path d="M8.18554 15.0583C8.18492 15.2625 8.14022 15.3753 8.08018 15.4279C7.93535 15.5616 7.75606 15.5817 7.53766 15.5821H7.53528H7.53123C7.32089 15.5824 7.18269 15.5458 7.10431 15.4891C7.02991 15.4353 6.99149 15.3584 6.98965 15.226V15.22C6.99107 15.0886 7.03096 15.0066 7.1062 14.9488C7.18498 14.8889 7.31757 14.85 7.51614 14.85H7.51785H8.18554V15.0583ZM8.63512 14.2712V14.2695C8.63522 14.0106 8.54911 13.7886 8.36856 13.6403C8.18669 13.4909 7.9257 13.4208 7.58972 13.4207H7.5776H7.57304C7.22029 13.4196 6.94003 13.4964 6.7267 13.7234L6.72588 13.7226L6.71366 13.7372C6.69762 13.755 6.6819 13.7733 6.66667 13.7929C6.66667 13.7929 6.66636 13.7933 6.66625 13.7935L6.64441 13.8194C6.63136 13.8348 6.62496 13.8556 6.62764 13.8765C6.62992 13.8976 6.64059 13.9179 6.65684 13.9318L6.66917 13.9425C6.67391 13.9482 6.67909 13.9534 6.68488 13.9583L6.73261 13.9974L6.85952 14.1073C6.87576 14.1215 6.8972 14.129 6.91799 14.128C6.93861 14.1271 6.95804 14.1177 6.97101 14.1022L7.05258 14.0054C7.10334 13.9503 7.15546 13.9111 7.2185 13.8836C7.30753 13.8445 7.4218 13.8263 7.58683 13.8247H7.5888L7.59439 13.8244C7.82913 13.825 7.9752 13.8727 8.05886 13.9461C8.14228 14.0184 8.18463 14.1275 8.18525 14.2971C8.18525 14.2983 8.18525 14.3013 8.18554 14.3051V14.4651H7.48847C7.20724 14.4657 6.97202 14.5293 6.80229 14.6617C6.63366 14.7912 6.53965 14.9906 6.53955 15.2228L6.53965 15.2315C6.54007 15.425 6.61274 15.6148 6.74483 15.7466C6.92329 15.9224 7.16094 15.9863 7.52004 15.9863H7.52408H7.70606C8.03493 15.9866 8.27085 15.9053 8.42282 15.7415C8.57447 15.5776 8.63522 15.3406 8.63522 15.0459V14.2757L8.63512 14.2712Z" fill="#D00070"/>
<path d="M16.4672 15.229V15.223C16.4685 15.0918 16.5085 15.0099 16.5837 14.9522C16.6625 14.8922 16.7952 14.8534 16.9937 14.8534H16.9954H17.6631V15.0614C17.6625 15.2655 17.6178 15.3783 17.5577 15.431C17.4129 15.5644 17.2336 15.5845 17.0151 15.585H17.0127H17.0088C16.7983 15.5852 16.6602 15.5488 16.5819 15.4919C16.5074 15.4382 16.4691 15.3614 16.4672 15.229ZM18.1127 14.2749V14.2731C18.1128 14.0143 18.0267 13.7926 17.846 13.6444C17.6643 13.4951 17.4033 13.4249 17.0674 13.4248H17.0552H17.0506C16.6977 13.4239 16.4176 13.5006 16.2044 13.7274L16.2035 13.7267L16.1912 13.7413C16.1752 13.759 16.1594 13.7774 16.1441 13.7969C16.144 13.7971 16.1439 13.7973 16.1438 13.7975L16.122 13.8234C16.1089 13.8388 16.1025 13.8596 16.1052 13.8805C16.1075 13.9015 16.1181 13.9217 16.1344 13.9358L16.1467 13.9464C16.1515 13.952 16.1566 13.9573 16.1624 13.9622L16.2101 14.0013L16.3371 14.1111C16.3533 14.1251 16.3748 14.1328 16.3955 14.1318C16.4162 14.1309 16.4355 14.1215 16.4486 14.106L16.53 14.0093C16.5808 13.9542 16.633 13.915 16.6961 13.8874C16.7851 13.8484 16.8994 13.8301 17.0644 13.8286L17.0663 13.8285L17.0719 13.8283C17.3067 13.8289 17.4528 13.8767 17.5364 13.9499C17.6198 14.0221 17.6621 14.1312 17.6628 14.3008C17.6628 14.3019 17.6628 14.3049 17.6631 14.3087V14.4687H16.966C16.6848 14.4693 16.4496 14.5328 16.2798 14.6652C16.1112 14.7946 16.0172 14.9938 16.0171 15.2259L16.0172 15.2347C16.0176 15.4281 16.0903 15.6176 16.2224 15.7493C16.4008 15.925 16.6385 15.9889 16.9976 15.9889H17.0016H17.1836C17.5125 15.9892 17.7484 15.908 17.9004 15.7442C18.052 15.5805 18.1128 15.3437 18.1128 15.0492V14.2794L18.1127 14.2749Z" fill="#D00070"/>
<path d="M4.44687 13.4296H3.98769L3.98751 12.9642H3.9873L3.98718 12.7389C3.98718 12.6986 3.95179 12.6655 3.9081 12.6655H3.63203C3.61124 12.6655 3.59073 12.6733 3.57624 12.687C3.56142 12.7007 3.55273 12.7198 3.55273 12.7389V13.1539H3.55295V15.3356C3.55314 15.5128 3.60418 15.6724 3.71639 15.7932C3.82331 15.9102 3.99659 15.9832 4.19682 15.9832H4.19754H4.33054V15.9816H4.44687C4.46709 15.9816 4.48684 15.9727 4.50095 15.9574C4.51532 15.9421 4.52349 15.9208 4.52349 15.899V15.6294C4.52349 15.6078 4.51532 15.5865 4.50095 15.5711C4.48684 15.5556 4.46709 15.547 4.44687 15.547H4.23348C4.19027 15.5453 4.1556 15.5401 4.12538 15.5294C4.10611 15.5228 4.09422 15.5153 4.08314 15.5083C4.07093 15.4997 4.0642 15.4955 4.05221 15.483C4.0111 15.4401 3.98833 15.372 3.98769 15.2707V13.8643H4.44687C4.46709 13.8643 4.48684 13.8554 4.50095 13.8401C4.51532 13.8247 4.52349 13.8034 4.52349 13.7817V13.512C4.52349 13.4905 4.51532 13.4692 4.50095 13.4537C4.48684 13.4382 4.46709 13.4296 4.44687 13.4296Z" fill="#D00070"/>
<path d="M6.4267 13.7484L6.40122 13.7201C6.40019 13.7167 6.39832 13.7136 6.39522 13.7104L6.37982 13.6946L6.35867 13.6726L6.34127 13.6533L6.34057 13.654C6.18436 13.4896 5.98994 13.4204 5.78293 13.4202C5.77869 13.4202 5.77371 13.4203 5.76668 13.4204C5.61968 13.4204 5.44617 13.4864 5.34205 13.6118L5.27031 13.697V13.6613V13.5065C5.27031 13.4862 5.26162 13.4662 5.24642 13.4521C5.2311 13.4377 5.20988 13.4294 5.18832 13.4294H4.92073C4.89922 13.4294 4.87808 13.4377 4.86276 13.4521C4.84736 13.4662 4.83887 13.4862 4.83887 13.5065V13.6613V15.9096C4.83887 15.93 4.84756 15.9499 4.86276 15.9641C4.87797 15.9786 4.89922 15.9868 4.92073 15.9868H4.9669C4.96836 15.9869 4.96991 15.9872 4.97136 15.9872H5.13997C5.14156 15.9872 5.14299 15.9869 5.14455 15.9868H5.18845C5.20988 15.9868 5.23096 15.9786 5.24642 15.9641C5.26182 15.9499 5.27031 15.93 5.27031 15.9096V15.868C5.27031 15.8675 5.27041 15.8669 5.27041 15.8664V14.4407C5.27041 14.4389 5.27031 14.4371 5.27031 14.4352V14.3198C5.27841 14.1873 5.32041 14.068 5.38937 13.9813C5.46326 13.8888 5.57153 13.8287 5.71762 13.8283C5.79491 13.8283 5.84575 13.8375 5.88977 13.8558C5.93219 13.8744 5.97547 13.9061 6.03229 13.9647L6.04515 13.9779L6.1033 14.0427C6.11698 14.058 6.13696 14.067 6.15796 14.0672C6.17907 14.0677 6.20051 14.0594 6.21668 14.0447L6.41727 13.8621C6.43331 13.8475 6.44355 13.8269 6.44535 13.8055C6.44737 13.7843 6.44033 13.7636 6.4267 13.7484Z" fill="#D00070"/>
<path d="M13.1715 14.6722C13.1705 14.6713 13.1692 14.6707 13.1683 14.67H13.168C13.0117 14.5609 12.8138 14.5229 12.6006 14.5047L12.2011 14.471C12.0348 14.4571 11.9318 14.4225 11.872 14.3755C11.8212 14.3368 11.7898 14.2744 11.7889 14.1784V14.1762H11.7885L11.7889 14.1712C11.7898 14.0577 11.8339 13.9752 11.9123 13.9192C11.9958 13.859 12.1297 13.8206 12.3191 13.8204H12.3207H12.321C12.5627 13.8208 12.7626 13.8772 12.9294 13.9843L12.9292 13.9846L13.0305 14.0557C13.0467 14.0671 13.0674 14.0714 13.0872 14.0667C13.1074 14.0624 13.1258 14.0498 13.1378 14.0325L13.287 13.8149C13.2991 13.7974 13.3042 13.7754 13.3013 13.755C13.2998 13.7438 13.2954 13.7332 13.2892 13.724C13.2837 13.7134 13.2759 13.7039 13.2655 13.6965L13.2483 13.6842C13.0101 13.5144 12.6779 13.4192 12.3199 13.4187C12.0332 13.4188 11.7885 13.4877 11.611 13.6197C11.4349 13.7495 11.3314 13.9458 11.3313 14.1692L11.3314 14.1723V14.1738L11.3313 14.1798C11.3313 14.3773 11.4045 14.5518 11.5507 14.6707C11.6983 14.7915 11.9061 14.8559 12.1679 14.877L12.5786 14.9102C12.7291 14.924 12.8232 14.9574 12.8785 15.0038C12.9269 15.0431 12.9577 15.1053 12.9581 15.2045V15.2098V15.2107C12.9569 15.3357 12.9066 15.4219 12.8126 15.4818C12.7118 15.5457 12.5478 15.5849 12.3199 15.5849H12.3183C12.3175 15.5849 12.316 15.585 12.3141 15.5852H12.312C12.0113 15.5837 11.7975 15.5161 11.6312 15.3787L11.5446 15.3054C11.529 15.2922 11.5084 15.286 11.4876 15.2888C11.4668 15.2915 11.4469 15.3025 11.4332 15.3191L11.2612 15.527C11.2473 15.5437 11.2401 15.5655 11.2413 15.5866C11.2423 15.6076 11.2519 15.6272 11.2674 15.6403L11.349 15.7093L11.3487 15.7097C11.3504 15.711 11.352 15.712 11.3536 15.7132L11.3642 15.7221L11.365 15.7213C11.6174 15.9041 11.9325 15.9916 12.3183 15.9916H12.3252C12.6433 15.9913 12.9117 15.9223 13.1075 15.7871C13.3011 15.6538 13.4165 15.448 13.4162 15.2107V15.1988C13.4166 14.9595 13.3239 14.7791 13.1715 14.6722Z" fill="#D00070"/>
<path d="M23.0283 15.879L22.6933 15.4062L22.0221 14.4262L22.5437 13.8721L22.8474 13.5511L22.8659 13.5306C22.901 13.4953 22.8838 13.4586 22.8686 13.4445C22.8534 13.4301 22.8321 13.4217 22.8106 13.4217H22.4619C22.4411 13.4217 22.4142 13.4377 22.399 13.4512C22.3993 13.4511 22.3987 13.4514 22.399 13.4512L21.2279 14.7003V13.6565V12.7354C21.2279 12.7152 21.2191 12.6952 21.204 12.681C21.1887 12.6665 21.1675 12.6582 21.146 12.6582H20.8783C20.8568 12.6582 20.8357 12.6665 20.8204 12.681C20.8049 12.6952 20.7964 12.7152 20.7964 12.7354V13.6565V15.909C20.7964 15.9293 20.8051 15.9494 20.8203 15.9636C20.8356 15.9779 20.8568 15.9863 20.8784 15.9863H21.1461C21.1675 15.9863 21.1886 15.9779 21.204 15.9636C21.2195 15.9494 21.2279 15.9293 21.2279 15.909V15.2684L21.7353 14.7185L22.0767 15.2294H22.0752L22.5552 15.9468C22.5665 15.9627 22.5842 15.988 22.6243 15.988H22.973C22.9945 15.988 23.0158 15.9796 23.031 15.9651C23.0462 15.9509 23.0563 15.9143 23.0283 15.879Z" fill="#D00070"/>
<path d="M20.0303 12.6826H20.0775L20.1479 12.8895L20.2182 12.6826H20.2649V12.9275H20.2335V12.7826C20.2335 12.7775 20.2337 12.7699 20.2337 12.7579C20.2337 12.7463 20.2344 12.7345 20.2344 12.7209L20.1642 12.9275H20.1312L20.0611 12.7209V12.7282V12.7554C20.0616 12.7683 20.0616 12.7771 20.0616 12.7826V12.9275H20.0303V12.6826Z" fill="#D00070"/>
<path d="M20.5148 12.7945C20.5297 12.7945 20.5418 12.7916 20.551 12.7853C20.5591 12.7796 20.5641 12.7683 20.5641 12.7515C20.5641 12.7345 20.5582 12.7223 20.5453 12.7159C20.5386 12.7124 20.5297 12.7109 20.519 12.7109H20.4398V12.7945H20.5148ZM20.4067 12.6826H20.5185C20.5369 12.6826 20.5523 12.6852 20.5637 12.6908C20.5864 12.7008 20.5975 12.7201 20.5975 12.7484C20.5975 12.7629 20.595 12.775 20.5887 12.7845C20.5822 12.7935 20.5738 12.8016 20.5627 12.8072C20.5724 12.8113 20.5802 12.8161 20.585 12.8224C20.5894 12.8287 20.5921 12.8393 20.5921 12.8535L20.594 12.8858C20.594 12.8955 20.5952 12.9024 20.5962 12.907C20.5985 12.9143 20.6019 12.9194 20.607 12.9214V12.9275H20.5665C20.5653 12.9248 20.5648 12.9224 20.5637 12.9194C20.5627 12.9159 20.5625 12.9095 20.5623 12.9L20.56 12.859C20.5589 12.8428 20.5536 12.832 20.5428 12.8267C20.5369 12.8238 20.5264 12.8224 20.5134 12.8224H20.4398V12.9275H20.4067V12.6826Z" fill="#D00070"/>
<path d="M20.3372 12.926C20.3278 12.926 20.3213 12.919 20.3213 12.9082C20.3213 12.8975 20.328 12.8901 20.3382 12.8901C20.3479 12.8901 20.3548 12.8975 20.3548 12.9082C20.3548 12.919 20.3479 12.926 20.3372 12.926Z" fill="#D00070"/>
<path d="M20.6726 12.926C20.6629 12.926 20.6558 12.919 20.6558 12.9082C20.6558 12.8975 20.6629 12.8901 20.673 12.8901C20.6833 12.8901 20.6899 12.8975 20.6899 12.9082C20.6899 12.919 20.6833 12.926 20.6728 12.926H20.6726Z" fill="#D00070"/>
<path d="M25.8745 6.54935V6.56544V6.56724V6.58411C25.8725 7.31055 25.7954 8.02038 25.5191 8.52836C25.2475 9.01714 24.8108 9.34353 23.9627 9.3565C23.9573 9.35573 23.9482 9.35573 23.9311 9.3565H23.9171C23.0632 9.34792 22.6209 9.02078 22.348 8.5276C22.0693 8.01751 21.9912 7.30173 21.9912 6.5709V6.52676C21.992 5.80058 22.0693 5.21789 22.348 4.71017C22.6209 4.21669 23.0632 3.88929 23.9171 3.8815H23.9228H23.9368H23.9497C24.8041 3.88929 25.2449 4.2162 25.5201 4.71118C25.7967 5.21789 25.8745 5.80058 25.8745 6.52676V6.54935ZM26.1148 3.47419C26.1104 3.46902 26.106 3.46356 26.1002 3.45837C25.6379 3.03185 24.8985 2.76774 24.0416 2.76693C24.0302 2.76541 24.0123 2.76541 23.9957 2.76541C23.291 2.76515 22.596 2.91225 21.992 3.42931L21.9912 3.42982V2.97606H21.9925V0.67742C21.9925 0.616709 21.9666 0.557027 21.9212 0.514724C21.8758 0.471653 21.8125 0.446777 21.7479 0.446777H20.9477C20.8842 0.446777 20.8211 0.471653 20.775 0.514724C20.729 0.557027 20.7036 0.616709 20.7036 0.67742V2.97606H20.7041V7.8559H20.7036V10.1421C20.7036 10.2028 20.7298 10.2625 20.775 10.3045C20.8209 10.3478 20.8842 10.3725 20.9485 10.3725H21.7481C21.8125 10.3725 21.8755 10.3478 21.9212 10.3045C21.9676 10.2625 21.993 10.2028 21.993 10.1421V9.66938C22.5267 10.2664 23.2928 10.4721 23.9957 10.4718H24.045C24.8998 10.469 25.6392 10.2049 26.1002 9.77886C26.9621 8.96293 27.159 7.71217 27.1619 6.54961C27.1595 5.39329 26.9621 4.28702 26.1148 3.47419Z" fill="#6D2077"/>
<path d="M33.2447 6.70458C33.2447 7.43074 33.1668 8.01345 32.8903 8.52016C32.615 9.01516 32.1742 9.34208 31.3199 9.34983H31.3069H31.2929H31.2872C30.4333 9.34208 29.991 9.01465 29.718 8.5212C29.4394 8.01345 29.3621 7.43074 29.3613 6.70458V6.66048C29.3613 5.92964 29.4394 5.21383 29.718 4.70378C29.991 4.21058 30.4333 3.88342 31.2872 3.87486H31.3012C31.3183 3.87564 31.3273 3.87564 31.3328 3.87486C32.181 3.88783 32.6176 4.2142 32.8892 4.70301C33.1655 5.21099 33.2426 5.92081 33.2447 6.64726V6.66412V6.66593V6.68202V6.70458ZM33.4849 9.75716C34.3322 8.94432 34.5296 7.83808 34.532 6.68176C34.5291 5.5192 34.3322 4.26844 33.4704 3.4525C33.0093 3.02647 32.2699 2.76236 31.4151 2.75952H31.3658C30.6629 2.75926 29.8968 2.965 29.3632 3.56199V3.08926C29.3632 3.02855 29.3377 2.96888 29.2913 2.92686C29.2456 2.88354 29.1826 2.85889 29.1182 2.85889H28.3186C28.2543 2.85889 28.191 2.88354 28.1451 2.92686C28.0999 2.96888 28.0737 3.02855 28.0737 3.08926V5.37547H28.0742V10.2553H28.0737V12.554C28.0737 12.6147 28.0992 12.6743 28.1451 12.7166C28.1913 12.7597 28.2543 12.7846 28.3179 12.7846H29.118C29.1826 12.7846 29.2459 12.7597 29.2913 12.7166C29.3367 12.6743 29.3626 12.6147 29.3626 12.554V10.2553H29.3613V9.80156L29.3621 9.80206C29.9661 10.3191 30.6611 10.4662 31.3658 10.466C31.3824 10.466 31.4003 10.466 31.4117 10.4644C32.2686 10.4636 33.008 10.1995 33.4704 9.77301C33.476 9.76781 33.4805 9.76236 33.4849 9.75716Z" fill="#6D2077"/>
<path d="M44.9635 11.0704C44.8932 11.261 44.767 11.5685 44.6828 11.7534C44.6828 11.7534 44.5306 12.0883 44.315 12.3044C44.1177 12.5014 43.8925 12.6375 43.6386 12.7128C43.3853 12.7879 43.2187 12.7996 43.2187 12.7996C43.0159 12.8137 42.72 12.8254 42.5613 12.8254C42.4026 12.8254 42.2725 12.6591 42.2725 12.4561V11.9131C42.2725 11.7101 42.3551 11.5438 42.4558 11.5438C42.5566 11.5438 42.8043 11.5266 43.0063 11.5057C43.0063 11.5057 43.1601 11.4896 43.3008 11.3816C43.4418 11.2732 43.513 11.1179 43.513 11.1179C43.5977 10.933 43.7226 10.6252 43.7903 10.4336L43.9381 10.0161C44.0059 9.82447 44.0041 9.51168 43.9344 9.32088L41.6954 3.2012C41.6256 3.01038 41.7348 2.85425 41.9381 2.85425H42.7203C42.9234 2.85425 43.1431 3.01168 43.2083 3.20404L44.675 7.53225C44.7404 7.72488 44.8457 7.72437 44.9096 7.53148L46.3396 3.2051C46.4034 3.01195 46.6218 2.85425 46.8252 2.85425H47.6212C47.8245 2.85425 47.9332 3.01012 47.8631 3.20091L44.9635 11.0704Z" fill="#6D2077"/>
<path d="M36.439 8.16415V8.14651C36.443 7.75922 36.561 7.51722 36.7832 7.34682C37.0156 7.16971 37.4072 7.05514 37.9935 7.05514H37.9986H39.9704V7.66947C39.9686 8.27207 39.8363 8.60515 39.6592 8.76058C39.2316 9.15457 38.7022 9.21386 38.0569 9.2155H38.0499H38.0381C37.4168 9.216 37.009 9.10864 36.7777 8.94061C36.5576 8.78196 36.4446 8.55519 36.439 8.16415ZM41.2979 5.34696V5.34162C41.2982 4.57771 41.0439 3.92275 40.5105 3.48496C39.9739 3.04422 39.203 2.83723 38.2112 2.83669H38.1752H38.1618C37.1196 2.834 36.2926 3.06051 35.6628 3.73018L35.6601 3.72802L35.624 3.77129C35.5767 3.82339 35.5303 3.87786 35.4849 3.93529C35.4846 3.93583 35.4843 3.93663 35.4841 3.93717L35.4197 4.01356C35.381 4.05923 35.362 4.12066 35.37 4.18236C35.3767 4.24437 35.4082 4.30392 35.4563 4.34558L35.4926 4.37709C35.5065 4.39365 35.522 4.40914 35.5391 4.42331L35.6799 4.53895L36.0548 4.86296C36.1027 4.90462 36.166 4.92733 36.2272 4.92414C36.2883 4.92174 36.3452 4.89394 36.3839 4.848L36.6243 4.56246V4.56221C36.7745 4.39981 36.9286 4.28414 37.1148 4.20268C37.3776 4.08755 37.7149 4.03358 38.2024 4.02904L38.2083 4.02878L38.2246 4.02826C38.918 4.02984 39.3494 4.17088 39.5962 4.38751C39.8424 4.60038 39.9675 4.9228 39.9693 5.42337C39.9693 5.42656 39.9693 5.43562 39.9704 5.44684V5.91912H37.9121C37.0814 5.92098 36.3869 6.10851 35.8858 6.49928C35.3879 6.8815 35.1101 7.46968 35.1099 8.15507L35.1101 8.18098C35.1115 8.75207 35.3259 9.31164 35.7162 9.70058C36.2429 10.2195 36.9449 10.4081 38.0053 10.4081H38.017H38.5545C39.5256 10.4092 40.2223 10.1691 40.671 9.68557C41.1187 9.20238 41.2982 8.50282 41.2982 7.63342V5.36005L41.2979 5.34696Z" fill="#6D2077"/>
<path d="M12.439 2.8689C12.2266 2.8689 12.0057 3.03612 11.9477 3.24009L10.5492 8.17238C10.4913 8.37671 10.3896 8.37882 10.3232 8.1771L8.69675 3.23545C8.63059 3.03393 8.40264 2.8689 8.19022 2.8689H7.89854C7.68626 2.8689 7.45867 3.03396 7.39277 3.23576L5.7792 8.17682C5.71326 8.37862 5.61142 8.37699 5.55314 8.17272L4.14217 3.24019C4.08375 3.03595 3.86215 2.8689 3.64972 2.8689H3.0555C2.84336 2.8689 2.72214 3.03445 2.78616 3.23682L4.94419 10.0431C5.00846 10.2452 5.2345 10.4111 5.44693 10.4111H5.85502C6.04453 10.4111 6.24884 10.2641 6.30903 10.0844L7.92223 5.27011C7.98977 5.06883 8.10036 5.06883 8.1684 5.26986L9.78094 10.0453C9.84904 10.2463 10.0783 10.4111 10.2905 10.4111H10.6855C10.8821 10.4111 11.0913 10.2577 11.1504 10.0701L13.3031 3.23708C13.3669 3.03445 13.2454 2.8689 13.0332 2.8689L12.439 2.8689Z" fill="#6D2077"/>
<path d="M19.7893 6.40166C19.7893 4.1631 18.6016 2.77246 16.6897 2.77246C14.749 2.77246 13.5903 4.20633 13.5903 6.6079C13.5903 9.08106 14.759 10.4433 16.881 10.4433C18.1991 10.4433 18.9062 10.0012 19.6199 9.28783L19.7149 9.1929L18.804 8.3933L18.7206 8.47647C18.139 9.05803 17.6653 9.26401 16.9106 9.26401C15.6539 9.26401 14.9421 8.46523 14.9037 7.01343H19.7893V6.40166ZM14.9089 5.96667C14.9354 5.49742 14.9693 5.28737 15.1129 4.93478C15.3767 4.31023 15.9809 3.92234 16.6897 3.92234C17.3985 3.92234 18.0026 4.30997 18.2663 4.93374C18.4102 5.28737 18.444 5.49742 18.4706 5.96667H14.9089Z" fill="#6D2077"/>
<path d="M1.17486 4.43073C1.59852 4.43073 1.94253 4.08492 1.94253 3.65837C1.94253 3.23185 1.59852 2.88574 1.17486 2.88574C0.752201 2.88574 0.408203 3.23185 0.408203 3.65837C0.408203 4.08492 0.752201 4.43073 1.17486 4.43073Z" fill="#D00070"/>
<path d="M47.8242 10.4066C48.2481 10.4066 48.5919 10.0607 48.5919 9.63447C48.5919 9.20766 48.2481 8.86133 47.8242 8.86133C47.4013 8.86133 47.0581 9.20766 47.0581 9.63447C47.0581 10.0607 47.4013 10.4066 47.8242 10.4066Z" fill="#D00070"/>
</svg>
