<svg xmlns="http://www.w3.org/2000/svg" id="Layer_2" data-name="Layer 2" viewBox="0 0 50 20.43"><defs><style>.cls-1{fill:#6c1cd3}</style></defs><g id="Layer_1-2" data-name="Layer 1"><g id="Grupo_3129" data-name="Grupo 3129"><path id="path6" d="M4.61 2.83.29 2.79v2.87h7.17L0 15.2v2.43h4.6v2.8h2.76v-2.8h4.7a.74.74 0 0 0-.2-.69 6.83 6.83 0 0 1-1.05-1.55c-.14-.27-.24-.59-.28-.62-.92-.04-6.25-.03-6.24-.06l7.45-9.6V2.83H7.36V0H4.6v2.83Z" class="cls-1"/><path id="path8" d="M24.56 1.49c-.07.03-.09 1.48-.09 6.99 0 7.44 0 7.32.32 7.95a2.9 2.9 0 0 0 1.83 1.3c.75.12 1.52.13 2.27.03.65-.14.78-.34.52-.84a5.6 5.6 0 0 1-.43-1.39c-.07-.45-.16-.53-.72-.51-.19.01-.38 0-.56-.04-.27-.17-.27-.22-.27-6.88 0-4.28-.02-6.43-.07-6.52-.06-.12-.15-.12-1.4-.12-.73 0-1.37.02-1.41.04Z" class="cls-1"/><path id="path10" d="M30.59 1.51c-.09.05-.1.89-.1 6.92 0 6.49 0 6.89.12 7.34.2.87.84 1.57 1.69 1.84.4.16.84.23 1.28.2.68.08 1.38-.02 2.01-.3.5-.24.51-.42.09-1.04-.17-.25-.43-.68-.58-.95l-.26-.49h-.48c-.6-.02-.66-.05-.77-.33-.09-.19-.1-1.17-.1-6.61 0-4.28-.02-6.43-.07-6.52-.07-.12-.15-.12-1.4-.12-.48-.02-.95 0-1.43.06Z" class="cls-1"/><path id="path12" d="M48.09 2.93c-.51.2-.84.7-.82 1.25-.02.47.21.91.61 1.15.57.34 1.29.26 1.76-.21.51-.58.45-1.46-.12-1.96l-.11-.09c-.4-.24-.88-.29-1.32-.14Zm1.05.24a1.14 1.14 0 0 1 .22 1.9.98.98 0 0 1-.88.25 1.17 1.17 0 0 1-.99-1.3c.05-.4.32-.74.69-.9.31-.13.66-.11.95.06Z" class="cls-1"/><path id="path14" d="M48.14 3.47c-.05.47-.05.95 0 1.43.02.06.07.1.13.11.07 0 .09-.09.09-.33 0-.3.01-.33.15-.33.11 0 .2.09.34.33.12.2.24.33.31.33.16 0 .15-.03-.09-.38-.14-.21-.18-.31-.12-.33a.57.57 0 0 0 .34-.44c0-.3-.21-.43-.68-.43-.15-.01-.31 0-.45.05Zm.8.21c.06.05.08.13.07.21-.02.14-.06.16-.33.18l-.32.02v-.23c0-.23 0-.24.25-.24.11 0 .22.02.32.06Z" class="cls-1"/><path id="path16" d="m16.29 5.63-.56.13a5.54 5.54 0 0 0-3.82 3.33c-.34.84-.5 1.75-.48 2.66a6.02 6.02 0 0 0 .97 3.57 5.6 5.6 0 0 0 5.17 2.48c.61.04 1.22 0 1.82-.15a6.9 6.9 0 0 0 2.94-1.61c.51-.47.5-.6-.01-1-.3-.25-.58-.51-.84-.8-.32-.34-.51-.49-.6-.49-.2.06-.37.17-.51.33-.76.66-1.75.99-2.76.93a2.99 2.99 0 0 1-2.34-.85c-.3-.38-.51-.82-.63-1.29l-.04-.24h4.1c2.26 0 4.15-.03 4.19-.06.22-.14.27-1.09.11-2.13a5.35 5.35 0 0 0-5.69-4.84c-.53 0-.98.02-1.02.03Zm1.76 2.54c.51.12.98.37 1.35.74.28.33.48.72.58 1.14l.05.21h-5.36l.05-.21c.24-.93.97-1.65 1.91-1.87.47-.1.96-.11 1.43-.02Z" class="cls-1"/><path id="path18" d="M40.2 5.68a5.59 5.59 0 0 0-4.41 4.59 7.21 7.21 0 0 0 .43 4.3 5.43 5.43 0 0 0 4.05 3.12c.58.12 1.18.16 1.78.11.54 0 1.07-.05 1.59-.17a6.62 6.62 0 0 0 2.87-1.56c.58-.56.58-.58-.05-1.1a7.48 7.48 0 0 1-.86-.83c-.43-.49-.54-.5-1.02-.07-.76.67-1.75 1-2.76.93a2.65 2.65 0 0 1-2.96-2.17l-.05-.17h8.34c.28-.2.18-2.36-.16-3.36-.11-.3-.24-.59-.39-.87a5.17 5.17 0 0 0-3.71-2.75c-.89-.12-1.79-.12-2.68 0Zm2.05 2.48c.46.1.88.32 1.24.62.34.37.59.83.72 1.32v.16h-5.34l.05-.19a2.73 2.73 0 0 1 3.34-1.91Z" class="cls-1"/></g></g></svg>