<svg width="85" height="150" viewBox="0 0 85 150" fill="none" xmlns="http://www.w3.org/2000/svg">
<path opacity="0.4" d="M57.1987 0.0354263L13.5594 56.3483C6.33988 65.6645 6.33989 80.7691 13.5594 90.0853L57.1987 146.398C64.4182 155.714 76.1234 155.714 83.3429 146.398L126.982 90.0853C134.202 80.7691 134.202 65.6645 126.982 56.3483L83.3429 0.0354218C76.1234 -9.28079 64.4182 -9.28079 57.1987 0.0354263Z" fill="#0878FE"/>
<path opacity="0.4" d="M87.7055 -5.77618L40.5599 55.0613C32.7603 65.1261 32.7603 81.4442 40.5599 91.509L87.7055 152.347C95.5051 162.411 108.151 162.411 115.95 152.347L163.096 91.509C170.896 81.4443 170.896 65.1261 163.096 55.0613L115.95 -5.77619C108.151 -15.8409 95.5051 -15.8409 87.7055 -5.77618Z" fill="#0878FE"/>
<path opacity="0.4" d="M116.28 -5.51143L69.2924 55.1223C61.5189 65.1534 61.5189 81.4169 69.2924 91.448L116.28 152.082C124.054 162.113 136.657 162.113 144.43 152.082L191.418 91.448C199.192 81.4169 199.192 65.1534 191.418 55.1223L144.43 -5.51144C136.657 -15.5425 124.054 -15.5425 116.28 -5.51143Z" fill="#0878FE"/>
</svg>
