<svg width="50" height="33" viewBox="0 0 50 33" fill="none" xmlns="http://www.w3.org/2000/svg">
<path d="M16.6667 32.7586H0.862113C0.386033 32.7586 0 32.3726 0 31.8965V0.86211C0 0.38604 0.386033 0 0.862113 0H16.6667V32.7586Z" fill="#464655"/>
<path d="M33.334 0.000366211H16.667V32.7591H33.334V0.000366211Z" fill="#D0353E"/>
<path d="M49.1376 32.7586H33.333V0H49.1376C49.6137 0 49.9997 0.38604 49.9997 0.86211V31.8965C49.9997 32.3727 49.6137 32.7586 49.1376 32.7586Z" fill="#73AF00"/>
<path d="M27.2505 18.0696H22.751L23.001 17.5696H27.0005L27.2505 18.0696Z" fill="#F5F5F5"/>
<path d="M27.2505 14.0698H22.751L23.001 14.5698H27.0005L27.2505 14.0698Z" fill="#F5F5F5"/>
<path d="M26.2507 14.3198H23.751L24.251 13.8199H25.7508L26.2507 14.3198Z" fill="#F5F5F5"/>
<path d="M23.7504 16.8197H23.0005V17.3197H23.7504V16.8197Z" fill="#F5F5F5"/>
<path d="M23.7504 16.0697H23.0005V16.5697H23.7504V16.0697Z" fill="#F5F5F5"/>
<path d="M23.7504 14.8197H23.0005V15.3197H23.7504V14.8197Z" fill="#F5F5F5"/>
<path d="M23.7504 15.5697H23.0005V15.8197H23.7504V15.5697Z" fill="#F5F5F5"/>
<path d="M27.0006 16.8197H26.2507V17.3197H27.0006V16.8197Z" fill="#F5F5F5"/>
<path d="M27.0006 16.0697H26.2507V16.5697H27.0006V16.0697Z" fill="#F5F5F5"/>
<path d="M27.0006 14.8197H26.2507V15.3197H27.0006V14.8197Z" fill="#F5F5F5"/>
<path d="M27.0006 15.5697H26.2507V15.8197H27.0006V15.5697Z" fill="#F5F5F5"/>
<path d="M23.7507 12.8197H23.2507V13.8196H23.7507V12.8197Z" fill="#F5F5F5"/>
<path d="M23.7507 12.5701H23.2507V12.3201C23.2507 12.182 23.3626 12.0701 23.5007 12.0701C23.6388 12.0701 23.7507 12.182 23.7507 12.3201V12.5701Z" fill="#F5F5F5"/>
<path d="M26.7507 12.8197H26.2507V13.8196H26.7507V12.8197Z" fill="#F5F5F5"/>
<path d="M26.7505 12.5701H26.2505V12.3201C26.2505 12.182 26.3624 12.0701 26.5005 12.0701C26.6386 12.0701 26.7505 12.182 26.7505 12.3201V12.5701Z" fill="#F5F5F5"/>
<path d="M25.0004 14.8198C24.4482 14.8198 24.0005 15.2675 24.0005 15.8197V17.3196H26.0003V15.8197C26.0003 15.2675 25.5528 14.8198 25.0004 14.8198Z" fill="#F5F5F5"/>
<path d="M23.3457 16.3947L21.9846 14.8069C21.9934 14.7812 22.001 14.7549 22.001 14.7262C22.001 14.5882 21.889 14.4762 21.751 14.4762C21.6129 14.4762 21.501 14.5882 21.501 14.7262C21.501 14.8643 21.6129 14.9762 21.751 14.9762C21.766 14.9762 21.7791 14.9702 21.7933 14.9678L21.9342 15.1321L21.251 16.7262L22.0009 17.4761L22.6484 15.9653L23.1559 16.5574L23.3457 16.3947ZM22.1296 16.9169L21.5312 16.3185L21.8011 15.6886L22.3995 16.2869L22.1296 16.9169Z" fill="#F5F5F5"/>
<path d="M26.8516 16.5572L27.3591 15.9651L28.0067 17.4759L28.7566 16.726L28.0734 15.1319L28.2142 14.9676C28.2286 14.9701 28.2415 14.9761 28.2566 14.9761C28.3947 14.9761 28.5066 14.8642 28.5066 14.7261C28.5066 14.588 28.3947 14.4761 28.2566 14.4761C28.1185 14.4761 28.0066 14.588 28.0066 14.7261C28.0066 14.7548 28.014 14.7811 28.0229 14.8067L26.6619 16.3945L26.8516 16.5572ZM27.608 16.2869L28.2063 15.6886L28.4762 16.3185L27.8779 16.9169L27.608 16.2869Z" fill="#F5F5F5"/>
<path d="M25.2838 12.3636C25.2052 12.3405 25.1351 12.2976 25.0908 12.2289C25.0612 12.1829 25.031 12.1306 25.0009 12.0702C24.9707 12.1306 24.9405 12.1829 24.9109 12.2289C24.8665 12.2977 24.7965 12.3406 24.7179 12.3636C24.3038 12.4856 24.001 12.8664 24.001 13.32C24.001 13.4068 24.0155 13.4896 24.0363 13.57H25.9654C25.9862 13.4896 26.0008 13.4068 26.0008 13.32C26.0007 12.8664 25.6979 12.4856 25.2838 12.3636Z" fill="#F5F5F5"/>
<path d="M19.2728 16.0404C19.2602 15.885 19.252 15.7285 19.252 15.5698C19.252 15.2487 19.2811 14.9329 19.3326 14.623C19.4047 14.6729 19.4802 14.7278 19.5586 14.7894C19.522 15.0458 19.5019 15.3061 19.5019 15.5698C19.5019 15.7546 19.5113 15.9373 19.5292 16.1175L20.0576 16.2762C20.0246 16.0447 20.0018 15.8101 20.0018 15.5698C20.0018 15.4503 20.0089 15.3322 20.0184 15.2145C20.2943 15.5206 20.5121 15.8903 20.5121 16.2989C20.5121 16.3094 21.3142 15.1115 19.856 13.7887L19.8455 14.3512L19.0057 14.3424C18.93 14.3416 18.8634 14.3953 18.8502 14.4698C18.7863 14.8291 18.752 15.1965 18.752 15.5698C18.752 15.676 18.7548 15.7814 18.76 15.8863L19.2728 16.0404Z" fill="#F5F5F5"/>
<path d="M21.4901 11.0179C21.5993 10.9337 21.6195 10.7767 21.5351 10.6674C21.4505 10.558 21.2937 10.5383 21.1844 10.6224C20.053 11.4962 19.2767 12.6966 18.9404 14.0412L19.4557 14.0478C19.78 12.8578 20.4816 11.797 21.4901 11.0179Z" fill="#F5F5F5"/>
<path d="M21.1551 11.6413C20.6114 12.1737 20.1999 12.8004 19.9199 13.4811C20.0745 13.6081 20.2012 13.7364 20.3064 13.8641C20.5583 13.17 20.9596 12.5328 21.505 11.9987C21.6036 11.9021 21.6053 11.7439 21.5087 11.6453C21.4117 11.5464 21.2537 11.5446 21.1551 11.6413Z" fill="#F5F5F5"/>
<path d="M20.2865 18.847C19.9158 18.3151 19.6325 17.7186 19.4566 17.0779L19.7473 17.1847C19.9288 17.7694 20.2043 18.3132 20.557 18.7976L21.1088 18.6967C20.7973 18.3094 20.5412 17.876 20.3542 17.4078L20.6804 17.5276C20.8665 17.9363 21.1048 18.3121 21.3889 18.6455L21.963 18.5403C21.7372 18.3098 21.5397 18.0504 21.3696 17.7705L21.037 17.1053C20.9343 16.8998 20.7514 16.7459 20.5313 16.68L19.7444 16.4434L19.5625 16.3888L19.3006 16.31L18.7796 16.1535L18.5015 16.0699L18.6735 16.5863C18.7113 16.6997 18.7878 16.7943 18.8872 16.8564C19.0463 17.6118 19.3413 18.3176 19.7466 18.9462L20.2865 18.847Z" fill="#F5F5F5"/>
<path d="M30.1564 14.3512L30.146 13.7887C28.6878 15.1115 29.4898 16.3094 29.4898 16.2989C29.4898 15.8903 29.7076 15.5206 29.9836 15.2145C29.993 15.3322 30.0002 15.4504 30.0002 15.5698C30.0002 15.8102 29.9773 16.0448 29.9443 16.2762L30.4727 16.1175C30.4906 15.9373 30.5001 15.7547 30.5001 15.5698C30.5001 15.306 30.48 15.0457 30.4432 14.7894C30.5217 14.7279 30.5973 14.6729 30.6692 14.623C30.7209 14.9328 30.7499 15.2488 30.7499 15.5698C30.7499 15.7284 30.7417 15.885 30.729 16.0404L31.2418 15.8863C31.2471 15.7814 31.2498 15.676 31.2498 15.5698C31.2498 15.1965 31.2153 14.8291 31.1515 14.4698C31.1383 14.3952 31.0717 14.3416 30.9961 14.3424L30.1564 14.3512Z" fill="#F5F5F5"/>
<path d="M30.5454 14.0478L31.0606 14.0412C30.7243 12.6966 29.948 11.4962 28.8167 10.6224C28.7074 10.5382 28.5507 10.558 28.466 10.6674C28.3816 10.7767 28.4017 10.9338 28.511 11.018C29.5195 11.7969 30.2211 12.8577 30.5454 14.0478Z" fill="#F5F5F5"/>
<path d="M30.0811 13.4812C29.801 12.8005 29.3896 12.1739 28.846 11.6414C28.7473 11.5448 28.5893 11.5465 28.4925 11.6453C28.3959 11.744 28.3976 11.9022 28.4963 11.9988C29.0417 12.5328 29.4429 13.17 29.6949 13.8641C29.7999 13.7366 29.9264 13.6082 30.0811 13.4812Z" fill="#F5F5F5"/>
<path d="M31.2217 16.1532L30.7007 16.3097L30.4388 16.3885L30.2569 16.4431L29.47 16.6796C29.2499 16.7457 29.0669 16.8996 28.9643 17.1049L28.6317 17.7702C28.4617 18.05 28.2641 18.3095 28.0383 18.54L28.6124 18.6452C28.8965 18.3118 29.1349 17.9361 29.3209 17.5273L29.6471 17.4075C29.46 17.8756 29.204 18.3092 28.8925 18.6963L29.4443 18.7973C29.7972 18.3127 30.0725 17.7691 30.254 17.1844L30.5447 17.0776C30.3688 17.7183 30.0855 18.3149 29.7148 18.8467L30.2547 18.9456C30.66 18.3167 30.9549 17.6111 31.1141 16.8558C31.2135 16.7936 31.29 16.699 31.3278 16.5857L31.4998 16.0693L31.2217 16.1532Z" fill="#F5F5F5"/>
<path d="M27.606 18.9171L27.5931 18.9285C26.8658 19.4898 25.9626 19.8193 25.0009 19.8193C24.0392 19.8193 23.1359 19.4898 22.4087 18.9285L22.3958 18.9171C22.3014 18.8133 22.1595 18.7668 22.022 18.7945L19.5015 19.3194L20.0607 19.8096C20.2103 19.9408 20.4025 20.0019 20.5936 19.9907C21.0437 20.4389 21.5606 20.8199 22.1291 21.1159L21.9653 21.4181C22.8684 21.9091 23.9026 22.1883 25.0009 22.1883C26.0991 22.1883 27.1333 21.9091 28.0364 21.4181L27.8727 21.1159C28.4411 20.8199 28.958 20.4388 29.4081 19.9907C29.5992 20.0019 29.7915 19.9407 29.9411 19.8096L30.5004 19.3194L27.9799 18.7945C27.8423 18.7668 27.7003 18.8133 27.606 18.9171ZM22.368 20.6746C21.9148 20.4388 21.5 20.1411 21.1267 19.7986L21.3693 19.6829C21.7083 19.9829 22.0811 20.2456 22.4863 20.4558L22.368 20.6746ZM28.8747 19.7988C28.5015 20.1412 28.0865 20.4388 27.6334 20.6748L27.5149 20.4561C27.9201 20.2459 28.2929 19.9832 28.6319 19.6832L28.8747 19.7988ZM25.0007 20.5692C23.8101 20.5692 22.7191 20.1467 21.8602 19.4488L22.1096 19.3299C22.9206 19.9546 23.9284 20.3192 25.0005 20.3192C26.0726 20.3192 27.0805 19.9546 27.8914 19.3299L28.1408 19.4488C27.2824 20.1469 26.1913 20.5692 25.0007 20.5692Z" fill="#F5F5F5"/>
<path d="M22.2578 18.5628C22.3651 18.6536 22.4764 18.7396 22.5925 18.8194H27.4091C27.5251 18.7395 27.6364 18.6536 27.7437 18.5628L27.5006 18.3196H22.5011L22.2578 18.5628Z" fill="#F5F5F5"/>
</svg>
