<svg width="51" height="34" viewBox="0 0 51 34" fill="none" xmlns="http://www.w3.org/2000/svg">
<path d="M49.7474 33.7029H1.47173C0.995654 33.7029 0.609619 33.3169 0.609619 32.8408V1.8065C0.609619 1.33043 0.995654 0.944397 1.47173 0.944397H49.7475C50.2236 0.944397 50.6096 1.33043 50.6096 1.8065V32.8408C50.6095 33.317 50.2235 33.7029 49.7474 33.7029Z" fill="#D0353E"/>
<path d="M35.0387 21.405C34.5672 21.1087 34.2844 21.5801 34.2844 21.5801L32.9104 21.7417L33.5973 21.1625C34.0957 21.203 34.1631 21.0548 34.2977 20.8528C34.4324 20.6507 34.9981 20.7451 34.9981 20.7451C34.9173 20.1254 34.136 20.4756 34.136 20.4756C33.5029 20.4082 33.3952 20.9201 33.3952 20.9201L32.4119 21.6744L30.2479 21.0332C30.4724 20.786 30.6486 20.5423 30.6743 20.3948C30.7174 20.147 29.076 19.7302 28.573 19.2094C28.0702 18.6885 27.8906 17.8624 28.1241 17.6469C28.3575 17.4314 28.5552 18.0419 28.8065 18.5449C29.0579 19.0478 29.525 19.4428 29.8303 19.1914C30.1355 18.9401 29.507 18.5629 29.2196 18.0241C28.9323 17.4853 29.4352 17.2876 29.6686 17.3415C29.9021 17.3955 30.0458 18.509 30.6026 19.0836C31.1593 19.6583 31.6622 19.5505 31.7161 19.1913C31.77 18.8322 30.7973 18.3896 30.5996 18.0842C30.402 17.7789 30.3511 17.1798 30.6744 17.162C30.9976 17.144 32.183 18.9106 33.1889 19.5866C34.2844 20.3229 35.1643 19.4608 35.0208 19.1016C34.8771 18.7423 34.2126 18.8861 33.4403 18.6884C32.6681 18.4909 31.8778 17.4492 31.6443 16.8746C31.4108 16.2998 31.6039 16.2998 31.7387 16.3538C31.8733 16.4077 32.3852 17.162 33.3685 17.7412C34.3518 18.3203 35.0388 17.7681 35.1196 17.6334C35.2005 17.4988 35.5111 16.8941 34.5 17.0363C33.3507 17.1979 32.695 16.5155 32.2236 16.1518C31.7521 15.7881 31.5636 15.2897 31.7791 15.0876C31.9946 14.8856 32.704 15.797 33.7815 16.0844C34.7714 16.3483 35.1734 15.9228 35.1464 15.5322C35.1194 15.1415 34.8904 15.3032 33.7724 15.1955C32.6545 15.0877 31.8732 14.0371 31.8328 13.9697C31.7924 13.9023 31.8058 13.5251 32.3716 13.8888C32.9373 14.2525 33.9475 14.468 34.5402 14.4411C35.1329 14.4141 35.2541 13.6194 34.9713 13.4847C34.6885 13.35 34.6211 13.5521 33.9745 13.6868C33.3279 13.8214 32.1157 13.1615 31.8193 12.8516C31.5229 12.5417 31.8463 12.3398 31.9944 12.3667C32.1426 12.3935 33.1124 12.9593 33.9745 12.9324C34.8366 12.9054 35.2003 12.1107 35.1733 11.8682C35.1464 11.6257 34.9039 11.4237 34.5402 11.6662C34.1765 11.9086 33.6916 12.1915 32.8835 12.0568C32.0753 11.9221 31.6981 11.3833 31.8059 11.1813C31.9137 10.9793 32.6949 11.3294 33.9342 11.1948C35.1734 11.0601 35.2272 9.96902 35.106 9.75352C34.9848 9.53792 34.6885 9.60532 34.2709 9.99602C33.8533 10.3866 33.0451 10.4674 32.4121 10.4674C31.779 10.4674 31.7655 10.1577 31.8599 9.94212C31.9542 9.72662 32.6276 9.78052 33.5705 9.48412C34.5134 9.18782 35.0521 8.43352 35.2004 7.96212C35.3486 7.49072 34.9848 7.12692 34.8367 7.12692C34.6886 7.12692 34.7828 6.91142 34.1363 7.84082C33.4897 8.77022 31.7926 9.13382 31.7926 9.13382C31.6714 8.90482 31.4828 8.82412 31.4828 8.82412C30.3379 9.05312 28.9568 10.0417 28.9568 10.0417C28.9568 10.0417 29.2003 10.8225 28.8961 11.4311C28.5044 12.2145 27.1618 11.7251 27.527 10.4879C27.831 9.45772 29.0076 8.83482 30.0017 8.72322C30.9956 8.61172 31.0463 8.23642 31.0463 8.23642C31.0463 8.23642 30.0025 8.57622 29.9839 8.10972C30.1994 8.15352 30.5171 8.17252 31.0564 8.12482C31.8577 8.05392 32.304 7.48582 31.949 7.36412C31.594 7.24242 31.7462 7.60762 31.1376 7.89162C30.7035 8.09412 30.2479 8.00292 30.0199 7.93372C30.2306 7.47372 31.1173 7.70892 31.1173 7.70892C31.1274 6.90772 30.0643 7.19432 30.0643 7.19432C29.5974 6.18842 26.8674 7.35592 26.8674 7.35592L27.514 7.87672C25.9335 8.75672 25.6102 10.4269 25.6102 10.4269C25.6102 10.4269 25.2869 8.75672 23.7064 7.87662L24.3529 7.35582C24.3529 7.35582 21.623 6.18832 21.1561 7.19422C21.1561 7.19422 20.0928 6.90772 20.103 7.70882C20.103 7.70882 20.9898 7.47362 21.2005 7.93362C20.9725 8.00292 20.5169 8.09402 20.0828 7.89152C19.4743 7.60742 19.6265 7.24242 19.2714 7.36402C18.9164 7.48572 19.3627 8.05372 20.164 8.12472C20.7033 8.17242 21.021 8.15352 21.2365 8.10962C21.2179 8.57612 20.1741 8.23632 20.1741 8.23632C20.1741 8.23632 20.2249 8.61152 21.2188 8.72312C22.2127 8.83472 23.3895 9.45762 23.6935 10.4878C24.0585 11.7251 22.716 12.2143 22.3243 11.431C22.02 10.8225 22.2636 10.0416 22.2636 10.0416C22.2636 10.0416 20.8825 9.05302 19.7376 8.82402C19.7376 8.82402 19.549 8.90482 19.4278 9.13372C19.4278 9.13372 17.7307 8.77012 17.0841 7.84072C16.4375 6.91132 16.5319 7.12682 16.3837 7.12682C16.2356 7.12682 15.8719 7.49052 16.02 7.96202C16.1682 8.43352 16.707 9.18782 17.6499 9.48402C18.5929 9.78032 19.2663 9.72652 19.3606 9.94202C19.4549 10.1576 19.4414 10.4673 18.8083 10.4673C18.1752 10.4673 17.367 10.3865 16.9495 9.99592C16.532 9.60522 16.2357 9.53782 16.1144 9.75342C15.9932 9.96892 16.047 11.0599 17.2862 11.1947C18.5255 11.3293 19.3068 10.9792 19.4145 11.1812C19.5222 11.3833 19.145 11.922 18.3369 12.0567C17.5287 12.1914 17.0439 11.9085 16.6802 11.6661C16.3165 11.4236 16.074 11.6256 16.0471 11.8681C16.0201 12.1106 16.3838 12.9053 17.2459 12.9323C18.108 12.9592 19.0778 12.3935 19.226 12.3666C19.3741 12.3396 19.6975 12.5416 19.4011 12.8514C19.1048 13.1612 17.8925 13.8212 17.2459 13.6866C16.5993 13.5519 16.5321 13.3499 16.2491 13.4845C15.9662 13.6192 16.0875 14.4139 16.6802 14.4409C17.2729 14.4678 18.2831 14.2523 18.8488 13.8886C19.4146 13.5249 19.428 13.9021 19.3876 13.9695C19.3472 14.0369 18.5659 15.0874 17.448 15.1953C16.33 15.303 16.101 15.1414 16.074 15.532C16.0471 15.9226 16.4491 16.3482 17.439 16.0842C18.5165 15.7968 19.2261 14.8854 19.4415 15.0874C19.657 15.2895 19.4685 15.7878 18.997 16.1516C18.5255 16.5153 17.8699 17.1977 16.7206 17.0361C15.7095 16.894 16.0202 17.4986 16.101 17.6332C16.1818 17.7679 16.8688 18.3202 17.8521 17.741C18.8354 17.1618 19.3472 16.4075 19.4819 16.3536C19.6166 16.2997 19.8098 16.2997 19.5763 16.8744C19.3428 17.4491 18.5526 18.4908 17.7803 18.6882C17.008 18.8859 16.3435 18.7421 16.1998 19.1014C16.0562 19.4606 16.9362 20.3226 18.0318 19.5863C19.0376 18.9103 20.2229 17.1437 20.5462 17.1617C20.8694 17.1795 20.8185 17.7787 20.621 18.0839C20.4234 18.3893 19.4506 18.8319 19.5045 19.1911C19.5584 19.5502 20.0611 19.6579 20.618 19.0833C21.1747 18.5086 21.3184 17.3951 21.552 17.3412C21.7854 17.2873 22.2883 17.485 22.0009 18.0238C21.7136 18.5625 21.085 18.9397 21.3903 19.1911C21.6956 19.4425 22.1626 19.0475 22.4141 18.5446C22.6654 18.0416 22.863 17.4311 23.0965 17.6466C23.33 17.8621 23.1504 18.6882 22.6475 19.2091C22.1446 19.7299 20.503 20.1467 20.5462 20.3945C20.5719 20.542 20.7481 20.7856 20.9726 21.0329L18.8086 21.6741L17.8253 20.9198C17.8253 20.9198 17.7176 20.4079 17.0845 20.4752C17.0845 20.4752 16.3032 20.125 16.2224 20.7447C16.2224 20.7447 16.7881 20.6503 16.9228 20.8524C17.0574 21.0544 17.1248 21.2026 17.6232 21.1621L18.31 21.7414L16.9361 21.5798C16.9361 21.5798 16.6531 21.1083 16.1818 21.4047C16.1818 21.4047 15.5891 21.2161 15.4409 21.7819C15.4409 21.7819 15.9528 21.6875 16.0875 21.7549C16.0875 21.7549 16.2896 22.2129 16.9362 21.9435L18.2966 22.0109L17.5288 22.388C17.5288 22.388 16.559 22.0783 16.5994 22.8864C16.5994 22.8864 16.3165 23.2096 16.5725 23.5329C16.5725 23.5329 16.6264 23.1827 16.8822 23.0346C16.8822 23.0346 17.3806 23.2367 17.7039 22.644L18.6872 22.0513L19.657 22.5228C19.657 22.5228 19.6301 23.0481 20.344 22.8326C20.344 22.8326 20.5864 22.9942 20.6537 23.2097C20.6537 23.2097 20.9635 22.873 20.4651 22.4824C20.4651 22.4824 20.344 22.0243 19.7513 22.1994L19.199 21.9165L21.2425 21.3102C21.5963 21.6471 21.978 21.9234 22.1116 21.8771C22.3753 21.7858 22.5782 21.512 22.7607 21.1266C22.9432 20.7411 23.7648 19.4025 24.1704 19.4127C24.5761 19.4229 24.7587 19.7473 24.6572 20.3255C24.5559 20.9035 23.7652 22.011 23.2533 22.24C22.7415 22.469 22.6607 22.5767 22.1892 22.5363C21.7177 22.4958 21.5561 22.6979 21.6639 22.9673C21.7716 23.2367 22.302 23.408 22.8223 23.2098C23.388 22.9943 23.6035 22.698 23.819 22.8731C24.0346 23.0482 23.59 23.6813 22.9839 23.8699C22.3777 24.0584 21.9197 23.9372 22.0141 24.3144C22.1084 24.6915 22.7549 24.7185 23.1725 24.476C23.59 24.2335 24.0614 23.5601 24.1827 23.7756C24.3039 23.9911 24.2231 24.5434 23.819 24.8398C23.4149 25.1361 22.9553 24.9617 22.8627 25.2304C22.728 25.621 23.1994 25.877 23.5631 25.7287C23.9268 25.5806 24.3443 25.1226 24.5329 24.7185C24.7215 24.3144 25.0717 24.6646 24.964 25.0417C24.8563 25.4189 24.946 25.7286 24.1736 26.3213L25.6105 28.5303L27.0473 26.3212C26.275 25.7285 26.3648 25.4188 26.2569 25.0416C26.1492 24.6645 26.4994 24.3143 26.688 24.7184C26.8766 25.1225 27.2941 25.5805 27.6578 25.7286C28.0215 25.8768 28.493 25.6209 28.3582 25.2303C28.2656 24.9616 27.806 25.136 27.4019 24.8397C26.9978 24.5434 26.9169 23.991 27.0382 23.7755C27.1594 23.56 27.6309 24.2335 28.0484 24.4759C28.466 24.7184 29.1126 24.6914 29.2068 24.3143C29.3011 23.9371 28.8432 24.0583 28.237 23.8698C27.6309 23.6812 27.1863 23.0481 27.4019 22.873C27.6174 22.6979 27.8329 22.9942 28.3986 23.2097C28.919 23.4079 29.4493 23.2367 29.557 22.9672C29.6647 22.6978 29.5031 22.4957 29.0317 22.5362C28.5603 22.5766 28.4795 22.4688 27.9676 22.2399C27.4557 22.011 26.6651 20.9035 26.5637 20.3254C26.4622 19.7473 26.6448 19.4227 27.0505 19.4126C27.4562 19.4024 28.2776 20.741 28.4602 21.1265C28.6428 21.5119 28.8456 21.7858 29.1093 21.8771C29.243 21.9234 29.6248 21.6471 29.9784 21.3102L32.0219 21.9165L31.4696 22.1994C30.8769 22.0243 30.7558 22.4824 30.7558 22.4824C30.2574 22.873 30.5672 23.2097 30.5672 23.2097C30.6346 22.9942 30.8769 22.8326 30.8769 22.8326C31.5908 23.0481 31.5639 22.5228 31.5639 22.5228L32.5337 22.0513L33.517 22.644C33.8402 23.2367 34.3387 23.0346 34.3387 23.0346C34.5946 23.1827 34.6484 23.5329 34.6484 23.5329C34.9044 23.2097 34.6215 22.8864 34.6215 22.8864C34.6619 22.0783 33.6921 22.3881 33.6921 22.3881L32.9239 22.0112L34.2844 21.9438C34.9309 22.2132 35.133 21.7552 35.133 21.7552C35.2677 21.6878 35.7796 21.7822 35.7796 21.7822C35.6313 21.2164 35.0387 21.405 35.0387 21.405Z" fill="#464655"/>
</svg>
