<svg width="50" height="33" viewBox="0 0 50 33" fill="none" xmlns="http://www.w3.org/2000/svg">
<path d="M49.1378 32.7586H0.862111C0.386034 32.7586 0 32.3726 0 31.8965V0.86211C0 0.38604 0.386034 0 0.862111 0H49.1379C49.6139 0 50 0.38604 50 0.86211V31.8965C49.9999 32.3727 49.6138 32.7586 49.1378 32.7586Z" fill="#F5F5F5"/>
<path d="M38.7934 0.000488281H11.2075V32.7592H38.7934V0.000488281Z" fill="#F5F5F5"/>
<path d="M0.862111 0.000244141C0.386034 0.000244141 0 0.386175 0 0.862245V31.8966C0 32.3727 0.386034 32.7587 0.862111 32.7587H11.2069V0.000244141H0.862111Z" fill="#D0353E"/>
<path d="M49.1385 0.000244141H38.7937V32.7588H49.1385C49.6146 32.7588 50.0006 32.3727 50.0006 31.8967V0.862254C50.0006 0.386184 49.6146 0.000244141 49.1385 0.000244141Z" fill="#D0353E"/>
<path d="M30.2319 20.1647L35.3474 17.2416L34.1736 16.6547C33.8444 16.4901 33.6559 16.1346 33.7047 15.7696L34.0866 12.9062L31.9209 13.5362C31.4425 13.6755 30.946 13.3812 30.8384 12.8947L30.6309 11.9572L28.5974 14.3371C28.3155 14.667 27.7785 14.4151 27.852 13.9873L28.7205 8.93766L27.3909 9.30136C27.0025 9.40756 26.5924 9.23086 26.403 8.87556L25.0029 6.25146V6.24756L25.0019 6.24946L25.0009 6.24756V6.25146L23.6008 8.87556C23.4112 9.23076 23.0011 9.40746 22.6127 9.30136L21.283 8.93766L22.1515 13.9873C22.225 14.4149 21.6879 14.6669 21.406 14.3371L19.3725 11.9572L19.165 12.8947C19.0574 13.3813 18.5609 13.6754 18.0825 13.5362L15.9168 12.9062L16.2987 15.7696C16.3475 16.1345 16.159 16.4901 15.8298 16.6547L14.656 17.2416L19.7715 20.1648C20.3014 20.4676 20.5336 21.1098 20.3198 21.6814L19.8825 22.851L24.2658 22.4768C24.5084 22.4561 24.7148 22.6514 24.7077 22.8946L24.5696 27.5864H25.4317L25.2935 22.8944C25.2864 22.6511 25.4929 22.4559 25.7354 22.4766L30.1208 22.851L29.6835 21.6814C29.4699 21.1097 29.702 20.4674 30.2319 20.1647Z" fill="#D0353E"/>
</svg>
