<svg width="50" height="33" viewBox="0 0 50 33" fill="none" xmlns="http://www.w3.org/2000/svg">
<path d="M49.9999 16.3794H0V0.86216C0 0.38604 0.386034 0 0.862104 0H49.1379C49.614 0 50 0.38604 50 0.86216L49.9999 16.3794Z" fill="#F5F5F5"/>
<path d="M1.72411 16.3794V15.5173H0V16.3794V17.2415V31.8967C0 32.3728 0.386034 32.7588 0.862104 32.7588H49.1379C49.614 32.7588 50 32.3728 50 31.8967V16.3794H1.72411Z" fill="#D0353E"/>
<path d="M15.5173 16.3794H0.862104C0.386034 16.3794 0 15.9934 0 15.5173V0.86216C0 0.38604 0.386034 0 0.862104 0H15.5173C15.9934 0 16.3794 0.38604 16.3794 0.86216V15.5173C16.3793 15.9934 15.9934 16.3794 15.5173 16.3794Z" fill="#41479B"/>
<path d="M8.52173 4.51292L9.3436 6.97722L11.9413 6.99732C12.2776 6.99982 12.4171 7.42912 12.1465 7.62882L10.0568 9.17192L10.8403 11.6487C10.9417 11.9694 10.5767 12.2345 10.303 12.039L8.1897 10.5285L6.07633 12.0391C5.80269 12.2347 5.43765 11.9694 5.53902 11.6488L6.32252 9.17202L4.23287 7.62892C3.96227 7.42912 4.10172 6.99992 4.43805 6.99742L7.0357 6.97732L7.85757 4.51302C7.96402 4.19392 8.41538 4.19392 8.52173 4.51292Z" fill="#F5F5F5"/>
</svg>
