<svg width="50" height="33" viewBox="0 0 50 33" fill="none" xmlns="http://www.w3.org/2000/svg">
<path d="M16.6667 32.7586H0.862108C0.386038 32.7586 0 32.3726 0 31.8965V0.86211C0 0.38604 0.386038 0 0.862108 0H16.6667V32.7586Z" fill="#73AF00"/>
<path d="M33.334 0.000366211H16.667V32.7592H33.334V0.000366211Z" fill="#D0353E"/>
<path d="M49.1383 32.7586H33.3337V0H49.1383C49.6144 0 50.0004 0.38604 50.0004 0.86211V31.8965C50.0004 32.3727 49.6144 32.7586 49.1383 32.7586Z" fill="#FFE15A"/>
<path d="M25.1794 13.2196L25.92 15.4404L28.2609 15.4585C28.4423 15.4598 28.5175 15.6914 28.3716 15.7991L26.4884 17.1897L27.1945 19.4218C27.2493 19.5947 27.0524 19.7377 26.9048 19.6322L25.0003 18.271L23.0958 19.6323C22.9482 19.7378 22.7514 19.5947 22.806 19.4219L23.5122 17.1898L21.629 15.7992C21.4831 15.6915 21.5583 15.4599 21.7396 15.4586L24.0806 15.4405L24.8212 13.2197C24.8787 13.0476 25.122 13.0476 25.1794 13.2196Z" fill="#FFE15A"/>
</svg>
