<svg width="51" height="34" viewBox="0 0 51 34" fill="none" xmlns="http://www.w3.org/2000/svg">
<path d="M1.20151 33.3454L25.8835 17.1745L1.20151 1.00366C1.01157 1.16177 0.883545 1.39087 0.883545 1.65727V32.6917C0.883545 32.9582 1.01157 33.1873 1.20151 33.3454Z" fill="#F5F5F5"/>
<path d="M1.20166 33.3455C1.35107 33.4699 1.53613 33.5539 1.7457 33.5539H50.0216C50.4977 33.5539 50.8837 33.1679 50.8837 32.6918V17.1746H25.8837L1.20166 33.3455Z" fill="#73AF00"/>
<path d="M1.20166 1.00369C1.35107 0.879268 1.53613 0.795288 1.7457 0.795288H50.0216C50.4977 0.795288 50.8837 1.18132 50.8837 1.6574V17.1746H25.8837L1.20166 1.00369Z" fill="#82AFFF"/>
<path d="M9.84519 13.2815L8.97214 15.8992L6.21267 15.9207C6.0614 15.9219 5.9987 16.1151 6.12029 16.2049L8.34021 17.8443L7.50788 20.4753C7.46228 20.6197 7.62654 20.7389 7.74958 20.6509L9.9946 19.0463L12.2396 20.6509C12.3626 20.7388 12.5269 20.6196 12.4813 20.4753L11.649 17.8443L13.8686 16.2048C13.9903 16.115 13.9276 15.9218 13.7762 15.9206L11.0167 15.8992L10.1437 13.2814C10.096 13.1379 9.89304 13.1379 9.84519 13.2815Z" fill="#D0353E"/>
</svg>
