<svg width="50" height="33" viewBox="0 0 50 33" fill="none" xmlns="http://www.w3.org/2000/svg">
<path d="M49.1378 32.7586H0.862105C0.386034 32.7586 0 32.3726 0 31.8965V0.86211C0 0.38604 0.386034 0 0.862105 0H49.1379C49.614 0 50 0.38604 50 0.86211V31.8965C49.9999 32.3727 49.6139 32.7586 49.1378 32.7586Z" fill="#73AF00"/>
<path d="M49.9999 12.931H0V15.2298H49.9999V12.931Z" fill="#FFE15A"/>
<path d="M49.9999 15.2299H0V17.5287H49.9999V15.2299Z" fill="#464655"/>
<path d="M49.9999 17.5287H0V19.8275H49.9999V17.5287Z" fill="#F5F5F5"/>
<path d="M23.8506 0.000366211H21.5518V32.7591H23.8506V0.000366211Z" fill="#FFE15A"/>
<path d="M26.1495 0.000366211H23.8506V32.7591H26.1495V0.000366211Z" fill="#464655"/>
<path d="M28.4483 0.000366211H26.1494V32.7591H28.4483V0.000366211Z" fill="#F5F5F5"/>
<path d="M24.9999 25.0004C29.7612 25.0004 33.621 21.1406 33.621 16.3793C33.621 11.618 29.7612 7.75818 24.9999 7.75818C20.2387 7.75818 16.3789 11.618 16.3789 16.3793C16.3789 21.1406 20.2387 25.0004 24.9999 25.0004Z" fill="#D0353E"/>
<path d="M24.2598 17.8622C24.2598 17.8622 24.1591 18.567 24.8438 19.614H26.1727L25.8707 18.3455L24.2598 17.8622Z" fill="#73AF00"/>
<path d="M24.1661 13.144C24.1661 13.144 21.9917 16.7011 25.1862 18.8219L25.5218 16.8084L25.7365 14.2043L25.401 13.0902L24.1661 13.144Z" fill="#A561CD"/>
<path d="M24.1656 13.144C24.1656 13.144 23.9171 13.5577 23.7112 14.1803C23.9911 14.4729 24.7562 14.8354 25.6971 14.6764L25.736 14.2043L25.4004 13.0902L24.1656 13.144Z" fill="#73AF00"/>
<path d="M23.7498 12.634C23.7498 12.634 23.7765 11.9226 24.4747 11.9226C25.3472 11.9226 26.0586 12.1239 27.1861 14.4595C27.1861 14.4595 26.1833 15.4439 25.5485 14.0836C25.3606 13.6809 25.2934 13.1978 25.2934 13.1978C25.2934 13.1978 24.5149 13.4662 23.978 13.1575L23.7498 12.634Z" fill="#A561CD"/>
<path d="M24.0987 12.9696L23.9376 12.5401C23.9376 12.5401 23.0383 12.3924 23.4141 13.4797C23.4141 13.4797 23.4409 13.265 23.6691 13.2918C23.8975 13.3186 24.139 13.1441 24.0987 12.9696Z" fill="#FFE15A"/>
<path d="M25.6018 17.0502C25.6018 17.0502 24.6556 17.7917 25.1858 19.5334C25.4677 20.4596 26.5952 21.4764 26.5952 21.4764C26.5952 21.4764 27.4307 19.2918 27.1589 18.4462C26.999 17.9484 25.6018 17.0502 25.6018 17.0502Z" fill="#73AF00"/>
<path d="M27.4008 19.8556C27.4008 19.8556 24.9578 17.5267 24.7967 15.6945C24.6356 13.8622 25.6921 14.1531 25.884 14.2716C26.3404 14.5535 27.4947 15.7347 27.4008 19.8556Z" fill="#73AF00"/>
<path d="M27.0974 20.389H23.0527C22.9686 20.389 22.9006 20.3209 22.9006 20.2368V19.937C22.9006 19.853 22.9686 19.7849 23.0527 19.7849H27.0974C27.1815 19.7849 27.2496 19.853 27.2496 19.937V20.2368C27.2495 20.3208 27.1814 20.389 27.0974 20.389Z" fill="#B34900"/>
<path d="M26.1122 19.8152C25.9714 19.8737 25.6893 19.9461 25.7598 20.1977C25.8138 20.3905 26.1827 20.3688 26.1122 20.5904C26.0645 20.7401 25.3154 20.7538 25.0249 20.7112C24.8469 20.685 24.4611 20.5802 24.5148 20.1373C24.5685 19.6944 24.7296 19.6262 24.931 19.5467C25.1307 19.4678 26.0043 19.4853 26.1324 19.5937C26.1977 19.649 26.2188 19.7709 26.1122 19.8152Z" fill="#FFE15A"/>
<path d="M25.0794 8.67776L25.2756 9.26605L25.8957 9.27095C25.9759 9.27165 26.0092 9.37405 25.9447 9.42175L25.4458 9.79025L25.6329 10.3816C25.6571 10.458 25.57 10.5214 25.5047 10.4747L25.0001 10.1141L24.4956 10.4747C24.4302 10.5214 24.3431 10.4581 24.3674 10.3816L24.5545 9.79025L24.0555 9.42175C23.991 9.37395 24.0243 9.27155 24.1046 9.27095L24.7247 9.26605L24.9209 8.67776C24.9462 8.60156 25.0539 8.60156 25.0794 8.67776Z" fill="#73AF00"/>
<path d="M25.0794 22.4329L25.2756 23.0213L25.8957 23.0262C25.9759 23.0269 26.0092 23.1293 25.9447 23.177L25.4458 23.5454L25.6329 24.1367C25.6571 24.2132 25.57 24.2766 25.5047 24.2299L25.0001 23.8692L24.4956 24.2299C24.4302 24.2766 24.3431 24.2133 24.3674 24.1367L24.5545 23.5454L24.0555 23.177C23.991 23.1292 24.0243 23.0268 24.1046 23.0262L24.7247 23.0213L24.9209 22.4329C24.9462 22.3567 25.0539 22.3567 25.0794 22.4329Z" fill="#73AF00"/>
<path d="M25.0794 8.67776L25.2756 9.26605L25.8957 9.27095C25.9759 9.27165 26.0092 9.37405 25.9447 9.42175L25.4458 9.79025L25.6329 10.3816C25.6571 10.458 25.57 10.5214 25.5047 10.4747L25.0001 10.1141L24.4956 10.4747C24.4302 10.5214 24.3431 10.4581 24.3674 10.3816L24.5545 9.79025L24.0555 9.42175C23.991 9.37395 24.0243 9.27155 24.1046 9.27095L24.7247 9.26605L24.9209 8.67776C24.9462 8.60156 25.0539 8.60156 25.0794 8.67776Z" fill="#73AF00"/>
<path d="M25.0794 22.4329L25.2756 23.0213L25.8957 23.0262C25.9759 23.0269 26.0092 23.1293 25.9447 23.177L25.4458 23.5454L25.6329 24.1367C25.6571 24.2132 25.57 24.2766 25.5047 24.2299L25.0001 23.8692L24.4956 24.2299C24.4302 24.2766 24.3431 24.2133 24.3674 24.1367L24.5545 23.5454L24.0555 23.177C23.991 23.1292 24.0243 23.0268 24.1046 23.0262L24.7247 23.0213L24.9209 22.4329C24.9462 22.3567 25.0539 22.3567 25.0794 22.4329Z" fill="#73AF00"/>
<path d="M20.2867 10.0893L20.4586 10.6852L19.9504 11.0406C19.8846 11.0866 19.9152 11.19 19.9955 11.1926L20.6153 11.2133L20.7965 11.8065C20.82 11.8833 20.9276 11.886 20.955 11.8106L21.1662 11.2275L21.7863 11.2386C21.8666 11.24 21.9025 11.1385 21.8392 11.0892L21.3498 10.7081L21.5519 10.1216C21.578 10.0457 21.4925 9.98011 21.426 10.0251L20.9124 10.3728L20.4173 9.99941C20.3531 9.95101 20.2644 10.0121 20.2867 10.0893Z" fill="#73AF00"/>
<path d="M28.0843 21.4205L28.2562 22.0164L27.748 22.3719C27.6821 22.4179 27.7128 22.5212 27.7931 22.5238L28.4129 22.5445L28.5941 23.1377C28.6176 23.2145 28.7252 23.2172 28.7525 23.1418L28.9638 22.5587L29.5839 22.5698C29.6642 22.5712 29.7001 22.4697 29.6367 22.4204L29.1474 22.0394L29.3495 21.453C29.3757 21.3771 29.2901 21.3115 29.2236 21.3565L28.7101 21.7042L28.215 21.3309C28.1509 21.2823 28.0621 21.3435 28.0843 21.4205Z" fill="#73AF00"/>
<path d="M17.3718 14.0381L17.8669 14.4114L17.6739 15.0009C17.6489 15.0771 17.7354 15.1414 17.8013 15.0954L18.3095 14.7398L18.8104 15.1055C18.8753 15.1527 18.9632 15.0904 18.9396 15.0136L18.7585 14.4205L19.261 14.0571C19.3261 14.0101 19.2937 13.9072 19.2135 13.9059L18.5934 13.8948L18.403 13.3045C18.3783 13.2281 18.2707 13.227 18.2445 13.3028L18.0425 13.8892L17.4224 13.8878C17.342 13.8875 17.3077 13.9896 17.3718 14.0381Z" fill="#73AF00"/>
<path d="M30.4103 18.4191L30.9054 18.7925L30.7124 19.3819C30.6874 19.4582 30.774 19.5224 30.8398 19.4764L31.348 19.1209L31.849 19.4865C31.9138 19.5338 32.0017 19.4714 31.9782 19.3946L31.797 18.8015L32.2995 18.4382C32.3646 18.3911 32.3323 18.2883 32.252 18.2869L31.6319 18.2759L31.4415 17.6855C31.4168 17.6092 31.3092 17.6081 31.283 17.6839L31.081 18.2702L30.4609 18.2688C30.3806 18.2686 30.3462 18.3708 30.4103 18.4191Z" fill="#73AF00"/>
<path d="M29.3859 10.0893L29.214 10.6852L29.7222 11.0406C29.788 11.0866 29.7574 11.1899 29.6771 11.1926L29.0573 11.2133L28.8761 11.8064C28.8526 11.8833 28.745 11.8859 28.7176 11.8105L28.5064 11.2274L27.8863 11.2386C27.806 11.2399 27.7701 11.1385 27.8335 11.0892L28.3228 10.7081L28.1207 10.1218C28.0945 10.0459 28.18 9.98034 28.2465 10.0253L28.7601 10.373L29.2552 9.99965C29.3194 9.95105 29.4082 10.0121 29.3859 10.0893Z" fill="#73AF00"/>
<path d="M21.5883 21.4205L21.4164 22.0164L21.9246 22.3719C21.9904 22.4179 21.9598 22.5212 21.8795 22.5238L21.2597 22.5445L21.0785 23.1377C21.055 23.2145 20.9474 23.2172 20.92 23.1418L20.7088 22.5587L20.0887 22.5698C20.0084 22.5712 19.9725 22.4697 20.0359 22.4204L20.5252 22.0394L20.3231 21.453C20.2969 21.3771 20.3824 21.3115 20.4489 21.3565L20.9625 21.7042L21.4576 21.3309C21.5218 21.2823 21.6106 21.3435 21.5883 21.4205Z" fill="#73AF00"/>
<path d="M32.3009 14.0381L31.8058 14.4114L31.9987 15.0009C32.0237 15.0771 31.9372 15.1414 31.8714 15.0954L31.3632 14.7398L30.8622 15.1055C30.7974 15.1527 30.7095 15.0904 30.733 15.0136L30.9142 14.4205L30.4116 14.0571C30.3466 14.0101 30.3789 13.9072 30.4592 13.9059L31.0793 13.8948L31.2696 13.3045C31.2943 13.2281 31.402 13.227 31.4281 13.3028L31.6302 13.8892L32.2503 13.8878C32.3307 13.8875 32.365 13.9896 32.3009 14.0381Z" fill="#73AF00"/>
<path d="M19.2623 18.4191L18.7672 18.7925L18.9602 19.3819C18.9852 19.4582 18.8987 19.5224 18.8329 19.4764L18.3247 19.1209L17.8237 19.4865C17.7588 19.5338 17.6709 19.4714 17.6945 19.3946L17.8756 18.8015L17.3731 18.4382C17.3081 18.3911 17.3404 18.2883 17.4206 18.2869L18.0408 18.2759L18.2311 17.6855C18.2558 17.6092 18.3634 17.6081 18.3896 17.6839L18.5916 18.2702L19.2118 18.2688C19.2922 18.2686 19.3265 18.3708 19.2623 18.4191Z" fill="#73AF00"/>
</svg>
