<svg width="51" height="33" viewBox="0 0 51 33" fill="none" xmlns="http://www.w3.org/2000/svg">
<path d="M50.7521 3.69983H0.752197V7.33943H50.7521V3.69983Z" fill="#F5F5F5"/>
<path d="M50.7523 10.979H0.752441V14.6186H50.7523V10.979Z" fill="#F5F5F5"/>
<path d="M50.7523 18.2593H0.752441V21.899H50.7523V18.2593Z" fill="#F5F5F5"/>
<path d="M50.7521 21.899H0.752197V25.5386H50.7521V21.899Z" fill="#41479B"/>
<path d="M50.7521 25.5387H0.752197V29.1784H50.7521V25.5387Z" fill="#F5F5F5"/>
<path d="M1.61455 32.8182H49.8903C50.3664 32.8182 50.7524 32.4322 50.7524 31.9561V29.1783H0.752441V31.9561C0.752441 32.4323 1.13848 32.8182 1.61455 32.8182Z" fill="#41479B"/>
<path d="M50.7521 3.69965V0.921803C50.7521 0.445723 50.3661 0.0596924 49.89 0.0596924H1.61431C1.13823 0.0597924 0.752197 0.445723 0.752197 0.921803V7.33945V10.9792V18.259H50.7521V14.6192H17.9936V10.9793H50.7521V7.33945H17.9936V3.69965H50.7521Z" fill="#41479B"/>
<path d="M17.9936 7.33945H11.1928V0.0598145H7.55297V7.33945H0.752197V10.9794H7.55297V18.259H11.1928V10.9794H17.9936V7.33945Z" fill="#F5F5F5"/>
</svg>
