<svg width="50" height="33" viewBox="0 0 50 33" fill="none" xmlns="http://www.w3.org/2000/svg">
<path d="M49.1378 32.7585H0.862108C0.386034 32.7585 0 32.3725 0 31.8964V0.862107C0 0.386034 0.386034 0 0.862108 0H49.1379C49.614 0 50 0.386034 50 0.862107V31.8964C49.9999 32.3726 49.6139 32.7585 49.1378 32.7585Z" fill="#41479B"/>
<path d="M24.1378 0H22.6405L14.6551 5.23173V0H10.3448V5.23173L2.35947 0H0.862108C0.386034 0 0 0.386034 0 0.862107V1.5459L6.85106 6.03446H0V10.3448H6.85106L0 14.8335V15.5172C0 15.9932 0.386034 16.3793 0.862108 16.3793H2.35947L10.3448 11.1475V16.3793H14.6551V11.1475L22.6404 16.3793H24.1377C24.6138 16.3793 24.9999 15.9932 24.9999 15.5172V14.8334L18.1489 10.3448H24.9999V6.03446H18.1488L24.9999 1.5459V0.862107C24.9999 0.386034 24.614 0 24.1378 0Z" fill="#F5F5F5"/>
<path d="M25.0008 6.89669H13.794V0.00012207H11.2078V6.89669H0.000976562V9.48282H11.2078V16.3794H13.794V9.48282H25.0008V6.89669Z" fill="#D0353E"/>
<path d="M9.48367 6.03463L0.411816 0.145874C0.17041 0.298706 0.000976562 0.555346 0.000976562 0.862279V0.907005L7.90028 6.03463H9.48367Z" fill="#D0353E"/>
<path d="M16.2394 6.03458L24.8697 0.432446C24.7197 0.178638 24.455 0.00012207 24.1387 0.00012207H23.9523L14.656 6.03458H16.2394Z" fill="#D0353E"/>
<path d="M8.73875 10.345L0.125 15.9364C0.273535 16.1963 0.542284 16.3794 0.863182 16.3794H1.02578L10.3221 10.345H8.73875Z" fill="#D0353E"/>
<path d="M24.9874 15.5851L16.9146 10.345H15.3313L24.4986 16.2955C24.7733 16.1681 24.9616 15.901 24.9874 15.5851Z" fill="#D0353E"/>
<path d="M37.8127 8.70018C37.7933 8.70018 37.7734 8.69403 37.7566 8.68133C37.7431 8.67098 36.4052 7.62831 37.1932 5.86113C37.2141 5.81425 37.269 5.79355 37.3161 5.81406C37.363 5.83515 37.384 5.88993 37.3632 5.937C36.6363 7.56659 37.8185 8.49462 37.8691 8.53329C37.91 8.56434 37.9179 8.62264 37.8867 8.66346C37.8684 8.68749 37.8408 8.70018 37.8127 8.70018Z" fill="#73AF00"/>
<path d="M37.0418 7.17369C37.0381 7.17369 37.0346 7.17349 37.031 7.1731C36.9799 7.16705 36.9435 7.12095 36.9493 7.06998C36.988 6.7358 37.1137 6.50259 37.3232 6.37701C37.66 6.17457 38.081 6.33628 38.0987 6.34341C38.1464 6.36216 38.1699 6.41587 38.1511 6.46363C38.1324 6.51148 38.0783 6.53521 38.0309 6.51646C38.0272 6.51509 37.6756 6.3815 37.418 6.53687C37.2614 6.6315 37.1658 6.81802 37.1343 7.09146C37.1286 7.13882 37.0883 7.17369 37.0418 7.17369Z" fill="#73AF00"/>
<path d="M37.295 5.97507C37.287 5.95456 37.0859 5.47722 36.1771 5.68034C35.1479 5.91091 35.136 7.26862 35.136 7.2822C35.136 7.32888 35.1707 7.36852 35.2171 7.37448C35.2211 7.37507 35.2251 7.37526 35.229 7.37526C35.2708 7.37526 35.3082 7.34714 35.3188 7.30583C35.7024 5.8447 37.131 6.09011 37.1916 6.10075C37.226 6.10691 37.259 6.09421 37.2802 6.06843C37.3018 6.04226 37.3076 6.00642 37.295 5.97507Z" fill="#73AF00"/>
<path d="M37.0805 6.73199C37.0805 6.73199 36.4606 6.33687 36.2048 6.84048C35.9492 7.34419 36.1429 7.88657 36.2436 8.10347C36.2436 8.10347 36.6131 7.69497 36.9643 7.63853C37.3983 7.5688 37.5068 7.02632 37.2045 6.75513C36.8434 6.4312 37.0805 6.73199 37.0805 6.73199Z" fill="#73AF00"/>
<path d="M37.7578 5.80615C37.749 6.34853 38.0512 6.41963 38.0512 6.41963C38.2466 5.92168 37.7578 5.80615 37.7578 5.80615Z" fill="#73AF00"/>
<path d="M37.6633 6.94548C37.6674 6.43084 38.0165 6.37292 38.0165 6.37292C38.228 6.85134 37.6633 6.94548 37.6633 6.94548Z" fill="#73AF00"/>
<path d="M39.6764 6.53042C39.6764 6.53042 39.1829 6.45747 38.9935 6.36801C38.836 6.2937 38.6303 6.11421 38.3642 6.14926C38.1608 6.14926 37.9958 6.31411 37.9958 6.51762C37.9958 6.72114 38.1356 6.96479 38.8666 6.91069C39.221 6.88442 39.523 7.04633 39.523 7.04633C39.4766 6.85268 39.6764 6.53042 39.6764 6.53042Z" fill="#D0353E"/>
<path d="M39.1644 6.69194C39.1644 6.69194 38.4074 6.74438 38.2412 6.62192C38.0878 6.50884 38.1278 6.32876 38.285 6.31128C38.5213 6.28501 39.1644 6.69194 39.1644 6.69194Z" fill="#FFE15A"/>
<path d="M40.6372 7.54929L38.9634 8.59538L38.7716 8.40935L39.6898 7.52009L39.9047 7.6073L40.114 7.32829L39.6142 7.06677C39.6142 7.06677 38.2891 8.31618 37.1618 8.42087C36.7825 8.45612 36.3959 8.43132 36.0945 8.3072L35.4182 9.28103L36.8362 10.4898L38.9167 10.4085L40.637 8.07214L40.9391 8.2116L41.1948 7.90945L40.6372 7.54929Z" fill="#B49B91"/>
<path d="M35.9729 10.366C35.5073 10.366 35.1284 9.98708 35.1284 9.52165C35.1284 9.05603 35.5073 8.67712 35.9729 8.67712C36.4385 8.67712 36.8172 9.05603 36.8172 9.52165C36.8174 9.98718 36.4385 10.366 35.9729 10.366ZM35.9729 8.95613C35.6611 8.95613 35.4074 9.20984 35.4074 9.52165C35.4074 9.83347 35.6611 10.0871 35.9729 10.0871C36.2848 10.0871 36.5384 9.83357 36.5384 9.52165C36.5384 9.20974 36.2849 8.95613 35.9729 8.95613Z" fill="#9B8278"/>
<path d="M39.4915 11.1487C39.4915 11.1487 39.6465 11.0479 39.8015 10.5754L39.4838 10.6218C39.4838 10.6218 39.5457 10.3584 39.4761 10.1646L39.1196 10.4436C39.1196 10.4436 38.9569 10.1027 38.8872 10.0562C38.8872 10.0562 38.6393 10.405 38.4998 10.4513C38.4998 10.4513 38.3603 9.94763 38.2208 9.84695L37.9806 10.1879L37.6241 9.90886C37.6241 9.90886 37.6241 10.1491 37.6164 10.2034C37.6087 10.2576 37.1515 9.72302 37.1515 9.72302C37.1515 9.72302 36.95 9.80828 36.6788 10.2422L36.3379 9.89343L36.1984 10.3507L35.7258 10.2266L35.8032 10.4978L35.3926 10.4668C35.3926 10.4668 35.4623 10.8697 35.6638 11.0093L39.4915 11.1487Z" fill="#73AF00"/>
<path d="M35.3849 12.8728C35.3849 12.8728 34.1064 14.5 31.6887 14.3141L34.3156 14.6745L35.6638 13.3959L35.3849 12.8728Z" fill="#73AF00"/>
<path d="M31.2117 14.07C31.4673 14.2561 33.0482 14.7094 34.1871 14.163C34.1871 14.163 34.2104 14.4304 34.0826 14.5814C34.0826 14.5814 34.9194 14.2443 35.3728 13.6167C35.8261 12.989 34.4313 14.9649 34.4313 14.9649L32.2926 15.3601L31.4208 14.6393L31.2117 14.07Z" fill="#FFE15A"/>
<path d="M31.0438 8.21026C30.7598 8.23409 30.4527 8.40508 30.2956 8.6128C30.21 8.57647 30.0199 8.56035 29.8624 8.66524C29.6526 8.80508 29.2649 9.31016 28.9395 9.17656C28.9395 9.17656 28.9104 9.65303 29.416 9.63574C29.416 9.63574 29.2881 9.8334 29.3114 10.1472C29.3346 10.4609 29.108 10.6702 29.108 10.6702C29.108 10.6702 30.1308 10.8154 30.1715 10.0193C30.1765 9.92207 30.1815 9.83633 30.1862 9.75986C30.72 10.0481 30.93 9.64121 30.93 9.64121C30.93 9.64121 30.6092 9.33818 30.9357 8.90684C31.2622 8.47539 32.1596 9.49238 32.1596 9.49238C32.1772 9.08545 32.1407 8.11807 31.0438 8.21026Z" fill="#FFE15A"/>
<path d="M34.9973 10.8929C34.9973 10.8929 34.7029 11.0944 33.7885 10.9085C33.7885 10.9085 33.99 10.4591 33.897 10.1956C33.897 10.1956 33.6491 10.428 33.0447 10.6605C32.4403 10.893 31.6964 11.6369 31.4793 12.1173C31.4793 12.1173 32.8387 8.98367 31.7467 8.66511C31.3721 8.55584 31.0499 8.73299 30.936 8.90672C30.9911 8.97175 31.044 9.06443 31.0494 9.18816C31.061 9.45554 30.7937 11.2571 30.3985 12.5008C30.3985 12.5008 30.2822 12.0707 30.0963 11.8614C29.9105 11.6521 29.7709 11.3151 29.7709 11.3151C29.7709 11.3151 29.4572 11.5244 29.5036 11.9079C29.5036 11.9079 29.3292 11.7684 28.9921 11.8614C28.655 11.9544 28.5272 11.7335 28.5272 11.7335C28.5272 11.7335 28.2482 12.4773 29.0735 12.8609C29.0735 12.8609 28.8527 12.9655 28.7481 13.0469C28.6435 13.1283 28.4807 13.1283 28.4807 13.1283C28.4807 13.1283 28.7713 13.663 29.3873 13.7211C30.0033 13.7792 30.2864 13.9548 30.4798 14.2712C31.1076 15.2979 32.3086 16.0766 34.2691 14.8756C34.2691 14.8756 31.4795 15.7434 31.3555 13.9612C31.247 12.4021 32.9517 12.086 33.1222 12.4269C33.2927 12.7678 33.1067 13.0624 33.1067 13.0624C33.1067 13.0624 34.0366 12.8455 33.5871 11.9929C33.5871 11.9933 34.5014 12.1329 34.9973 10.8929Z" fill="#73AF00"/>
<path d="M43.9512 14.07C43.6955 14.256 42.0799 14.9534 40.964 13.8376C39.8481 12.7218 39.413 11.0465 39.4762 11.234H38.3604L38.7323 14.5815L42.8702 15.3603L43.742 14.6396L43.9512 14.07Z" fill="#73AF00"/>
<path d="M44.1191 8.21026C44.4031 8.23409 44.7102 8.40508 44.8673 8.6128C44.9529 8.57647 45.143 8.56035 45.3005 8.66524C45.5103 8.80508 45.8979 9.31016 46.2234 9.17656C46.2234 9.17656 46.2525 9.65303 45.7469 9.63574C45.7469 9.63574 45.8748 9.8334 45.8515 10.1472C45.8283 10.4609 46.0549 10.6702 46.0549 10.6702C46.0549 10.6702 45.0321 10.8154 44.9913 10.0193C44.9864 9.92207 44.9814 9.83633 44.9767 9.75986C44.4429 10.0481 44.2328 9.64121 44.2328 9.64121C44.2328 9.64121 44.5535 9.33818 44.2271 8.90684C43.9006 8.47539 43.0032 9.49238 43.0032 9.49238C42.9857 9.08545 43.0222 8.11807 44.1191 8.21026Z" fill="#73AF00"/>
<path d="M40.165 10.8929C40.165 10.8929 40.4595 11.0944 41.3738 10.9085C41.3738 10.9085 41.1724 10.4591 41.2653 10.1956C41.2653 10.1956 41.5133 10.428 42.1177 10.6605C42.7221 10.893 43.4659 11.6369 43.683 12.1173C43.683 12.1173 42.3236 8.98367 43.4156 8.66511C43.7902 8.55584 44.1124 8.73299 44.2264 8.90672C44.1713 8.97175 44.1184 9.06443 44.113 9.18816C44.1014 9.45554 44.3686 11.2571 44.7639 12.5008C44.7639 12.5008 44.8802 12.0707 45.066 11.8614C45.2518 11.6521 45.3914 11.3151 45.3914 11.3151C45.3914 11.3151 45.7052 11.5244 45.6588 11.9079C45.6588 11.9079 45.8331 11.7684 46.1702 11.8614C46.5073 11.9544 46.6351 11.7335 46.6351 11.7335C46.6351 11.7335 46.9141 12.4773 46.0889 12.8609C46.0889 12.8609 46.3097 12.9655 46.4142 13.0469C46.5188 13.1283 46.6816 13.1283 46.6816 13.1283C46.6816 13.1283 46.391 13.663 45.7751 13.7211C45.1591 13.7792 44.876 13.9548 44.6825 14.2712C44.0548 15.2979 42.8537 16.0766 40.8933 14.8756C40.8933 14.8756 43.6828 15.7434 43.8068 13.9612C43.9153 12.4021 42.2106 12.086 42.0401 12.4269C41.8696 12.7678 42.0557 13.0624 42.0557 13.0624C42.0557 13.0624 41.1258 12.8455 41.5753 11.9929C41.5754 11.9933 40.6609 12.1329 40.165 10.8929Z" fill="#FFE15A"/>
<path d="M39.3743 13.4967C39.8315 14.1631 40.4668 14.7675 42.3111 15.3408C44.1553 15.9142 44.6483 15.9994 45.6147 16.7812C45.6147 16.7812 45.7983 16.975 45.8686 17.2858C45.9511 17.6508 45.3882 18.7037 45.3882 18.7037C45.3882 18.7037 45.4424 18.4558 45.1015 17.9754C44.7606 17.495 42.7458 16.6272 41.692 16.3637C40.6381 16.1002 38.8171 14.8779 39.3209 13.9615L39.3743 13.4967Z" fill="#73AF00"/>
<path d="M45.6136 16.7784C45.6145 16.7795 45.6148 16.7805 45.6156 16.7816C45.6144 16.7802 45.6133 16.7788 45.6121 16.7775L45.6136 16.7784Z" fill="#73AF00"/>
<path d="M45.5649 19.0448C45.5649 19.0448 45.6114 19.382 45.3325 19.6726C45.0535 19.9632 44.856 20.1724 44.8675 20.4164C44.8675 20.4164 44.4491 20.1143 44.5188 19.4401C44.5188 19.4401 43.9725 19.8934 43.1472 19.4517C43.1472 19.4517 43.2286 18.6265 44.298 18.5218C44.298 18.5218 43.8795 18.1964 44.4259 17.6966C44.4259 17.6966 44.4894 17.9201 44.9838 18.0337C45.4139 18.1325 46.1791 17.5932 45.6132 16.7814C46.5877 17.8824 46.0879 18.6379 45.5649 19.0448Z" fill="#FFE15A"/>
<path d="M38.9739 12.8844C38.9739 12.8844 39.2095 13.2697 39.8224 13.6438C40.5585 14.0932 40.6245 14.3024 40.6245 14.3024L40.1247 14.2907C40.1247 14.2907 40.764 14.6395 40.9383 15.0812C40.9383 15.0812 40.6709 15.1277 40.3688 15.0462C40.3688 15.0462 40.6128 15.267 40.4967 15.9761H39.253L38.9739 12.8844Z" fill="#FFE15A"/>
<path d="M36.4998 16.0692V13.0938C36.4998 13.0938 35.4898 14.8216 34.6174 16.0692H36.4998Z" fill="#73AF00"/>
<path d="M35.6306 13.0317C35.3827 13.4811 34.6078 14.9612 32.7635 15.5346C30.9193 16.108 30.5822 15.9996 29.6157 16.7812C29.6157 16.7812 29.4321 16.9751 29.3618 17.2858C29.2793 17.6508 29.8421 18.7038 29.8421 18.7038C29.8421 18.7038 29.7879 18.4558 30.1289 17.9754C30.4698 17.4951 32.4731 16.5766 33.5383 16.3637C35.0115 16.0692 36.3443 14.4885 36.1273 13.4657C35.9105 12.4428 35.6306 13.0317 35.6306 13.0317Z" fill="#FFE15A"/>
<path d="M29.6187 16.7783C29.6179 16.7793 29.6175 16.7804 29.6167 16.7814C29.618 16.7801 29.619 16.7787 29.6203 16.7773L29.6187 16.7783Z" fill="#73AF00"/>
<path d="M29.6648 19.0451C29.6648 19.0451 29.6184 19.3822 29.8973 19.6728C30.1763 19.9634 30.3737 20.1726 30.3622 20.4167C30.3622 20.4167 30.7807 20.1145 30.7109 19.4403C30.7109 19.4403 31.2572 19.8936 32.0825 19.4519C32.0825 19.4519 32.0012 18.6267 30.9317 18.522C30.9317 18.522 31.3502 18.1967 30.8039 17.6968C30.8039 17.6968 30.7404 17.9204 30.246 18.034C29.8159 18.1328 29.0508 17.5934 29.6166 16.7816C28.642 17.8827 29.1418 18.6382 29.6648 19.0451Z" fill="#73AF00"/>
<path d="M32.238 24.004C32.238 24.004 32.5015 25.1896 32.517 26.4139C32.517 26.4139 33.6716 26.4527 34.2295 25.5848C34.2295 25.5848 33.1137 25.0036 32.517 23.88L32.238 24.004Z" fill="#FFE15A"/>
<path d="M31.9899 21.3849C31.9435 20.827 32.1914 19.4167 33.3227 18.3939L33.3504 17.1414C33.3504 17.1414 33.0134 17.1764 32.7145 17.438L32.0752 18.4288L31.4824 20.6721L31.9899 21.3849Z" fill="#73AF00"/>
<path d="M32.0204 21.7879C32.0204 21.7879 32.0204 22.9812 32.5163 23.8801L32.2373 24.004C32.2373 24.004 31.2377 23.2175 31.0285 21.6018C31.0285 21.6018 30.1335 22.1946 29.8042 20.9819C29.8042 20.9819 30.765 21.3694 31.075 20.486C31.3546 19.689 31.6373 18.238 32.714 17.438C32.2021 18.2246 31.4314 20.2381 32.0281 20.951C32.1861 21.1397 32.6403 21.2997 33.1374 21.0874C33.1051 21.484 32.9159 22.0899 32.0204 21.7879Z" fill="#FFE15A"/>
<path d="M32.1655 24.2157L32.0022 23.9157C31.9737 23.8633 31.993 23.7976 32.0455 23.7689L32.3435 23.607C32.3959 23.5785 32.4615 23.5979 32.4902 23.6504L32.6534 23.9504C32.682 24.0028 32.6626 24.0686 32.6101 24.0972L32.3121 24.2591C32.2597 24.2876 32.1941 24.2683 32.1655 24.2157Z" fill="#FFCE5A"/>
<path d="M42.2486 24.004C42.2486 24.004 41.9851 25.1896 41.9696 26.4139C41.9696 26.4139 40.815 26.4527 40.2571 25.5848C40.2571 25.5848 41.3729 25.0036 41.9696 23.88L42.2486 24.004Z" fill="#FFE15A"/>
<path d="M42.4967 21.3849C42.5432 20.827 42.2952 19.4167 41.164 18.3939L41.1362 17.1414C41.1362 17.1414 41.4732 17.1764 41.7721 17.438L42.4114 18.4288L43.0042 20.6721L42.4967 21.3849Z" fill="#FFE15A"/>
<path d="M41.3494 21.0875C41.8464 21.2998 42.3006 21.1399 42.4586 20.9511C43.0553 20.2382 42.2846 18.2247 41.7728 17.4381C42.8496 18.2381 43.1321 19.6891 43.4118 20.4861C43.7217 21.3695 44.6826 20.982 44.6826 20.982C44.3533 22.1947 43.4582 21.602 43.4582 21.602C43.249 23.2176 42.2495 24.0041 42.2495 24.0041L41.9705 23.8802C42.4664 22.9813 42.4664 21.7879 42.4664 21.7879C41.5708 22.09 41.3818 21.484 41.3494 21.0875Z" fill="#73AF00"/>
<path d="M42.3215 24.2157L42.4847 23.9157C42.5133 23.8633 42.4939 23.7976 42.4414 23.7689L42.1434 23.607C42.091 23.5785 42.0254 23.5979 41.9968 23.6504L41.8335 23.9504C41.805 24.0028 41.8243 24.0686 41.8768 24.0972L42.1748 24.2591C42.2273 24.2876 42.2929 24.2683 42.3215 24.2157Z" fill="#FFCE5A"/>
<path d="M33.5243 15.6973C33.3189 15.6973 33.1523 15.8638 33.1523 16.0692V20.1606C33.1523 21.2765 33.5243 25.3679 37.2437 26.8556C40.9633 25.3679 41.3351 21.2765 41.3351 20.1606V16.0692C41.3351 15.8639 41.1686 15.6973 40.9632 15.6973H33.5243Z" fill="#4173CD"/>
<path d="M37.0182 15.6973L33.4907 22.4581C33.579 22.7708 33.6891 23.0944 33.8272 23.4214L37.2436 16.8732L40.66 23.4214C40.7982 23.0943 40.9083 22.7707 40.9966 22.4581L37.4691 15.6973H37.0182V15.6973Z" fill="#FFE15A"/>
<path d="M40.6597 23.4214L37.2433 16.8733L33.8269 23.4214C34.3896 24.7534 35.4078 26.1215 37.2433 26.8557C39.0788 26.1214 40.0971 24.7533 40.6597 23.4214Z" fill="#73AF00"/>
<path d="M38.6264 23.8453L38.8514 23.9532C38.7571 24.0926 38.5607 24.3182 38.1851 24.5226C37.9014 24.677 37.6272 24.8597 37.4291 24.9997V21.93L38.359 21.8344V21.4624L37.4291 21.3668V20.9045C37.4291 20.8018 37.3458 20.7185 37.2431 20.7185C37.1555 20.7185 37.0855 20.7803 37.0658 20.862C37.004 20.8176 36.9323 20.7861 36.8507 20.7861C36.6426 20.7861 36.4732 20.9555 36.4732 21.1636C36.4732 21.2616 36.5129 21.3492 36.5745 21.4165L36.1274 21.4624V21.8344L37.0573 21.93V24.9997C36.8593 24.8597 36.5851 24.6769 36.3013 24.5226C35.9256 24.3183 35.7293 24.0926 35.635 23.9532L35.86 23.8453L35.0115 22.7643V24.2521L35.2975 24.1149C35.4107 24.2972 35.6499 24.5915 36.1237 24.8492C36.5201 25.0649 36.9047 25.3452 37.0572 25.4599L37.2432 25.604L37.4292 25.4599C37.5817 25.3452 37.9664 25.0649 38.3627 24.8492C38.8366 24.5915 39.0757 24.2972 39.1889 24.1149L39.4749 24.2521V22.7643L38.6264 23.8453ZM36.8507 21.3554C36.7451 21.3554 36.6591 21.2696 36.6591 21.1638C36.6591 21.0582 36.745 20.9722 36.8507 20.9722C36.9564 20.9722 37.0423 21.0581 37.0423 21.1638C37.0423 21.2696 36.9565 21.3554 36.8507 21.3554Z" fill="#FFE15A"/>
<path d="M37.5309 20.5326H36.9562C36.8067 20.5326 36.6855 20.4115 36.6855 20.262V19.3153C36.6855 19.1659 36.8066 19.0447 36.9562 19.0447H37.5309C37.6803 19.0447 37.8015 19.1658 37.8015 19.3153V20.262C37.8015 20.4115 37.6804 20.5326 37.5309 20.5326Z" fill="#F5F5F5"/>
<path d="M39.8469 15.6973C39.1031 14.5815 39.1031 12.3497 39.1031 12.3497C39.1031 12.3497 39.1031 10.8619 37.2434 10.8619C36.3013 10.8619 35.8374 11.2438 35.6081 11.6204C34.7155 11.979 34.2678 12.7216 34.2678 12.7216C34.6483 12.9119 34.9845 13.0026 35.2896 13.0258C35.8959 13.7474 36.0977 14.4442 36.1513 14.9453C35.8021 15.302 35.6084 16.1621 36.1276 16.813C36.1276 16.813 37.2279 16.5573 38.1568 15.6972H39.8468V15.6973H39.8469V15.6973Z" fill="#B49B91"/>
<path d="M38.1572 15.6974H39.5454C39.4756 15.0117 38.8014 15.1221 38.1572 15.6974Z" fill="#9B8278"/>
<path d="M39.5105 14.9952C39.104 13.8411 39.1034 12.3499 39.1034 12.3499C39.1034 12.3499 39.1033 12.3257 39.0995 12.284C38.6152 12.2183 38.1195 12.2539 37.1506 12.6289C36.1191 13.0282 35.6141 13.0396 35.2898 13.0261C35.8961 13.7477 36.0979 14.4445 36.1515 14.9456L36.1665 15.7363C36.1665 15.7363 36.7476 15.8215 38.0261 15.0853C38.664 14.7181 39.2046 14.6866 39.5105 14.9952Z" fill="#9B8278"/>
<path d="M37.5305 12.1872C38.2849 11.9986 38.7662 12.018 39.0764 12.1281C38.9933 11.7137 38.6517 10.8621 37.2439 10.8621C36.3018 10.8621 35.8378 11.2439 35.6085 11.6206L35.0432 12.4119C35.0432 12.4119 35.7502 12.6322 37.5305 12.1872Z" fill="#9B8278"/>
<path d="M36.0143 10.6994C36.0875 10.7724 36.3061 11.2994 36.2611 11.3777C36.2321 11.428 35.65 11.5727 35.5557 11.4989C35.4715 11.4331 35.3731 10.8655 35.4294 10.8C35.4805 10.7408 35.9532 10.6384 36.0143 10.6994Z" fill="#FFE15A"/>
<path d="M36.7625 10.6713C36.8301 10.7487 36.9832 11.2638 36.9226 11.3296C36.8836 11.3718 36.2349 11.423 36.1447 11.342C36.0645 11.2697 36.0467 10.7339 36.1176 10.6817C36.1817 10.6343 36.7062 10.6066 36.7625 10.6713Z" fill="#73AF00"/>
<path d="M37.471 10.6516C37.541 10.7246 37.7008 11.209 37.6381 11.2705C37.5978 11.31 36.9268 11.3566 36.8333 11.2802C36.75 11.212 36.7304 10.7087 36.8035 10.6597C36.87 10.6155 37.4126 10.5908 37.471 10.6516Z" fill="#FFE15A"/>
<path d="M38.1921 10.6854C38.2541 10.765 38.3709 11.2732 38.3059 11.3322C38.2641 11.37 37.6135 11.3717 37.5294 11.2868C37.4544 11.211 37.474 10.693 37.5483 10.6479C37.6154 10.6071 38.1404 10.6189 38.1921 10.6854Z" fill="#73AF00"/>
<path d="M39.6778 10.9934C39.7258 11.0822 39.7212 11.5543 39.6473 11.6016C39.5997 11.632 39.014 11.5276 38.945 11.4299C38.8835 11.3428 38.9884 10.8352 39.0691 10.8029C39.142 10.7737 39.6378 10.9192 39.6778 10.9934Z" fill="#73AF00"/>
<path d="M38.9936 10.792C39.0523 10.8728 39.0971 11.3468 39.0263 11.3969C38.9808 11.4291 38.3104 11.374 38.2292 11.2864C38.1566 11.2082 38.2097 10.7197 38.2891 10.6834C38.3611 10.6504 38.9446 10.7246 38.9936 10.792Z" fill="#FFE15A"/>
<path d="M35.9724 9.77478C36.1121 9.77478 36.2253 9.66154 36.2253 9.52185C36.2253 9.38216 36.1121 9.26892 35.9724 9.26892C35.8327 9.26892 35.7195 9.38216 35.7195 9.52185C35.7195 9.66154 35.8327 9.77478 35.9724 9.77478Z" fill="#9B8278"/>
</svg>
