<svg width="50" height="33" viewBox="0 0 50 33" fill="none" xmlns="http://www.w3.org/2000/svg">
<path d="M16.6667 32.7587H0.86211C0.386036 32.7587 0 32.3726 0 31.8966V0.862109C0 0.386029 0.386036 0 0.86211 0H16.6667V32.7587Z" fill="#82AFFF"/>
<path d="M33.3337 0.000488281H16.6667V32.7593H33.3337V0.000488281Z" fill="#F5F5F5"/>
<path d="M49.1376 32.7586H33.333V0H49.1376C49.6137 0 49.9997 0.38603 49.9997 0.86211V31.8965C49.9997 32.3727 49.6137 32.7586 49.1376 32.7586Z" fill="#82AFFF"/>
<path d="M24.7825 12.0933L24.2881 12.3406L24.7429 12.5283L24.7825 12.0933Z" fill="#FFC855"/>
<path d="M24.9998 21.2284C22.2522 21.2284 20.0171 18.9931 20.0171 16.2457C20.0171 14.5389 20.8762 12.9695 22.315 12.0476L22.4429 12.2474C21.0724 13.1256 20.2544 14.6203 20.2544 16.2457C20.2544 18.8624 22.3833 20.9912 24.9999 20.9912L24.9998 21.2284Z" fill="#73AF00"/>
<path d="M22.1479 21.5393C22.3378 21.5779 22.6306 21.5278 22.9314 21.3878C23.2323 21.2476 23.4591 21.0556 23.5515 20.8854C23.3617 20.8467 23.0687 20.8968 22.768 21.0368C22.4673 21.1772 22.2405 21.3691 22.1479 21.5393Z" fill="#73AF00"/>
<path d="M23.5523 20.8854C23.591 20.6956 23.5409 20.4027 23.4008 20.1019C23.2606 19.8011 23.0686 19.5744 22.8984 19.4819C22.8597 19.6718 22.9098 19.9646 23.0499 20.2654C23.19 20.566 23.382 20.7928 23.5523 20.8854Z" fill="#73AF00"/>
<path d="M21.1555 20.9299C21.3376 20.9961 21.6347 20.9894 21.9527 20.8951C22.2708 20.8007 22.5233 20.6439 22.6398 20.4891C22.4577 20.4229 22.1606 20.4296 21.8426 20.5239C21.5245 20.6184 21.272 20.775 21.1555 20.9299Z" fill="#73AF00"/>
<path d="M22.6403 20.489C22.7066 20.3068 22.6999 20.0098 22.6056 19.6917C22.5111 19.3735 22.3544 19.1211 22.1996 19.0046C22.1334 19.1867 22.1401 19.4838 22.2344 19.8019C22.3288 20.12 22.4856 20.3726 22.6403 20.489Z" fill="#73AF00"/>
<path d="M20.2371 20.0991C20.4044 20.1969 20.6978 20.2439 21.0278 20.2081C21.3577 20.1724 21.6342 20.0635 21.7766 19.9321C21.6093 19.8344 21.316 19.7874 20.986 19.8232C20.656 19.8589 20.3795 19.9678 20.2371 20.0991Z" fill="#73AF00"/>
<path d="M21.7767 19.932C21.8744 19.7647 21.9214 19.4714 21.8856 19.1414C21.8499 18.8114 21.741 18.535 21.6097 18.3926C21.5119 18.5599 21.4649 18.8532 21.5007 19.1832C21.5364 19.5132 21.6453 19.7897 21.7767 19.932Z" fill="#73AF00"/>
<path d="M19.4785 18.9517C19.6257 19.0775 19.9062 19.1757 20.2372 19.1988C20.5683 19.222 20.8598 19.1639 21.0231 19.0599C20.8758 18.934 20.5953 18.8358 20.2643 18.8127C19.9332 18.7896 19.6418 18.8477 19.4785 18.9517Z" fill="#73AF00"/>
<path d="M21.0227 19.0598C21.1486 18.9125 21.2467 18.632 21.2698 18.301C21.293 17.9699 21.2349 17.6784 21.1309 17.5151C21.005 17.6624 20.9069 17.9429 20.8837 18.2739C20.8605 18.6051 20.9186 18.8964 21.0227 19.0598Z" fill="#73AF00"/>
<path d="M19.0339 17.6878C19.1515 17.8418 19.4049 17.9967 19.7237 18.089C20.0426 18.1812 20.3396 18.1857 20.5213 18.1184C20.4037 17.9643 20.1503 17.8095 19.8315 17.7172C19.5126 17.6249 19.2155 17.6203 19.0339 17.6878Z" fill="#73AF00"/>
<path d="M20.5214 18.1185C20.6754 18.0009 20.8303 17.7475 20.9226 17.4286C21.015 17.1098 21.0194 16.8128 20.952 16.6311C20.798 16.7486 20.643 17.002 20.5508 17.3209C20.4585 17.6398 20.4541 17.9367 20.5214 18.1185Z" fill="#73AF00"/>
<path d="M18.8457 16.212C18.9197 16.3911 19.1248 16.606 19.4091 16.7772C19.6935 16.9484 19.9794 17.0292 20.1723 17.0107C20.0983 16.8316 19.8932 16.6168 19.6088 16.4455C19.3246 16.2743 19.0385 16.1938 18.8457 16.212Z" fill="#73AF00"/>
<path d="M20.1725 17.0107C20.3516 16.9367 20.5665 16.7316 20.7378 16.4473C20.909 16.1629 20.9897 15.877 20.9713 15.6841C20.7922 15.7581 20.5773 15.9632 20.406 16.2476C20.2349 16.532 20.1541 16.8179 20.1725 17.0107Z" fill="#73AF00"/>
<path d="M19.0239 14.8188C19.0587 15.0094 19.2142 15.2625 19.4563 15.4896C19.6984 15.7166 19.9612 15.8554 20.1535 15.8779C20.1187 15.6873 19.9631 15.4342 19.7211 15.2071C19.479 14.9802 19.2164 14.8412 19.0239 14.8188Z" fill="#73AF00"/>
<path d="M20.1536 15.8781C20.3443 15.8434 20.5974 15.6878 20.8244 15.4457C21.0515 15.2036 21.1903 14.9408 21.2128 14.7485C21.0222 14.7833 20.7691 14.9389 20.542 15.181C20.315 15.423 20.176 15.6856 20.1536 15.8781Z" fill="#73AF00"/>
<path d="M19.7239 13.3113C19.6841 13.5009 19.7322 13.794 19.8705 14.0958C20.0088 14.3976 20.1994 14.6254 20.369 14.719C20.4089 14.5295 20.3607 14.2363 20.2224 13.9346C20.0841 13.6327 19.8935 13.4048 19.7239 13.3113Z" fill="#73AF00"/>
<path d="M20.3691 14.719C20.5586 14.7588 20.8518 14.7107 21.1536 14.5724C21.4553 14.4341 21.6831 14.2435 21.7768 14.0738C21.5872 14.034 21.2941 14.0821 20.9923 14.2204C20.6906 14.3587 20.4626 14.5493 20.3691 14.719Z" fill="#73AF00"/>
<path d="M20.5612 12.1948C20.4718 12.3667 20.4394 12.6621 20.4914 12.9898C20.5435 13.3177 20.6658 13.5885 20.804 13.7241C20.8934 13.5523 20.9258 13.2568 20.8738 12.9291C20.8217 12.6014 20.6993 12.3306 20.5612 12.1948Z" fill="#73AF00"/>
<path d="M20.8037 13.7242C20.9756 13.8136 21.271 13.846 21.5987 13.794C21.9265 13.7419 22.1973 13.6196 22.333 13.4814C22.1611 13.392 21.8657 13.3596 21.538 13.4116C21.2101 13.4637 20.9393 13.586 20.8037 13.7242Z" fill="#73AF00"/>
<path d="M21.3814 11.4177C21.2678 11.5746 21.1922 11.8618 21.1954 12.1938C21.1986 12.5257 21.2798 12.8114 21.3965 12.966C21.5101 12.8091 21.5857 12.5219 21.5825 12.1899C21.5793 11.8581 21.4982 11.5722 21.3814 11.4177Z" fill="#73AF00"/>
<path d="M21.397 12.9661C21.5539 13.0798 21.8412 13.1554 22.1731 13.1521C22.505 13.1489 22.7908 13.0678 22.9454 12.9511C22.7884 12.8374 22.5012 12.7618 22.1693 12.765C21.8374 12.7683 21.5517 12.8495 21.397 12.9661Z" fill="#73AF00"/>
<path d="M21.7949 12.559C21.9879 12.5746 22.2728 12.4899 22.5546 12.3147C22.8366 12.1395 23.0386 11.9217 23.1101 11.7416C22.9171 11.726 22.6322 11.8106 22.3504 11.9859C22.0685 12.161 21.8665 12.3788 21.7949 12.559Z" fill="#73AF00"/>
<path d="M24.9998 21.2283V20.991C27.6164 20.991 29.7453 18.8622 29.7453 16.2455C29.7453 14.6201 28.9272 13.1253 27.5568 12.2472L27.6847 12.0474C29.1236 12.9693 29.9827 14.5388 29.9827 16.2455C29.9826 18.9929 27.7474 21.2283 24.9998 21.2283Z" fill="#73AF00"/>
<path d="M27.8513 21.5393C27.6615 21.5779 27.3686 21.5278 27.0678 21.3878C26.767 21.2476 26.5403 21.0556 26.4478 20.8854C26.6377 20.8467 26.9305 20.8968 27.2313 21.0368C27.532 21.1772 27.7588 21.3691 27.8513 21.5393Z" fill="#73AF00"/>
<path d="M26.4482 20.8854C26.4095 20.6956 26.4596 20.4027 26.5997 20.1019C26.7399 19.8011 26.9319 19.5744 27.1021 19.4819C27.1408 19.6718 27.0907 19.9646 26.9506 20.2654C26.8105 20.566 26.6185 20.7928 26.4482 20.8854Z" fill="#73AF00"/>
<path d="M28.8444 20.9299C28.6623 20.9961 28.3652 20.9894 28.0472 20.8951C27.7291 20.8007 27.4766 20.6439 27.3601 20.4891C27.5422 20.4229 27.8393 20.4296 28.1573 20.5239C28.4754 20.6184 28.7279 20.775 28.8444 20.9299Z" fill="#73AF00"/>
<path d="M27.3597 20.489C27.2936 20.3068 27.3001 20.0098 27.3944 19.6917C27.489 19.3735 27.6456 19.1211 27.8004 19.0046C27.8666 19.1867 27.86 19.4838 27.7656 19.8019C27.6713 20.12 27.5145 20.3726 27.3597 20.489Z" fill="#73AF00"/>
<path d="M29.7622 20.0991C29.5949 20.1969 29.3015 20.2439 28.9716 20.2081C28.6416 20.1724 28.3651 20.0635 28.2227 19.9321C28.39 19.8344 28.6834 19.7874 29.0134 19.8232C29.3433 19.8589 29.6198 19.9678 29.7622 20.0991Z" fill="#73AF00"/>
<path d="M28.2229 19.932C28.1252 19.7647 28.0782 19.4714 28.114 19.1414C28.1497 18.8114 28.2586 18.535 28.3899 18.3926C28.4877 18.5599 28.5347 18.8532 28.4989 19.1832C28.4632 19.5132 28.3543 19.7897 28.2229 19.932Z" fill="#73AF00"/>
<path d="M30.5217 18.9517C30.3745 19.0775 30.0939 19.1757 29.7628 19.1988C29.4318 19.222 29.1405 19.1639 28.9771 19.0599C29.1244 18.934 29.4047 18.8358 29.7358 18.8127C30.0668 18.7896 30.3583 18.8477 30.5217 18.9517Z" fill="#73AF00"/>
<path d="M28.9763 19.0598C28.8504 18.9125 28.7523 18.632 28.7292 18.301C28.706 17.9699 28.7641 17.6784 28.8681 17.5151C28.994 17.6624 29.0921 17.9429 29.1153 18.2739C29.1385 18.6051 29.0804 18.8964 28.9763 19.0598Z" fill="#73AF00"/>
<path d="M30.9659 17.6878C30.8483 17.8418 30.5949 17.9967 30.276 18.089C29.9573 18.1813 29.6602 18.1857 29.4785 18.1184C29.5961 17.9643 29.8495 17.8095 30.1683 17.7172C30.4872 17.6249 30.7842 17.6203 30.9659 17.6878Z" fill="#73AF00"/>
<path d="M29.4786 18.1185C29.3246 18.0009 29.1696 17.7475 29.0773 17.4286C28.9849 17.1098 28.9805 16.8128 29.0479 16.6311C29.2019 16.7486 29.3569 17.002 29.4492 17.3209C29.5415 17.6398 29.5459 17.9367 29.4786 18.1185Z" fill="#73AF00"/>
<path d="M31.154 16.212C31.08 16.3911 30.8749 16.606 30.5905 16.7772C30.3062 16.9484 30.0203 17.0292 29.8274 17.0107C29.9014 16.8316 30.1065 16.6168 30.3908 16.4455C30.6751 16.2743 30.9611 16.1938 31.154 16.212Z" fill="#73AF00"/>
<path d="M29.8272 17.0107C29.6481 16.9367 29.4332 16.7316 29.2619 16.4473C29.0907 16.1629 29.01 15.877 29.0284 15.6841C29.2075 15.7581 29.4224 15.9632 29.5937 16.2476C29.765 16.532 29.8456 16.8179 29.8272 17.0107Z" fill="#73AF00"/>
<path d="M30.9755 14.8188C30.9407 15.0094 30.7852 15.2625 30.5431 15.4896C30.301 15.7166 30.0382 15.8554 29.8459 15.8779C29.8807 15.6873 30.0362 15.4342 30.2783 15.2071C30.5204 14.9801 30.783 14.8412 30.9755 14.8188Z" fill="#73AF00"/>
<path d="M29.8458 15.8781C29.6552 15.8434 29.402 15.6878 29.175 15.4457C28.9479 15.2036 28.8092 14.9408 28.7866 14.7485C28.9772 14.7833 29.2304 14.9389 29.4574 15.181C29.6845 15.423 29.8234 15.6856 29.8458 15.8781Z" fill="#73AF00"/>
<path d="M30.2758 13.3113C30.3157 13.5009 30.2675 13.794 30.1293 14.0958C29.991 14.3976 29.8004 14.6254 29.6307 14.719C29.5909 14.5295 29.639 14.2363 29.7773 13.9346C29.9156 13.6327 30.1062 13.4048 30.2758 13.3113Z" fill="#73AF00"/>
<path d="M29.6305 14.719C29.4409 14.7588 29.1477 14.7107 28.846 14.5724C28.5442 14.4341 28.3164 14.2435 28.2227 14.0738C28.4123 14.034 28.7055 14.0821 29.0072 14.2204C29.309 14.3587 29.5369 14.5493 29.6305 14.719Z" fill="#73AF00"/>
<path d="M29.4391 12.1948C29.5285 12.3667 29.5609 12.6621 29.5089 12.9898C29.4568 13.3177 29.3345 13.5885 29.1963 13.7241C29.1069 13.5523 29.0745 13.2568 29.1265 12.9291C29.1786 12.6014 29.3009 12.3306 29.4391 12.1948Z" fill="#73AF00"/>
<path d="M29.1956 13.7242C29.0238 13.8136 28.7284 13.846 28.4006 13.794C28.0728 13.7419 27.802 13.6196 27.6663 13.4814C27.8382 13.392 28.1336 13.3596 28.4614 13.4116C28.7892 13.4637 29.06 13.586 29.1956 13.7242Z" fill="#73AF00"/>
<path d="M28.6177 11.4177C28.7313 11.5746 28.8069 11.8618 28.8037 12.1938C28.8005 12.5257 28.7193 12.8114 28.6026 12.966C28.4889 12.8091 28.4134 12.5219 28.4166 12.1899C28.4198 11.8581 28.5009 11.5722 28.6177 11.4177Z" fill="#73AF00"/>
<path d="M28.6027 12.9661C28.4458 13.0798 28.1586 13.1554 27.8267 13.1521C27.4947 13.1489 27.209 13.0678 27.0544 12.9511C27.2113 12.8374 27.4985 12.7618 27.8305 12.765C28.1624 12.7683 28.4481 12.8495 28.6027 12.9661Z" fill="#73AF00"/>
<path d="M28.2045 12.559C28.0114 12.5746 27.7265 12.4899 27.4447 12.3147C27.1628 12.1395 26.9607 11.9217 26.8892 11.7416C27.0823 11.726 27.3672 11.8106 27.649 11.9859C27.9308 12.161 28.1329 12.3788 28.2045 12.559Z" fill="#73AF00"/>
<path d="M22.2797 20.1248L21.4161 20.9884L20.9902 20.1366L22.2679 18.8589L22.6938 19.2847L22.5708 19.6538C22.5116 19.8313 22.412 19.9925 22.2797 20.1248Z" fill="#966446"/>
<path d="M26.9526 13.748L22.2678 18.4328C22.1503 18.5504 22.1503 18.7411 22.2678 18.8587L22.4807 19.0716L23.3326 18.2197L26.7397 14.3866L27.1656 13.9607L26.9526 13.748Z" fill="#B9B9B9"/>
<path d="M23.4208 17.706C23.3643 17.7625 23.3325 17.8391 23.3325 17.9189V18.2201L26.7396 14.387L23.4208 17.706Z" fill="#966446"/>
<path d="M27.1656 13.9611L26.9527 13.7482L26.7397 13.9611L26.9527 14.1742L27.1656 14.3872L29.508 11.6189L27.1656 13.9611Z" fill="#A0A0A0"/>
<path d="M27.9576 20.1248L28.8212 20.9884L29.2471 20.1366L27.9694 18.8589L27.5435 19.2847L27.6666 19.6538C27.7257 19.8313 27.8254 19.9925 27.9576 20.1248Z" fill="#966446"/>
<path d="M23.2845 13.748L27.9692 18.4328C28.0868 18.5504 28.0868 18.7411 27.9692 18.8587L27.7564 19.0716L26.9045 18.2197L23.4974 14.3866L23.0715 13.9607L23.2845 13.748Z" fill="#B9B9B9"/>
<path d="M26.8165 17.706C26.8729 17.7625 26.9048 17.8391 26.9048 17.9189V18.2201L23.4976 14.387L26.8165 17.706Z" fill="#966446"/>
<path d="M23.0715 13.9611L23.2844 13.7482L23.4973 13.9611L23.2844 14.1742L23.0715 14.3872L20.729 11.6189L23.0715 13.9611Z" fill="#A0A0A0"/>
<path d="M23.3706 19.9473L23.5822 20.1403C24.3543 19.2938 25.7053 17.8125 27.8471 15.8894C27.8471 15.8894 26.0728 16.9848 23.3706 19.9473Z" fill="#B9B9B9"/>
<path d="M22.7716 20.8164C22.6957 20.747 22.6903 20.6293 22.7595 20.5533L23.213 20.056C23.2824 19.9801 23.4001 19.9747 23.4761 20.0439C23.5521 20.1133 23.5575 20.231 23.4882 20.307L23.0347 20.8043C22.9654 20.8803 22.8476 20.8858 22.7716 20.8164Z" fill="#FFE15A"/>
<path d="M23.1987 19.791L23.0758 19.8458C22.9665 19.9002 22.679 20.0628 22.6295 20.2945C22.6059 20.4043 22.6392 20.5112 22.7244 20.6124C22.7325 20.5915 22.7436 20.5712 22.7597 20.5537L22.8168 20.4911C22.7782 20.435 22.7577 20.38 22.7694 20.3247C22.8004 20.1798 22.9938 20.0504 23.1153 19.9862L23.6586 20.4818L23.7938 20.3337L23.1987 19.791Z" fill="#FFC855"/>
<path d="M26.8648 20.1819L26.6532 20.3749C25.8811 19.5284 24.53 18.047 22.3882 16.124C22.3882 16.124 24.1625 17.2192 26.8648 20.1819Z" fill="#B9B9B9"/>
<path d="M27.4632 21.0508C27.5391 20.9814 27.5445 20.8636 27.4753 20.7877L27.0218 20.2904C26.9524 20.2144 26.8346 20.2091 26.7587 20.2783C26.6827 20.3476 26.6773 20.4654 26.7466 20.5414L27.2001 21.0386C27.2694 21.1147 27.3872 21.1201 27.4632 21.0508Z" fill="#FFE15A"/>
<path d="M27.036 20.0251L27.1588 20.0799C27.2681 20.1343 27.5556 20.2969 27.6051 20.5286C27.6288 20.6384 27.5955 20.7453 27.5102 20.8465C27.5021 20.8256 27.4911 20.8054 27.475 20.7878L27.4178 20.7252C27.4564 20.6691 27.4769 20.614 27.4653 20.5588C27.4342 20.4139 27.2409 20.2845 27.1194 20.2203L26.576 20.7159L26.4409 20.5678L27.036 20.0251Z" fill="#FFC855"/>
<path d="M25.211 12.345C25.2276 12.3038 25.2373 12.2592 25.2373 12.212C25.2373 12.0154 25.0779 11.856 24.8813 11.856C24.6847 11.856 24.5254 12.0154 24.5254 12.212C24.5254 12.3291 24.5827 12.4321 24.6701 12.497C24.5414 13.5307 25.5606 13.6097 25.949 13.7543C26.5382 13.9734 27.2774 14.4171 27.2309 15.657C27.1858 16.8623 26.4236 18.0253 26.4236 18.0253L27.0563 17.1651C26.825 18.1436 26.2847 19.3901 25 20.8724C25 20.8724 25.8784 20.0132 26.6114 18.9051C26.072 20.1739 25.4745 21.347 25.4745 21.347C25.4745 21.347 26.5324 19.9727 27.3876 17.5951C28.4243 14.7125 26.2434 12.9806 25.211 12.345Z" fill="#69B469"/>
<path d="M24.2893 16.6011H23.3401V17.0757H24.2893V16.6011Z" fill="#F4E08F"/>
<path d="M23.3391 17.5505C23.6012 17.5505 23.8137 17.338 23.8137 17.0759C23.8137 16.8138 23.6012 16.6013 23.3391 16.6013C23.077 16.6013 22.8645 16.8138 22.8645 17.0759C22.8645 17.338 23.077 17.5505 23.3391 17.5505Z" fill="#ECD077"/>
<path d="M23.3396 14.4665C23.6017 14.4665 23.8142 14.254 23.8142 13.9919C23.8142 13.7298 23.6017 13.5173 23.3396 13.5173C23.0774 13.5173 22.865 13.7298 22.865 13.9919C22.865 14.254 23.0774 14.4665 23.3396 14.4665Z" fill="#ECD077"/>
<path d="M26.1863 14.466C26.4484 14.466 26.6609 14.2535 26.6609 13.9914C26.6609 13.7293 26.4484 13.5168 26.1863 13.5168H23.3391C23.6012 13.5168 23.8137 13.7293 23.8137 13.9914C23.8137 14.2535 23.6012 14.466 23.3391 14.466C23.077 14.466 22.8645 14.2535 22.8645 13.9914C22.8645 14.788 23.5311 15.751 23.746 16.6014C23.746 16.6014 23.8136 16.8139 23.8136 17.076C23.8136 17.3381 23.6011 17.5506 23.339 17.5506H26.1862C26.4483 17.5506 26.6608 17.3381 26.6608 17.076C26.6608 16.2795 25.9942 15.3164 25.7793 14.466H26.1863Z" fill="#FCF0A8"/>
<path d="M23.8144 13.9917C23.8144 14.2538 23.6019 14.4663 23.3398 14.4663H26.1871C26.4492 14.4663 26.6617 14.2538 26.6617 13.9917H23.8144Z" fill="#F4E08F"/>
<path d="M23.814 17.0759C23.814 17.338 23.6015 17.5505 23.3394 17.5505H26.1867C26.4488 17.5505 26.6613 17.338 26.6613 17.0759H23.814Z" fill="#F4E08F"/>
</svg>
