<svg width="51" height="34" viewBox="0 0 51 34" fill="none" xmlns="http://www.w3.org/2000/svg">
<path d="M50.7521 11.2726H0.752197V1.21512C0.752197 0.739006 1.13823 0.352966 1.61431 0.352966H49.8901C50.3662 0.352966 50.7522 0.739006 50.7522 1.21512L50.7521 11.2726Z" fill="#4173CD"/>
<path d="M49.8902 33.1117H1.61455C1.13848 33.1117 0.752441 32.7256 0.752441 32.2496V22.1922H50.7523V32.2496C50.7523 32.7257 50.3663 33.1117 49.8902 33.1117Z" fill="#4173CD"/>
<path d="M50.7521 11.2724H0.752197V22.1913H50.7521V11.2724Z" fill="#F5F5F5"/>
<path d="M25.8768 15.324L26.1853 16.2491L27.1604 16.2566C27.2867 16.2576 27.3389 16.4187 27.2375 16.4937L26.453 17.073L26.7471 18.0028C26.7851 18.1232 26.6482 18.2227 26.5454 18.1494L25.7521 17.5823L24.9587 18.1493C24.856 18.2226 24.719 18.1231 24.757 18.0027L25.0511 17.0729L24.2667 16.4936C24.1652 16.4186 24.2174 16.2575 24.3437 16.2565L25.3188 16.249L25.6273 15.3239C25.6674 15.2043 25.8368 15.2043 25.8768 15.324Z" fill="#4173CD"/>
<path d="M17.0706 17.8067L17.3791 18.7318L18.3541 18.7393C18.4804 18.7403 18.5327 18.9014 18.4312 18.9764L17.6467 19.5557L17.9409 20.4855C17.979 20.6059 17.8419 20.7054 17.7391 20.6321L16.9458 20.0651L16.1524 20.6321C16.0497 20.7054 15.9126 20.6059 15.9506 20.4855L16.2448 19.5557L15.4603 18.9764C15.3588 18.9014 15.4111 18.7403 15.5374 18.7393L16.5125 18.7318L16.8209 17.8067C16.8612 17.687 17.0306 17.687 17.0706 17.8067Z" fill="#4173CD"/>
<path d="M17.071 12.8411L17.3795 13.7662L18.3546 13.7737C18.4809 13.7747 18.5331 13.9358 18.4317 14.0108L17.6472 14.5901L17.9413 15.5199C17.9794 15.6403 17.8424 15.7398 17.7396 15.6665L16.9462 15.0995L16.1529 15.6665C16.0501 15.7398 15.9131 15.6403 15.9511 15.5199L16.2452 14.5901L15.4608 14.0108C15.3593 13.9358 15.4116 13.7747 15.5378 13.7737L16.5129 13.7662L16.8214 12.8411C16.8616 12.7215 17.0311 12.7215 17.071 12.8411Z" fill="#4173CD"/>
<path d="M34.6824 17.8067L34.9909 18.7318L35.966 18.7393C36.0923 18.7403 36.1445 18.9014 36.0431 18.9764L35.2586 19.5557L35.5527 20.4855C35.5908 20.6059 35.4538 20.7054 35.351 20.6321L34.5576 20.0651L33.7643 20.6321C33.6615 20.7054 33.5245 20.6059 33.5625 20.4855L33.8567 19.5557L33.0722 18.9764C32.9705 18.9014 33.023 18.7403 33.1492 18.7393L34.1243 18.7318L34.4328 17.8067C34.4731 17.687 34.6425 17.687 34.6824 17.8067Z" fill="#4173CD"/>
<path d="M34.6824 12.8412L34.9909 13.7663L35.966 13.7738C36.0923 13.7748 36.1445 13.9359 36.0431 14.0109L35.2586 14.5902L35.5527 15.52C35.5908 15.6404 35.4538 15.7399 35.351 15.6666L34.5576 15.0996L33.7643 15.6666C33.6615 15.7399 33.5245 15.6404 33.5625 15.52L33.8567 14.5902L33.0722 14.0109C32.9705 13.9359 33.023 13.7748 33.1492 13.7738L34.1243 13.7663L34.4328 12.8412C34.4731 12.7216 34.6425 12.7216 34.6824 12.8412Z" fill="#4173CD"/>
</svg>
