<svg width="50" height="33" viewBox="0 0 50 33" fill="none" xmlns="http://www.w3.org/2000/svg">
<path d="M0 21.839H49.9999V31.8965C49.9999 32.3725 49.6139 32.7586 49.1378 32.7586H0.862104C0.386034 32.7586 0 32.3725 0 31.8965V21.839Z" fill="#41479B"/>
<path d="M0.862104 0H49.1379C49.614 0 50 0.38603 50 0.8621V10.9195H0V0.8621C0 0.38603 0.386034 0 0.862104 0Z" fill="#D0353E"/>
<path d="M49.9999 10.9193H0V21.8383H49.9999V10.9193Z" fill="#F5F5F5"/>
<path d="M21.3794 11.2065H18.9656V13.9653H21.3794V11.2065Z" fill="#D0353E"/>
<path d="M26.2065 11.2065H23.7927V13.9653H26.2065V11.2065Z" fill="#D0353E"/>
<path d="M23.7925 13.9653H21.3787V16.7241H23.7925V13.9653Z" fill="#D0353E"/>
<path d="M31.0339 11.2065H28.6201V13.9653H31.0339V11.2065Z" fill="#D0353E"/>
<path d="M28.6205 13.9653H26.2068V16.7241H28.6205V13.9653Z" fill="#D0353E"/>
<path d="M23.7925 11.2065H21.3787V13.9653H23.7925V11.2065Z" fill="#F5F5F5"/>
<path d="M28.6205 11.2065H26.2068V13.9653H28.6205V11.2065Z" fill="#F5F5F5"/>
<path d="M21.3796 13.9653H18.9658V16.7241H21.3796V13.9653Z" fill="#F5F5F5"/>
<path d="M26.2065 13.9653H23.7927V16.7241H26.2065V13.9653Z" fill="#F5F5F5"/>
<path d="M31.0339 13.9653H28.6201V16.7241H31.0339V13.9653Z" fill="#F5F5F5"/>
<path d="M26.206 16.7239H23.7922V19.4827H26.206V16.7239Z" fill="#D0353E"/>
<path d="M23.7921 19.4827H21.3784V22.2415H23.7921V19.4827Z" fill="#D0353E"/>
<path d="M28.62 19.4827H26.2063V22.2415H28.62V19.4827Z" fill="#D0353E"/>
<path d="M23.7926 16.724H21.3789V19.4828H23.7926V16.724Z" fill="#F5F5F5"/>
<path d="M28.62 16.7239H26.2063V19.4827H28.62V16.7239Z" fill="#F5F5F5"/>
<path d="M26.206 19.4827H23.7922V22.2415H26.206V19.4827Z" fill="#F5F5F5"/>
<path d="M31.0344 11.2069V18.9655C31.0344 22.2982 28.3326 24.9999 24.9999 24.9999C21.6672 24.9999 18.9654 22.2982 18.9654 18.9655V11.2069H31.0344ZM31.4654 10.7758H31.0344H18.9654H18.5344V11.2069V18.9655C18.5344 22.5305 21.4348 25.431 24.9999 25.431C28.565 25.431 31.4654 22.5306 31.4654 18.9655V11.2069V10.7758Z" fill="#D0353E"/>
<path d="M21.3804 19.4827V16.7241H18.9666V18.9655C18.9666 19.1402 18.9781 19.3118 18.9927 19.4828L21.3804 19.4827Z" fill="#D0353E"/>
<path d="M31.0081 19.4827H28.6204V22.2413H30.0632C30.5868 21.4337 30.9221 20.4946 31.0081 19.4827Z" fill="#F5F5F5"/>
<path d="M19.9364 22.2413H21.3792V19.4828H18.9915C19.0775 20.4947 19.4129 21.4338 19.9364 22.2413Z" fill="#F5F5F5"/>
<path d="M28.6211 19.4826H31.0088C31.0233 19.3118 31.0349 19.14 31.0349 18.9653V16.7239H28.6211V19.4826Z" fill="#D0353E"/>
<path d="M21.3797 23.7848V22.2412H19.937C20.3236 22.8376 20.8132 23.3585 21.3797 23.7848Z" fill="#D0353E"/>
<path d="M30.0639 22.2412H28.6211V23.7848C29.1877 23.3585 29.6774 22.8376 30.0639 22.2412Z" fill="#D0353E"/>
<path d="M21.3792 23.7848C22.0817 24.3136 22.8994 24.6974 23.7929 24.8788V22.2413H21.3792V23.7848Z" fill="#F5F5F5"/>
<path d="M26.2063 24.8787C27.0998 24.6974 27.9175 24.3135 28.6201 23.7848V22.2412H26.2063V24.8787Z" fill="#F5F5F5"/>
<path d="M26.2068 22.2413H23.793V24.8788C24.183 24.958 24.5866 25 25 25C25.4133 25 25.8168 24.958 26.2069 24.8788L26.2068 22.2413Z" fill="#D0353E"/>
<path d="M20.632 6.64218C20.1068 6.56088 19.5695 6.50228 19.0217 6.46838C18.5981 6.81718 18.1943 7.18068 17.811 7.55728C18.1959 8.48648 18.5808 9.41568 18.9655 10.3449C19.7383 10.0249 20.5301 9.76868 21.3334 9.57668C21.0996 8.59848 20.8658 7.62028 20.632 6.64218Z" fill="#4173CD"/>
<path d="M26.4655 6.1845C25.9935 5.9457 25.5048 5.7249 25.0004 5.5238C24.496 5.725 24.0073 5.9458 23.5354 6.1845C23.6138 7.187 23.6923 8.1897 23.7707 9.1926C24.5893 9.1284 25.4118 9.1284 26.2303 9.1926C26.3085 8.1898 26.387 7.1872 26.4655 6.1845Z" fill="#4173CD"/>
<path d="M32.189 7.55728C31.8057 7.18078 31.4018 6.81728 30.9782 6.46838C30.4305 6.50218 29.8932 6.56088 29.368 6.64218C29.1342 7.62038 28.9003 8.59848 28.6665 9.57658C29.4698 9.76868 30.2616 10.0248 31.0344 10.3448C31.4192 9.41558 31.8041 8.48638 32.189 7.55728Z" fill="#4173CD"/>
<path d="M23.5347 6.18441C23.0314 6.02201 22.5136 5.88001 21.9825 5.76001C21.514 6.03751 21.0635 6.33211 20.6318 6.64221C20.8655 7.62041 21.0994 8.59851 21.3334 9.57661C22.1367 9.38451 22.9515 9.25661 23.7701 9.19251C23.6916 8.18981 23.6131 7.18721 23.5347 6.18441Z" fill="#41479B"/>
<path d="M29.3671 6.64209C28.9353 6.33199 28.4848 6.03729 28.0163 5.75989C27.4852 5.87989 26.9674 6.02219 26.4642 6.18439C26.3857 7.18689 26.3072 8.18959 26.2288 9.19249C27.0475 9.25639 27.8622 9.38449 28.6655 9.57649C28.8994 8.59839 29.1333 7.62019 29.3671 6.64209Z" fill="#41479B"/>
<path d="M23.6291 7.38773C22.7165 7.45903 21.8082 7.60173 20.9126 7.81593C20.8658 7.62033 20.819 7.42463 20.7722 7.22903C21.6985 7.00773 22.6379 6.86013 23.5819 6.78613C23.5977 6.98673 23.6134 7.18723 23.6291 7.38773Z" fill="#D0353E"/>
<path d="M23.723 8.59076C22.8731 8.65726 22.0271 8.79016 21.193 8.98956C21.1461 8.79396 21.0994 8.59826 21.0527 8.40276C21.9174 8.19596 22.7946 8.05816 23.6759 7.98926C23.6916 8.18956 23.7072 8.39026 23.723 8.59076Z" fill="#D0353E"/>
<path d="M27.8638 8.79342C27.6533 8.75602 27.4423 8.72272 27.2308 8.69362C26.8829 8.64562 26.6238 8.35032 26.654 8.01832C26.6841 7.68652 27.0166 7.44582 27.3952 7.49812C27.6223 7.52942 27.8488 7.56502 28.0748 7.60532C28.4517 7.67192 28.6956 8.00392 28.6221 8.32852C28.5487 8.65382 28.2103 8.85452 27.8638 8.79342Z" fill="#FFE15A"/>
<path d="M31.2653 9.78733C30.4631 9.45503 29.6407 9.18923 28.8069 8.98963C28.8537 8.79403 28.9004 8.59833 28.9472 8.40283C29.8119 8.60953 30.6645 8.88533 31.4963 9.22983C31.4194 9.41563 31.3424 9.60153 31.2653 9.78733Z" fill="#D0353E"/>
<path d="M31.0507 7.97696C30.9654 8.21196 30.6779 8.32385 30.4063 8.23545C30.1347 8.14695 29.9685 7.88876 30.0372 7.64836C30.106 7.40786 30.3972 7.28065 30.6853 7.37425C30.9736 7.46775 31.136 7.74186 31.0507 7.97696Z" fill="#FFE15A"/>
<path d="M19.9642 7.64842C20.0328 7.88902 19.8665 8.14732 19.5951 8.23552C19.3235 8.32342 19.036 8.21152 18.9507 7.97702C18.8653 7.74182 19.0278 7.46782 19.3161 7.37442C19.6041 7.28102 19.8956 7.40802 19.9642 7.64842Z" fill="#FFE15A"/>
<path d="M24.863 7.25315C24.8636 7.45305 24.6839 7.61585 24.4613 7.62265C24.2387 7.62975 24.049 7.47805 24.0372 7.27885C24.0256 7.07965 24.2051 6.90725 24.4387 6.89965C24.6723 6.89235 24.862 7.05325 24.863 7.25315Z" fill="#FFE15A"/>
<path d="M25.9642 7.27887C25.9524 7.47847 25.7625 7.62977 25.5402 7.62267C25.3176 7.61577 25.1379 7.45307 25.1384 7.25307C25.1393 7.05337 25.3291 6.89207 25.5626 6.89967C25.7963 6.90677 25.9757 7.07957 25.9642 7.27887Z" fill="#FFE15A"/>
<path d="M25.3922 8.18385C25.3866 8.38375 25.2115 8.54095 25.0007 8.54095C24.7902 8.54095 24.6151 8.38385 24.6093 8.18385C24.6039 7.98455 24.779 7.81715 25.0007 7.81775C25.2225 7.81725 25.3976 7.98445 25.3922 8.18385Z" fill="#FFE15A"/>
</svg>
