<svg width="51" height="34" viewBox="0 0 51 34" fill="none" xmlns="http://www.w3.org/2000/svg">
<path d="M49.89 33.5394H1.61431C1.13823 33.5394 0.752197 33.1534 0.752197 32.6773V1.64286C0.752197 1.16679 1.13823 0.780762 1.61431 0.780762H49.8901C50.3662 0.780762 50.7522 1.16679 50.7522 1.64286V32.6773C50.7521 33.1535 50.3661 33.5394 49.89 33.5394Z" fill="#41479B"/>
<path d="M50.7521 6.81543H0.752197V27.5048H50.7521V6.81543Z" fill="#F5F5F5"/>
<path d="M30.2314 17.1601L32.471 13.2811H27.992L25.752 9.40161L23.5122 13.2811H19.0332L21.2727 17.1601L19.0332 21.0391H23.5122L25.752 24.9187L27.9919 21.0391H32.4709L30.2314 17.1601ZM30.2737 14.5498L29.499 15.8916L28.7243 14.5498H30.2737ZM28.7666 17.1601L27.2595 19.7705H24.2445L22.7375 17.1601L24.2446 14.5498H27.2596L28.7666 17.1601ZM25.752 11.9389L26.527 13.2812H24.977L25.752 11.9389ZM21.2304 14.5498H22.7797L22.005 15.8916L21.2304 14.5498ZM21.2304 19.7705L22.0051 18.4287L22.7798 19.7705H21.2304ZM25.752 22.3814L24.977 21.039H26.527L25.752 22.3814ZM29.499 18.4287L30.2737 19.7705H28.7244L29.499 18.4287Z" fill="#41479B"/>
</svg>
