<svg width="51" height="34" viewBox="0 0 51 34" fill="none" xmlns="http://www.w3.org/2000/svg">
<path d="M50.0528 33.6834H1.77715C1.30107 33.6834 0.915039 33.2974 0.915039 32.8213V1.78691C0.915039 1.31084 1.30107 0.924805 1.77715 0.924805H50.0529C50.529 0.924805 50.915 1.31084 50.915 1.78691V32.8213C50.9149 33.2975 50.5289 33.6834 50.0528 33.6834Z" fill="#41479B"/>
<path d="M50.9149 5.23486H0.915039V6.95896H50.9149V5.23486Z" fill="#F5F5F5"/>
<path d="M50.9159 27.649H0.916016V29.3731H50.9159V27.649Z" fill="#F5F5F5"/>
<path d="M50.9149 6.95947H0.915039V27.6489H50.9149V6.95947Z" fill="#D0353E"/>
<path d="M14.7078 24.2006C18.5166 24.2006 21.6042 21.113 21.6042 17.3041C21.6042 13.4953 18.5166 10.4077 14.7078 10.4077C10.8989 10.4077 7.81128 13.4953 7.81128 17.3041C7.81128 21.113 10.8989 24.2006 14.7078 24.2006Z" fill="#F5F5F5"/>
<path d="M14.8917 11.0254L16.2752 15.1737L20.6479 15.2077C20.834 15.209 20.9111 15.4464 20.7614 15.557L17.2438 18.1546L18.5627 22.3238C18.6188 22.5011 18.4169 22.6478 18.2655 22.5397L14.7081 19.9968L11.1506 22.5396C10.9993 22.6478 10.7974 22.501 10.8534 22.3237L12.1724 18.1545L8.65468 15.5569C8.50498 15.4464 8.58212 15.209 8.76816 15.2076L13.1409 15.1736L14.5244 11.0253C14.5833 10.849 14.8328 10.849 14.8917 11.0254Z" fill="#D0353E"/>
</svg>
