<svg width="50" height="33" viewBox="0 0 50 33" fill="none" xmlns="http://www.w3.org/2000/svg">
<path d="M16.6667 32.7587H0.862107C0.386037 32.7587 0 32.3727 0 31.8966V0.86211C0 0.38604 0.386037 0 0.862107 0H16.6667V32.7587Z" fill="#73AF00"/>
<path d="M33.334 0.000488281H16.667V32.7593H33.334V0.000488281Z" fill="#F5F5F5"/>
<path d="M49.1381 32.7588H33.3335V0.00012207H49.1381C49.6141 0.00012207 50.0002 0.386162 50.0002 0.862232V31.8967C50.0002 32.3729 49.6141 32.7588 49.1381 32.7588Z" fill="#D0353E"/>
<path d="M26.4868 17.1505L25 17.8941V18.6375H25.7435L26.4868 17.1505Z" fill="#FFD250"/>
<path d="M24.9985 20.4959C24.793 20.4959 24.6267 20.3296 24.6267 20.1242V18.6373C24.6267 18.4319 24.793 18.2656 24.9985 18.2656C25.204 18.2656 25.3703 18.4319 25.3703 18.6373V20.1242C25.3703 20.3296 25.204 20.4959 24.9985 20.4959Z" fill="#00C3A0"/>
<path d="M24.9985 19.0092C23.5384 19.0092 22.1285 18.4458 21.0283 17.4229C20.878 17.2831 20.8693 17.0479 21.009 16.8977C21.1498 16.7478 21.3848 16.7398 21.5342 16.8783C22.4965 17.7732 23.7268 18.2657 24.9984 18.2657C26.2699 18.2657 27.5002 17.7732 28.4625 16.8783C28.6124 16.7394 28.8473 16.747 28.9877 16.8977C29.1275 17.048 29.1188 17.2832 28.9684 17.4229C27.8684 18.4459 26.4585 19.0092 24.9985 19.0092Z" fill="#00C3A0"/>
<path d="M24.9999 20.496C24.0469 20.496 23.1239 20.2176 22.3303 19.6906L22.742 19.0712C24.0837 19.9627 25.9161 19.9627 27.2577 19.0712L27.6693 19.6906C26.8758 20.2177 25.9528 20.496 24.9999 20.496Z" fill="#00AADC"/>
<path d="M24.4112 15.4778L23.5904 16.748L23.4509 17.1661L25.5883 16.6705L24.4112 15.4778Z" fill="#732D37"/>
<path d="M22.725 17.5746C21.7424 17.5746 20.5629 16.7477 20.25 14.9051L20.9833 14.781C21.2433 16.3132 22.1858 16.8323 22.7518 16.8309C22.9254 16.8261 23.1064 16.7662 23.1207 16.6436C23.1374 16.4969 23.1414 16.4621 22.7526 16.3307C22.5413 16.2591 22.3017 16.1783 22.1337 15.9859C21.4537 15.2094 22.3743 14.3876 22.8166 13.9927C22.8946 13.923 22.9269 13.8638 22.9186 13.8413C22.8943 13.7778 22.7484 13.6817 22.584 13.6817C22.1117 13.6817 21.7534 13.4149 21.6493 12.9858C21.5411 12.5414 21.7455 12.0732 22.1347 11.8721L22.476 12.5327C22.3848 12.5799 22.3486 12.7142 22.3718 12.8101C22.3809 12.8486 22.403 12.9382 22.5842 12.9382C23.0393 12.9382 23.4725 13.2069 23.6133 13.5764C23.6735 13.7339 23.7642 14.1434 23.312 14.5474C22.8237 14.9834 22.5315 15.3116 22.6934 15.4963C22.7301 15.538 22.8873 15.5914 22.9911 15.6263C23.3258 15.7396 23.9487 15.9501 23.8595 16.7287C23.8035 17.2184 23.3665 17.5581 22.7726 17.5742C22.7566 17.5742 22.7406 17.5746 22.725 17.5746Z" fill="#AAD264"/>
<path d="M25.7435 13.4334C25.7435 13.4334 26.4869 11.9466 25 11.2032C25 11.2032 30.204 10.4597 29.4605 17.1506C28.9727 16.7603 28.2479 16.0466 27.9892 15.4779L25.7435 14.1768V13.4334Z" fill="#874150"/>
<path d="M25 14.9203L28.7171 17.1505C28.7171 17.1505 28.7171 17.1505 27.2303 17.894L25 15.6638V14.9203Z" fill="#732D37"/>
<path d="M23.5132 12.6899C23.9237 12.6899 24.2566 13.0228 24.2566 13.4333L24.2558 13.4341C23.8123 13.8777 23.7024 14.5551 23.9829 15.1162L24.1508 15.4522C24.2209 15.5922 24.3131 15.7202 24.4238 15.8309L26.487 17.8941V16.8666C26.487 15.5867 26.189 14.3243 25.6166 13.1794C25.2387 12.4239 24.4665 11.9465 23.6217 11.9465H23.5133L23.5132 12.6899Z" fill="#783C46"/>
<path d="M23.5135 11.9464L22.77 12.6899V13.4333C22.77 13.4333 23.6544 12.985 23.9524 12.8421C24.1607 12.7423 24.1228 12.5063 24.0033 12.3925C23.9102 12.304 23.5135 11.9464 23.5135 11.9464Z" fill="#FFD250"/>
<path d="M25 21.9829C21.5156 21.9829 18.6809 19.1482 18.6809 15.6637H19.4244C19.4244 18.7384 21.9254 21.2395 25.0001 21.2395C28.0748 21.2395 30.5759 18.7384 30.5759 15.6637H31.3194C31.3192 19.1482 28.4845 21.9829 25 21.9829Z" fill="#AAD264"/>
<path d="M19.4664 18.3742C19.745 18.3742 19.9709 18.1483 19.9709 17.8697C19.9709 17.5911 19.745 17.3652 19.4664 17.3652C19.1878 17.3652 18.9619 17.5911 18.9619 17.8697C18.9619 18.1483 19.1878 18.3742 19.4664 18.3742Z" fill="#FFE15A"/>
<path d="M20.5814 20.1554C20.86 20.1554 21.0859 19.9296 21.0859 19.6509C21.0859 19.3723 20.86 19.1465 20.5814 19.1465C20.3027 19.1465 20.0769 19.3723 20.0769 19.6509C20.0769 19.9296 20.3027 20.1554 20.5814 20.1554Z" fill="#FFE15A"/>
<path d="M22.3929 21.5022C22.6716 21.5022 22.8974 21.2763 22.8974 20.9977C22.8974 20.7191 22.6716 20.4932 22.3929 20.4932C22.1143 20.4932 21.8884 20.7191 21.8884 20.9977C21.8884 21.2763 22.1143 21.5022 22.3929 21.5022Z" fill="#FFE15A"/>
<path d="M30.5909 18.3742C30.8695 18.3742 31.0954 18.1483 31.0954 17.8697C31.0954 17.5911 30.8695 17.3652 30.5909 17.3652C30.3123 17.3652 30.0864 17.5911 30.0864 17.8697C30.0864 18.1483 30.3123 18.3742 30.5909 18.3742Z" fill="#FFE15A"/>
<path d="M29.4742 20.1554C29.7528 20.1554 29.9787 19.9296 29.9787 19.6509C29.9787 19.3723 29.7528 19.1465 29.4742 19.1465C29.1956 19.1465 28.9697 19.3723 28.9697 19.6509C28.9697 19.9296 29.1956 20.1554 29.4742 20.1554Z" fill="#FFE15A"/>
<path d="M27.6627 21.5022C27.9413 21.5022 28.1672 21.2763 28.1672 20.9977C28.1672 20.7191 27.9413 20.4932 27.6627 20.4932C27.384 20.4932 27.1582 20.7191 27.1582 20.9977C27.1582 21.2763 27.384 21.5022 27.6627 21.5022Z" fill="#FFE15A"/>
<path d="M25.3719 20.8676H24.6285C24.2179 20.8676 23.885 20.5347 23.885 20.1242C23.885 19.7136 24.2179 19.3807 24.6285 19.3807H25.3719C25.7825 19.3807 26.1154 19.7136 26.1154 20.1242C26.1154 20.5348 25.7825 20.8676 25.3719 20.8676Z" fill="#FFB478"/>
<path d="M27.9892 15.4778C28.2371 16.2057 28.7637 16.8717 29.4602 17.1502C30.2037 10.4595 25 11.2032 25 11.2032C28.7171 11.2032 27.9892 15.4778 27.9892 15.4778Z" fill="#9B4B5A"/>
</svg>
