<svg width="51" height="34" viewBox="0 0 51 34" fill="none" xmlns="http://www.w3.org/2000/svg">
<path d="M49.169 33.275H0.893358C0.417284 33.275 0.03125 32.889 0.03125 32.4129V1.3785C0.03125 0.902387 0.417284 0.516357 0.893358 0.516357H49.1691C49.6452 0.516357 50.0312 0.902387 50.0312 1.3785V32.4129C50.0311 32.8891 49.6451 33.275 49.169 33.275Z" fill="#F5F5F5"/>
<path d="M1.15195 2.7235L19.012 15.7751H7.76014H5.25019L6.92557 17.644L19.935 32.1544H1.15195V2.7235ZM0.332128 0.736389C0.151172 0.894489 0.03125 1.1195 0.03125 1.3785V32.4129C0.03125 32.889 0.417284 33.275 0.893358 33.275H22.445L7.76014 16.8957H22.445L0.332128 0.736389Z" fill="#41479B"/>
<path d="M1.1521 2.72339L19.0122 15.775H7.76029H5.25033L6.92592 17.6437L19.9353 32.1543H1.1521V2.72339Z" fill="#D0353E"/>
<path d="M6.60734 20.8409L7.29738 22.265L8.60704 21.3767C8.66476 21.3375 8.7424 21.3823 8.73732 21.4519L8.62296 23.0302L10.2012 22.9159C10.2709 22.9108 10.3157 22.9884 10.2764 23.0461L9.38819 24.3558L10.8123 25.0459C10.8751 25.0763 10.8751 25.1658 10.8123 25.1962L9.38819 25.8863L10.2764 27.1959C10.3157 27.2537 10.2709 27.3313 10.2012 27.3262L8.62296 27.2119L8.73732 28.7902C8.7424 28.8598 8.66476 28.9046 8.60704 28.8654L7.29738 27.9771L6.60734 29.4012C6.57687 29.464 6.48742 29.464 6.45695 29.4012L5.76691 27.9771L4.45725 28.8654C4.39953 28.9046 4.3219 28.8598 4.32697 28.7902L4.44133 27.2119L2.86301 27.3262C2.79338 27.3313 2.74856 27.2537 2.78782 27.1959L3.6761 25.8863L2.25169 25.1965C2.18889 25.1661 2.18889 25.0766 2.25169 25.0461L3.6758 24.3561L2.78752 23.0464C2.74827 22.9887 2.79309 22.9111 2.86272 22.9162L4.44104 23.0305L4.32668 21.4522C4.3216 21.3826 4.39924 21.3378 4.45695 21.377L5.76662 22.2653L6.45666 20.8412C6.48732 20.7781 6.57687 20.7781 6.60734 20.8409Z" fill="#F5F5F5"/>
<path d="M8.3997 12.6048L7.80058 12.1955L8.32802 11.6427L7.57636 11.5055L7.83339 10.7861L7.09091 10.9664L7.033 10.2047L6.42812 10.6714L6.06552 9.99908L5.70283 10.6716L5.09795 10.2049L5.04004 10.9666L4.29756 10.7863L4.55459 11.5057L3.80293 11.6429L4.33037 12.1957L3.73125 12.605C2.97529 12.2521 2.31065 11.7363 1.7876 11.0985C2.13897 13.1454 3.91797 14.7048 6.06533 14.7048C8.21269 14.7048 9.99159 13.1454 10.343 11.0985C9.8203 11.7363 9.15556 12.2519 8.3997 12.6048Z" fill="#F5F5F5"/>
</svg>
