<svg width="51" height="34" viewBox="0 0 51 34" fill="none" xmlns="http://www.w3.org/2000/svg">
<path d="M49.89 33.275H1.61431C1.13823 33.275 0.752197 32.889 0.752197 32.4129V1.3785C0.752197 0.902387 1.13823 0.516357 1.61431 0.516357H49.8901C50.3662 0.516357 50.7522 0.902387 50.7522 1.3785V32.4129C50.7521 32.8891 50.3661 33.275 49.89 33.275Z" fill="#41479B"/>
<path d="M24.89 0.516479H23.3926L15.4072 5.7483V0.516479H11.0969V5.7483L3.11157 0.516479H1.61431C1.13823 0.516479 0.752197 0.902419 0.752197 1.3785V2.0623L7.60326 6.5508H0.752197V10.8612H7.60326L0.752197 15.3499V16.0336C0.752197 16.5097 1.13823 16.8957 1.61431 16.8957H3.11176L11.0971 11.6639V16.8957H15.4074V11.6639L23.3927 16.8957H24.8901C25.3662 16.8957 25.7522 16.5097 25.7522 16.0336V15.3499L18.9012 10.8613H25.7521V6.5509H18.9011L25.7521 2.0624V1.3786C25.7521 0.902419 25.3661 0.516479 24.89 0.516479Z" fill="#F5F5F5"/>
<path d="M25.7521 7.413H14.5452V0.516479H11.9591V7.413H0.752197V9.9992H11.9591V16.8957H14.5452V9.9992H25.7521V7.413Z" fill="#D0353E"/>
<path d="M10.2351 6.55084L1.16328 0.662109C0.921875 0.814839 0.752441 1.07154 0.752441 1.37844V1.42314L8.65174 6.55084H10.2351Z" fill="#D0353E"/>
<path d="M16.9911 6.5509L25.6214 0.948799C25.4714 0.694989 25.2067 0.516479 24.8904 0.516479H24.704L15.4077 6.5509H16.9911Z" fill="#D0353E"/>
<path d="M9.49022 10.8613L0.876465 16.4527C1.025 16.7126 1.29375 16.8957 1.61465 16.8957H1.77724L11.0737 10.8613H9.49022Z" fill="#D0353E"/>
<path d="M25.7387 16.1013L17.6659 10.8613H16.0825L25.2499 16.8119C25.5245 16.6845 25.7129 16.4174 25.7387 16.1013Z" fill="#D0353E"/>
<path d="M39.3727 27.8443C39.3378 27.8443 39.3025 27.8333 39.2725 27.8123L38.2522 27.0832L37.2318 27.8123C37.2019 27.8333 37.1666 27.8443 37.1316 27.8443C37.0959 27.8443 37.0605 27.8333 37.0303 27.8114C36.9705 27.7676 36.9448 27.6902 36.9671 27.6195L37.3455 26.424L36.337 25.6798C36.2772 25.6352 36.2524 25.5587 36.2752 25.4879C36.2983 25.4172 36.3636 25.3692 36.4381 25.3684L37.6921 25.3583L38.0887 24.1687C38.1123 24.0989 38.1783 24.0508 38.2524 24.0508C38.3266 24.0508 38.3927 24.0988 38.4162 24.1687L38.8128 25.3583L40.0668 25.3684C40.1413 25.3693 40.2065 25.4172 40.2297 25.4879C40.2524 25.5587 40.2275 25.6352 40.1679 25.6798L39.1594 26.424L39.5378 27.6195C39.56 27.6902 39.5345 27.7676 39.4746 27.8114C39.4439 27.8333 39.4082 27.8443 39.3727 27.8443Z" fill="#D0353E"/>
<path d="M38.2522 24.2232L38.6878 25.5297L40.065 25.5403L38.9571 26.3584L39.3725 27.6714L38.2522 26.8707L37.1318 27.6716L37.5472 26.3586L36.4393 25.5405L37.8164 25.5299L38.2522 24.2232ZM38.2522 23.8784C38.1038 23.8784 37.972 23.9733 37.925 24.1142L37.5673 25.1868L36.4367 25.1956C36.2883 25.1967 36.1573 25.2927 36.1114 25.4339C36.0655 25.5751 36.1152 25.7297 36.2344 25.8179L37.144 26.4895L36.803 27.5676C36.7582 27.7091 36.809 27.8634 36.929 27.9506C36.9895 27.9944 37.0606 28.0164 37.1318 28.0164C37.202 28.0164 37.2723 27.9949 37.3324 27.952L38.2523 27.2945L39.1722 27.952C39.2323 27.9948 39.3025 28.0164 39.3727 28.0164C39.4438 28.0164 39.515 27.9944 39.5754 27.9506C39.6954 27.8633 39.7462 27.7091 39.7015 27.5676L39.3605 26.4895L40.2701 25.8179C40.3895 25.7297 40.439 25.5751 40.3931 25.4339C40.3472 25.2928 40.2162 25.1967 40.0678 25.1956L38.9371 25.1868L38.5794 24.1142C38.5324 23.9734 38.4005 23.8784 38.2522 23.8784Z" fill="#F5F5F5"/>
<path d="M39.3725 13.9458C39.3371 13.9458 39.3023 13.9348 39.2723 13.9138L38.252 13.184L37.2316 13.9139C37.2017 13.9349 37.1663 13.9459 37.1314 13.9459C37.096 13.9459 37.0603 13.9349 37.03 13.913C36.9703 13.8693 36.9446 13.7918 36.9668 13.7211L37.3453 12.5256L36.3368 11.7806C36.277 11.736 36.2522 11.6585 36.2749 11.5887C36.2981 11.518 36.3637 11.4699 36.4378 11.4692L37.6918 11.4599L38.0884 10.2703C38.1121 10.2005 38.1781 10.1525 38.2522 10.1525C38.3263 10.1525 38.3924 10.2004 38.416 10.2703L38.8125 11.4599L40.0665 11.4692C40.1407 11.47 40.2063 11.518 40.2294 11.5887C40.2522 11.6585 40.2273 11.736 40.1676 11.7806L39.1591 12.5256L39.5375 13.7211C39.5598 13.7918 39.5342 13.8693 39.4744 13.913C39.4437 13.9349 39.4079 13.9458 39.3725 13.9458Z" fill="#D0353E"/>
<path d="M38.2522 10.3247L38.6878 11.6311L40.065 11.6418L38.9571 12.4598L39.3725 13.7729L38.2522 12.972L37.1318 13.7729L37.5472 12.4598L36.4393 11.6418L37.8164 11.6311L38.2522 10.3247ZM38.2522 9.97986C38.1038 9.97986 37.972 10.0748 37.925 10.2156L37.5673 11.2883L36.4367 11.297C36.2883 11.2981 36.1573 11.3941 36.1114 11.5353C36.0655 11.6765 36.1152 11.8311 36.2344 11.9193L37.144 12.591L36.803 13.669C36.7582 13.8105 36.809 13.9648 36.929 14.052C36.9895 14.0959 37.0606 14.1178 37.1318 14.1178C37.202 14.1178 37.2723 14.0964 37.3324 14.0535L38.2523 13.396L39.1722 14.0535C39.2323 14.0963 39.3025 14.1178 39.3727 14.1178C39.4438 14.1178 39.515 14.0959 39.5754 14.052C39.6954 13.9647 39.7462 13.8105 39.7015 13.669L39.3605 12.591L40.2701 11.9193C40.3895 11.8311 40.439 11.6765 40.3931 11.5353C40.3472 11.3941 40.2162 11.2981 40.0678 11.297L38.9371 11.2883L38.5794 10.2156C38.5324 10.0748 38.4005 9.97986 38.2522 9.97986Z" fill="#F5F5F5"/>
<path d="M45.4068 18.2561C45.3715 18.2561 45.3366 18.245 45.3067 18.224L44.2864 17.4941L43.266 18.224C43.2361 18.245 43.2008 18.2561 43.1658 18.2561C43.1305 18.2561 43.0947 18.245 43.0645 18.2231C43.0047 18.1794 42.979 18.102 43.0013 18.0313L43.3797 16.8357L42.3712 16.0907C42.3114 16.0461 42.2866 15.9687 42.3094 15.8988C42.3325 15.8281 42.3982 15.7801 42.4723 15.7793L43.7263 15.77L44.1229 14.5805C44.1465 14.5107 44.2125 14.4626 44.2866 14.4626C44.3608 14.4626 44.4269 14.5106 44.4504 14.5805L44.847 15.77L46.101 15.7793C46.1751 15.7802 46.2407 15.8281 46.2639 15.8988C46.2866 15.9687 46.2617 16.0461 46.2021 16.0907L45.1936 16.8357L45.572 18.0313C45.5942 18.102 45.5687 18.1794 45.5088 18.2231C45.478 18.245 45.4423 18.2561 45.4068 18.2561Z" fill="#D0353E"/>
<path d="M44.2866 14.6351L44.7223 15.9415L46.0994 15.9522L44.9915 16.7703L45.4069 18.0833L44.2865 17.2825L43.1661 18.0833L43.5816 16.7704L42.4736 15.9523L43.8508 15.9416L44.2866 14.6351ZM44.2866 14.2903C44.1383 14.2903 44.0065 14.3852 43.9595 14.526L43.6018 15.5987L42.4711 15.6075C42.3228 15.6085 42.1917 15.7045 42.1458 15.8457C42.0999 15.987 42.1496 16.1415 42.2689 16.2297L43.1784 16.9014L42.8374 17.9794C42.7927 18.1209 42.8435 18.2752 42.9635 18.3624C43.0239 18.4063 43.095 18.4283 43.1662 18.4283C43.2364 18.4283 43.3067 18.4068 43.3667 18.3639L44.2866 17.7064L45.2066 18.3639C45.2666 18.4067 45.3368 18.4283 45.4071 18.4283C45.4782 18.4283 45.5494 18.4063 45.6099 18.3624C45.7299 18.2751 45.7807 18.1209 45.7359 17.9794L45.3949 16.9014L46.3045 16.2297C46.4239 16.1415 46.4734 15.987 46.4275 15.8457C46.3816 15.7045 46.2507 15.6085 46.1023 15.6075L44.9716 15.5987L44.6139 14.526C44.5668 14.3852 44.4351 14.2903 44.2866 14.2903Z" fill="#F5F5F5"/>
<path d="M33.338 19.9803C33.3026 19.9803 33.2678 19.9692 33.2378 19.9482L32.2176 19.2184L31.1972 19.9482C31.1673 19.9692 31.1319 19.9803 31.097 19.9803C31.0616 19.9803 31.0259 19.9692 30.9956 19.9474C30.9359 19.9036 30.9102 19.8262 30.9324 19.7555L31.3109 18.56L30.3024 17.815C30.2426 17.7703 30.2178 17.6929 30.2405 17.6231C30.2637 17.5524 30.3293 17.5043 30.4034 17.5035L31.6574 17.4942L32.054 16.3047C32.0776 16.2349 32.1437 16.1868 32.2178 16.1868C32.2919 16.1868 32.358 16.2348 32.3816 16.3047L32.7781 17.4942L34.0321 17.5035C34.1063 17.5044 34.1719 17.5524 34.195 17.6231C34.2178 17.6929 34.1929 17.7703 34.1332 17.815L33.1247 18.56L33.5031 19.7555C33.5254 19.8262 33.4998 19.9036 33.44 19.9474C33.4092 19.9693 33.3734 19.9803 33.338 19.9803Z" fill="#D0353E"/>
<path d="M32.2175 16.3592L32.6532 17.6656L34.0303 17.6763L32.9224 18.4943L33.3378 19.8074L32.2174 19.0065L31.097 19.8074L31.5125 18.4943L30.4046 17.6763L31.7817 17.6656L32.2175 16.3592ZM32.2175 16.0143C32.0692 16.0143 31.9374 16.1093 31.8904 16.2501L31.5327 17.3227L30.402 17.3315C30.2537 17.3326 30.1226 17.4286 30.0767 17.5698C30.0308 17.711 30.0805 17.8656 30.1998 17.9538L31.1093 18.6255L30.7683 19.7035C30.7236 19.845 30.7744 19.9993 30.8944 20.0865C30.9548 20.1304 31.0259 20.1523 31.0971 20.1523C31.1673 20.1523 31.2377 20.1308 31.2976 20.088L32.2175 19.4305L33.1375 20.088C33.1975 20.1307 33.2677 20.1523 33.3379 20.1523C33.409 20.1523 33.4802 20.1304 33.5407 20.0865C33.6607 19.9992 33.7115 19.845 33.6667 19.7035L33.3257 18.6255L34.2353 17.9538C34.3547 17.8656 34.4042 17.711 34.3583 17.5698C34.3125 17.4286 34.1815 17.3326 34.0331 17.3315L32.9024 17.3227L32.5447 16.2501C32.4977 16.1093 32.3659 16.0143 32.2175 16.0143Z" fill="#F5F5F5"/>
</svg>
