<svg width="51" height="34" viewBox="0 0 51 34" fill="none" xmlns="http://www.w3.org/2000/svg">
<path d="M50.6376 11.8444H0.637695V1.78691C0.637695 1.31084 1.02373 0.924805 1.49981 0.924805H49.7756C50.2517 0.924805 50.6377 1.31084 50.6377 1.78691L50.6376 11.8444Z" fill="#F5F5F5"/>
<path d="M49.7755 33.6835H1.49981C1.02373 33.6835 0.637695 33.2975 0.637695 32.8214V22.764H50.6376V32.8214C50.6376 33.2976 50.2516 33.6835 49.7755 33.6835Z" fill="#73AF00"/>
<path d="M50.6386 11.8442H0.638672V22.7631H50.6386V11.8442Z" fill="#D0353E"/>
<path d="M13.5697 33.6834H1.50078C1.02471 33.6834 0.638672 33.2974 0.638672 32.8213V1.78691C0.638672 1.31083 1.02471 0.924805 1.50078 0.924805H13.5697V33.6834Z" fill="#D0353E"/>
<path d="M4.16062 8.07031C4.11225 8.07571 4.06555 8.08161 4.02002 8.08761V8.70161C4.06584 8.71321 4.11255 8.72471 4.16062 8.73611V8.07031Z" fill="#F5F5F5"/>
<path d="M6.28397 9.24048C6.15595 9.23018 5.95927 9.21048 5.7245 9.18188L4.25195 10.4915C4.44267 10.5206 4.67128 10.5593 4.76669 10.5897C5.14511 10.2586 5.65233 9.80748 6.28397 9.24048Z" fill="#F5F5F5"/>
<path d="M8.49995 7.15747V7.09297V7.03137H5.88745V7.09297V7.15747V7.21917H8.49995V7.15747Z" fill="#F5F5F5"/>
<path d="M6.56543 3.42109C6.56543 3.60509 6.84268 3.76049 7.1709 3.76049C7.49912 3.76049 7.77637 3.60509 7.77637 3.42109C7.77637 3.23709 7.49912 3.08179 7.1709 3.08179C6.84268 3.08179 6.56543 3.23719 6.56543 3.42109Z" fill="#F5F5F5"/>
<path d="M5.99956 7.9872C5.40981 7.9843 4.82124 8.006 4.34009 8.0515V8.7763C4.90542 8.8976 5.56401 8.9906 5.99956 9.0368V7.9872Z" fill="#F5F5F5"/>
<path d="M2.96118 11.5641C3.19429 11.5591 3.7063 11.467 4.05298 11.1962C4.1604 11.1122 4.3439 10.9577 4.60181 10.7337C4.4269 10.6979 4.13345 10.6543 3.977 10.6328L2.96118 11.5641Z" fill="#F5F5F5"/>
<path d="M6.33575 6.85202V6.52252C6.29161 6.45672 6.246 6.38882 6.19942 6.31982L5.79834 6.61152C5.87823 6.74872 5.9294 6.83592 5.93887 6.85192L6.33575 6.85202Z" fill="#F5F5F5"/>
<path d="M3.25024 8.33976C3.24897 8.34506 3.24584 8.35756 3.26596 8.38346C3.34037 8.47886 3.5557 8.56996 3.84164 8.65286V8.11426C3.49838 8.17116 3.27358 8.24636 3.25024 8.33976Z" fill="#F5F5F5"/>
<path d="M7.83818 8.08246V7.39856H6.51514V9.06926H6.85156C7.39551 9.06926 7.83818 8.62646 7.83818 8.08246Z" fill="#F5F5F5"/>
<path d="M5.71186 5.59799C5.00347 4.55389 4.24692 3.45639 4.06226 3.23889C4.08872 3.33609 4.15259 3.51869 4.30181 3.86059C4.49429 4.30179 4.96147 5.14739 5.34829 5.82829L5.71186 5.59799Z" fill="#F5F5F5"/>
<path d="M5.43677 5.9844C5.53755 6.1608 5.62984 6.3211 5.70767 6.4555L6.09898 6.1709C6.00591 6.0328 5.91011 5.8911 5.81236 5.7467L5.43677 5.9844Z" fill="#F5F5F5"/>
<path d="M6.3359 9.06605V7.99145C6.28352 7.99045 6.23114 7.98935 6.17847 7.98865V9.05435C6.23907 9.05965 6.29185 9.06365 6.3359 9.06605Z" fill="#F5F5F5"/>
<path d="M7.83853 5.92932H6.51538V6.11712H7.83853V5.92932Z" fill="#F5F5F5"/>
<path d="M9.67725 6.8408V6.852H9.74453C9.79414 6.852 9.83418 6.892 9.83418 6.9416V7.3089C9.83418 7.3585 9.79414 7.3986 9.74453 7.3986H9.67725V7.4098C9.67725 7.4591 9.71748 7.4994 9.76689 7.4994H11.2806C11.33 7.4994 11.3702 7.4591 11.3702 7.4098V6.8408C11.3702 6.7914 11.33 6.7511 11.2806 6.7511H9.76699C9.71748 6.751 9.67725 6.7912 9.67725 6.8408Z" fill="#F5F5F5"/>
<path d="M11.3709 11.5591L10.3607 10.6328C10.2042 10.6544 9.91084 10.6978 9.73584 10.7337C9.99844 10.9615 10.1819 11.116 10.2847 11.1964C10.626 11.4628 11.1276 11.5563 11.3709 11.5591Z" fill="#F5F5F5"/>
<path d="M9.29614 7.09297V7.15747V7.21917H9.65596V7.03137H9.29614V7.09297Z" fill="#F5F5F5"/>
<path d="M9.5705 10.5899C9.66591 10.5593 9.89481 10.5205 10.086 10.4915L7.91659 8.55566C7.8578 8.68766 7.77577 8.80716 7.6748 8.90776L7.73193 8.95876C8.51776 9.66226 9.13212 10.2071 9.5705 10.5899Z" fill="#F5F5F5"/>
<path d="M4.71015 7.4098V7.3986H4.64277C4.59316 7.3986 4.55312 7.3585 4.55312 7.3089V6.9416C4.55312 6.892 4.59316 6.852 4.64277 6.852H4.71006V6.8408C4.71006 6.7914 4.66982 6.7511 4.62041 6.7511H3.10674C3.05733 6.7511 3.01709 6.7914 3.01709 6.8408V7.4098C3.01709 7.4591 3.05733 7.4994 3.10674 7.4994H4.62041C4.66992 7.4994 4.71015 7.4592 4.71015 7.4098Z" fill="#F5F5F5"/>
<path d="M5.09199 7.15747V7.09297V7.03137H4.73218V7.21917H5.09199V7.15747Z" fill="#F5F5F5"/>
<path d="M8.53941 6.61152L8.13833 6.31982C8.09732 6.38082 8.05718 6.44052 8.01782 6.49902V6.85192H8.39888C8.40835 6.83592 8.45952 6.74872 8.53941 6.61152Z" fill="#F5F5F5"/>
<path d="M6.6355 5.38032H7.71899L7.48052 5.11572H6.87398L6.6355 5.38032Z" fill="#F5F5F5"/>
<path d="M7.83853 5.56799H6.51538V5.75019H7.83853V5.56799Z" fill="#F5F5F5"/>
<path d="M7.17075 3.93991C7.08355 3.93991 7.00181 3.92871 6.92407 3.91201V4.92601H7.423V3.91101C7.3437 3.92841 7.25991 3.93991 7.17075 3.93991Z" fill="#F5F5F5"/>
<path d="M6.51514 6.48468H7.83252C7.83232 6.47348 7.83428 6.46248 7.83838 6.45168V6.29688H6.51514V6.48468Z" fill="#F5F5F5"/>
<path d="M8.23853 6.1709L8.62984 6.4555C8.70767 6.3212 8.79995 6.1608 8.90073 5.9844L8.52515 5.7467C8.4273 5.8911 8.33169 6.0328 8.23853 6.1709Z" fill="#F5F5F5"/>
<path d="M7.83853 6.66467H6.51538V6.85247H7.83853V6.66467Z" fill="#F5F5F5"/>
<path d="M8.98916 5.82828C9.37588 5.14758 9.84307 4.30178 10.0357 3.86058C10.1853 3.51788 10.2491 3.33518 10.2754 3.23828C10.0941 3.45108 9.33565 4.55108 8.62549 5.59798L8.98916 5.82828Z" fill="#F5F5F5"/>
<path d="M11.619 11.5448L10.4491 10.472C10.4295 10.4541 10.4031 10.4452 10.3765 10.4493C10.3665 10.4505 10.344 10.4537 10.314 10.4578C10.3123 10.4561 10.3117 10.4539 10.3099 10.4524L7.97815 8.37164C8.00198 8.27904 8.01585 8.18244 8.01585 8.08254V7.39854H8.58147C8.65432 7.49334 8.76761 7.55554 8.89602 7.55554C9.02454 7.55554 9.13782 7.49334 9.21057 7.39854H9.49592V7.40974C9.49592 7.55814 9.61663 7.67884 9.76497 7.67884H11.2786C11.427 7.67884 11.5477 7.55814 11.5477 7.40974V6.84074C11.5477 6.69234 11.427 6.57164 11.2786 6.57164H9.76516C9.61682 6.57164 9.49612 6.69234 9.49612 6.84074V6.85194H9.21077C9.13792 6.75714 9.02464 6.69494 8.89622 6.69494C8.79876 6.69494 8.71067 6.73144 8.64143 6.78964C8.94378 6.27204 9.89368 4.63144 10.1988 3.93234C10.526 3.18214 10.4996 3.08524 10.4223 3.02304C10.3406 2.95774 10.2373 3.03284 10.1984 3.06144C10.0483 3.17054 8.5929 5.32064 8.01595 6.17764V5.47004C8.01595 5.46804 8.01497 5.46634 8.01487 5.46444C8.01282 5.43404 7.99573 5.40864 7.97093 5.39404L7.6011 4.98384V3.85604C7.81497 3.76424 7.95433 3.60564 7.95433 3.42114C7.95433 3.13024 7.6095 2.90234 7.16937 2.90234C6.72923 2.90234 6.38441 3.13024 6.38441 3.42114C6.38441 3.60714 6.5263 3.76664 6.7432 3.85794V4.99034L6.3804 5.39274C6.35316 5.40824 6.33392 5.43634 6.33392 5.46984V6.20084C5.7682 5.36034 4.28715 3.17144 4.13588 3.06134C4.09672 3.03304 3.9933 2.95784 3.91185 3.02294C3.83441 3.08514 3.80804 3.18204 4.13539 3.93224C4.4308 4.60914 5.3305 6.16844 5.66185 6.73684C5.60892 6.71074 5.55023 6.69484 5.48744 6.69484C5.35892 6.69484 5.24564 6.75704 5.17289 6.85184H4.88763V6.84064C4.88763 6.69224 4.76693 6.57154 4.61859 6.57154H3.10473C2.95639 6.57154 2.83568 6.69224 2.83568 6.84064V7.40964C2.83568 7.55804 2.95639 7.67874 3.10473 7.67874H4.61839C4.76673 7.67874 4.88744 7.55804 4.88744 7.40964V7.39844H5.17279C5.24564 7.49324 5.35892 7.55544 5.48734 7.55544C5.61585 7.55544 5.72913 7.49324 5.80189 7.39844H6.33392V7.81154C5.50228 7.79374 3.19984 7.79104 3.07367 8.29614C3.06195 8.34294 3.06078 8.41554 3.12201 8.49384C3.36469 8.80464 4.59457 9.03154 5.48665 9.15144L4.02416 10.4522C4.0223 10.4539 4.02172 10.4561 4.01996 10.4578C3.98998 10.4536 3.96742 10.4505 3.95746 10.4493C3.93051 10.4454 3.90433 10.4541 3.8848 10.472L2.71488 11.5448C2.67953 11.577 2.67592 11.6315 2.70668 11.6683C2.74545 11.7149 2.84398 11.7377 2.97572 11.7377C3.29994 11.7377 3.82601 11.5995 4.16136 11.3376C4.43773 11.1218 5.20335 10.4505 6.43714 9.34254C6.49056 9.29464 6.52591 9.26274 6.54154 9.24884H6.84954C7.1055 9.24884 7.34153 9.16504 7.53411 9.02474L7.61009 9.09254C9.03059 10.364 9.89251 11.1193 10.1723 11.3376C10.5076 11.5998 11.0335 11.7377 11.3577 11.7377C11.4896 11.7377 11.588 11.715 11.6269 11.6683C11.658 11.6315 11.6542 11.577 11.619 11.5448ZM6.51351 9.06924V7.39854H7.83665V8.08254C7.83665 8.62644 7.39397 9.06924 6.84993 9.06924H6.51351ZM3.83929 8.65294C3.55355 8.56994 3.33812 8.47894 3.26361 8.38354C3.2434 8.35754 3.24652 8.34514 3.24789 8.33974C3.27123 8.24634 3.49603 8.17114 3.83929 8.11434V8.65294ZM4.06049 3.23884C4.24506 3.45634 5.00169 4.55364 5.71009 5.59794L5.34642 5.82824C4.9597 5.14734 4.49252 4.30174 4.29994 3.86054C4.15082 3.51874 4.08685 3.33624 4.06049 3.23884ZM6.19779 6.31974C6.24427 6.38864 6.28978 6.45644 6.33411 6.52244V6.85194H5.93724C5.92777 6.83594 5.8766 6.74874 5.79671 6.61154L6.19779 6.31974ZM5.70619 6.45544C5.62835 6.32124 5.53607 6.16074 5.43529 5.98434L5.81087 5.74664C5.90872 5.89114 6.00443 6.03284 6.09749 6.17094L5.70619 6.45544ZM6.33411 7.99154V9.06614C6.29036 9.06364 6.23763 9.05964 6.17708 9.05434V7.98864C6.22952 7.98934 6.28177 7.99034 6.33411 7.99154ZM4.33822 8.05134C4.81947 8.00584 5.40794 7.98424 5.99769 7.98714V9.03674C5.56214 8.99054 4.90355 8.89744 4.33822 8.77614V8.05134ZM4.01859 8.08764C4.064 8.08154 4.11049 8.07574 4.15883 8.07024V8.73594C4.11088 8.72474 4.06429 8.71314 4.01859 8.70144V8.08764ZM5.72298 9.18174C5.95775 9.21044 6.15443 9.23004 6.28245 9.24034C5.65081 9.80744 5.14359 10.2584 4.76537 10.5895C4.66986 10.559 4.44134 10.5205 4.25062 10.4914L5.72298 9.18174ZM4.60013 10.7335C4.34222 10.9576 4.15873 11.1121 4.05131 11.196C3.70463 11.4669 3.19271 11.5591 2.95951 11.5639L3.97533 10.6326C4.13177 10.6542 4.42513 10.6977 4.60013 10.7335ZM5.88558 7.21914V7.15754V7.09304V7.03144H8.49817V7.09304V7.15754V7.21914H5.88558ZM7.77493 3.42114C7.77493 3.60504 7.49769 3.76044 7.16946 3.76044C6.84124 3.76044 6.564 3.60504 6.564 3.42114C6.564 3.23714 6.84124 3.08174 7.16946 3.08174C7.49769 3.08174 7.77493 3.23724 7.77493 3.42114ZM6.51351 6.11744V5.92964H7.83665V6.11744H6.51351ZM7.83655 6.29684V6.45164C7.83245 6.46254 7.8305 6.47344 7.83069 6.48464H6.51351V6.29684H7.83655ZM6.51351 5.75024V5.56794H7.83665V5.75024H6.51351ZM7.47855 5.11564L7.71702 5.38014H6.63353L6.872 5.11564H7.47855ZM6.92278 4.92604V3.91214C7.00052 3.92874 7.08226 3.93994 7.16946 3.93994C7.25872 3.93994 7.34241 3.92844 7.42171 3.91104V4.92604H6.92278ZM6.51351 6.66404H7.83665V6.85184H6.51351V6.66404ZM10.0343 3.86054C9.84182 4.30174 9.37463 5.14734 8.98782 5.82824L8.62415 5.59794C9.3343 4.55104 10.0927 3.45104 10.274 3.23824C10.2477 3.33514 10.1838 3.51784 10.0343 3.86054ZM9.11477 7.09294V7.15744C9.11477 7.27804 9.01673 7.37604 8.89612 7.37604C8.77552 7.37604 8.67747 7.27804 8.67747 7.15744V7.09294C8.67747 6.97234 8.77552 6.87434 8.89612 6.87434C9.01673 6.87434 9.11477 6.97234 9.11477 7.09294ZM8.62805 6.45544L8.23675 6.17094C8.32981 6.03274 8.42552 5.89104 8.52337 5.74664L8.89895 5.98434C8.79817 6.16074 8.70579 6.32114 8.62805 6.45544ZM8.01595 6.49894C8.0553 6.44034 8.09534 6.38074 8.13645 6.31974L8.53753 6.61144C8.45764 6.74864 8.40647 6.83584 8.397 6.85194H8.01595V6.49894ZM7.91477 8.55544L10.0841 10.4913C9.89319 10.5205 9.66409 10.5591 9.56868 10.5896C9.1302 10.2067 8.51595 9.66224 7.73001 8.95844L7.67288 8.90754C7.77395 8.80704 7.85599 8.68754 7.91477 8.55544ZM10.3589 10.6327L11.3692 11.5589C11.1257 11.5561 10.6242 11.4627 10.2829 11.1962C10.1801 11.1159 9.9967 10.9613 9.73411 10.7335C9.90911 10.6977 10.2025 10.6542 10.3589 10.6327ZM11.3687 6.84074V7.40974C11.3687 7.45904 11.3284 7.49944 11.279 7.49944H9.76516C9.71575 7.49944 9.67551 7.45904 9.67551 7.40974V7.39854H9.7428C9.79241 7.39854 9.83245 7.35854 9.83245 7.30884V6.94164C9.83245 6.89194 9.79241 6.85194 9.7428 6.85194H9.67551V6.84074C9.67551 6.79144 9.71575 6.75104 9.76516 6.75104H11.2788C11.3283 6.75094 11.3687 6.79124 11.3687 6.84074ZM9.65305 7.21914H9.29426V7.15754V7.09304V7.03144H9.65305V7.21914ZM3.01498 7.40974V6.84074C3.01498 6.79144 3.05521 6.75104 3.10463 6.75104H4.6183C4.66771 6.75104 4.70795 6.79144 4.70795 6.84074V6.85194H4.64086C4.59125 6.85194 4.55121 6.89194 4.55121 6.94164V7.30884C4.55121 7.35854 4.59125 7.39854 4.64086 7.39854H4.70814V7.40974C4.70814 7.45904 4.66791 7.49944 4.61849 7.49944H3.10482C3.05531 7.49944 3.01498 7.45914 3.01498 7.40974ZM4.7306 7.03134H5.08939V7.09294V7.15744V7.21904H4.7306V7.03134ZM5.70619 7.15744C5.70619 7.27804 5.60814 7.37604 5.48753 7.37604C5.36693 7.37604 5.26888 7.27804 5.26888 7.15744V7.09294C5.26888 6.97234 5.36693 6.87434 5.48753 6.87434C5.60814 6.87434 5.70619 6.97234 5.70619 7.09294V7.15744Z" fill="#D23741"/>
</svg>
