<svg width="51" height="34" viewBox="0 0 51 34" fill="none" xmlns="http://www.w3.org/2000/svg">
<path d="M50.0834 11.8444H0.0834961V1.78691C0.0834961 1.31084 0.469531 0.924805 0.945604 0.924805H49.2214C49.6975 0.924805 50.0835 1.31084 50.0835 1.78691L50.0834 11.8444Z" fill="#464655"/>
<path d="M49.2213 33.6834H0.945604C0.469531 33.6834 0.0834961 33.2974 0.0834961 32.8213V22.7639H50.0834V32.8213C50.0834 33.2975 49.6974 33.6834 49.2213 33.6834Z" fill="#73AF00"/>
<path d="M50.0834 11.8442H0.0834961V22.7631H50.0834V11.8442Z" fill="#F5F5F5"/>
<path d="M0.401464 33.475L20.2101 17.7509C20.4978 17.5226 20.4978 17.0857 20.2101 16.8573L0.401464 1.1333C0.211523 1.29141 0.0834961 1.52051 0.0834961 1.78691V32.8213C0.0834961 33.0878 0.211523 33.3169 0.401464 33.475Z" fill="#D0353E"/>
</svg>
