<svg width="51" height="33" viewBox="0 0 51 33" fill="none" xmlns="http://www.w3.org/2000/svg">
<path d="M49.4986 32.9768H1.22295C0.746874 32.9768 0.36084 32.5908 0.36084 32.1147V1.08027C0.36084 0.60417 0.746874 0.21814 1.22295 0.21814H49.4987C49.9748 0.21814 50.3608 0.60417 50.3608 1.08027V32.1147C50.3607 32.5909 49.9747 32.9768 49.4986 32.9768Z" fill="#D0353E"/>
<path d="M18.4642 0.218262H1.22295C0.746874 0.218262 0.36084 0.604202 0.36084 1.0803V32.1147C0.36084 32.5908 0.746874 32.9768 1.22295 32.9768H18.4643L18.4642 0.218262Z" fill="#73AF00"/>
<path d="M18.4712 24.3495C22.7525 24.3495 26.2231 20.8788 26.2231 16.5975C26.2231 12.3163 22.7525 8.84558 18.4712 8.84558C14.1899 8.84558 10.7192 12.3163 10.7192 16.5975C10.7192 20.8788 14.1899 24.3495 18.4712 24.3495Z" fill="#FFE15A"/>
<path d="M21.0573 14.0112V17.4594C21.0573 18.8855 19.8971 20.0457 18.4711 20.0457C17.045 20.0457 15.8848 18.8855 15.8848 17.4594V14.0112H21.0573ZM21.9193 12.2871H15.0227C14.5467 12.2871 14.1606 12.6731 14.1606 13.1492V17.4595C14.1606 19.84 16.0905 21.7699 18.471 21.7699C20.8514 21.7699 22.7813 19.84 22.7813 17.4595V13.1492C22.7814 12.6731 22.3954 12.2871 21.9193 12.2871Z" fill="#D0353E"/>
<path d="M21.0574 14.0112V17.4594C21.0574 18.8855 19.8973 20.0457 18.4712 20.0457C17.0451 20.0457 15.885 18.8855 15.885 17.4594V14.0112H21.0574Z" fill="#F5F5F5"/>
<path d="M15.0144 13.5802C15.2524 13.5802 15.4454 13.3872 15.4454 13.1492C15.4454 12.9111 15.2524 12.7181 15.0144 12.7181C14.7763 12.7181 14.5833 12.9111 14.5833 13.1492C14.5833 13.3872 14.7763 13.5802 15.0144 13.5802Z" fill="#FFE15A"/>
<path d="M21.9105 13.5802C22.1486 13.5802 22.3416 13.3872 22.3416 13.1492C22.3416 12.9111 22.1486 12.7181 21.9105 12.7181C21.6725 12.7181 21.4795 12.9111 21.4795 13.1492C21.4795 13.3872 21.6725 13.5802 21.9105 13.5802Z" fill="#FFE15A"/>
<path d="M15.0144 17.0286C15.2524 17.0286 15.4454 16.8356 15.4454 16.5975C15.4454 16.3595 15.2524 16.1665 15.0144 16.1665C14.7763 16.1665 14.5833 16.3595 14.5833 16.5975C14.5833 16.8356 14.7763 17.0286 15.0144 17.0286Z" fill="#FFE15A"/>
<path d="M21.9105 17.0286C22.1486 17.0286 22.3416 16.8356 22.3416 16.5975C22.3416 16.3595 22.1486 16.1665 21.9105 16.1665C21.6725 16.1665 21.4795 16.3595 21.4795 16.5975C21.4795 16.8356 21.6725 17.0286 21.9105 17.0286Z" fill="#FFE15A"/>
<path d="M18.4625 13.5802C18.7006 13.5802 18.8936 13.3872 18.8936 13.1492C18.8936 12.9111 18.7006 12.7181 18.4625 12.7181C18.2245 12.7181 18.0315 12.9111 18.0315 13.1492C18.0315 13.3872 18.2245 13.5802 18.4625 13.5802Z" fill="#FFE15A"/>
<path d="M21.0504 20.2073C21.2885 20.2073 21.4815 20.0143 21.4815 19.7762C21.4815 19.5382 21.2885 19.3452 21.0504 19.3452C20.8124 19.3452 20.6194 19.5382 20.6194 19.7762C20.6194 20.0143 20.8124 20.2073 21.0504 20.2073Z" fill="#FFE15A"/>
<path d="M15.9256 20.2073C16.1637 20.2073 16.3567 20.0143 16.3567 19.7762C16.3567 19.5382 16.1637 19.3452 15.9256 19.3452C15.6876 19.3452 15.4946 19.5382 15.4946 19.7762C15.4946 20.0143 15.6876 20.2073 15.9256 20.2073Z" fill="#FFE15A"/>
<path d="M19.0267 16.3789V17.1212C19.0267 17.4283 18.7769 17.6781 18.4699 17.6781C18.1629 17.6781 17.9131 17.4283 17.9131 17.1212V16.3789H19.0267Z" fill="#41479B"/>
<path d="M19.0267 14.6189V15.3613C19.0267 15.6683 18.7769 15.9181 18.4699 15.9181C18.1629 15.9181 17.9131 15.6683 17.9131 15.3613V14.6189H19.0267Z" fill="#41479B"/>
<path d="M19.0267 18.1569V18.8993C19.0267 19.2063 18.7769 19.4561 18.4699 19.4561C18.1629 19.4561 17.9131 19.2063 17.9131 18.8993V18.1569H19.0267Z" fill="#41479B"/>
<path d="M20.5265 16.3789V17.1212C20.5265 17.4283 20.2767 17.6781 19.9697 17.6781C19.6626 17.6781 19.4128 17.4283 19.4128 17.1212V16.3789H20.5265Z" fill="#41479B"/>
<path d="M17.527 16.3789V17.1212C17.527 17.4283 17.2772 17.6781 16.9702 17.6781C16.6631 17.6781 16.4133 17.4283 16.4133 17.1212V16.3789H17.527Z" fill="#41479B"/>
</svg>
