<svg width="51" height="33" viewBox="0 0 51 33" fill="none" xmlns="http://www.w3.org/2000/svg">
<path d="M50.621 11.1378H0.621094V1.08027C0.621094 0.60417 1.00713 0.21814 1.4832 0.21814H49.759C50.235 0.21814 50.6211 0.60417 50.6211 1.08027L50.621 11.1378Z" fill="#D0353E"/>
<path d="M49.7589 32.9767H1.4832C1.00713 32.9767 0.621094 32.5908 0.621094 32.1147V22.0573H50.621V32.1147C50.621 32.5909 50.2349 32.9767 49.7589 32.9767Z" fill="#41479B"/>
<path d="M50.621 11.1376H0.621094V22.0565H50.621V11.1376Z" fill="#F5F5F5"/>
<path d="M25.6209 12.2871C23.2404 12.2871 21.3105 14.2169 21.3105 16.5974C21.3105 18.978 23.2404 20.9078 25.6209 20.9078C28.0014 20.9078 29.9312 18.978 29.9312 16.5974C29.9312 14.2169 28.0014 12.2871 25.6209 12.2871ZM25.6209 19.8482C23.8257 19.8482 22.3701 18.3928 22.3701 16.5974C22.3701 14.802 23.8256 13.3467 25.6209 13.3467C27.4162 13.3467 28.8717 14.8021 28.8717 16.5974C28.8717 18.3927 27.4161 19.8482 25.6209 19.8482Z" fill="#D0353E"/>
<path d="M25.6213 18.0926C26.447 18.0926 27.1164 17.4233 27.1164 16.5975C27.1164 15.7718 26.447 15.1024 25.6213 15.1024C24.7956 15.1024 24.1262 15.7718 24.1262 16.5975C24.1262 17.4233 24.7956 18.0926 25.6213 18.0926Z" fill="#41479B"/>
<path d="M25.7184 15.465L25.9593 16.1877L26.7209 16.1936C26.8196 16.1944 26.8605 16.3203 26.7811 16.3789L26.1684 16.8313L26.3982 17.5575C26.428 17.6515 26.3209 17.7293 26.2407 17.6719L25.6209 17.2291L25.0012 17.6719C24.9209 17.7293 24.8139 17.6514 24.8437 17.5575L25.0735 16.8313L24.4608 16.3789C24.3815 16.3203 24.4223 16.1944 24.5209 16.1936L25.2826 16.1877L25.5235 15.465C25.5547 15.3715 25.6871 15.3715 25.7184 15.465Z" fill="#FFE15A"/>
<path d="M28.4493 16.6322C28.4493 16.6322 28.5347 16.2371 28.1143 16.7112C28.1143 16.7112 28.1205 16.5762 28.1085 16.465C28.201 16.3649 28.3157 16.146 28.2887 15.6787C28.2887 15.6787 28.2228 15.2799 28.0064 15.8753C28.0064 15.8753 27.9473 15.6996 27.8845 15.6023C27.9367 15.4941 27.977 15.2971 27.8519 14.9239C27.8519 14.9239 27.7057 14.6046 27.6602 15.1532C27.6602 15.1532 27.5402 14.9737 27.4622 14.9296C27.4772 14.8411 27.4654 14.6891 27.2888 14.4431C27.2888 14.4431 27.1126 14.2459 27.2016 14.6508C27.2016 14.6508 27.0404 14.5202 26.9888 14.5355C26.9621 14.4582 26.8846 14.3274 26.6246 14.1554C26.6246 14.1554 26.3993 14.032 26.6578 14.354C26.6578 14.354 26.4292 14.2634 26.432 14.3153C26.4347 14.3673 26.5452 14.4631 26.6359 14.5058C26.6359 14.5058 26.3007 14.5406 26.4383 14.6153C26.4383 14.6153 26.7783 14.7326 26.9825 14.6197C26.9989 14.6792 27.0322 14.7459 27.0816 14.7938C27.0816 14.7938 26.6828 14.7164 26.7908 14.8361C26.7908 14.8361 27.0899 15.0559 27.3855 15.0222C27.3841 15.1037 27.4087 15.2089 27.452 15.2877C27.452 15.2877 26.9764 15.0335 27.0665 15.2275C27.0665 15.2275 27.3509 15.6079 27.7292 15.6904C27.7137 15.775 27.714 15.8772 27.7345 15.9619C27.7345 15.9619 27.2831 15.5356 27.3245 15.7785C27.3245 15.7785 27.5131 16.2787 27.8955 16.4912C27.8644 16.5547 27.8389 16.6257 27.8295 16.692C27.8295 16.692 27.5666 16.1294 27.5158 16.3705C27.5158 16.3705 27.5071 16.9324 27.8071 17.2684C27.7432 17.3216 27.6806 17.3959 27.6422 17.4688C27.6422 17.4688 27.5847 16.8508 27.4554 17.0604C27.4554 17.0604 27.2767 17.5288 27.3977 17.9324C27.3177 17.956 27.2306 17.9997 27.1662 18.0519C27.1662 18.0519 27.3569 17.461 27.1554 17.6028C27.1554 17.6028 26.7966 17.991 26.7692 18.4277C26.6741 18.4258 26.5453 18.46 26.4519 18.5158C26.4519 18.5158 26.7248 17.9583 26.5051 18.0698C26.5051 18.0698 26.1137 18.3895 26.0126 18.8045C25.9201 18.8573 25.7628 18.947 25.6057 19.0361C25.5143 18.9831 25.4255 18.9315 25.3497 18.8872L25.3522 18.8831L24.4625 18.1372L24.4801 18.3811L24.0334 17.5821L23.9782 17.854L23.8319 16.9707L23.7021 17.101L23.7523 16.277L23.5832 16.3682L23.8904 15.7553L23.746 15.7961L24.1256 15.4322L23.925 15.4493L24.4048 15.2314L24.2294 15.2045L24.6979 14.9673L24.496 14.9575L25.1034 14.7473L24.9921 14.6501L25.5178 14.495L24.8879 14.447L25.0673 14.2262L24.5868 14.472L24.6557 14.1396L24.2353 14.5725L24.3084 14.2694L23.9149 14.6609L23.9403 14.3654L23.5513 15.0242L23.5011 14.7294L23.1779 15.469L23.0889 15.1468L22.9446 16.064L22.8242 15.9275L22.9825 16.8123L22.7817 16.6617L23.1498 17.4564C23.1498 17.4564 22.8821 17.3393 22.8486 17.3393C22.8151 17.3393 23.4885 18.0233 23.4885 18.0233L23.1372 17.9857L23.8161 18.4631L23.5638 18.5254L24.1286 18.7449L23.9905 18.8517L25.1596 18.9353C25.1596 18.9353 25.2723 19.0292 25.4256 19.1379C25.3447 19.1836 25.2735 19.2233 25.2294 19.2474C25.185 19.2716 25.1329 19.2741 25.0861 19.2546C24.975 19.208 24.8145 19.1424 24.7371 19.1114C24.7371 19.1114 24.7446 19.4437 25.0906 19.452C25.2327 19.4552 25.4264 19.3648 25.6066 19.2579C25.7911 19.3729 25.9947 19.4744 26.1417 19.4709C26.4802 19.4626 26.4876 19.1302 26.4876 19.1302C26.4119 19.1613 26.2546 19.2269 26.1461 19.2734C26.1003 19.2929 26.0494 19.2905 26.0059 19.2663C25.958 19.2394 25.879 19.1944 25.7886 19.1422C25.881 19.0796 25.9584 19.0227 26.0128 18.9808C26.098 19.0477 26.3417 19.1653 26.8865 18.9608C26.8865 18.9608 27.2478 18.7794 26.6149 18.7496C26.6149 18.7496 26.7324 18.6633 26.8117 18.5815C26.9155 18.6349 27.172 18.6982 27.6597 18.4304C27.6597 18.4304 27.9915 18.1993 27.3609 18.26C27.3609 18.26 27.4451 18.178 27.5113 18.0946C27.6201 18.1068 27.8887 18.0777 28.245 17.622C28.245 17.622 28.4588 17.279 27.9032 17.5833C27.9032 17.5833 27.975 17.412 27.9919 17.2974C28.1152 17.2381 28.3024 17.0767 28.4493 16.6322Z" fill="#64C86E"/>
</svg>
