<svg width="51" height="33" viewBox="0 0 51 33" fill="none" xmlns="http://www.w3.org/2000/svg">
<path d="M23.3593 32.9768H0.945604C0.469531 32.9768 0.0834961 32.5908 0.0834961 32.1147V1.08027C0.0834961 0.60417 0.469531 0.21814 0.945604 0.21814H23.3593V32.9768Z" fill="#F5F5F5"/>
<path d="M49.2214 0.218262H16.4285C16.4512 0.218262 16.4739 0.221582 16.4958 0.228422L21.7092 1.8214C21.9263 1.8877 21.9262 2.1952 21.709 2.2613L17.1841 3.6391C16.9668 3.7053 16.9667 4.0127 17.1839 4.079L21.7093 5.462C21.9264 5.5283 21.9263 5.8358 21.7091 5.9018L17.1841 7.2797C16.9668 7.3459 16.9667 7.6533 17.1839 7.7196L21.7093 9.1026C21.9264 9.1689 21.9263 9.4764 21.7091 9.5425L17.1855 10.9197C16.9681 10.986 16.9681 11.2936 17.1855 11.3597L21.7091 12.737C21.9264 12.8032 21.9265 13.1106 21.7093 13.1769L17.1839 14.5599C16.9668 14.6263 16.9669 14.9339 17.1841 14.9999L21.7091 16.3776C21.9264 16.4436 21.9265 16.7512 21.7093 16.8175L17.1839 18.2006C16.9668 18.267 16.9669 18.5744 17.1841 18.6405L21.7091 20.0182C21.9264 20.0842 21.9265 20.3919 21.7093 20.4581L17.1839 21.8411C16.9668 21.9075 16.9669 22.215 17.1841 22.281L21.709 23.6588C21.9263 23.7249 21.9264 24.0325 21.7092 24.0987L17.1839 25.4816C16.9668 25.548 16.9669 25.8554 17.1841 25.9215L21.7078 27.299C21.9251 27.365 21.9251 27.6728 21.7078 27.7388L17.1841 29.1163C16.9668 29.1823 16.9667 29.4899 17.1839 29.5561L21.7093 30.9391C21.9264 31.0054 21.9263 31.3129 21.7091 31.3789L16.4957 32.9663C16.474 32.973 16.4513 32.9764 16.4287 32.9764H49.2215C49.6975 32.9764 50.0836 32.5904 50.0836 32.1143V1.0803C50.0835 0.604202 49.6974 0.218262 49.2214 0.218262Z" fill="#873250"/>
</svg>
