<svg width="50" height="33" viewBox="0 0 50 33" fill="none" xmlns="http://www.w3.org/2000/svg">
<path d="M49.1378 32.7585H0.862108C0.386034 32.7585 0 32.3725 0 31.8964V0.862107C0 0.386034 0.386034 0 0.862108 0H49.1379C49.614 0 50 0.386034 50 0.862107V31.8964C49.9999 32.3726 49.6139 32.7585 49.1378 32.7585Z" fill="#41479B"/>
<path d="M24.1378 0H22.6405L14.6551 5.23173V0H10.3448V5.23173L2.35947 0H0.862108C0.386034 0 0 0.386034 0 0.862107V1.5459L6.85106 6.03446H0V10.3448H6.85106L0 14.8335V15.5172C0 15.9932 0.386034 16.3793 0.862108 16.3793H2.35947L10.3448 11.1475V16.3793H14.6551V11.1475L22.6404 16.3793H24.1377C24.6138 16.3793 24.9999 15.9932 24.9999 15.5172V14.8334L18.1489 10.3448H24.9999V6.03446H18.1488L24.9999 1.5459V0.862107C24.9999 0.386034 24.614 0 24.1378 0Z" fill="#F5F5F5"/>
<path d="M25.0001 6.89657H13.7933V0H11.2071V6.89657H0.000244141V9.4827H11.2071V16.3793H13.7933V9.4827H25.0001V6.89657Z" fill="#D0353E"/>
<path d="M9.4827 6.03451L0.410839 0.145752C0.169433 0.298584 0 0.555224 0 0.862157V0.906883L7.8993 6.03451H9.4827Z" fill="#D0353E"/>
<path d="M16.2387 6.03446L24.8689 0.432324C24.7189 0.178516 24.4543 0 24.138 0H23.9515L14.6553 6.03446H16.2387Z" fill="#D0353E"/>
<path d="M8.73729 10.3448L0.123535 15.9362C0.27207 16.1962 0.54082 16.3793 0.861717 16.3793H1.02431L10.3207 10.3448H8.73729Z" fill="#D0353E"/>
<path d="M24.9862 15.5851L16.9134 10.345H15.3301L24.4973 16.2955C24.7721 16.1681 24.9603 15.901 24.9862 15.5851Z" fill="#D0353E"/>
<path d="M43.5391 15.0312H31.3513V10.5271C31.3513 9.90809 31.8533 9.40613 32.4723 9.40613H42.4182C43.0373 9.40613 43.5393 9.90809 43.5393 10.5271V15.0312H43.5391Z" fill="#FFE15A"/>
<path d="M32.6577 11.1325C32.6577 11.1325 32.5588 11.3034 32.2727 11.1986C32.2727 11.1986 32.5202 11.0827 32.5532 10.9835L32.6577 11.1325Z" fill="#41479B"/>
<path d="M32.553 10.6305C32.553 10.6305 32.399 10.5313 32.2285 10.5367C32.2285 10.5367 32.4814 10.3493 32.696 10.5148L32.553 10.6305Z" fill="#41479B"/>
<path d="M32.9123 10.3659C32.9123 10.3659 32.9618 10.1839 32.8628 10.0846C32.8628 10.0846 33.0663 10.1728 33.0938 10.3382L32.9123 10.3659Z" fill="#41479B"/>
<path d="M33.3645 10.5532C33.3645 10.5532 33.4634 10.3327 33.3755 10.2279C33.3755 10.2279 33.6395 10.3823 33.5295 10.636L33.3645 10.5532Z" fill="#41479B"/>
<path d="M32.8464 13.0044C32.8464 13.0044 32.7405 12.7872 32.604 12.7879C32.604 12.7879 32.8913 12.6832 33.0155 12.9302L32.8464 13.0044Z" fill="#41479B"/>
<path d="M32.615 13.2811C32.615 13.2811 32.4262 13.1305 32.3032 13.1902C32.3032 13.1902 32.5177 12.9718 32.7356 13.1412L32.615 13.2811Z" fill="#41479B"/>
<path d="M32.7474 13.6717C32.7474 13.6717 32.5061 13.669 32.4456 13.7918C32.4456 13.7918 32.481 13.4874 32.7569 13.4871L32.7474 13.6717Z" fill="#41479B"/>
<path d="M32.9683 13.923C32.9683 13.923 32.8694 14.0939 32.5833 13.9892C32.5833 13.9892 32.8307 13.8732 32.8638 13.774L32.9683 13.923Z" fill="#41479B"/>
<path d="M37.3281 13.8361C37.3281 13.8361 37.247 13.976 37.0127 13.8903C37.0127 13.8903 37.2029 13.8222 37.2299 13.7408L37.3281 13.8361Z" fill="#41479B"/>
<path d="M37.0924 13.1821C37.0924 13.1821 37.0301 13.0644 36.843 13.0387C36.843 13.0387 37.0814 12.9285 37.2317 13.0865L37.0924 13.1821Z" fill="#41479B"/>
<path d="M40.9702 13.6289C40.9702 13.6289 40.8335 13.6722 40.7694 13.866C40.7694 13.866 40.6994 13.5908 40.8962 13.4619L40.9702 13.6289Z" fill="#41479B"/>
<path d="M41.2575 13.7299C41.2575 13.7299 41.1281 13.856 41.1343 14.0602C41.1343 14.0602 40.9746 13.8258 41.1154 13.6371L41.2575 13.7299Z" fill="#41479B"/>
<path d="M41.8781 13.7189C41.8781 13.7189 41.839 13.8525 41.9573 13.9949C41.9573 13.9949 41.7124 13.9168 41.7078 13.7031L41.8781 13.7189Z" fill="#41479B"/>
<path d="M41.5865 13.7711C41.5865 13.7711 41.4826 13.8701 41.5102 14.0725C41.5102 14.0725 41.3171 13.9024 41.4374 13.7L41.5865 13.7711Z" fill="#41479B"/>
<path d="M36.893 13.4231C36.893 13.4231 36.7678 13.3781 36.6123 13.4853C36.6123 13.4853 36.7145 13.2429 36.9317 13.2583L36.893 13.4231Z" fill="#41479B"/>
<path d="M37.064 13.6898C37.064 13.6898 36.9355 13.656 36.7898 13.7764C36.7898 13.7764 36.8122 13.5425 37.0301 13.5389L37.064 13.6898Z" fill="#41479B"/>
<path d="M43.5391 15.7868C42.5226 15.7868 42.5226 16.7038 41.506 16.7038C40.4895 16.7038 40.4895 15.7868 39.4729 15.7868C38.457 15.7868 38.457 16.7038 37.4412 16.7038C36.4262 16.7038 36.4262 15.7868 35.4112 15.7868C34.3962 15.7868 34.3964 16.7038 33.3816 16.7038C32.3665 16.7038 32.3665 15.7868 31.3513 15.7868V14.0939C32.3664 14.0939 32.3664 15.0108 33.3816 15.0108C34.3965 15.0108 34.3965 14.0939 35.4112 14.0939C36.4262 14.0939 36.4262 15.0108 37.4412 15.0108C38.457 15.0108 38.457 14.0939 39.4729 14.0939C40.4895 14.0939 40.4895 15.0108 41.506 15.0108C42.5226 15.0108 42.5226 14.0939 43.5391 14.0939V15.7868Z" fill="#F5F5F5"/>
<path d="M41.5064 16.7037C40.4899 16.7037 40.4899 15.7867 39.4733 15.7867C38.4574 15.7867 38.4574 16.7037 37.4415 16.7037C36.4266 16.7037 36.4266 15.7867 35.4116 15.7867C34.3966 15.7867 34.3968 16.7037 33.382 16.7037C32.369 16.7037 32.3662 15.7912 31.3574 15.7873C31.3714 16.1926 31.418 16.7942 31.5367 17.5011C32.3613 17.6103 32.4364 18.3965 33.3819 18.3965C34.3968 18.3965 34.3968 17.4794 35.4115 17.4794C36.4264 17.4794 36.4264 18.3965 37.4414 18.3965C38.4573 18.3965 38.4573 17.4794 39.4731 17.4794C40.4896 17.4794 40.4896 18.3965 41.5063 18.3965C42.4532 18.3965 42.5285 17.6101 43.3542 17.5011C43.4731 16.7942 43.5196 16.1926 43.5335 15.7873C42.5236 15.7912 42.5209 16.7037 41.5064 16.7037Z" fill="#41479B"/>
<path d="M41.5064 18.3967C40.4899 18.3967 40.4899 17.4796 39.4733 17.4796C38.4574 17.4796 38.4574 18.3967 37.4416 18.3967C36.4266 18.3967 36.4266 17.4796 35.4116 17.4796C34.3966 17.4796 34.3968 18.3967 33.382 18.3967C32.4365 18.3967 32.3614 17.6105 31.5369 17.5013C31.6311 18.0616 31.7715 18.6862 31.9786 19.3322C32.4356 19.5945 32.6346 20.0896 33.382 20.0896C34.3969 20.0896 34.3969 19.1727 35.4116 19.1727C36.4266 19.1727 36.4266 20.0896 37.4416 20.0896C38.4574 20.0896 38.4574 19.1727 39.4733 19.1727C40.4898 19.1727 40.4898 20.0896 41.5064 20.0896C42.2555 20.0896 42.4543 19.5935 42.9129 19.3314C43.1198 18.6857 43.2602 18.0612 43.3545 17.5013C42.5286 17.6104 42.4533 18.3967 41.5064 18.3967Z" fill="#F5F5F5"/>
<path d="M41.5065 20.0896C40.49 20.0896 40.49 19.1726 39.4734 19.1726C38.4576 19.1726 38.4576 20.0896 37.4417 20.0896C36.4267 20.0896 36.4267 19.1726 35.4117 19.1726C34.3968 19.1726 34.3969 20.0896 33.3822 20.0896C32.6349 20.0896 32.4358 19.5943 31.9788 19.3321C32.2367 20.1369 32.5989 20.9716 33.1046 21.75C33.1898 21.7675 33.2777 21.7825 33.3822 21.7825C34.397 21.7825 34.397 20.8654 35.4117 20.8654C36.4267 20.8654 36.4267 21.7825 37.4417 21.7825C38.4576 21.7825 38.4576 20.8654 39.4734 20.8654C40.4899 20.8654 40.4899 21.7825 41.5065 21.7825C41.6122 21.7825 41.7012 21.7675 41.7872 21.7497C42.2928 20.9711 42.6551 20.1363 42.913 19.3315C42.4546 19.5933 42.2556 20.0896 41.5065 20.0896Z" fill="#41479B"/>
<path d="M41.5064 21.7825C40.4899 21.7825 40.4899 20.8655 39.4733 20.8655C38.4575 20.8655 38.4575 21.7825 37.4416 21.7825C36.4266 21.7825 36.4266 20.8655 35.4116 20.8655C34.3967 20.8655 34.3968 21.7825 33.3821 21.7825C33.2776 21.7825 33.1897 21.7676 33.1045 21.75C33.4258 22.2446 33.8062 22.715 34.2542 23.1406C34.5645 22.8784 34.8111 22.5584 35.4118 22.5584C36.4267 22.5584 36.4267 23.4754 37.4417 23.4754C38.4576 23.4754 38.4576 22.5584 39.4734 22.5584C40.0765 22.5584 40.3231 22.8799 40.6352 23.1425C41.0841 22.7163 41.4653 22.2453 41.7871 21.7498C41.7011 21.7674 41.6121 21.7825 41.5064 21.7825Z" fill="#F5F5F5"/>
<path d="M40.6352 23.1426C40.3232 22.88 40.0766 22.5585 39.4734 22.5585C38.4575 22.5585 38.4575 23.4754 37.4417 23.4754C36.4267 23.4754 36.4267 22.5585 35.4117 22.5585C34.8111 22.5585 34.5646 22.8785 34.2542 23.1407C35.0707 23.9166 36.1117 24.5418 37.4456 24.8754C38.7785 24.5422 39.8189 23.9177 40.6352 23.1426Z" fill="#41479B"/>
<path d="M39.4724 14.0938C38.4565 14.0938 38.4565 15.0107 37.4407 15.0107C36.4257 15.0107 36.4257 14.0938 35.4107 14.0938C34.3957 14.0938 34.3959 15.0107 33.3812 15.0107C32.3661 15.0107 32.3661 14.0938 31.3508 14.0938C31.3508 14.6722 31.3508 15.1745 31.3508 15.5C31.3508 15.5793 31.3526 15.6771 31.3564 15.7872C32.3652 15.7911 32.3681 16.7036 33.381 16.7036C34.3959 16.7036 34.3959 15.7867 35.4106 15.7867C36.4256 15.7867 36.4256 16.7036 37.4405 16.7036C38.4564 16.7036 38.4564 15.7867 39.4723 15.7867C40.4889 15.7867 40.4889 16.7036 41.5054 16.7036C42.5199 16.7036 42.5227 15.7911 43.5329 15.7872C43.5367 15.677 43.5385 15.5792 43.5385 15.5C43.5385 15.1745 43.5385 14.672 43.5385 14.0938C42.5219 14.0938 42.5219 15.0107 41.5054 15.0107C40.489 15.0107 40.489 14.0938 39.4724 14.0938Z" fill="#F5F5F5"/>
<path d="M43.0707 9.40605C43.3297 9.40605 43.5394 9.61596 43.5394 9.87475V14.0936V15.0311C43.5394 15.2088 43.5394 15.3712 43.5394 15.4998C43.5394 15.5792 43.5377 15.677 43.5338 15.7871C43.5199 16.1924 43.4733 16.794 43.3545 17.501C43.2603 18.0608 43.1199 18.6853 42.9129 19.331C42.655 20.136 42.2927 20.9709 41.7871 21.7493C41.4652 22.2449 41.084 22.716 40.6352 23.142C39.819 23.917 38.7786 24.5416 37.4458 24.8748C36.1118 24.5414 35.0708 23.916 34.2543 23.1401C33.8063 22.7145 33.4259 22.2443 33.1046 21.7495C32.599 20.971 32.2367 20.1365 31.9788 19.3317C31.7717 18.6857 31.6311 18.0609 31.537 17.5008C31.4182 16.7939 31.3717 16.1923 31.3577 15.7869C31.3539 15.6767 31.3521 15.5789 31.3521 15.4997C31.3521 15.3711 31.3521 15.2085 31.3521 15.031V14.0935V9.87462C31.3521 9.6157 31.562 9.40593 31.8208 9.40593H43.071L43.0707 9.40605ZM43.0707 9.05457H31.8204C31.3681 9.05457 31 9.42256 31 9.875V14.0939V15.0314V15.5001C31 15.5828 31.0018 15.6846 31.0058 15.7995C31.0192 16.1821 31.0618 16.798 31.1898 17.5595C31.2988 18.2079 31.4516 18.8402 31.6435 19.4393C31.9407 20.3662 32.3329 21.2081 32.8094 21.9414C33.1602 22.4815 33.5648 22.9707 34.0117 23.3954C34.944 24.2813 36.0706 24.8939 37.3601 25.2163L37.4454 25.2376L37.5306 25.2163C38.8191 24.8941 39.9449 24.2821 40.877 23.3973C41.325 22.972 41.7303 22.482 42.0817 21.941C42.5582 21.2075 42.9504 20.3656 43.2475 19.4383C43.4395 18.8397 43.592 18.2075 43.7011 17.5594C43.8292 16.7978 43.8719 16.1819 43.8851 15.7994C43.889 15.6845 43.8909 15.5826 43.8909 15.5V15.0313V14.0937V9.87487C43.891 9.42256 43.5231 9.05457 43.0707 9.05457Z" fill="#F5F5F5"/>
<path d="M38.3828 9.4062H36.9766L36.5078 8H37.9142L38.3828 9.4062Z" fill="#F5F5F5"/>
<path d="M40.7268 9.40626H39.7893L39.4768 8.46875H39.9047C40.2091 8.46875 40.4792 8.66354 40.5755 8.95217L40.7268 9.40626Z" fill="#F5F5F5"/>
<path d="M35.5703 9.40626H34.6328L34.5259 9.08563C34.4247 8.78214 34.6506 8.46875 34.9706 8.46875H35.2577L35.5703 9.40626Z" fill="#F5F5F5"/>
<path d="M39.7907 9.4062H38.3845L37.9158 8H38.9842C39.186 8 39.365 8.12901 39.4289 8.32063L39.7907 9.4062Z" fill="#41479B"/>
<path d="M36.977 9.40632H35.5708L35.2541 8.4565C35.1793 8.23199 35.3464 8.00012 35.5831 8.00012H36.5083L36.977 9.40632Z" fill="#41479B"/>
</svg>
