<svg width="51" height="33" viewBox="0 0 51 33" fill="none" xmlns="http://www.w3.org/2000/svg">
<path d="M50.4423 11.1429H0.442383V1.0854C0.442383 0.609296 0.828418 0.223267 1.30449 0.223267H49.5803C50.0563 0.223267 50.4424 0.609296 50.4424 1.0854L50.4423 11.1429Z" fill="#41479B"/>
<path d="M49.5799 32.9819H1.30425C0.828173 32.9819 0.442139 32.5959 0.442139 32.1198V22.0624H50.442V32.1198C50.442 32.596 50.056 32.9819 49.5799 32.9819Z" fill="#41479B"/>
<path d="M50.4416 11.1427H0.44165V22.0617H50.4416V11.1427Z" fill="#F5F5F5"/>
<path d="M25.4208 20.2709C23.3412 20.2709 21.6492 18.579 21.6492 16.4993C21.6492 15.611 21.964 14.7483 22.5359 14.0699L22.7007 14.2088C22.1615 14.8483 21.8646 15.6616 21.8646 16.4993C21.8646 18.46 23.4598 20.0554 25.4207 20.0554L25.4208 20.2709Z" fill="#50AF69"/>
<path d="M24.0411 19.1573C23.994 19.2377 23.9707 19.3481 23.9605 19.4601C23.9179 19.4294 23.8728 19.4009 23.8238 19.377C23.8238 19.377 23.7497 19.6381 23.8076 19.8261C23.8076 19.8261 23.611 19.8504 23.4305 20.0315C23.4305 20.0315 23.4927 20.0754 23.5995 20.1212C23.4203 20.2611 23.365 20.3993 23.365 20.3993C24.4226 20.9281 24.9295 20.1905 24.9515 20.1574C24.6924 19.4183 24.0411 19.1573 24.0411 19.1573Z" fill="#50AF69"/>
<path d="M24.9517 20.1578C24.9524 20.1597 24.9532 20.1613 24.9539 20.1634V20.1545L24.9517 20.1578Z" fill="#50AF69"/>
<path d="M23.0645 18.4524C22.9954 18.503 22.9355 18.5875 22.8857 18.6782C22.861 18.6368 22.8335 18.5963 22.8008 18.5582C22.8008 18.5582 22.6428 18.7512 22.623 18.9309C22.623 18.9309 22.4483 18.8797 22.2301 18.9663C22.2301 18.9663 22.2664 19.0261 22.3397 19.1038C22.1375 19.1561 22.0403 19.2525 22.0403 19.2525C22.7385 20.085 23.4355 19.6485 23.4662 19.6287C23.5184 18.9104 23.0645 18.4524 23.0645 18.4524Z" fill="#50AF69"/>
<path d="M23.4663 19.6287C23.4663 19.6287 23.4663 19.6322 23.4661 19.6342L23.4693 19.6267L23.4663 19.6287Z" fill="#50AF69"/>
<path d="M22.4589 17.5308C22.3835 17.5468 22.3028 17.594 22.2285 17.65C22.2235 17.6068 22.2159 17.5634 22.2032 17.5199C22.2032 17.5199 22.0019 17.6199 21.919 17.7602C21.919 17.7602 21.7946 17.6533 21.5833 17.6436C21.5833 17.6436 21.5909 17.7062 21.6224 17.7971C21.437 17.7652 21.3215 17.8084 21.3215 17.8084C21.5864 18.7509 22.3207 18.6507 22.3534 18.6457C22.6618 18.0754 22.4589 17.5308 22.4589 17.5308Z" fill="#50AF69"/>
<path d="M22.3528 18.6459L22.3506 18.6504L22.356 18.6454L22.3528 18.6459Z" fill="#50AF69"/>
<path d="M22.2184 16.4806C22.1468 16.4852 22.0635 16.5164 21.9838 16.5562C21.9892 16.5181 21.9923 16.4794 21.9909 16.4402C21.9909 16.4402 21.7868 16.5026 21.6801 16.6143C21.6801 16.6143 21.5926 16.5066 21.4045 16.4725C21.4045 16.4725 21.397 16.5277 21.4045 16.6104C21.2449 16.5603 21.1309 16.5836 21.1309 16.5836C21.1532 17.4334 21.8371 17.4353 21.8676 17.4349C22.2762 16.9775 22.2184 16.4806 22.2184 16.4806Z" fill="#50AF69"/>
<path d="M21.8675 17.4351L21.8645 17.4387L21.8704 17.4351H21.8675Z" fill="#50AF69"/>
<path d="M22.2986 15.6107C22.2374 15.5961 22.1594 15.6007 22.0821 15.6135C22.0966 15.583 22.1092 15.5513 22.118 15.5181C22.118 15.5181 21.9306 15.5177 21.8121 15.5837C21.8121 15.5837 21.7666 15.4706 21.6177 15.3935C21.6177 15.3935 21.5971 15.4379 21.5819 15.5092C21.461 15.4259 21.3594 15.4161 21.3594 15.4161C21.1582 16.1347 21.7313 16.3132 21.757 16.3207C22.2185 16.0425 22.2986 15.6107 22.2986 15.6107Z" fill="#50AF69"/>
<path d="M21.7569 16.3206L21.7534 16.3229L21.7593 16.3214L21.7569 16.3206Z" fill="#50AF69"/>
<path d="M21.8444 14.5529C21.8444 14.5529 21.649 15.0648 21.9522 15.3611C21.9522 15.3611 22.3473 15.2444 22.5426 14.8336L22.3764 14.8022L22.291 14.5462L22.0081 14.672L21.8444 14.5529Z" fill="#50AF69"/>
<path d="M22.3947 13.7302C22.3947 13.7302 22.0885 14.1845 22.3166 14.5418C22.3166 14.5418 22.7279 14.5176 23.0112 14.1616L22.8564 14.0935L22.8313 13.8248L22.5273 13.8832L22.3947 13.7302Z" fill="#50AF69"/>
<path d="M25.4617 20.2709V20.0554C27.4225 20.0554 29.0178 18.46 29.0178 16.4993C29.0178 15.6617 28.7209 14.8483 28.1817 14.2088L28.3465 14.0699C28.9184 14.7483 29.2332 15.611 29.2332 16.4993C29.2332 18.579 27.5413 20.2709 25.4617 20.2709Z" fill="#50AF69"/>
<path d="M26.8414 19.1573C26.8885 19.2377 26.9118 19.3481 26.922 19.4601C26.9646 19.4294 27.0097 19.4009 27.0587 19.377C27.0587 19.377 27.1328 19.6381 27.0748 19.8261C27.0748 19.8261 27.2714 19.8504 27.4519 20.0315C27.4519 20.0315 27.3897 20.0754 27.2829 20.1212C27.4621 20.2611 27.5174 20.3993 27.5174 20.3993C26.4598 20.9281 25.953 20.1905 25.9309 20.1574C26.1901 19.4183 26.8414 19.1573 26.8414 19.1573Z" fill="#50AF69"/>
<path d="M25.931 20.1578C25.9302 20.1597 25.9294 20.1613 25.9287 20.1634V20.1545L25.931 20.1578Z" fill="#50AF69"/>
<path d="M27.8182 18.4524C27.8872 18.503 27.9472 18.5875 27.9968 18.6782C28.0215 18.6368 28.049 18.5963 28.0817 18.5582C28.0817 18.5582 28.2398 18.7512 28.2596 18.9309C28.2596 18.9309 28.4342 18.8797 28.6524 18.9663C28.6524 18.9663 28.6161 19.0261 28.5429 19.1038C28.745 19.1561 28.8422 19.2525 28.8422 19.2525C28.1441 20.085 27.447 19.6485 27.4163 19.6287C27.3643 18.9104 27.8182 18.4524 27.8182 18.4524Z" fill="#50AF69"/>
<path d="M27.4164 19.6287C27.4164 19.6287 27.4164 19.6322 27.4166 19.6342L27.4133 19.6267L27.4164 19.6287Z" fill="#50AF69"/>
<path d="M28.4241 17.5308C28.4995 17.5468 28.5802 17.594 28.6545 17.65C28.6595 17.6068 28.6671 17.5634 28.6798 17.5199C28.6798 17.5199 28.8811 17.6199 28.964 17.7602C28.964 17.7602 29.0884 17.6533 29.2997 17.6436C29.2997 17.6436 29.2921 17.7062 29.2605 17.7971C29.446 17.7652 29.5615 17.8084 29.5615 17.8084C29.2966 18.7509 28.5623 18.6507 28.5296 18.6457C28.2212 18.0754 28.4241 17.5308 28.4241 17.5308Z" fill="#50AF69"/>
<path d="M28.53 18.6459L28.5323 18.6504L28.5269 18.6454L28.53 18.6459Z" fill="#50AF69"/>
<path d="M28.6639 16.4806C28.7355 16.4852 28.8188 16.5164 28.8986 16.5562C28.8931 16.5181 28.8901 16.4794 28.8914 16.4402C28.8914 16.4402 29.0955 16.5026 29.2023 16.6143C29.2023 16.6143 29.2898 16.5066 29.4779 16.4725C29.4779 16.4725 29.4853 16.5277 29.4779 16.6104C29.6374 16.5603 29.7514 16.5836 29.7514 16.5836C29.7291 17.4334 29.0453 17.4353 29.0148 17.4349C28.6061 16.9775 28.6639 16.4806 28.6639 16.4806Z" fill="#50AF69"/>
<path d="M29.0149 17.4351L29.018 17.4387L29.012 17.4351H29.0149Z" fill="#50AF69"/>
<path d="M28.5845 15.6107C28.6457 15.5961 28.7238 15.6007 28.801 15.6135C28.7865 15.583 28.7739 15.5513 28.7652 15.5181C28.7652 15.5181 28.9526 15.5177 29.071 15.5837C29.071 15.5837 29.1165 15.4706 29.2654 15.3935C29.2654 15.3935 29.2861 15.4379 29.3012 15.5092C29.4221 15.4259 29.5237 15.4161 29.5237 15.4161C29.7249 16.1347 29.1518 16.3132 29.1261 16.3207C28.6647 16.0425 28.5845 15.6107 28.5845 15.6107Z" fill="#50AF69"/>
<path d="M29.126 16.3206L29.1295 16.3229L29.1235 16.3214L29.126 16.3206Z" fill="#50AF69"/>
<path d="M29.0383 14.5529C29.0383 14.5529 29.2337 15.0648 28.9306 15.3611C28.9306 15.3611 28.5355 15.2444 28.3401 14.8336L28.5064 14.8022L28.5917 14.5462L28.8746 14.672L29.0383 14.5529Z" fill="#50AF69"/>
<path d="M28.4881 13.7302C28.4881 13.7302 28.7943 14.1845 28.5663 14.5418C28.5663 14.5418 28.1549 14.5176 27.8716 14.1616L28.0264 14.0935L28.0515 13.8248L28.3555 13.8832L28.4881 13.7302Z" fill="#50AF69"/>
<path d="M25.4417 18.0035L25.1085 18.5033C25.0515 18.5887 25.0628 18.7023 25.1354 18.7749L25.4417 19.0811L25.7479 18.7749C25.8205 18.7023 25.8317 18.5887 25.7749 18.5033L25.4417 18.0035Z" fill="#41479B"/>
<path d="M25.5843 18.5033L25.4419 18.0035L25.2996 18.5033C25.2753 18.5887 25.2801 18.7023 25.311 18.7749L25.4419 19.0811L25.5728 18.7749C25.6038 18.7022 25.6087 18.5887 25.5843 18.5033Z" fill="#F5F5F5"/>
<path d="M25.4419 13.5315V12.1845C25.4419 12.1845 24.9301 12.9208 25.0108 13.9984" fill="#41479B"/>
<path d="M23.1466 13.5361C22.4061 15.1431 23.1656 16.4654 23.325 16.7143C23.3292 16.721 24.3823 15.0174 24.3823 15.0174L23.1466 13.5361Z" fill="#41479B"/>
<path d="M23.9257 15.7544C23.8089 15.3907 23.792 14.9658 23.9322 14.4784L23.474 13.9292C23.0976 14.9437 23.2533 15.6927 23.6302 16.2302C23.7227 16.0815 23.8254 15.916 23.9257 15.7544Z" fill="#F5F5F5"/>
<path d="M24.3639 15.1072C24.3318 15.1072 24.3001 15.0929 24.2788 15.0655L22.9275 13.3281C22.8909 13.2812 22.8994 13.2135 22.9463 13.177C22.9935 13.1404 23.061 13.149 23.0975 13.196L24.4488 14.9334C24.4854 14.9804 24.4769 15.048 24.4299 15.0845C24.4103 15.0999 24.387 15.1072 24.3639 15.1072Z" fill="#FFE15A"/>
<path d="M22.2089 15.206C21.7779 19.5163 25.2262 18.4387 25.4416 18.0077L23.2864 16.9302L23.7175 16.0681L22.2089 15.206Z" fill="#41479B"/>
<path d="M23.2509 15.702L22.6502 15.3416C22.515 17.9029 23.8828 18.3295 24.8917 18.2024C24.0738 18.0926 23.2566 17.4887 23.2509 15.702Z" fill="#F5F5F5"/>
<path d="M23.7171 16.1756C23.6976 16.1756 23.6779 16.1703 23.6601 16.1592L21.9361 15.0818C21.8857 15.0503 21.8703 14.9838 21.9019 14.9335C21.9333 14.8827 21.9997 14.8675 22.0504 14.8992L23.7744 15.9766C23.8248 16.0081 23.8402 16.0746 23.8086 16.1249C23.7881 16.1577 23.753 16.1756 23.7171 16.1756Z" fill="#FFE15A"/>
<path d="M27.7369 13.5318C28.4773 15.1389 27.7179 16.4611 27.5585 16.71C27.5543 16.7167 26.5012 15.0132 26.5012 15.0132L27.7369 13.5318Z" fill="#41479B"/>
<path d="M26.9575 15.7501C27.0743 15.3864 27.0912 14.9615 26.9509 14.4741L27.4092 13.9249C27.7856 14.9394 27.6299 15.6884 27.253 16.2259C27.1605 16.0773 27.0578 15.9117 26.9575 15.7501Z" fill="#F5F5F5"/>
<path d="M26.519 15.1031C26.4959 15.1031 26.4725 15.0957 26.453 15.0803C26.406 15.0439 26.3975 14.9761 26.4341 14.9292L27.7854 13.1918C27.822 13.1448 27.8896 13.1365 27.9366 13.1729C27.9835 13.2093 27.992 13.2771 27.9554 13.324L26.6041 15.0614C26.5829 15.0888 26.5511 15.1031 26.519 15.1031Z" fill="#FFE15A"/>
<path d="M28.6744 15.2018C29.1055 19.5121 25.6572 18.4345 25.4417 18.0035L27.5969 16.926L27.1658 16.0639L28.6744 15.2018Z" fill="#41479B"/>
<path d="M27.6324 15.6977L28.233 15.3373C28.3682 17.8986 27.0004 18.3252 25.9915 18.198C26.8094 18.0883 27.6266 17.4845 27.6324 15.6977Z" fill="#F5F5F5"/>
<path d="M27.166 16.1714C27.1301 16.1714 27.095 16.1535 27.0745 16.1206C27.0429 16.0703 27.0584 16.0038 27.1087 15.9723L28.8327 14.8949C28.8834 14.8631 28.9497 14.8785 28.9812 14.9292C29.0128 14.9795 28.9974 15.046 28.947 15.0775L27.223 16.1549C27.2052 16.1661 27.1855 16.1714 27.166 16.1714Z" fill="#FFE15A"/>
<path d="M25.4417 16.2792C25.9178 16.2792 26.3038 15.8932 26.3038 15.4171C26.3038 14.941 25.9178 14.555 25.4417 14.555C24.9655 14.555 24.5796 14.941 24.5796 15.4171C24.5796 15.8932 24.9655 16.2792 25.4417 16.2792Z" fill="#FFE6E6"/>
<path d="M25.4416 15.8482C25.6797 15.8482 25.8727 15.6552 25.8727 15.4171C25.8727 15.179 25.6797 14.9861 25.4416 14.9861C25.2035 14.9861 25.0105 15.179 25.0105 15.4171C25.0105 15.6552 25.2035 15.8482 25.4416 15.8482Z" fill="#F5F5F5"/>
<path d="M25.442 16.8182C25.3823 16.8182 25.334 16.77 25.334 16.7104V15.4174C25.334 15.3578 25.3823 15.3097 25.442 15.3097C25.5018 15.3097 25.55 15.3578 25.55 15.4174V16.7104C25.55 16.77 25.5018 16.8182 25.442 16.8182Z" fill="#FFE15A"/>
<path d="M28.3869 17.9855H22.6128L23.2863 16.7039H27.6147L28.3869 17.9855Z" fill="#5AA0E6"/>
<path d="M25.6169 16.9439H27.1185L26.6514 16.4768C26.6295 16.4549 26.6026 16.4383 26.5732 16.4285L26.4106 16.3743C26.352 16.3548 26.2877 16.3635 26.2363 16.3976L25.7172 16.7437L25.6169 16.9439Z" fill="#FFB750"/>
<path d="M25.1062 17.0247H26.8985L26.341 16.4672C26.3148 16.441 26.2828 16.4212 26.2475 16.4095L26.0535 16.3448C25.9836 16.3216 25.9067 16.3317 25.8454 16.3728L25.2258 16.7859L25.1062 17.0247Z" fill="#FFC455"/>
<path d="M24.4829 17.1145H26.6473L25.974 16.4412C25.9424 16.4096 25.9038 16.3857 25.8612 16.3715L25.6269 16.2934C25.5424 16.2652 25.4496 16.2776 25.3756 16.327L24.6274 16.8258L24.4829 17.1145Z" fill="#FFCD55"/>
<path d="M23.8657 17.1953H26.3439L25.573 16.4244C25.5366 16.3881 25.4925 16.3608 25.4438 16.3445L25.1754 16.2551C25.0786 16.2228 24.9725 16.2371 24.8876 16.2936L24.0308 16.8648L23.8657 17.1953Z" fill="#FFD25A"/>
<path d="M22.8555 17.3569H26.0882L25.0827 16.3514C25.0354 16.3041 24.9777 16.2683 24.9141 16.2473L24.5641 16.1306C24.4379 16.0886 24.2994 16.107 24.1887 16.1808L23.0711 16.9259L22.8555 17.3569Z" fill="#FFE15A"/>
<path d="M25.6754 15.6107H25.2095L25.3168 15.1608H25.4787C25.5312 15.1608 25.5768 15.1968 25.589 15.2479L25.6754 15.6107Z" fill="#D0353E"/>
<path d="M25.6483 15.6829H25.2299C25.1956 15.6829 25.168 15.6552 25.168 15.621V15.6003C25.168 15.566 25.1958 15.5384 25.2299 15.5384H25.6483C25.6825 15.5384 25.7102 15.5662 25.7102 15.6003V15.621C25.7102 15.6551 25.6823 15.6829 25.6483 15.6829Z" fill="#D0353E"/>
<path d="M25.3723 15.3656L25.2674 15.3391C25.2358 15.3311 25.2221 15.294 25.241 15.2674L25.3169 15.1608L25.3723 15.3656Z" fill="#D0353E"/>
<path d="M24.904 14.3103C24.899 14.3498 24.8938 14.3895 24.8887 14.429C25.0562 14.3274 25.2409 14.2664 25.4416 14.2664C25.6421 14.2666 25.827 14.3272 25.9946 14.429C25.9895 14.3894 25.9843 14.3498 25.9792 14.3103C25.8126 14.2234 25.6333 14.1734 25.4416 14.1736C25.25 14.1734 25.0707 14.2233 24.904 14.3103Z" fill="#41479B"/>
<path d="M24.9106 14.2587C24.9056 14.2983 24.9004 14.3379 24.8953 14.3775C25.0609 14.2756 25.2435 14.2146 25.4415 14.2143C25.6395 14.2145 25.8221 14.2755 25.9877 14.3775C25.9826 14.3378 25.9774 14.2983 25.9724 14.2587C25.8076 14.1711 25.6307 14.1215 25.4414 14.1214C25.2523 14.1214 25.0754 14.1713 24.9106 14.2587Z" fill="#5AA0E6"/>
<path d="M24.9167 14.2109C24.9116 14.2505 24.9065 14.2901 24.9014 14.3297C25.0654 14.2275 25.2458 14.166 25.4414 14.1661C25.6371 14.1661 25.8175 14.2275 25.9815 14.3297C25.9764 14.2901 25.9712 14.2505 25.9661 14.2109C25.8032 14.1234 25.6283 14.0732 25.4413 14.0732C25.2547 14.0731 25.0798 14.1233 24.9167 14.2109Z" fill="#9BC800"/>
<path d="M24.924 14.1564C24.9189 14.196 24.9137 14.2356 24.9087 14.2751C25.0708 14.1727 25.2487 14.1109 25.4418 14.1109C25.6347 14.1111 25.8127 14.1725 25.9749 14.2751C25.9698 14.2356 25.9646 14.1959 25.9595 14.1564C25.7985 14.0685 25.6261 14.0181 25.4419 14.018C25.2574 14.0182 25.085 14.0685 24.924 14.1564Z" fill="#FFE14E"/>
<path d="M24.9308 14.1028C24.9257 14.1423 24.9206 14.182 24.9155 14.2215C25.0757 14.1187 25.2511 14.057 25.4416 14.0569C25.632 14.0571 25.8075 14.1186 25.9676 14.2215C25.9626 14.182 25.9574 14.1423 25.9523 14.1028C25.7932 14.0146 25.6232 13.964 25.4416 13.9639C25.2599 13.9641 25.0898 14.0145 24.9308 14.1028Z" fill="#FFB14E"/>
<path d="M24.9338 14.0799C24.9303 14.1076 24.9266 14.1354 24.9231 14.1631C25.0812 14.0602 25.2543 13.9978 25.4418 13.9978C25.6293 13.9977 25.8022 14.06 25.9604 14.1631C25.9569 14.1354 25.9533 14.1076 25.9498 14.0799C25.7916 13.9916 25.6225 13.9409 25.4419 13.9407C25.2611 13.9405 25.092 13.9915 24.9338 14.0799Z" fill="#D0353E"/>
<path d="M28.4589 18.1112H22.4244C22.3847 18.1112 22.3481 18.0893 22.3294 18.0544C22.3106 18.0192 22.3128 17.9766 22.3348 17.9437L25.352 13.4178C25.392 13.3581 25.4914 13.3581 25.5313 13.4178L28.5486 17.9437C28.5706 17.9768 28.5727 18.0193 28.554 18.0544C28.5351 18.0893 28.4986 18.1112 28.4589 18.1112ZM22.6257 17.8957H28.2576L25.4416 13.6719L22.6257 17.8957Z" fill="#FFE15A"/>
<path d="M25.442 12.5078C25.3822 12.5078 25.334 12.4596 25.334 12.4001V11.969C25.334 11.9094 25.3822 11.8613 25.442 11.8613C25.5017 11.8613 25.55 11.9094 25.55 11.969V12.4001C25.55 12.4596 25.5017 12.5078 25.442 12.5078Z" fill="#FFE15A"/>
<path d="M25.6572 12.5078H25.2261C25.1666 12.5078 25.1184 12.4596 25.1184 12.4001C25.1184 12.3405 25.1666 12.2924 25.2261 12.2924H25.6572C25.7168 12.2924 25.7649 12.3405 25.7649 12.4001C25.7649 12.4596 25.7168 12.5078 25.6572 12.5078Z" fill="#FFE15A"/>
<path d="M25.4415 20.2669C25.4338 20.2669 25.4258 20.266 25.4182 20.2645C25.3127 20.2408 24.9608 20.1565 24.857 20.0536C24.7251 19.9227 24.7244 19.7091 24.8551 19.5772C24.9186 19.5134 25.003 19.478 25.0929 19.4778H25.0941C25.1836 19.4778 25.2678 19.5125 25.3314 19.5757C25.4352 19.6788 25.5222 20.0299 25.5464 20.1351C25.5547 20.1711 25.544 20.209 25.5179 20.2353C25.4976 20.2557 25.4699 20.2669 25.4415 20.2669ZM25.0941 19.6932C25.0654 19.7027 25.0309 19.706 25.0079 19.7289C24.9609 19.7762 24.9612 19.8532 25.0087 19.9005C25.0348 19.9259 25.1513 19.97 25.2909 20.0098C25.2501 19.8706 25.2053 19.7545 25.1795 19.7284C25.1567 19.7056 25.1263 19.6932 25.0941 19.6932Z" fill="#41479B"/>
<path d="M25.4424 20.2664C25.414 20.2664 25.3864 20.2552 25.366 20.2346C25.34 20.2083 25.3292 20.1703 25.3375 20.1344C25.3617 20.0291 25.4488 19.6781 25.5525 19.575C25.6164 19.5116 25.6924 19.4829 25.791 19.4772C25.8809 19.4774 25.9653 19.5127 26.0287 19.5765C26.1596 19.7085 26.1587 19.9221 26.027 20.0528C25.9231 20.1559 25.5712 20.2403 25.4657 20.2639C25.4582 20.2656 25.4502 20.2664 25.4424 20.2664ZM25.7045 19.7279C25.6787 19.7539 25.6338 19.8701 25.593 20.0092C25.7327 19.9695 25.8492 19.9255 25.8754 19.8997C25.9226 19.8528 25.923 19.7758 25.8759 19.7284C25.8532 19.7055 25.8228 19.6927 25.7904 19.6927C25.7582 19.6927 25.7274 19.7051 25.7045 19.7279Z" fill="#41479B"/>
<path d="M25.0118 20.913C24.9523 20.913 24.9041 20.8649 24.9041 20.8053C24.9041 20.3133 25.3747 20.0724 25.3947 20.0623C25.4483 20.0356 25.5124 20.0575 25.5391 20.1103C25.5658 20.1633 25.5444 20.228 25.4915 20.2549C25.4877 20.2569 25.1197 20.4479 25.1197 20.8052C25.1196 20.8649 25.0714 20.913 25.0118 20.913Z" fill="#41479B"/>
<path d="M25.8735 20.913C25.814 20.913 25.7658 20.8648 25.7658 20.8053C25.7658 20.448 25.3979 20.2567 25.394 20.255C25.3411 20.228 25.3198 20.1634 25.3465 20.1104C25.3733 20.0575 25.4374 20.0356 25.4908 20.0624C25.5108 20.0726 25.9815 20.3133 25.9815 20.8054C25.9813 20.8648 25.9331 20.913 25.8735 20.913Z" fill="#41479B"/>
</svg>
