<svg width="50" height="33" viewBox="0 0 50 33" fill="none" xmlns="http://www.w3.org/2000/svg">
<path d="M0.862108 0H49.1379C49.6139 0 50 0.38603 50 0.86213V16.3792H0V0.86203C0 0.38594 0.386038 0 0.862108 0Z" fill="#D0353E"/>
<path d="M49.1378 32.7586H0.862108C0.386038 32.7586 0 32.3725 0 31.8965V16.3793H49.9999V31.8966C49.9999 32.3726 49.6138 32.7586 49.1378 32.7586Z" fill="#41479B"/>
<path d="M0.317968 32.5501L24.1793 16.9167C24.5666 16.6629 24.5666 16.0953 24.1793 15.8416L0.317968 0.208374C0.128027 0.366474 0 0.595574 0 0.861994V31.8964C0 32.1629 0.128027 32.392 0.317968 32.5501Z" fill="#F5F5F5"/>
<path d="M8.83779 15.759C10.3327 15.759 11.5447 14.5471 11.5447 13.0521C11.5447 11.5571 10.3327 10.3452 8.83779 10.3452C7.34279 10.3452 6.13086 11.5571 6.13086 13.0521C6.13086 14.5471 7.34279 15.759 8.83779 15.759Z" fill="#FFE15A"/>
<path d="M12.1474 15.5595C12.1581 15.8879 12.1939 16.2268 12.2283 16.5543C12.3636 17.8398 12.4805 18.9501 11.2459 19.3808C10.9541 19.4826 10.5565 19.5396 10.1721 19.5947C9.62023 19.6738 9.12612 19.7445 8.83872 19.9448C8.55131 19.7446 8.05727 19.6738 7.50532 19.5947C7.12095 19.5396 6.72319 19.4825 6.43149 19.3808C5.19693 18.9501 5.31382 17.8398 5.44907 16.5543C5.48355 16.2268 5.51919 15.8879 5.53003 15.5595C5.56841 14.3957 5.32299 13.2552 5.15063 12.6106C5.43783 12.7285 5.83598 12.8348 6.32416 12.8262C6.53451 12.822 6.77074 12.792 7.02074 12.7604C7.59144 12.6876 8.23823 12.6058 8.7559 12.8104L8.8389 12.8473L8.92191 12.8104C9.43952 12.6058 10.0863 12.6876 10.657 12.7604C10.907 12.792 11.1433 12.822 11.3536 12.8262C11.8418 12.8348 12.24 12.7284 12.5272 12.6106C12.3543 13.2551 12.109 14.3957 12.1474 15.5595Z" fill="#8CD7FF"/>
<path d="M12.5982 15.5446C12.5439 13.8948 13.1067 12.2396 13.1125 12.2231L12.7577 11.974C12.7531 11.9778 12.2195 12.3917 11.3621 12.3752C11.1758 12.3717 10.9513 12.343 10.7135 12.3128C10.1165 12.2372 9.44313 12.1515 8.83862 12.3602C8.23412 12.1516 7.56079 12.2373 6.96372 12.3128C6.72602 12.3429 6.50141 12.3716 6.31509 12.3752C5.45767 12.3917 4.92417 11.9777 4.91948 11.974L4.5647 12.2231C4.57027 12.2396 5.13335 13.8948 5.07896 15.5446C5.0687 15.857 5.03394 16.1875 5.00015 16.5071C4.8645 17.7967 4.71069 19.2586 6.28266 19.807C6.61577 19.923 7.03667 19.9744 7.44106 20.0414C8.65522 20.2425 8.83852 20.5527 8.83852 20.5527C8.83852 20.5527 9.02182 20.2424 10.2359 20.0414C10.6403 19.9744 11.0612 19.923 11.3943 19.807C12.9664 19.2587 12.8127 17.7967 12.6769 16.5071C12.6434 16.1874 12.6085 15.857 12.5982 15.5446ZM12.1474 15.5595C12.1581 15.888 12.1939 16.2268 12.2283 16.5544C12.3636 17.8398 12.4805 18.9502 11.2459 19.3808C10.9541 19.4826 10.5565 19.5396 10.1721 19.5947C9.62023 19.6738 9.12612 19.7445 8.83871 19.9448C8.55131 19.7446 8.05727 19.6738 7.50532 19.5947C7.12094 19.5396 6.72319 19.4825 6.43149 19.3808C5.19692 18.9502 5.31382 17.8398 5.44907 16.5544C5.48354 16.2268 5.51919 15.888 5.53003 15.5595C5.56841 14.3957 5.323 13.2552 5.15064 12.6106C5.43784 12.7285 5.83599 12.8348 6.32417 12.8262C6.53452 12.822 6.77075 12.7921 7.02075 12.7604C7.59145 12.6877 8.23823 12.6058 8.7559 12.8104L8.83891 12.8473L8.92192 12.8104C9.43953 12.6058 10.0863 12.6877 10.657 12.7604C10.907 12.7921 11.1433 12.822 11.3536 12.8262C11.8418 12.8348 12.24 12.7284 12.5272 12.6106C12.3543 13.2551 12.109 14.3957 12.1474 15.5595Z" fill="#D0353E"/>
<path d="M11.1651 18.3327V17.3384H11.3355V17.0451H10.9187V16.0239H11.3355L9.42941 14.6736V14.1657H9.69461L8.83872 13.5594L7.98306 14.1657H8.248V14.6736L6.34195 16.0239H6.75884V17.0451H6.34195V17.3384H6.51245V18.3327H6.26343V18.7619H11.4142V18.3327H11.1651Z" fill="#F5F5F5"/>
<path d="M6.36555 14.2631C6.30481 14.407 6.31516 14.5596 6.37971 14.6718C6.5053 14.6397 6.6217 14.5408 6.68254 14.397C6.74329 14.253 6.73293 14.1005 6.66838 13.9883C6.5429 14.0203 6.42639 14.1192 6.36555 14.2631Z" fill="#41AA5A"/>
<path d="M6.66061 14.3084C6.70025 14.4595 6.80146 14.5739 6.92078 14.6233C7.00045 14.5214 7.03211 14.3719 6.99247 14.2208C6.95282 14.0697 6.85162 13.9553 6.7323 13.9059C6.65272 14.0077 6.62096 14.1573 6.66061 14.3084Z" fill="#41AA5A"/>
<path d="M7.11958 14.0573C7.26606 14.1117 7.41792 14.0948 7.52729 14.0253C7.48989 13.9013 7.38589 13.7892 7.2395 13.7348C7.09302 13.6804 6.94116 13.6973 6.83179 13.7668C6.86919 13.8907 6.97309 14.0027 7.11958 14.0573Z" fill="#41AA5A"/>
<path d="M7.25669 13.7994C7.39966 13.7365 7.49702 13.6185 7.5271 13.4926C7.41382 13.4297 7.26128 13.4216 7.11831 13.4844C6.97534 13.5473 6.87808 13.6652 6.8479 13.7912C6.96099 13.8542 7.11362 13.8623 7.25669 13.7994Z" fill="#41AA5A"/>
<path d="M6.29522 13.9297C6.42266 13.8392 6.49424 13.7043 6.49844 13.5747C6.3749 13.5358 6.22373 13.5586 6.09629 13.6489C5.96885 13.7392 5.89727 13.8743 5.89307 14.0039C6.0166 14.0429 6.16787 14.0201 6.29522 13.9297Z" fill="#41AA5A"/>
<path d="M6.1894 13.7409C6.3855 13.8532 6.59556 13.8837 6.75181 13.8386C6.71157 13.681 6.57905 13.5152 6.38296 13.4029C6.18686 13.2906 5.97681 13.2602 5.82056 13.3053C5.86079 13.4629 5.99341 13.6286 6.1894 13.7409Z" fill="#41AA5A"/>
<path d="M7.01772 13.9711C7.01772 13.895 6.95708 13.8336 6.88149 13.8308C6.87866 13.7552 6.81753 13.6946 6.74116 13.6946C6.66479 13.6946 6.60366 13.7552 6.60083 13.8308C6.52524 13.8336 6.4646 13.8948 6.4646 13.9711C6.4646 14.0473 6.52524 14.1085 6.60083 14.1115C6.60366 14.1871 6.66479 14.2477 6.74116 14.2477C6.81753 14.2477 6.87866 14.1871 6.88149 14.1115C6.95708 14.1085 7.01772 14.0473 7.01772 13.9711Z" fill="#FFE15A"/>
<path d="M6.741 14.0542C6.78673 14.0542 6.82379 14.017 6.82379 13.9712C6.82379 13.9253 6.78673 13.8882 6.741 13.8882C6.69527 13.8882 6.6582 13.9253 6.6582 13.9712C6.6582 14.017 6.69527 14.0542 6.741 14.0542Z" fill="#F5F5F5"/>
<path d="M6.57632 13.8313C6.57632 13.7686 6.52641 13.7182 6.4644 13.7159C6.46206 13.6538 6.41167 13.604 6.34907 13.604C6.28638 13.604 6.23599 13.6539 6.23374 13.7159C6.17163 13.7183 6.12183 13.7687 6.12183 13.8313C6.12183 13.894 6.17173 13.9444 6.23374 13.9466C6.23608 14.0087 6.28647 14.0585 6.34907 14.0585C6.41177 14.0585 6.46216 14.0086 6.4644 13.9466C6.52641 13.9443 6.57632 13.894 6.57632 13.8313Z" fill="#FFE15A"/>
<path d="M6.34825 13.8986C6.3858 13.8986 6.41624 13.868 6.41624 13.8304C6.41624 13.7928 6.3858 13.7622 6.34825 13.7622C6.31071 13.7622 6.28027 13.7928 6.28027 13.8304C6.28027 13.868 6.31071 13.8986 6.34825 13.8986Z" fill="#F5F5F5"/>
<path d="M6.9993 13.6357C6.9993 13.5905 6.96336 13.5542 6.91885 13.5526C6.91709 13.5078 6.88105 13.4719 6.83596 13.4719C6.79086 13.4719 6.75472 13.5079 6.75306 13.5526C6.70845 13.5543 6.67261 13.5904 6.67261 13.6357C6.67261 13.6808 6.70855 13.7171 6.75306 13.7188C6.75482 13.7635 6.79086 13.7994 6.83596 13.7994C6.88105 13.7994 6.91719 13.7634 6.91885 13.7188C6.96346 13.7171 6.9993 13.6809 6.9993 13.6357Z" fill="#FFE15A"/>
<path d="M6.83562 13.6852C6.86268 13.6852 6.88461 13.6632 6.88461 13.6361C6.88461 13.6089 6.86268 13.5869 6.83562 13.5869C6.80856 13.5869 6.78662 13.6089 6.78662 13.6361C6.78662 13.6632 6.80856 13.6852 6.83562 13.6852Z" fill="#F5F5F5"/>
<path d="M6.68803 13.4945C6.68803 13.4493 6.65208 13.413 6.60757 13.4114C6.60582 13.3666 6.56978 13.3307 6.52468 13.3307C6.47968 13.3307 6.44344 13.3667 6.44179 13.4114C6.39718 13.4131 6.36133 13.4492 6.36133 13.4945C6.36133 13.5397 6.39727 13.5759 6.44179 13.5776C6.44354 13.6223 6.47958 13.6582 6.52468 13.6582C6.56968 13.6582 6.60591 13.6222 6.60757 13.5776C6.65218 13.5759 6.68803 13.5396 6.68803 13.4945Z" fill="#FFE15A"/>
<path d="M6.52361 13.5435C6.55067 13.5435 6.5726 13.5215 6.5726 13.4944C6.5726 13.4672 6.55067 13.4453 6.52361 13.4453C6.49655 13.4453 6.47461 13.4672 6.47461 13.4944C6.47461 13.5215 6.49655 13.5435 6.52361 13.5435Z" fill="#F5F5F5"/>
<path d="M10.2922 14.7343H11.8568C11.7566 14.5049 11.56 14.3274 11.3162 14.2551C11.334 14.1412 11.3449 14.0148 11.3449 13.8791C11.3449 13.4066 11.2239 13.0236 11.0745 13.0236C10.9251 13.0236 10.8041 13.4067 10.8041 13.8791C10.8041 14.0147 10.815 14.1412 10.8328 14.2551C10.589 14.3274 10.3923 14.5049 10.2922 14.7343Z" fill="#F5F5F5"/>
<path d="M8.83895 22.4138C5.54267 22.4138 2.86084 19.7322 2.86084 16.4357H3.98877C3.98877 19.1101 6.16454 21.2858 8.83886 21.2858C11.5131 21.2858 13.6889 19.1101 13.6889 16.4357H14.817C14.817 19.7322 12.1354 22.4138 8.83895 22.4138Z" fill="#FFE15A"/>
<path d="M11.0541 11.094H10.0792C10.1771 11.094 10.2565 11.0147 10.2565 10.9167C10.2565 10.8188 10.1772 10.7395 10.0792 10.7395H8.83852C8.74067 10.7395 8.66128 10.8188 8.66128 10.9167C8.66128 11.0147 8.74057 11.094 8.83852 11.094H6.623C6.47613 11.094 6.35718 11.213 6.35718 11.3598C6.35718 11.5066 6.47622 11.6256 6.623 11.6256H7.42056C7.32271 11.6256 7.24341 11.7049 7.24341 11.8029C7.24341 11.9007 7.32271 11.9801 7.42066 11.9801H9.01587C9.11372 11.9801 9.19311 11.9008 9.19311 11.8029C9.19311 11.705 9.11382 11.6256 9.01596 11.6256H11.0542C11.2011 11.6256 11.3201 11.5066 11.3201 11.3598C11.3201 11.213 11.201 11.094 11.0541 11.094Z" fill="#C87878"/>
</svg>
