<svg width="50" height="33" viewBox="0 0 50 33" fill="none" xmlns="http://www.w3.org/2000/svg">
<path d="M49.9999 10.9196H0V0.8621C0 0.38603 0.386034 0 0.862104 0H49.1379C49.614 0 50 0.38603 50 0.8621L49.9999 10.9196Z" fill="#D0353E"/>
<path d="M49.1378 32.7586H0.862104C0.386034 32.7586 0 32.3726 0 31.8965V21.8391H49.9999V31.8965C49.9999 32.3727 49.6139 32.7586 49.1378 32.7586Z" fill="#464655"/>
<path d="M49.9999 10.9194H0V21.8383H49.9999V10.9194Z" fill="#F5F5F5"/>
<path d="M14.651 13.1874L15.3697 15.3424L17.6414 15.36C17.9354 15.3623 18.0574 15.7376 17.8208 15.9124L15.9933 17.262L16.6786 19.4279C16.7673 19.7083 16.448 19.9403 16.2088 19.7693L14.3606 18.4483L12.5125 19.7693C12.2731 19.9403 11.954 19.7083 12.0427 19.4279L12.7279 17.262L10.9005 15.9124C10.6639 15.7377 10.7858 15.3623 11.0799 15.36L13.3516 15.3424L14.0703 13.1874C14.1633 12.9084 14.5579 12.9084 14.651 13.1874Z" fill="#73AF00"/>
<path d="M35.929 13.1873L36.6478 15.3424L38.9195 15.3599C39.2135 15.3622 39.3355 15.7375 39.0989 15.9123L37.2714 17.2619L37.9567 19.4278C38.0453 19.7082 37.7261 19.9402 37.4868 19.7692L35.6387 18.4482L33.7906 19.7692C33.5512 19.9402 33.232 19.7082 33.3207 19.4278L34.006 17.2619L32.1786 15.9123C31.9419 15.7376 32.0639 15.3622 32.358 15.3599L34.6296 15.3424L35.3484 13.1873C35.4413 12.9083 35.836 12.9083 35.929 13.1873Z" fill="#73AF00"/>
</svg>
