<svg width="51" height="34" viewBox="0 0 51 34" fill="none" xmlns="http://www.w3.org/2000/svg">
<path d="M0.790039 27.5192H50.7899V32.6917C50.7899 33.1678 50.4039 33.5538 49.9278 33.5538H1.65215C1.17607 33.5538 0.790039 33.1678 0.790039 32.6917V27.5192Z" fill="#4173CD"/>
<path d="M1.65166 0.795166H49.9274C50.4035 0.795166 50.7896 1.1812 50.7896 1.65727V6.82977H0.789551V1.65718C0.789551 1.1811 1.17559 0.795166 1.65166 0.795166Z" fill="#4173CD"/>
<path d="M50.7895 6.82971H0.789551V27.5191H50.7895V6.82971Z" fill="#D0353E"/>
<path d="M50.7895 5.96741H0.789551V7.69151H50.7895V5.96741Z" fill="#FFE15A"/>
<path d="M50.7899 26.6569H0.790039V28.381H50.7899V26.6569Z" fill="#FFE15A"/>
<path d="M44.6277 18.0064H6.9165C6.66055 18.0064 6.45312 17.799 6.45312 17.5431V17.3965C6.45312 17.1405 6.66055 16.9331 6.9165 16.9331H44.6277C44.8836 16.9331 45.091 17.1405 45.091 17.3965V17.5431C45.091 17.7989 44.8836 18.0064 44.6277 18.0064Z" fill="#FFE15A"/>
<path d="M37.3093 15.8598L39.1875 15.0548L41.0658 15.8598L39.1875 16.6648L37.3093 15.8598Z" fill="#F5F5F5"/>
<path d="M37.7714 15.5168H10.2091C10.0197 15.5168 9.86621 15.6703 9.86621 15.8597C9.86621 16.0491 10.0196 16.2026 10.2091 16.2026H37.7713C37.9607 16.2026 38.1142 16.0491 38.1142 15.8597C38.1142 15.6704 37.9607 15.5168 37.7714 15.5168Z" fill="#FFE15A"/>
<path d="M39.262 13.9815L41.1402 13.1765L43.0184 13.9815L41.1402 14.7865L39.262 13.9815Z" fill="#F5F5F5"/>
<path d="M39.7237 13.6387H12.1615C11.9721 13.6387 11.8186 13.7921 11.8186 13.9816C11.8186 14.171 11.972 14.3245 12.1615 14.3245H39.7237C39.9131 14.3245 40.0666 14.171 40.0666 13.9816C40.0666 13.7922 39.9132 13.6387 39.7237 13.6387Z" fill="#FFE15A"/>
<path d="M25.7714 10.4934C21.005 10.4934 16.8466 13.1926 14.6194 17.2014C16.8465 21.2102 21.005 23.9094 25.7714 23.9094C30.5378 23.9094 34.6962 21.2103 36.9234 17.2014C34.6963 13.1926 30.5377 10.4934 25.7714 10.4934Z" fill="#F5F5F5"/>
<path d="M14.6194 17.2014C16.8465 21.2102 21.005 23.9094 25.7714 23.9094C26.5673 23.9094 27.3443 23.8278 28.1001 23.6836C27.5231 22.4169 25.4936 22.4191 25.369 21.9417C25.2348 21.4275 27.0236 21.5393 27.3366 21.1144C27.6497 20.6896 25.6373 20.5107 25.5479 20.0859C25.4584 19.661 26.3529 19.3704 26.5094 18.6996C26.6659 18.0288 27.0237 17.8276 27.2919 17.4251C27.5603 17.0227 26.8448 16.8885 26.6659 15.5469C26.4869 14.2053 25.436 14.0264 24.9218 12.9309C24.4075 11.8353 25.2349 11.0303 25.7715 10.4937C21.005 10.4934 16.8465 13.1925 14.6194 17.2014Z" fill="#464655"/>
<path d="M19.3303 14.7867H18.7937V16.9333H19.3303V14.7867Z" fill="#F5F5F5"/>
<path d="M20.4045 14.7867H19.8679V16.9333H20.4045V14.7867Z" fill="#F5F5F5"/>
<path d="M21.4778 14.7867H20.9412V16.9333H21.4778V14.7867Z" fill="#F5F5F5"/>
<path d="M22.551 14.7867H22.0144V16.9333H22.551V14.7867Z" fill="#F5F5F5"/>
<path d="M23.624 14.7867H23.0874V16.9333H23.624V14.7867Z" fill="#F5F5F5"/>
<path d="M24.6973 14.7867H24.1606V16.9333H24.6973V14.7867Z" fill="#F5F5F5"/>
<path d="M19.3303 18.0065H18.7937V20.1531H19.3303V18.0065Z" fill="#F5F5F5"/>
<path d="M20.4045 18.0065H19.8679V20.1531H20.4045V18.0065Z" fill="#F5F5F5"/>
<path d="M21.4778 18.0065H20.9412V20.1531H21.4778V18.0065Z" fill="#F5F5F5"/>
<path d="M22.551 18.0065H22.0144V20.1531H22.551V18.0065Z" fill="#F5F5F5"/>
<path d="M23.624 18.0065H23.0874V20.1531H23.624V18.0065Z" fill="#F5F5F5"/>
<path d="M24.6973 18.0065H24.1606V20.1531H24.6973V18.0065Z" fill="#F5F5F5"/>
<path d="M27.3806 14.7867H26.844V16.9333H27.3806V14.7867Z" fill="#464655"/>
<path d="M28.4539 14.7867H27.9172V16.9333H28.4539V14.7867Z" fill="#464655"/>
<path d="M29.5271 14.7867H28.9905V16.9333H29.5271V14.7867Z" fill="#464655"/>
<path d="M30.6003 14.7867H30.0637V16.9333H30.6003V14.7867Z" fill="#464655"/>
<path d="M31.6736 14.7867H31.137V16.9333H31.6736V14.7867Z" fill="#464655"/>
<path d="M32.7466 14.7867H32.21V16.9333H32.7466V14.7867Z" fill="#464655"/>
<path d="M27.3806 18.0065H26.844V20.1531H27.3806V18.0065Z" fill="#464655"/>
<path d="M28.4539 18.0065H27.9172V20.1531H28.4539V18.0065Z" fill="#464655"/>
<path d="M29.5271 18.0065H28.9905V20.1531H29.5271V18.0065Z" fill="#464655"/>
<path d="M30.6003 18.0065H30.0637V20.1531H30.6003V18.0065Z" fill="#464655"/>
<path d="M31.6736 18.0065H31.137V20.1531H31.6736V18.0065Z" fill="#464655"/>
<path d="M32.7466 18.0065H32.21V20.1531H32.7466V18.0065Z" fill="#464655"/>
<path d="M42.3308 16.8492C41.901 17.8475 40.678 17.965 41.3557 20.5099L41.7028 20.1576C41.7028 20.1576 42.0664 21.1168 42.9423 21.7628C42.9423 21.7628 44.0166 20.8623 44.0993 19.4333L44.5455 19.6291C44.5455 19.6291 44.3306 17.0253 42.3308 16.8492Z" fill="#245DBD"/>
<path d="M43.917 18.8949C43.8827 18.8949 43.8486 18.879 43.8227 18.8479C43.4018 18.3401 42.8657 18.1773 42.8605 18.1756C42.7897 18.1548 42.7463 18.0697 42.7639 17.9859C42.7815 17.9027 42.8533 17.8507 42.9237 17.8715C42.9485 17.8788 43.536 18.0557 44.0112 18.6288C44.0623 18.69 44.0615 18.7897 44.0097 18.8503C43.9839 18.8803 43.9506 18.8949 43.917 18.8949Z" fill="#D0353E"/>
<path d="M43.6137 20.0794C43.5742 20.0794 43.5349 20.0586 43.5088 20.0181C43.1966 19.5373 42.8425 19.2755 42.8389 19.273C42.7766 19.2278 42.7576 19.1311 42.7959 19.0571C42.8343 18.9838 42.9157 18.9611 42.978 19.0063C42.9943 19.018 43.3772 19.3018 43.7186 19.8273C43.763 19.8959 43.7522 19.9943 43.6944 20.047C43.6704 20.0689 43.6419 20.0794 43.6137 20.0794Z" fill="#D0353E"/>
<path d="M42.9194 21.3976C42.912 21.3976 42.9045 21.397 42.8967 21.3952C42.8251 21.3806 42.7766 21.2997 42.789 21.2147C42.841 20.8562 42.7975 20.2683 42.7261 19.9649C42.7065 19.8817 42.7475 19.7954 42.8175 19.7716C42.8884 19.7489 42.9605 19.7973 42.98 19.8806C43.0607 20.2231 43.1078 20.8625 43.049 21.2674C43.0381 21.3438 42.9823 21.3976 42.9194 21.3976Z" fill="#D0353E"/>
<path d="M41.9894 19.9515C41.9518 19.9515 41.9144 19.9325 41.8883 19.8958C41.8413 19.8298 41.8483 19.7306 41.904 19.675C41.9073 19.672 42.2448 19.3293 42.333 18.8553C42.3487 18.7709 42.4187 18.7177 42.4905 18.736C42.5617 18.7544 42.607 18.8382 42.5913 18.9227C42.4833 19.5026 42.0911 19.8984 42.0743 19.915C42.0494 19.9393 42.0194 19.9515 41.9894 19.9515Z" fill="#D0353E"/>
<path d="M41.6229 18.9493C41.5785 18.9493 41.5351 18.923 41.5101 18.8746C41.4718 18.8013 41.4913 18.7046 41.5536 18.6593C41.5585 18.6556 42.038 18.3026 42.1868 17.9173C42.2169 17.8378 42.296 17.8028 42.362 17.8395C42.4285 17.8757 42.4577 17.9686 42.4274 18.047C42.2449 18.5198 41.7143 18.9096 41.6919 18.9261C41.6701 18.942 41.6463 18.9493 41.6229 18.9493Z" fill="#D0353E"/>
<path d="M8.82551 17.1852C8.46623 18.02 7.44348 18.1183 8.01008 20.2462L8.30032 19.9516C8.30032 19.9516 8.60432 20.7537 9.33684 21.2939C9.33684 21.2939 10.2351 20.5409 10.3042 19.3459L10.6774 19.5096C10.6774 19.5096 10.4978 17.3327 8.82551 17.1852Z" fill="#245DBD"/>
<path d="M10.15 18.8959C10.1212 18.8959 10.0928 18.8826 10.0712 18.8565C9.71924 18.4319 9.271 18.2958 9.2666 18.2943C9.20742 18.2769 9.1711 18.2058 9.18594 18.1357C9.20059 18.066 9.26065 18.0226 9.31953 18.04C9.34024 18.0461 9.83145 18.194 10.2288 18.6733C10.2716 18.7244 10.2709 18.8077 10.2276 18.8584C10.206 18.8836 10.178 18.8959 10.15 18.8959Z" fill="#D0353E"/>
<path d="M9.89665 19.8861C9.86355 19.8861 9.83083 19.8687 9.80895 19.835C9.54782 19.4329 9.25183 19.214 9.2488 19.2119C9.19675 19.1741 9.18083 19.0933 9.21267 19.0313C9.24489 18.9699 9.31286 18.9511 9.36491 18.9889C9.37849 18.9985 9.6987 19.2359 9.98425 19.6754C10.0215 19.7327 10.0124 19.815 9.96403 19.859C9.94392 19.8774 9.92009 19.8861 9.89665 19.8861Z" fill="#D0353E"/>
<path d="M9.31608 20.9885C9.30984 20.9885 9.30361 20.9879 9.29718 20.9864C9.23728 20.9741 9.19676 20.9066 9.20708 20.8356C9.25062 20.5358 9.21419 20.0442 9.15448 19.7905C9.13812 19.7209 9.17231 19.6488 9.23094 19.6289C9.29017 19.61 9.35046 19.6504 9.36682 19.7199C9.43423 20.0064 9.47368 20.5409 9.42459 20.8796C9.41533 20.9434 9.36858 20.9885 9.31608 20.9885Z" fill="#D0353E"/>
<path d="M8.53822 19.7792C8.50668 19.7792 8.47543 19.7634 8.45355 19.7326C8.4142 19.6774 8.42006 19.5945 8.46674 19.548C8.46957 19.5454 8.75179 19.259 8.82533 18.8625C8.83851 18.7919 8.89701 18.7475 8.95697 18.7627C9.01654 18.778 9.05443 18.8482 9.04125 18.9188C8.95092 19.4037 8.62289 19.7347 8.60892 19.7486C8.58832 19.769 8.56332 19.7792 8.53822 19.7792Z" fill="#D0353E"/>
<path d="M8.23194 18.9413C8.19473 18.9413 8.1586 18.9193 8.1375 18.8789C8.10547 18.8175 8.12178 18.7366 8.17383 18.6988C8.17793 18.6958 8.57891 18.4006 8.70332 18.0783C8.72852 18.0118 8.79473 17.9826 8.85 18.0134C8.90547 18.0436 8.92989 18.1214 8.90459 18.1867C8.75186 18.5821 8.3084 18.9079 8.28965 18.9218C8.27149 18.9352 8.25157 18.9413 8.23194 18.9413Z" fill="#D0353E"/>
</svg>
