<svg width="50" height="33" viewBox="0 0 50 33" fill="none" xmlns="http://www.w3.org/2000/svg">
<path d="M49.1378 32.7587H0.862111C0.386031 32.7587 0 32.3726 0 31.8966V0.86211C0 0.38604 0.386031 0 0.862111 0H49.1379C49.614 0 50 0.38604 50 0.86211V31.8966C49.9999 32.3727 49.6139 32.7587 49.1378 32.7587Z" fill="#D0353E"/>
<path d="M12.9601 16.3792C12.9601 20.1907 16.0492 23.2799 19.8573 23.2799C21.2765 23.2799 22.5852 22.8438 23.6752 22.1046C23.8403 21.9927 24.0311 22.2085 23.8929 22.3524C22.329 23.9813 20.139 25 17.7022 25C12.7553 25 8.78212 20.8298 9.10314 15.8119C9.38344 11.4311 13.0155 7.91349 17.4028 7.76379C19.9565 7.67659 22.2596 8.70869 23.8869 10.4006C24.0265 10.5457 23.8361 10.7648 23.6695 10.6519C22.5806 9.91439 21.274 9.47869 19.8573 9.47869C16.0493 9.47869 12.9601 12.5747 12.9601 16.3792Z" fill="#F5F5F5"/>
<path d="M28.681 15.1932L27.3297 13.4255C27.2542 13.3267 27.0962 13.3809 27.0974 13.5053L27.1171 15.7302L25.0184 16.4691C24.901 16.5104 24.9039 16.6773 25.0225 16.7147L27.1446 17.3835L27.1988 19.6079C27.2018 19.7322 27.3616 19.7811 27.4337 19.6798L28.7255 17.8683L30.8578 18.5041C30.9769 18.5397 31.0728 18.4031 30.9988 18.3031L29.675 16.5146L30.9386 14.6833C31.0093 14.5809 30.9089 14.4475 30.791 14.487L28.681 15.1932Z" fill="#F5F5F5"/>
</svg>
