<svg width="50" height="33" viewBox="0 0 50 33" fill="none" xmlns="http://www.w3.org/2000/svg">
<path d="M49.1378 32.7586H0.862104C0.386034 32.7586 0 32.3726 0 31.8965V0.862129C0 0.386029 0.386034 0 0.862104 0H49.1379C49.614 0 50 0.386029 50 0.862129V31.8965C49.9999 32.3727 49.6139 32.7586 49.1378 32.7586Z" fill="#D0353E"/>
<path d="M0.863187 0C0.630077 0 0.420317 0.0944305 0.265137 0.24472L35.3459 32.7586H37.9322L2.58731 0H0.863187Z" fill="#F5F5F5"/>
<path d="M14.6558 0H12.0696L47.4143 32.7586H49.1385C49.3716 32.7586 49.5813 32.6641 49.7365 32.5138L14.6558 0Z" fill="#F5F5F5"/>
<path d="M2.58618 0.00012207L37.9309 32.7586H47.4136L12.0689 0.00012207H2.58618Z" fill="#464655"/>
</svg>
