<svg width="50" height="33" viewBox="0 0 50 33" fill="none" xmlns="http://www.w3.org/2000/svg">
<path d="M49.1377 32.7587H0.862108C0.386035 32.7587 0 32.3726 0 31.8966V0.86211C0 0.38604 0.386035 0 0.862108 0H49.1378C49.6139 0 50 0.38604 50 0.86211V31.8966C49.9999 32.3727 49.6138 32.7587 49.1377 32.7587Z" fill="#82AFFF"/>
<path d="M24.1378 16.3794H0.862108C0.386035 16.3794 0 15.9934 0 15.5173V0.86211C0 0.38604 0.386035 0 0.862108 0H24.1379C24.614 0 25 0.38604 25 0.86211V15.5173C24.9999 15.9934 24.6139 16.3794 24.1378 16.3794Z" fill="#41479B"/>
<path d="M24.1378 0.00012207H22.6404L14.655 5.23197V0.00012207H10.3447V5.23197L2.35937 0.00012207H0.862108C0.386035 0.00012207 0 0.386053 0 0.862123V1.54587L6.85106 6.03447H0V10.3449H6.85106L0 14.8335V15.5173C0 15.9934 0.386035 16.3794 0.862108 16.3794H2.35957L10.3449 11.1476V16.3794H14.6552V11.1476L22.6404 16.3794H24.1379C24.614 16.3794 25 15.9934 25 15.5173V14.8335L18.1489 10.3449H25V6.03457H18.1488L25 1.54597V0.862222C25 0.386052 24.6139 0.00012207 24.1378 0.00012207Z" fill="#F5F5F5"/>
<path d="M25.0005 6.89662H13.7935V0H11.2074V6.89662H0.000488281V9.48272H11.2074V16.3793H13.7935V9.48272H25.0005V6.89662Z" fill="#D0353E"/>
<path d="M9.48294 6.03447L0.411084 0.145752C0.169678 0.298482 0.000244141 0.555222 0.000244141 0.862052V0.906782L7.89955 6.03447H9.48294Z" fill="#D0353E"/>
<path d="M16.2384 6.03442L24.8687 0.43233C24.7187 0.17852 24.454 0 24.1377 0H23.9513L14.655 6.03442H16.2384Z" fill="#D0353E"/>
<path d="M8.73802 10.3448L0.124268 15.9362C0.272803 16.1961 0.541552 16.3792 0.86245 16.3792H1.02505L10.3215 10.3448H8.73802Z" fill="#D0353E"/>
<path d="M24.9865 15.5848L16.9137 10.3448H15.3303L24.4976 16.2954C24.7722 16.168 24.9606 15.9009 24.9865 15.5848Z" fill="#D0353E"/>
<path d="M21.3524 25.8874L20.8909 27.2711L19.4323 27.2824C19.2925 27.2835 19.2345 27.462 19.347 27.5451L20.5203 28.4116L20.0804 29.8023C20.0381 29.9357 20.19 30.046 20.3039 29.9648L21.4906 29.1166L22.6773 29.9648C22.7911 30.0461 22.943 29.9357 22.9009 29.8023L22.4609 28.4116L23.6343 27.5451C23.7468 27.462 23.6888 27.2835 23.5489 27.2824L22.0903 27.2711L21.6288 25.8874C21.5845 25.7546 21.3967 25.7546 21.3524 25.8874Z" fill="#FFE15A"/>
<path d="M43.8197 15.1114L43.3581 16.4951L41.8996 16.5064C41.7597 16.5075 41.7017 16.686 41.8142 16.7691L42.9875 17.6356L42.5476 19.0264C42.5053 19.1598 42.6573 19.27 42.7711 19.1888L43.9579 18.3406L45.1446 19.1888C45.2583 19.2701 45.4102 19.1598 45.3681 19.0264L44.9282 17.6356L46.1015 16.7691C46.214 16.686 46.156 16.5075 46.0161 16.5064L44.5576 16.4951L44.096 15.1114C44.0517 14.9786 43.8639 14.9786 43.8197 15.1114Z" fill="#FFE15A"/>
<path d="M43.8197 3.4737L43.3581 4.8573L41.8996 4.8687C41.7597 4.8697 41.7017 5.0483 41.8142 5.1314L42.9875 5.9979L42.5476 7.3886C42.5053 7.522 42.6573 7.6322 42.7711 7.551L43.9579 6.7028L45.1446 7.551C45.2583 7.6323 45.4102 7.522 45.3681 7.3886L44.9282 5.9979L46.1015 5.1314C46.214 5.0483 46.156 4.8697 46.0161 4.8687L44.5576 4.8573L44.096 3.4737C44.0517 3.3408 43.8639 3.3408 43.8197 3.4737Z" fill="#FFE15A"/>
<path d="M27.1281 18.6074L27.5837 19.993L26.4201 20.8726C26.3086 20.957 26.3684 21.1348 26.5084 21.1343L27.967 21.1293L28.444 22.5077C28.4898 22.6399 28.6774 22.6378 28.7202 22.5046L29.1661 21.1157L30.6245 21.088C30.7643 21.0852 30.8203 20.9061 30.7069 20.8244L29.5238 19.9711L29.9481 18.5755C29.9888 18.4417 29.8357 18.333 29.7229 18.4157L28.5459 19.2772L27.3498 18.4425C27.2349 18.3625 27.0843 18.4745 27.1281 18.6074Z" fill="#FFE15A"/>
<path d="M27.0204 24.588L27.476 25.9736L26.3124 26.8532C26.2009 26.9376 26.2608 27.1154 26.4007 27.1149L27.8593 27.1099L28.3363 28.4883C28.3821 28.6205 28.5697 28.6184 28.6125 28.4852L29.0584 27.0963L30.5168 27.0686C30.6566 27.0658 30.7126 26.8867 30.5992 26.805L29.4161 25.9517L29.8404 24.5561C29.8812 24.4223 29.728 24.3136 29.6152 24.3963L28.4382 25.2578L27.2421 24.4231C27.1274 24.3431 26.9767 24.4552 27.0204 24.588Z" fill="#FFE15A"/>
<path d="M33.3242 23.0793L33.7798 24.4649L32.6161 25.3445C32.5046 25.4289 32.5645 25.6067 32.7044 25.6062L34.1631 25.6011L34.6402 26.9795C34.686 27.1118 34.8736 27.1096 34.9163 26.9764L35.3622 25.5876L36.8205 25.5598C36.9604 25.5571 37.0163 25.378 36.903 25.2962L35.72 24.443L36.1442 23.0474C36.1849 22.9135 36.0319 22.8049 35.9191 22.8877L34.742 23.7492L33.5458 22.9144C33.4311 22.8343 33.2804 22.9464 33.3242 23.0793Z" fill="#FFE15A"/>
<path d="M33.2166 10.0406L33.6721 11.4262L32.5086 12.3058C32.397 12.3902 32.4569 12.568 32.5968 12.5675L34.0554 12.5625L34.5325 13.9409C34.5783 14.0731 34.7659 14.071 34.8087 13.9378L35.2545 12.5489L36.7129 12.5212C36.8528 12.5184 36.9087 12.3393 36.7954 12.2576L35.6123 11.4044L36.0366 10.0088C36.0773 9.87496 35.9242 9.76626 35.8114 9.84896L34.6343 10.7105L33.4382 9.87576C33.3234 9.79566 33.1728 9.90766 33.2166 10.0406Z" fill="#FFE15A"/>
<path d="M38.5505 8.26264L39.0061 9.64824L37.8425 10.5278C37.731 10.6122 37.7909 10.79 37.9308 10.7895L39.3894 10.7844L39.8664 12.1628C39.9122 12.2951 40.0998 12.2929 40.1426 12.1597L40.5885 10.7708L42.0469 10.7431C42.1867 10.7404 42.2427 10.5613 42.1293 10.4795L40.9462 9.62624L41.3705 8.23064C41.4113 8.09684 41.2581 7.98814 41.1453 8.07094L39.9683 8.93244L38.7722 8.09764C38.6575 8.01764 38.5068 8.12964 38.5505 8.26264Z" fill="#FFE15A"/>
</svg>
