<svg width="50" height="33" viewBox="0 0 50 33" fill="none" xmlns="http://www.w3.org/2000/svg">
<path d="M49.9999 5.45988H0V0.86211C0 0.38604 0.386034 0 0.862112 0H49.1379C49.614 0 50 0.38604 50 0.86211L49.9999 5.45988Z" fill="#464655"/>
<path d="M49.9999 5.46045H0V10.9201H49.9999V5.46045Z" fill="#FFE15A"/>
<path d="M49.9999 10.9194H0V16.3791H49.9999V10.9194Z" fill="#D0353E"/>
<path d="M49.9999 16.3794H0V21.8392H49.9999V16.3794Z" fill="#464655"/>
<path d="M49.9999 21.8392H0V27.299H49.9999V21.8392Z" fill="#FFE15A"/>
<path d="M49.1378 32.7586H0.862112C0.386034 32.7586 0 32.3726 0 31.8965V27.2988H49.9999V31.8965C49.9999 32.3727 49.6139 32.7586 49.1378 32.7586Z" fill="#D0353E"/>
<path d="M24.9999 21.5518C27.8565 21.5518 30.1723 19.236 30.1723 16.3794C30.1723 13.5227 27.8565 11.2069 24.9999 11.2069C22.1432 11.2069 19.8274 13.5227 19.8274 16.3794C19.8274 19.236 22.1432 21.5518 24.9999 21.5518Z" fill="#F5F5F5"/>
<path d="M25.3116 13.2301L25.821 13.0263C25.8949 12.9968 25.9306 12.9121 25.8979 12.8397C25.7836 12.5864 25.4775 12.0622 24.8956 12.0463C24.5272 12.0364 24.2517 12.1194 24.0962 12.1835C24.0168 12.2163 23.9849 12.3108 24.0283 12.3849L24.3357 12.9101L25.3116 13.2301Z" fill="#D0353E"/>
<path d="M24.8957 12.0463C24.8533 12.0451 24.8152 12.0476 24.7752 12.0488L24.7197 12.8621L25.0156 13.026L25.6557 12.4469C25.4872 12.2431 25.2402 12.0556 24.8957 12.0463Z" fill="#FFE15A"/>
<path d="M27.0874 18.0133L24.7839 15.3258C24.7839 14.7696 24.9849 14.3154 25.096 14.1065C25.4131 13.9649 25.6176 13.6162 25.5325 13.2313C25.4706 12.9513 25.2447 12.7229 24.9652 12.6591C24.4623 12.5441 24.0161 12.9229 24.0161 13.4061C24.0161 13.4243 24.0202 13.4414 24.0214 13.4593C23.5246 13.5903 23.4322 13.7501 23.4322 13.7501C23.4322 13.7501 23.7579 13.6635 24.0405 13.5894C24.0461 13.6125 24.0538 13.6346 24.0614 13.6569L23.504 13.8462L24.1126 13.7721C24.1802 13.8958 24.2804 13.9985 24.4014 14.0696C23.9465 14.436 23.2481 15.1246 23.2481 15.9019C23.2481 16.6127 23.7746 17.0863 24.4376 17.4011C24.6695 17.5113 24.8825 17.6565 25.0577 17.844L25.0642 17.851L25.1218 18.7334C24.6462 18.7334 24.0793 18.7334 23.824 18.7334C23.344 18.7334 23.2122 19.0453 23.2122 19.5612L23.4401 19.2373L23.632 19.5972L23.656 19.1892L23.86 19.4531C23.86 19.4531 23.858 19.1084 24.118 19.0631C24.2559 19.0391 24.7339 19.0091 25.14 19.0091L25.226 20.324C24.6753 20.3214 24.0521 20.5808 24.0521 20.5808C24.244 20.5448 24.7121 20.6169 24.7121 20.6169L24.634 20.8448C25.1739 20.5508 26.1638 20.5448 26.1638 20.5448C26.1638 20.5448 25.9479 20.3975 25.444 20.3399L25.4556 19.009H26.2477L26.3676 18.6971C26.3676 18.6971 25.9589 18.1548 25.9589 17.8677C26.5926 17.9881 27.0874 18.0133 27.0874 18.0133ZM25.458 18.7333L25.462 18.2768C25.6997 18.5317 25.8878 18.7333 25.8878 18.7333C25.8878 18.7333 25.7102 18.7333 25.458 18.7333Z" fill="#464655"/>
<path d="M27.0872 18.3972C26.8953 17.6294 26.054 17.3933 25.1676 16.8615C24.2078 16.2856 24.7836 15.3258 24.7836 15.3258C24.7836 15.3258 27.999 16.2696 28.239 17.6293C28.4258 18.6883 27.6631 19.357 27.2792 19.5489L27.4171 19.1649H26.7032C26.7032 19.1649 27.4591 18.577 27.4711 18.0131L27.0872 18.3972Z" fill="#696E7D"/>
<path d="M28.2396 17.6294C28.0791 16.7203 26.5899 15.9979 25.6196 15.6183C25.309 15.5837 25.0362 16.1057 25.888 16.6696C27.034 17.4281 27.0878 18.3973 27.0878 18.3973L27.4718 18.0133C27.4599 18.5772 26.7039 19.1652 26.7039 19.1652H27.4178L27.2799 19.5491C27.6637 19.3571 28.4264 18.6885 28.2396 17.6294Z" fill="#FFFCFF"/>
<path d="M28.2394 17.6294C28.1331 17.0269 27.4428 16.5071 26.7069 16.114C26.3525 16.0081 26.0438 16.0216 26.0438 16.0216C26.2598 16.1537 26.3558 16.4895 26.3558 16.4895C26.1998 16.3935 25.8518 16.4416 25.8518 16.4416C25.9486 16.5246 26.0403 16.6937 26.1017 16.8235C27.04 17.5529 27.0877 18.3973 27.0877 18.3973L27.4717 18.0133C27.4598 18.5772 26.7038 19.1652 26.7038 19.1652H27.4177L27.2798 19.5492C27.6636 19.3571 28.4263 18.6884 28.2394 17.6294Z" fill="#D0353E"/>
<path d="M24.472 13.4625C24.5429 13.4625 24.6005 13.4052 24.6005 13.3345C24.6005 13.2638 24.5429 13.2064 24.472 13.2064C24.4011 13.2064 24.3438 13.2638 24.3438 13.3345C24.3438 13.4052 24.4011 13.4625 24.472 13.4625Z" fill="#F5F5F5"/>
<path d="M24.1362 13.822C24.1362 13.822 23.8562 14.1499 24.0402 14.2459C24.2242 14.3419 24.4016 14.0693 24.4016 14.0693L24.1362 13.822Z" fill="#D0353E"/>
</svg>
