<svg width="50" height="33" viewBox="0 0 50 33" fill="none" xmlns="http://www.w3.org/2000/svg">
<path d="M49.1378 32.7586H0.862108C0.386034 32.7586 0 32.3726 0 31.8965V0.862101C0 0.386031 0.386034 0 0.862108 0H49.1379C49.614 0 50 0.386031 50 0.862101V31.8965C49.9999 32.3727 49.6139 32.7586 49.1378 32.7586Z" fill="#F5F5F5"/>
<path d="M49.9999 2.52H0V0.862101C0 0.386031 0.386034 0 0.862108 0H49.1379C49.614 0 50 0.386031 50 0.862101L49.9999 2.52Z" fill="#D0353E"/>
<path d="M49.9999 10.0796H0V12.5995H49.9999V10.0796Z" fill="#D0353E"/>
<path d="M49.9999 5.03955H0V7.55945H49.9999V5.03955Z" fill="#D0353E"/>
<path d="M49.9999 17.6394H0.862108C0.386034 17.6394 0 17.2533 0 16.7773V15.1194H49.9999V17.6394Z" fill="#D0353E"/>
<path d="M49.9999 25.1997H0V27.7196H49.9999V25.1997Z" fill="#D0353E"/>
<path d="M49.1378 32.7585H0.862108C0.386034 32.7585 0 32.3724 0 31.8964V30.2385H49.9999V31.8965C49.9999 32.3725 49.6139 32.7585 49.1378 32.7585Z" fill="#D0353E"/>
<path d="M49.9999 20.1594H0V22.6794H49.9999V20.1594Z" fill="#D0353E"/>
<path d="M22.4137 0H0.862108C0.386034 0 0 0.38594 0 0.86201V16.777C0 17.2531 0.386034 17.6391 0.862108 17.6391H22.4138C22.8899 17.6391 23.2759 17.2531 23.2759 16.777V0.86201C23.2758 0.38594 22.8898 0 22.4137 0Z" fill="#41479B"/>
<path d="M2.42151 1.9789L2.61233 2.5512L3.21556 2.5557C3.29368 2.5564 3.32601 2.656 3.26321 2.7024L2.77796 3.0608L2.95999 3.6359C2.98362 3.7103 2.89876 3.7721 2.83519 3.7265L2.34446 3.3759L1.85374 3.7266C1.79017 3.7721 1.7055 3.7104 1.72894 3.636L1.91097 3.0609L1.42572 2.7025C1.36292 2.656 1.39525 2.5565 1.47337 2.5558L2.07659 2.5513L2.26741 1.979C2.29202 1.9048 2.39671 1.9048 2.42151 1.9789Z" fill="#F5F5F5"/>
<path d="M2.42102 4.97232L2.61184 5.54452L3.21507 5.54912C3.29319 5.54982 3.32551 5.64942 3.26272 5.69582L2.77747 6.05422L2.9595 6.62932C2.98313 6.70372 2.89827 6.76542 2.83469 6.71992L2.34397 6.36922L1.85325 6.72002C1.78968 6.76542 1.70501 6.70382 1.72845 6.62942L1.91048 6.05432L1.42523 5.69592C1.36243 5.64942 1.39476 5.54992 1.47288 5.54922L2.0761 5.54462L2.26692 4.97232C2.29153 4.89822 2.39622 4.89822 2.42102 4.97232Z" fill="#F5F5F5"/>
<path d="M2.42102 7.96589L2.61184 8.53819L3.21507 8.54279C3.29319 8.54349 3.32551 8.64309 3.26272 8.68949L2.77747 9.04789L2.9595 9.62299C2.98313 9.69739 2.89827 9.75909 2.83469 9.71359L2.34397 9.36289L1.85325 9.71369C1.78968 9.75909 1.70501 9.69749 1.72845 9.62309L1.91048 9.04799L1.42523 8.68959C1.36243 8.64309 1.39476 8.54359 1.47288 8.54289L2.0761 8.53829L2.26692 7.96599C2.29153 7.89189 2.39622 7.89189 2.42102 7.96589Z" fill="#F5F5F5"/>
<path d="M2.42102 10.9596L2.61184 11.5319L3.21507 11.5365C3.29319 11.5371 3.32551 11.6368 3.26272 11.6831L2.77747 12.0415L2.9595 12.6166C2.98313 12.691 2.89827 12.7528 2.83469 12.7073L2.34397 12.3566L1.85325 12.7074C1.78968 12.7528 1.70501 12.6911 1.72845 12.6167L1.91048 12.0416L1.42523 11.6832C1.36243 11.6368 1.39476 11.5372 1.47288 11.5366L2.0761 11.532L2.26692 10.9597C2.29153 10.8855 2.39622 10.8855 2.42102 10.9596Z" fill="#F5F5F5"/>
<path d="M2.42102 13.9531L2.61184 14.5254L3.21507 14.53C3.29319 14.5307 3.32551 14.6303 3.26272 14.6767L2.77747 15.0351L2.9595 15.6102C2.98313 15.6846 2.89827 15.7463 2.83469 15.7008L2.34397 15.3501L1.85325 15.7009C1.78968 15.7463 1.70501 15.6847 1.72845 15.6103L1.91048 15.0352L1.42523 14.6768C1.36243 14.6303 1.39476 14.5308 1.47288 14.5301L2.0761 14.5255L2.26692 13.9532C2.29153 13.8789 2.39622 13.8789 2.42102 13.9531Z" fill="#F5F5F5"/>
<path d="M4.74452 3.44637L4.93534 4.01857L5.53856 4.02317C5.61668 4.02387 5.64901 4.12347 5.58622 4.16987L5.10096 4.52827L5.28299 5.10337C5.30663 5.17777 5.22176 5.23947 5.15819 5.19397L4.66747 4.84327L4.17675 5.19397C4.11317 5.23937 4.0285 5.17777 4.05194 5.10337L4.23397 4.52827L3.74872 4.16987C3.68593 4.12337 3.71825 4.02387 3.79638 4.02317L4.3996 4.01857L4.59042 3.44637C4.61493 3.37237 4.71981 3.37237 4.74452 3.44637Z" fill="#F5F5F5"/>
<path d="M4.74452 6.4401L4.93534 7.0124L5.53856 7.017C5.61668 7.0177 5.64901 7.1173 5.58622 7.1637L5.10096 7.5221L5.28299 8.0972C5.30663 8.1716 5.22176 8.2333 5.15819 8.1878L4.66747 7.837L4.17675 8.1878C4.11317 8.2332 4.0285 8.1717 4.05194 8.0972L4.23397 7.5221L3.74872 7.1637C3.68593 7.1172 3.71825 7.0177 3.79638 7.017L4.3996 7.0124L4.59042 6.4401C4.61493 6.366 4.71981 6.366 4.74452 6.4401Z" fill="#F5F5F5"/>
<path d="M4.74452 9.4335L4.93534 10.0057L5.53856 10.0103C5.61668 10.011 5.64901 10.1106 5.58622 10.157L5.10096 10.5154L5.28299 11.0905C5.30663 11.1649 5.22176 11.2266 5.15819 11.1811L4.66747 10.8304L4.17675 11.1811C4.11317 11.2265 4.0285 11.1649 4.05194 11.0905L4.23397 10.5154L3.74872 10.157C3.68593 10.1105 3.71825 10.011 3.79638 10.0103L4.3996 10.0057L4.59042 9.4335C4.61493 9.3594 4.71981 9.3594 4.74452 9.4335Z" fill="#F5F5F5"/>
<path d="M4.74452 12.4272L4.93534 12.9994L5.53856 13.004C5.61668 13.0047 5.64901 13.1043 5.58622 13.1507L5.10096 13.5091L5.28299 14.0842C5.30663 14.1586 5.22176 14.2203 5.15819 14.1748L4.66747 13.824L4.17675 14.1748C4.11317 14.2202 4.0285 14.1586 4.05194 14.0842L4.23397 13.5091L3.74872 13.1507C3.68593 13.1042 3.71825 13.0047 3.79638 13.004L4.3996 12.9994L4.59042 12.4272C4.61493 12.3531 4.71981 12.3531 4.74452 12.4272Z" fill="#F5F5F5"/>
<path d="M7.06824 1.97867L7.25906 2.55097L7.86229 2.55557C7.94041 2.55627 7.97273 2.65587 7.90994 2.70227L7.42469 3.06067L7.60672 3.63577C7.63035 3.71017 7.54549 3.77187 7.48192 3.72637L6.99119 3.37557L6.50047 3.72637C6.4369 3.77177 6.35223 3.71017 6.37567 3.63577L6.5577 3.06067L6.07245 2.70227C6.00965 2.65577 6.04198 2.55627 6.1201 2.55557L6.72332 2.55097L6.91414 1.97867C6.93875 1.90457 7.04354 1.90457 7.06824 1.97867Z" fill="#F5F5F5"/>
<path d="M7.06824 4.97232L7.25906 5.54452L7.86229 5.54912C7.94041 5.54982 7.97273 5.64942 7.90994 5.69582L7.42469 6.05422L7.60672 6.62932C7.63035 6.70372 7.54549 6.76542 7.48192 6.71992L6.99119 6.36912L6.50047 6.71992C6.4369 6.76532 6.35223 6.70372 6.37567 6.62932L6.5577 6.05422L6.07245 5.69582C6.00965 5.64932 6.04198 5.54982 6.1201 5.54912L6.72332 5.54452L6.91414 4.97232C6.93875 4.89822 7.04354 4.89822 7.06824 4.97232Z" fill="#F5F5F5"/>
<path d="M7.06824 7.96598L7.25906 8.53818L7.86229 8.54278C7.94041 8.54348 7.97273 8.64308 7.90994 8.68948L7.42469 9.04788L7.60672 9.62298C7.63035 9.69738 7.54549 9.75908 7.48192 9.71358L6.99119 9.36278L6.50047 9.71358C6.4369 9.75898 6.35223 9.69738 6.37567 9.62298L6.5577 9.04788L6.07245 8.68948C6.00965 8.64298 6.04198 8.54348 6.1201 8.54278L6.72332 8.53818L6.91414 7.96598C6.93875 7.89188 7.04354 7.89188 7.06824 7.96598Z" fill="#F5F5F5"/>
<path d="M7.06824 10.9595L7.25906 11.5317L7.86229 11.5363C7.94041 11.537 7.97273 11.6366 7.90994 11.683L7.42469 12.0414L7.60672 12.6165C7.63035 12.6909 7.54549 12.7526 7.48192 12.7071L6.99119 12.3563L6.50047 12.7071C6.4369 12.7525 6.35223 12.6909 6.37567 12.6165L6.5577 12.0414L6.07245 11.683C6.00965 11.6365 6.04198 11.537 6.1201 11.5363L6.72332 11.5317L6.91414 10.9595C6.93875 10.8853 7.04354 10.8853 7.06824 10.9595Z" fill="#F5F5F5"/>
<path d="M7.06824 13.9532L7.25906 14.5254L7.86229 14.53C7.94041 14.5307 7.97273 14.6303 7.90994 14.6767L7.42469 15.0351L7.60672 15.6102C7.63035 15.6846 7.54549 15.7463 7.48192 15.7008L6.99119 15.35L6.50047 15.7008C6.4369 15.7462 6.35223 15.6846 6.37567 15.6102L6.5577 15.0351L6.07245 14.6767C6.00965 14.6302 6.04198 14.5307 6.1201 14.53L6.72332 14.5254L6.91414 13.9532C6.93875 13.8789 7.04354 13.8789 7.06824 13.9532Z" fill="#F5F5F5"/>
<path d="M9.39198 3.44637L9.5828 4.01857L10.1861 4.02317C10.2642 4.02387 10.2965 4.12347 10.2337 4.16987L9.74843 4.52827L9.93046 5.10337C9.95409 5.17777 9.86923 5.23947 9.80565 5.19397L9.31493 4.84327L8.82421 5.19397C8.76064 5.23937 8.67597 5.17777 8.69941 5.10337L8.88144 4.52827L8.39618 4.16987C8.33339 4.12337 8.36571 4.02387 8.44384 4.02317L9.04706 4.01857L9.23788 3.44637C9.26239 3.37237 9.36727 3.37237 9.39198 3.44637Z" fill="#F5F5F5"/>
<path d="M9.39198 6.4401L9.5828 7.0124L10.1861 7.017C10.2642 7.0177 10.2965 7.1173 10.2337 7.1637L9.74843 7.5221L9.93046 8.0972C9.95409 8.1716 9.86923 8.2333 9.80565 8.1878L9.31493 7.837L8.82421 8.1878C8.76064 8.2332 8.67597 8.1717 8.69941 8.0972L8.88144 7.5221L8.39618 7.1637C8.33339 7.1172 8.36571 7.0177 8.44384 7.017L9.04706 7.0124L9.23788 6.4401C9.26239 6.366 9.36727 6.366 9.39198 6.4401Z" fill="#F5F5F5"/>
<path d="M9.39198 9.4335L9.5828 10.0057L10.1861 10.0103C10.2642 10.011 10.2965 10.1106 10.2337 10.157L9.74843 10.5154L9.93046 11.0905C9.95409 11.1649 9.86923 11.2266 9.80565 11.1811L9.31493 10.8304L8.82421 11.1811C8.76064 11.2265 8.67597 11.1649 8.69941 11.0905L8.88144 10.5154L8.39618 10.157C8.33339 10.1105 8.36571 10.011 8.44384 10.0103L9.04706 10.0057L9.23788 9.4335C9.26239 9.3594 9.36727 9.3594 9.39198 9.4335Z" fill="#F5F5F5"/>
<path d="M9.39198 12.4272L9.5828 12.9994L10.1861 13.004C10.2642 13.0047 10.2965 13.1043 10.2337 13.1507L9.74843 13.5091L9.93046 14.0842C9.95409 14.1586 9.86923 14.2203 9.80565 14.1748L9.31493 13.824L8.82421 14.1748C8.76064 14.2202 8.67597 14.1586 8.69941 14.0842L8.88144 13.5091L8.39618 13.1507C8.33339 13.1042 8.36571 13.0047 8.44384 13.004L9.04706 12.9994L9.23788 12.4272C9.26239 12.3531 9.36727 12.3531 9.39198 12.4272Z" fill="#F5F5F5"/>
<path d="M11.7153 1.97867L11.9061 2.55097L12.5093 2.55557C12.5874 2.55627 12.6198 2.65587 12.557 2.70227L12.0717 3.06067L12.2537 3.63577C12.2774 3.71017 12.1925 3.77187 12.1289 3.72637L11.6381 3.37557L11.1474 3.72637C11.0838 3.77177 10.9992 3.71017 11.0226 3.63577L11.2046 3.06067L10.7194 2.70227C10.6566 2.65577 10.6889 2.55627 10.767 2.55557L11.3703 2.55097L11.5611 1.97867C11.5858 1.90457 11.6906 1.90457 11.7153 1.97867Z" fill="#F5F5F5"/>
<path d="M11.7153 4.97232L11.9061 5.54452L12.5093 5.54912C12.5874 5.54982 12.6198 5.64942 12.557 5.69582L12.0717 6.05422L12.2537 6.62932C12.2774 6.70372 12.1925 6.76542 12.1289 6.71992L11.6381 6.36912L11.1474 6.71992C11.0838 6.76532 10.9992 6.70372 11.0226 6.62932L11.2046 6.05422L10.7194 5.69582C10.6566 5.64932 10.6889 5.54982 10.767 5.54912L11.3703 5.54452L11.5611 4.97232C11.5858 4.89822 11.6906 4.89822 11.7153 4.97232Z" fill="#F5F5F5"/>
<path d="M11.7153 7.96598L11.9061 8.53818L12.5093 8.54278C12.5874 8.54348 12.6198 8.64308 12.557 8.68948L12.0717 9.04788L12.2537 9.62298C12.2774 9.69738 12.1925 9.75908 12.1289 9.71358L11.6381 9.36278L11.1474 9.71358C11.0838 9.75898 10.9992 9.69738 11.0226 9.62298L11.2046 9.04788L10.7194 8.68948C10.6566 8.64298 10.6889 8.54348 10.767 8.54278L11.3703 8.53818L11.5611 7.96598C11.5858 7.89188 11.6906 7.89188 11.7153 7.96598Z" fill="#F5F5F5"/>
<path d="M11.7153 10.9595L11.9061 11.5317L12.5093 11.5363C12.5874 11.537 12.6198 11.6366 12.557 11.683L12.0717 12.0414L12.2537 12.6165C12.2774 12.6909 12.1925 12.7526 12.1289 12.7071L11.6381 12.3563L11.1474 12.7071C11.0838 12.7525 10.9992 12.6909 11.0226 12.6165L11.2046 12.0414L10.7194 11.683C10.6566 11.6365 10.6889 11.537 10.767 11.5363L11.3703 11.5317L11.5611 10.9595C11.5858 10.8853 11.6906 10.8853 11.7153 10.9595Z" fill="#F5F5F5"/>
<path d="M11.7153 13.9532L11.9061 14.5254L12.5093 14.53C12.5874 14.5307 12.6198 14.6303 12.557 14.6767L12.0717 15.0351L12.2537 15.6102C12.2774 15.6846 12.1925 15.7463 12.1289 15.7008L11.6381 15.35L11.1474 15.7008C11.0838 15.7462 10.9992 15.6846 11.0226 15.6102L11.2046 15.0351L10.7194 14.6767C10.6566 14.6302 10.6889 14.5307 10.767 14.53L11.3703 14.5254L11.5611 13.9532C11.5858 13.8789 11.6906 13.8789 11.7153 13.9532Z" fill="#F5F5F5"/>
<path d="M14.039 3.44637L14.2298 4.01857L14.833 4.02317C14.9111 4.02387 14.9435 4.12347 14.8807 4.16987L14.3954 4.52827L14.5775 5.10337C14.6011 5.17777 14.5162 5.23947 14.4527 5.19397L13.9619 4.84327L13.4712 5.19397C13.4076 5.23937 13.323 5.17777 13.3464 5.10337L13.5284 4.52827L13.0432 4.16987C12.9804 4.12337 13.0127 4.02387 13.0908 4.02317L13.6941 4.01857L13.8849 3.44637C13.9096 3.37237 14.0143 3.37237 14.039 3.44637Z" fill="#F5F5F5"/>
<path d="M14.039 6.4401L14.2298 7.0124L14.833 7.017C14.9111 7.0177 14.9435 7.1173 14.8807 7.1637L14.3954 7.5221L14.5775 8.0972C14.6011 8.1716 14.5162 8.2333 14.4527 8.1878L13.9619 7.837L13.4712 8.1878C13.4076 8.2332 13.323 8.1717 13.3464 8.0972L13.5284 7.5221L13.0432 7.1637C12.9804 7.1172 13.0127 7.0177 13.0908 7.017L13.6941 7.0124L13.8849 6.4401C13.9096 6.366 14.0143 6.366 14.039 6.4401Z" fill="#F5F5F5"/>
<path d="M14.039 9.4335L14.2298 10.0057L14.833 10.0103C14.9111 10.011 14.9435 10.1106 14.8807 10.157L14.3954 10.5154L14.5775 11.0905C14.6011 11.1649 14.5162 11.2266 14.4527 11.1811L13.9619 10.8304L13.4712 11.1811C13.4076 11.2265 13.323 11.1649 13.3464 11.0905L13.5284 10.5154L13.0432 10.157C12.9804 10.1105 13.0127 10.011 13.0908 10.0103L13.6941 10.0057L13.8849 9.4335C13.9096 9.3594 14.0143 9.3594 14.039 9.4335Z" fill="#F5F5F5"/>
<path d="M14.039 12.4272L14.2298 12.9994L14.833 13.004C14.9111 13.0047 14.9435 13.1043 14.8807 13.1507L14.3954 13.5091L14.5775 14.0842C14.6011 14.1586 14.5162 14.2203 14.4527 14.1748L13.9619 13.824L13.4712 14.1748C13.4076 14.2202 13.323 14.1586 13.3464 14.0842L13.5284 13.5091L13.0432 13.1507C12.9804 13.1042 13.0127 13.0047 13.0908 13.004L13.6941 12.9994L13.8849 12.4272C13.9096 12.3531 14.0143 12.3531 14.039 12.4272Z" fill="#F5F5F5"/>
<path d="M16.3627 1.97867L16.5535 2.55097L17.1567 2.55557C17.2349 2.55627 17.2672 2.65587 17.2044 2.70227L16.7192 3.06067L16.9012 3.63577C16.9248 3.71017 16.84 3.77187 16.7764 3.72637L16.2857 3.37557L15.7949 3.72637C15.7314 3.77177 15.6467 3.71017 15.6701 3.63577L15.8522 3.06067L15.3669 2.70227C15.3041 2.65577 15.3364 2.55627 15.4146 2.55557L16.0178 2.55097L16.2086 1.97867C16.2331 1.90457 16.338 1.90457 16.3627 1.97867Z" fill="#F5F5F5"/>
<path d="M16.3627 4.97232L16.5535 5.54452L17.1567 5.54912C17.2349 5.54982 17.2672 5.64942 17.2044 5.69582L16.7192 6.05422L16.9012 6.62932C16.9248 6.70372 16.84 6.76542 16.7764 6.71992L16.2857 6.36912L15.7949 6.71992C15.7314 6.76532 15.6467 6.70372 15.6701 6.62932L15.8522 6.05422L15.3669 5.69582C15.3041 5.64932 15.3364 5.54982 15.4146 5.54912L16.0178 5.54452L16.2086 4.97232C16.2331 4.89822 16.338 4.89822 16.3627 4.97232Z" fill="#F5F5F5"/>
<path d="M16.3627 7.96598L16.5535 8.53818L17.1567 8.54278C17.2349 8.54348 17.2672 8.64308 17.2044 8.68948L16.7192 9.04788L16.9012 9.62298C16.9248 9.69738 16.84 9.75908 16.7764 9.71358L16.2857 9.36278L15.7949 9.71358C15.7314 9.75898 15.6467 9.69738 15.6701 9.62298L15.8522 9.04788L15.3669 8.68948C15.3041 8.64298 15.3364 8.54348 15.4146 8.54278L16.0178 8.53818L16.2086 7.96598C16.2331 7.89188 16.338 7.89188 16.3627 7.96598Z" fill="#F5F5F5"/>
<path d="M16.3627 10.9595L16.5535 11.5317L17.1567 11.5363C17.2349 11.537 17.2672 11.6366 17.2044 11.683L16.7192 12.0414L16.9012 12.6165C16.9248 12.6909 16.84 12.7526 16.7764 12.7071L16.2857 12.3563L15.7949 12.7071C15.7314 12.7525 15.6467 12.6909 15.6701 12.6165L15.8522 12.0414L15.3669 11.683C15.3041 11.6365 15.3364 11.537 15.4146 11.5363L16.0178 11.5317L16.2086 10.9595C16.2331 10.8853 16.338 10.8853 16.3627 10.9595Z" fill="#F5F5F5"/>
<path d="M16.3627 13.9532L16.5535 14.5254L17.1567 14.53C17.2349 14.5307 17.2672 14.6303 17.2044 14.6767L16.7192 15.0351L16.9012 15.6102C16.9248 15.6846 16.84 15.7463 16.7764 15.7008L16.2857 15.35L15.7949 15.7008C15.7314 15.7462 15.6467 15.6846 15.6701 15.6102L15.8522 15.0351L15.3669 14.6767C15.3041 14.6302 15.3364 14.5307 15.4146 14.53L16.0178 14.5254L16.2086 13.9532C16.2331 13.8789 16.338 13.8789 16.3627 13.9532Z" fill="#F5F5F5"/>
<path d="M18.6862 3.44637L18.877 4.01857L19.4802 4.02317C19.5583 4.02387 19.5906 4.12347 19.5278 4.16987L19.0426 4.52827L19.2246 5.10337C19.2483 5.17777 19.1634 5.23947 19.0998 5.19397L18.6091 4.84327L18.1184 5.19397C18.0548 5.23937 17.9701 5.17777 17.9936 5.10337L18.1756 4.52827L17.6904 4.16987C17.6276 4.12337 17.6599 4.02387 17.738 4.02317L18.3412 4.01857L18.5321 3.44637C18.5567 3.37237 18.6615 3.37237 18.6862 3.44637Z" fill="#F5F5F5"/>
<path d="M18.6862 6.4401L18.877 7.0124L19.4802 7.017C19.5583 7.0177 19.5906 7.1173 19.5278 7.1637L19.0426 7.5221L19.2246 8.0972C19.2483 8.1716 19.1634 8.2333 19.0998 8.1878L18.6091 7.837L18.1184 8.1878C18.0548 8.2332 17.9701 8.1717 17.9936 8.0972L18.1756 7.5221L17.6904 7.1637C17.6276 7.1172 17.6599 7.0177 17.738 7.017L18.3412 7.0124L18.5321 6.4401C18.5567 6.366 18.6615 6.366 18.6862 6.4401Z" fill="#F5F5F5"/>
<path d="M18.6862 9.4335L18.877 10.0057L19.4802 10.0103C19.5583 10.011 19.5906 10.1106 19.5278 10.157L19.0426 10.5154L19.2246 11.0905C19.2483 11.1649 19.1634 11.2266 19.0998 11.1811L18.6091 10.8304L18.1184 11.1811C18.0548 11.2265 17.9701 11.1649 17.9936 11.0905L18.1756 10.5154L17.6904 10.157C17.6276 10.1105 17.6599 10.011 17.738 10.0103L18.3412 10.0057L18.5321 9.4335C18.5567 9.3594 18.6615 9.3594 18.6862 9.4335Z" fill="#F5F5F5"/>
<path d="M18.6862 12.4272L18.877 12.9994L19.4802 13.004C19.5583 13.0047 19.5906 13.1043 19.5278 13.1507L19.0426 13.5091L19.2246 14.0842C19.2483 14.1586 19.1634 14.2203 19.0998 14.1748L18.6091 13.824L18.1184 14.1748C18.0548 14.2202 17.9701 14.1586 17.9936 14.0842L18.1756 13.5091L17.6904 13.1507C17.6276 13.1042 17.6599 13.0047 17.738 13.004L18.3412 12.9994L18.5321 12.4272C18.5567 12.3531 18.6615 12.3531 18.6862 12.4272Z" fill="#F5F5F5"/>
<path d="M21.0097 1.97867L21.2005 2.55097L21.8037 2.55557C21.8818 2.55627 21.9142 2.65587 21.8514 2.70227L21.3661 3.06067L21.5481 3.63577C21.5718 3.71017 21.4869 3.77187 21.4233 3.72637L20.9326 3.37557L20.4419 3.72637C20.3783 3.77177 20.2937 3.71017 20.3171 3.63577L20.4991 3.06067L20.0139 2.70227C19.9511 2.65577 19.9834 2.55627 20.0615 2.55557L20.6648 2.55097L20.8556 1.97867C20.8802 1.90457 20.9849 1.90457 21.0097 1.97867Z" fill="#F5F5F5"/>
<path d="M21.0097 4.97232L21.2005 5.54452L21.8037 5.54912C21.8818 5.54982 21.9142 5.64942 21.8514 5.69582L21.3661 6.05422L21.5481 6.62932C21.5718 6.70372 21.4869 6.76542 21.4233 6.71992L20.9326 6.36912L20.4419 6.71992C20.3783 6.76532 20.2937 6.70372 20.3171 6.62932L20.4991 6.05422L20.0139 5.69582C19.9511 5.64932 19.9834 5.54982 20.0615 5.54912L20.6648 5.54452L20.8556 4.97232C20.8802 4.89822 20.9849 4.89822 21.0097 4.97232Z" fill="#F5F5F5"/>
<path d="M21.0097 7.96598L21.2005 8.53818L21.8037 8.54278C21.8818 8.54348 21.9142 8.64308 21.8514 8.68948L21.3661 9.04788L21.5481 9.62298C21.5718 9.69738 21.4869 9.75908 21.4233 9.71358L20.9326 9.36278L20.4419 9.71358C20.3783 9.75898 20.2937 9.69738 20.3171 9.62298L20.4991 9.04788L20.0139 8.68948C19.9511 8.64298 19.9834 8.54348 20.0615 8.54278L20.6648 8.53818L20.8556 7.96598C20.8802 7.89188 20.9849 7.89188 21.0097 7.96598Z" fill="#F5F5F5"/>
<path d="M21.0097 10.9595L21.2005 11.5317L21.8037 11.5363C21.8818 11.537 21.9142 11.6366 21.8514 11.683L21.3661 12.0414L21.5481 12.6165C21.5718 12.6909 21.4869 12.7526 21.4233 12.7071L20.9326 12.3563L20.4419 12.7071C20.3783 12.7525 20.2937 12.6909 20.3171 12.6165L20.4991 12.0414L20.0139 11.683C19.9511 11.6365 19.9834 11.537 20.0615 11.5363L20.6648 11.5317L20.8556 10.9595C20.8802 10.8853 20.9849 10.8853 21.0097 10.9595Z" fill="#F5F5F5"/>
<path d="M21.0097 13.9532L21.2005 14.5254L21.8037 14.53C21.8818 14.5307 21.9142 14.6303 21.8514 14.6767L21.3661 15.0351L21.5481 15.6102C21.5718 15.6846 21.4869 15.7463 21.4233 15.7008L20.9326 15.35L20.4419 15.7008C20.3783 15.7462 20.2937 15.6846 20.3171 15.6102L20.4991 15.0351L20.0139 14.6767C19.9511 14.6302 19.9834 14.5307 20.0615 14.53L20.6648 14.5254L20.8556 13.9532C20.8802 13.8789 20.9849 13.8789 21.0097 13.9532Z" fill="#F5F5F5"/>
</svg>
