<svg width="50" height="33" viewBox="0 0 50 33" fill="none" xmlns="http://www.w3.org/2000/svg">
<path d="M49.1378 0H0.862103C0.386034 0 0 0.38593 0 0.86201V31.8964C0 32.3725 0.386034 32.7585 0.862103 32.7585H49.1379C49.6139 32.7585 50 32.3725 50 31.8964V0.86201C49.9999 0.38593 49.6138 0 49.1378 0Z" fill="#F5F5F5"/>
<path d="M49.9999 3.63989H18.1035V7.27959H49.9999V3.63989Z" fill="#4173CD"/>
<path d="M49.9999 7.27979H0V10.9194H49.9999V7.27979Z" fill="#F5F5F5"/>
<path d="M49.9999 10.9192H18.1035V14.5588H49.9999V10.9192Z" fill="#4173CD"/>
<path d="M49.9999 14.5591H0V18.1987H49.9999V14.5591Z" fill="#F5F5F5"/>
<path d="M49.9999 18.1997H0V21.8394H49.9999V18.1997Z" fill="#4173CD"/>
<path d="M49.9999 21.8391H0V25.4788H49.9999V21.8391Z" fill="#F5F5F5"/>
<path d="M49.9999 25.4788H0V29.1185H49.9999V25.4788Z" fill="#4173CD"/>
<path d="M6.2478 2.28198L7.68988 8.95508L9.94646 8.02028L6.2478 2.28198Z" fill="#FFE15A"/>
<path d="M6.2478 2.28198L8.81811 8.48768L7.68988 8.95508L6.2478 2.28198Z" fill="#FFCD5A"/>
<path d="M11.8557 15.8216L10.4136 9.14844L8.15698 10.0832L11.8557 15.8216Z" fill="#FFE15A"/>
<path d="M11.8558 15.8216L9.2854 9.61584L10.4136 9.14844L11.8558 15.8216Z" fill="#FFCD5A"/>
<path d="M15.8214 6.2478L9.14844 7.6899L10.0831 9.9464L15.8214 6.2478Z" fill="#FFE15A"/>
<path d="M15.8214 6.2478L9.61573 8.8181L9.14844 7.6899L15.8214 6.2478Z" fill="#FFCD5A"/>
<path d="M2.28198 11.8558L8.95502 10.4137L8.02025 8.15723L2.28198 11.8558Z" fill="#FFE15A"/>
<path d="M2.28198 11.8557L8.48764 9.2854L8.95502 10.4136L2.28198 11.8557Z" fill="#FFCD5A"/>
<path d="M11.8557 2.28198L8.15698 8.02028L10.4136 8.95508L11.8557 2.28198Z" fill="#FFE15A"/>
<path d="M11.8557 2.28198L9.28529 8.48768L8.15698 8.02028L11.8557 2.28198Z" fill="#FFCD5A"/>
<path d="M6.2478 15.8216L9.94646 10.0832L7.68988 9.14844L6.2478 15.8216Z" fill="#FFE15A"/>
<path d="M6.2478 15.8214L8.8181 9.61572L9.94646 10.0831L6.2478 15.8214Z" fill="#FFCD5A"/>
<path d="M15.8214 11.8558L10.0831 8.15723L9.14844 10.4137L15.8214 11.8558Z" fill="#FFE15A"/>
<path d="M15.8215 11.8558L9.61572 9.28553L10.0831 8.15723L15.8215 11.8558Z" fill="#FFCD5A"/>
<path d="M2.28198 6.2478L8.02025 9.9464L8.95502 7.6899L2.28198 6.2478Z" fill="#FFE15A"/>
<path d="M2.28198 6.2478L8.48764 8.8181L8.02025 9.9464L2.28198 6.2478Z" fill="#FFCD5A"/>
<path d="M9.0516 1.72412L7.83032 8.44102H10.2728L9.0516 1.72412Z" fill="#FFE15A"/>
<path d="M9.0516 1.72412V8.44102H7.83032L9.0516 1.72412Z" fill="#FFCD5A"/>
<path d="M9.0516 16.3793L10.2728 9.66235H7.83032L9.0516 16.3793Z" fill="#FFE15A"/>
<path d="M9.05176 16.3793V9.66235H10.273L9.05176 16.3793Z" fill="#FFCD5A"/>
<path d="M16.3793 9.05162L9.66235 7.83032V10.2728L16.3793 9.05162Z" fill="#FFE15A"/>
<path d="M16.3793 9.05162H9.66235V7.83032L16.3793 9.05162Z" fill="#FFCD5A"/>
<path d="M1.72412 9.05162L8.441 10.2728V7.83032L1.72412 9.05162Z" fill="#FFE15A"/>
<path d="M1.72412 9.05176H8.441V10.2729L1.72412 9.05176Z" fill="#FFCD5A"/>
<path d="M14.2333 3.87036L8.62012 7.75636L10.3473 9.48346L14.2333 3.87036Z" fill="#FFE15A"/>
<path d="M14.2333 3.87036L9.4837 8.61996L8.62012 7.75636L14.2333 3.87036Z" fill="#FFCD5A"/>
<path d="M3.87061 14.2331L9.48368 10.3471L7.75654 8.61987L3.87061 14.2331Z" fill="#FFE15A"/>
<path d="M3.87061 14.233L8.62011 9.4834L9.48368 10.3469L3.87061 14.233Z" fill="#FFCD5A"/>
<path d="M14.2333 14.2331L10.3473 8.61987L8.62012 10.3471L14.2333 14.2331Z" fill="#FFE15A"/>
<path d="M14.233 14.2331L9.4834 9.48347L10.3469 8.61987L14.233 14.2331Z" fill="#FFCD5A"/>
<path d="M3.87061 3.87036L7.75654 9.48346L9.48368 7.75636L3.87061 3.87036Z" fill="#FFE15A"/>
<path d="M3.87061 3.87036L8.62011 8.61996L7.75654 9.48346L3.87061 3.87036Z" fill="#FFCD5A"/>
<path d="M9.05175 11.4947C10.4007 11.4947 11.4941 10.4012 11.4941 9.05226C11.4941 7.70336 10.4007 6.60986 9.05175 6.60986C7.70287 6.60986 6.60938 7.70336 6.60938 9.05226C6.60938 10.4012 7.70287 11.4947 9.05175 11.4947Z" fill="#FFE15A"/>
</svg>
