<svg width="50" height="33" viewBox="0 0 50 33" fill="none" xmlns="http://www.w3.org/2000/svg">
<path d="M49.9999 10.9196H0V0.862101C0 0.386031 0.386038 0 0.862108 0H49.1379C49.614 0 50 0.386031 50 0.862101L49.9999 10.9196Z" fill="#FFE15A"/>
<path d="M49.1378 32.7586H0.862108C0.386038 32.7586 0 32.3725 0 31.8965V21.8391H49.9999V31.8965C49.9999 32.3726 49.6139 32.7586 49.1378 32.7586Z" fill="#D0353E"/>
<path d="M49.9999 10.9194H0V21.8384H49.9999V10.9194Z" fill="#41479B"/>
<path d="M17.3972 18.4786L17.6132 19.1264L18.296 19.1316C18.3843 19.1323 18.4211 19.2451 18.35 19.2977L17.8007 19.7032L18.0067 20.3543C18.0334 20.4386 17.9374 20.5083 17.8654 20.4568L17.3099 20.0598L16.7545 20.4568C16.6826 20.5082 16.5866 20.4385 16.6131 20.3543L16.8191 19.7032L16.2699 19.2977C16.1988 19.2452 16.2354 19.1323 16.3239 19.1316L17.0066 19.1264L17.2226 18.4786C17.2506 18.3948 17.3693 18.3948 17.3972 18.4786Z" fill="#F5F5F5"/>
<path d="M18.7238 16.4165L18.6081 17.0894L19.2073 17.4168C19.2848 17.4592 19.2638 17.5759 19.1763 17.5885L18.5005 17.6864L18.3744 18.3574C18.358 18.4442 18.2406 18.4604 18.2014 18.3811L17.8996 17.7686L17.2223 17.856C17.1346 17.8674 17.083 17.7605 17.1463 17.6988L17.6356 17.2224L17.3432 16.6054C17.3054 16.5256 17.391 16.4434 17.4692 16.4846L18.0734 16.8027L18.57 16.334C18.6342 16.2733 18.7387 16.3294 18.7238 16.4165Z" fill="#F5F5F5"/>
<path d="M20.4025 14.6119L20.082 15.2148L20.5487 15.7132C20.6091 15.7777 20.5527 15.882 20.4656 15.8666L19.793 15.7481L19.4632 16.3461C19.4205 16.4234 19.3038 16.402 19.2915 16.3145L19.1964 15.6384L18.5258 15.5095C18.439 15.4928 18.4234 15.3752 18.5029 15.3364L19.1165 15.037L19.0319 14.3595C19.0208 14.2718 19.1279 14.2206 19.1893 14.2842L19.6637 14.7752L20.2819 14.4853C20.3621 14.4478 20.4439 14.5338 20.4025 14.6119Z" fill="#F5F5F5"/>
<path d="M22.4225 13.4922L21.9514 13.9865L22.2666 14.5922C22.3074 14.6706 22.2249 14.7558 22.1451 14.7175L21.5295 14.4221L21.0507 14.909C20.9888 14.9721 20.8822 14.9199 20.8939 14.8323L20.9845 14.1554L20.3735 13.8506C20.2944 13.8111 20.311 13.6936 20.3979 13.6777L21.0696 13.5548L21.1706 12.8795C21.1837 12.7921 21.3006 12.7716 21.3426 12.8494L21.667 13.4502L22.3406 13.3377C22.428 13.3233 22.4834 13.4282 22.4225 13.4922Z" fill="#F5F5F5"/>
<path d="M24.7445 12.9734L24.1581 13.3234L24.2995 13.9914C24.3179 14.0779 24.2155 14.138 24.1489 14.0798L23.635 13.6304L23.0433 13.9712C22.9666 14.0153 22.878 13.9366 22.9128 13.8553L23.1815 13.2274L22.6744 12.7701C22.6088 12.7109 22.6564 12.6022 22.7444 12.6102L23.4244 12.6717L23.7028 12.0481C23.7388 11.9675 23.8569 11.979 23.8765 12.0651L24.0282 12.7308L24.7072 12.8028C24.7948 12.8123 24.8204 12.9281 24.7445 12.9734Z" fill="#F5F5F5"/>
<path d="M32.6042 18.4786L32.3882 19.1264L31.7055 19.1316C31.6171 19.1323 31.5804 19.2451 31.6515 19.2977L32.2007 19.7032L31.9947 20.3543C31.9681 20.4386 32.0641 20.5083 32.136 20.4568L32.6915 20.0598L33.247 20.4568C33.3188 20.5082 33.4148 20.4385 33.3883 20.3543L33.1823 19.7032L33.7315 19.2977C33.8026 19.2452 33.766 19.1323 33.6775 19.1316L32.9948 19.1264L32.7788 18.4786C32.7508 18.3948 32.6321 18.3948 32.6042 18.4786Z" fill="#F5F5F5"/>
<path d="M31.278 16.4165L31.3938 17.0894L30.7945 17.4168C30.717 17.4592 30.738 17.5759 30.8255 17.5885L31.5013 17.6864L31.6275 18.3574C31.6439 18.4442 31.7613 18.4604 31.8004 18.3811L32.1023 17.7686L32.7795 17.856C32.8672 17.8674 32.9189 17.7605 32.8555 17.6988L32.3662 17.2224L32.6586 16.6054C32.6964 16.5256 32.6108 16.4434 32.5326 16.4846L31.9284 16.8027L31.4318 16.334C31.3676 16.2733 31.2631 16.3294 31.278 16.4165Z" fill="#F5F5F5"/>
<path d="M29.5992 14.6119L29.9197 15.2148L29.453 15.7132C29.3925 15.7777 29.449 15.882 29.5361 15.8666L30.2086 15.7481L30.5384 16.3461C30.5811 16.4234 30.6978 16.402 30.7101 16.3145L30.8052 15.6384L31.4758 15.5095C31.5626 15.4928 31.5783 15.3752 31.4988 15.3364L30.8851 15.037L30.9698 14.3595C30.9808 14.2718 30.8738 14.2206 30.8124 14.2842L30.3379 14.7752L29.7198 14.4853C29.6395 14.4478 29.5578 14.5338 29.5992 14.6119Z" fill="#F5F5F5"/>
<path d="M27.5789 13.4922L28.05 13.9865L27.7348 14.5922C27.694 14.6706 27.7765 14.7558 27.8563 14.7175L28.4719 14.4221L28.9507 14.909C29.0126 14.9721 29.1192 14.9199 29.1074 14.8323L29.0168 14.1554L29.6278 13.8506C29.7069 13.8111 29.6903 13.6936 29.6034 13.6777L28.9317 13.5548L28.8307 12.8795C28.8176 12.7921 28.7007 12.7716 28.6587 12.8494L28.3343 13.4502L27.6608 13.3377C27.5734 13.3233 27.518 13.4282 27.5789 13.4922Z" fill="#F5F5F5"/>
<path d="M25.2571 12.9734L25.8435 13.3234L25.7021 13.9914C25.6837 14.0779 25.7861 14.138 25.8526 14.0798L26.3666 13.6304L26.9583 13.9712C27.035 14.0153 27.1236 13.9366 27.0888 13.8553L26.8201 13.2274L27.3271 12.7701C27.3928 12.7109 27.3452 12.6022 27.2572 12.6102L26.5771 12.6717L26.2988 12.0481C26.2628 11.9675 26.1447 11.979 26.1251 12.0651L25.9733 12.7308L25.2943 12.8028C25.2067 12.8123 25.1812 12.9281 25.2571 12.9734Z" fill="#F5F5F5"/>
</svg>
