<svg width="73" height="73" viewBox="0 0 73 73" fill="none" xmlns="http://www.w3.org/2000/svg">
<g filter="url(#filter0_d_2359_2942)">
<rect x="12" y="11" width="49" height="49" rx="9.24444" fill="white"/>
<path d="M42.0644 37.9909C41.4649 37.9909 40.9772 37.5028 40.9772 36.9033C40.9772 36.3038 41.4649 35.8161 42.0644 35.8161C42.664 35.8161 43.1517 36.3037 43.1517 36.9033C43.1517 37.5029 42.664 37.9909 42.0644 37.9909ZM30.0467 37.9909C29.4472 37.9909 28.9595 37.5028 28.9595 36.9033C28.9595 36.3038 29.4471 35.8161 30.0467 35.8161C30.6462 35.8161 31.1339 36.3037 31.1339 36.9033C31.1339 37.5029 30.6463 37.9909 30.0467 37.9909ZM42.4544 31.4414L44.6274 27.6779C44.6872 27.574 44.7034 27.4507 44.6723 27.3349C44.6413 27.2191 44.5656 27.1204 44.4619 27.0603C44.358 27.0006 44.2347 26.9844 44.1189 27.0154C44.0032 27.0464 43.9044 27.1221 43.8444 27.2258L41.6442 31.0369C39.9616 30.2691 38.0719 29.8413 36.0556 29.8413C34.0392 29.8413 32.1496 30.2691 30.467 31.0369L28.2667 27.2258C28.2067 27.1221 28.1079 27.0464 27.9922 27.0154C27.8764 26.9844 27.7531 27.0006 27.6492 27.0603C27.5454 27.1203 27.4697 27.2191 27.4386 27.3349C27.4076 27.4507 27.4238 27.574 27.4837 27.6779L29.6567 31.4414C25.9254 33.4708 23.3733 37.2484 23 41.7113H49.1111C48.7375 37.2485 46.1854 33.4708 42.4544 31.4413" fill="#3DDB85"/>
<rect x="12.1444" y="11.1444" width="48.7111" height="48.7111" rx="9.1" stroke="#D9D9D9" stroke-width="0.288889"/>
</g>
<defs>
<filter id="filter0_d_2359_2942" x="0.444444" y="0.599999" width="72.1111" height="72.1111" filterUnits="userSpaceOnUse" color-interpolation-filters="sRGB">
<feFlood flood-opacity="0" result="BackgroundImageFix"/>
<feColorMatrix in="SourceAlpha" type="matrix" values="0 0 0 0 0 0 0 0 0 0 0 0 0 0 0 0 0 0 127 0" result="hardAlpha"/>
<feOffset dy="1.15556"/>
<feGaussianBlur stdDeviation="5.77778"/>
<feComposite in2="hardAlpha" operator="out"/>
<feColorMatrix type="matrix" values="0 0 0 0 0.0367917 0 0 0 0 0.0348958 0 0 0 0 0.0484375 0 0 0 0.1 0"/>
<feBlend mode="normal" in2="BackgroundImageFix" result="effect1_dropShadow_2359_2942"/>
<feBlend mode="normal" in="SourceGraphic" in2="effect1_dropShadow_2359_2942" result="shape"/>
</filter>
</defs>
</svg>
