<svg width="22" height="28" viewBox="0 0 22 28" fill="none" xmlns="http://www.w3.org/2000/svg">
<path d="M20.8333 7.5521V19.9479C20.8333 24.9063 19.5938 26.1459 14.6354 26.1459H7.19792C2.23958 26.1459 1 24.9063 1 19.9479V7.5521C1 2.59377 2.23958 1.35419 7.19792 1.35419H14.6354C19.5938 1.35419 20.8333 2.59377 20.8333 7.5521Z" stroke="#0878FF" stroke-width="1.85938" stroke-linecap="round" stroke-linejoin="round"/>
<path d="M13.3958 5.69275H8.4375" stroke="#0878FF" stroke-width="1.85938" stroke-linecap="round" stroke-linejoin="round"/>
<path d="M10.9165 22.5511C11.9776 22.5511 12.8378 21.6909 12.8378 20.6297C12.8378 19.5686 11.9776 18.7084 10.9165 18.7084C9.85534 18.7084 8.99512 19.5686 8.99512 20.6297C8.99512 21.6909 9.85534 22.5511 10.9165 22.5511Z" stroke="#0878FF" stroke-width="1.85938" stroke-linecap="round" stroke-linejoin="round"/>
</svg>
