<svg width="122" height="46" viewBox="0 0 122 46" fill="none" xmlns="http://www.w3.org/2000/svg">
<path fill-rule="evenodd" clip-rule="evenodd" d="M76.299 21.5928C75.0001 23.3544 73.7138 24.9897 71.1049 24.511C71.0666 24.4447 71.0272 24.3794 70.9883 24.315C70.8107 24.0209 70.6438 23.7444 70.643 23.4675C70.6245 17.1896 70.6252 10.9117 70.6259 4.63372L70.6261 1.0418V0H64.0775V45.1195H70.8373V29.6645C70.9861 29.6645 71.1309 29.6729 71.2713 29.6812C71.5645 29.6983 71.839 29.7144 72.093 29.6499C73.4303 29.3103 74.2168 29.9732 74.9039 31.0051C77.8063 35.3647 80.7317 39.7089 83.6578 44.0525C84.1189 44.7369 84.6244 45.2606 85.6145 45.214C86.9295 45.1522 88.2479 45.164 89.5665 45.1758C90.1678 45.1812 90.7691 45.1865 91.3701 45.1849C91.5371 45.1845 91.7041 45.1679 91.9117 45.1472L91.9118 45.1472C92.0218 45.1363 92.1431 45.1242 92.2819 45.1128L79.2808 27.2088L91.2982 13.0078C90.6224 13.0078 89.9615 13.0048 89.3118 13.0018H89.3116H89.3114C87.4967 12.9934 85.7685 12.9854 84.0426 13.0454C83.582 13.0614 83.056 13.4826 82.703 13.8536C82.0086 14.5837 81.3675 15.3656 80.7269 16.1467L80.7242 16.15L80.7231 16.1514C80.5958 16.3065 80.4687 16.4616 80.3411 16.6163C79.976 17.0588 79.6071 17.4984 79.2381 17.938L79.2381 17.9381L79.238 17.9381C78.2321 19.1368 77.2259 20.3356 76.299 21.5928ZM106.924 45.4336C109.682 44.9397 112.044 43.5731 114.283 41.832C114.777 41.4178 115.224 41.0525 115.747 40.6245C115.806 41.0266 115.867 41.4181 115.927 41.8024L115.927 41.8029C116.07 42.7275 116.207 43.6102 116.3 44.4976C116.356 45.0361 116.559 45.2014 117.062 45.1937C117.235 45.1911 117.408 45.1881 117.581 45.1851L117.582 45.1851C118.636 45.167 119.691 45.1489 120.742 45.2043C121.576 45.2483 121.813 44.9691 121.809 44.1362C121.792 40.2724 121.792 36.4084 121.792 32.5445V32.5393C121.792 29.5262 121.791 26.5131 121.783 23.5C121.78 22.1257 121.738 20.7436 121.584 19.3798C121.401 17.7499 120.728 16.2872 119.604 15.0826C117.706 13.0491 115.196 12.3082 112.57 12.2918C109.089 12.27 105.606 12.4041 102.125 12.5381L102.124 12.5381L102.124 12.5381C101.228 12.5726 100.331 12.6072 99.435 12.639C98.4261 12.6748 97.4192 12.768 96.4 12.8623L96.3999 12.8623L96.3997 12.8624C95.9303 12.9058 95.4582 12.9495 94.9821 12.9879C94.9821 13.4391 94.9859 13.8775 94.9896 14.3068V14.307V14.3072C94.9981 15.3002 95.0062 16.2447 94.9664 17.1873C94.9331 17.975 95.248 18.1699 95.9639 18.1277C97.5536 18.0339 99.1461 17.9512 100.738 17.9374C101.327 17.9323 101.917 17.9258 102.506 17.9193L102.507 17.9193C105.189 17.8898 107.873 17.8603 110.552 17.9606C112.746 18.0428 114.176 18.9181 114.696 20.6638C114.981 21.6206 115.006 22.6552 115.031 23.7056V23.7057C115.043 24.1766 115.054 24.6506 115.089 25.1222C113.921 25.1222 112.77 25.1214 111.63 25.1207C108.462 25.1187 105.387 25.1167 102.311 25.1308C101.444 25.1347 100.555 25.1448 99.7151 25.3298C95.4794 26.2632 93.4003 29.1253 93.3007 33.1322C93.2587 34.8194 93.3671 36.5143 93.4824 38.2006C93.6232 40.2586 94.4299 42.1051 96.001 43.3984C99.2295 46.056 103.038 46.1296 106.924 45.4336ZM100.265 34.6453C100.267 34.3514 100.269 34.0576 100.269 33.7639C100.272 31.4141 101.27 30.4225 103.448 30.4225L114.97 30.4225C114.97 30.8382 114.972 31.2526 114.973 31.666V31.6668C114.977 32.9172 114.981 34.1584 114.947 35.3984C114.94 35.6575 114.678 35.9698 114.45 36.1535C111.226 38.7526 107.603 40.1706 103.402 39.8933C101.724 39.7825 100.308 38.3377 100.272 36.5973C100.259 35.9469 100.262 35.2961 100.265 34.6453ZM52.8792 24.5543V13.0633H59.4404V44.9934C59.0775 44.9934 58.7136 44.9945 58.3491 44.9956C57.0726 44.9994 55.7873 45.0033 54.5036 44.9604C54.332 44.9546 54.0721 44.506 54.0317 44.236C53.9585 43.7463 53.9223 43.2512 53.8862 42.7559L53.8862 42.7559C53.8634 42.4434 53.8405 42.1308 53.8084 41.8194C53.7989 41.7278 53.737 41.6417 53.668 41.5457C53.6338 41.4981 53.5979 41.4481 53.5657 41.3938C53.0816 41.6599 52.601 41.9283 52.1217 42.1959L52.1214 42.1961C51.0671 42.7847 50.0192 43.3699 48.9534 43.9205C45.765 45.5678 42.3445 46.2553 38.7951 45.9153C35.2034 45.5713 32.6922 43.8754 31.7932 39.9949C31.647 39.364 31.5563 38.7045 31.5551 38.0579C31.5419 31.184 31.5437 24.31 31.5454 17.4361L31.5462 13.5453C31.5463 13.447 31.5535 13.3486 31.5625 13.2269L31.5626 13.2268C31.5674 13.1618 31.5727 13.0902 31.5776 13.0084C32.0431 13.0084 32.5062 13.0072 32.9673 13.0059H32.9674C34.573 13.0015 36.1549 12.9973 37.7352 13.0463C37.9455 13.0528 38.2761 13.5692 38.3135 13.8779C38.3753 14.3874 38.3632 14.9058 38.3512 15.4242L38.3512 15.4247C38.3464 15.6338 38.3415 15.8429 38.3415 16.0514C38.3415 17.4225 38.3425 18.7937 38.3435 20.1649C38.346 23.8414 38.3486 27.5179 38.3329 31.1943C38.3302 31.824 38.2916 32.4538 38.253 33.0835V33.0836C38.2092 33.7977 38.1655 34.5116 38.1741 35.2251C38.1841 36.0488 38.3204 36.8939 38.5472 37.6871C38.9873 39.2263 40.1988 40.0697 41.8008 40.0759C45.1188 40.0888 48.0507 38.8461 50.8733 37.256C51.0384 37.1631 51.1973 37.0592 51.3563 36.9553L51.3564 36.9553C51.5326 36.8401 51.7088 36.725 51.8932 36.6248C52.6338 36.2223 52.8816 35.5742 52.8808 34.7757C52.8781 32.3086 52.8785 29.8415 52.8789 27.3375C52.8791 26.4154 52.8792 25.4882 52.8792 24.5543ZM26.9571 39.3195H23.8032C22.5627 39.3195 21.3296 39.3215 20.1018 39.3235C16.9382 39.3287 13.8098 39.3338 10.6817 39.3043C9.32942 39.2915 7.95331 39.029 7.33392 37.6157C6.99807 36.8494 6.83113 35.9447 6.83379 35.1031C6.85006 29.9552 6.89017 24.8073 6.93028 19.6594C6.953 16.7435 6.97573 13.8275 6.99411 10.9115C6.99972 10.0225 6.96764 9.13323 6.93558 8.24433C6.92077 7.83356 6.90595 7.42287 6.89486 7.01233H0.0629356C0.0555313 7.06614 0.0478172 7.11231 0.0409301 7.15352C0.028272 7.22928 0.0184075 7.28832 0.0183944 7.34736C0.0177754 9.99872 0.0135056 12.6501 0.00923574 15.3015C-0.00300713 22.9039 -0.01525 30.5062 0.0585682 38.1077C0.0804714 40.3633 1.15701 42.3097 3.0915 43.7001C4.62781 44.8044 6.36757 45.1639 8.15822 45.1647C12.8803 45.1669 17.6025 45.0878 22.3243 45.0086C22.7185 45.002 23.1126 44.9954 23.5068 44.9889C24.2883 44.9759 25.0688 44.9064 25.8567 44.8363C26.2217 44.8038 26.5882 44.7712 26.9571 44.744V39.3195Z" fill="#0516B1"/>
</svg>
